%TF.GenerationSoftware,KiCad,Pcbnew,5.1.9+dfsg1-1~bpo10+1*%
%TF.CreationDate,2021-11-03T11:38:12+01:00*%
%TF.ProjectId,SynthoGame_top,53796e74-686f-4476-916d-655f746f702e,rev?*%
%TF.SameCoordinates,Original*%
%TF.FileFunction,Soldermask,Top*%
%TF.FilePolarity,Negative*%
%FSLAX46Y46*%
G04 Gerber Fmt 4.6, Leading zero omitted, Abs format (unit mm)*
G04 Created by KiCad (PCBNEW 5.1.9+dfsg1-1~bpo10+1) date 2021-11-03 11:38:12*
%MOMM*%
%LPD*%
G01*
G04 APERTURE LIST*
%ADD10C,0.100000*%
%ADD11C,2.700000*%
%ADD12C,1.000000*%
%ADD13C,7.000000*%
%ADD14C,8.000000*%
G04 APERTURE END LIST*
D10*
G36*
X90650000Y-104650000D02*
G01*
X88200000Y-104650000D01*
X88200000Y-102500000D01*
X90650000Y-102500000D01*
X90650000Y-104650000D01*
G37*
X90650000Y-104650000D02*
X88200000Y-104650000D01*
X88200000Y-102500000D01*
X90650000Y-102500000D01*
X90650000Y-104650000D01*
G36*
X90600000Y-90900000D02*
G01*
X88150000Y-90900000D01*
X88150000Y-88750000D01*
X90600000Y-88750000D01*
X90600000Y-90900000D01*
G37*
X90600000Y-90900000D02*
X88150000Y-90900000D01*
X88150000Y-88750000D01*
X90600000Y-88750000D01*
X90600000Y-90900000D01*
G36*
X90700000Y-77175000D02*
G01*
X88250000Y-77175000D01*
X88250000Y-75025000D01*
X90700000Y-75025000D01*
X90700000Y-77175000D01*
G37*
X90700000Y-77175000D02*
X88250000Y-77175000D01*
X88250000Y-75025000D01*
X90700000Y-75025000D01*
X90700000Y-77175000D01*
G36*
X90650000Y-63500000D02*
G01*
X88200000Y-63500000D01*
X88200000Y-61350000D01*
X90650000Y-61350000D01*
X90650000Y-63500000D01*
G37*
X90650000Y-63500000D02*
X88200000Y-63500000D01*
X88200000Y-61350000D01*
X90650000Y-61350000D01*
X90650000Y-63500000D01*
D11*
%TO.C,H1*%
X203980000Y-45320000D03*
%TD*%
%TO.C,H2*%
X85700000Y-45330000D03*
%TD*%
%TO.C,H3*%
X85700000Y-120720000D03*
%TD*%
%TO.C,H4*%
X203976000Y-120711800D03*
%TD*%
D12*
%TO.C,TP1*%
X206800000Y-111390000D03*
%TD*%
%TO.C,TP2*%
X204910000Y-112210000D03*
%TD*%
D13*
%TO.C,H5*%
X82110000Y-62430000D03*
%TD*%
%TO.C,H6*%
X82110000Y-76120000D03*
%TD*%
%TO.C,H7*%
X82140000Y-89840000D03*
%TD*%
%TO.C,H8*%
X82140000Y-103530000D03*
%TD*%
D14*
%TO.C,H9*%
X207610000Y-82940000D03*
%TD*%
M02*
