%TF.GenerationSoftware,KiCad,Pcbnew,5.1.9+dfsg1-1~bpo10+1*%
%TF.CreationDate,2021-11-03T11:38:12+01:00*%
%TF.ProjectId,SynthoGame_top,53796e74-686f-4476-916d-655f746f702e,rev?*%
%TF.SameCoordinates,Original*%
%TF.FileFunction,Paste,Bot*%
%TF.FilePolarity,Positive*%
%FSLAX46Y46*%
G04 Gerber Fmt 4.6, Leading zero omitted, Abs format (unit mm)*
G04 Created by KiCad (PCBNEW 5.1.9+dfsg1-1~bpo10+1) date 2021-11-03 11:38:12*
%MOMM*%
%LPD*%
G01*
G04 APERTURE LIST*
%ADD10C,0.100000*%
%ADD11R,1.000000X3.150000*%
G04 APERTURE END LIST*
%TO.C,C61*%
G36*
G01*
X209882807Y-104877609D02*
X209642391Y-104637193D01*
G75*
G02*
X209642391Y-104439203I98995J98995D01*
G01*
X209840381Y-104241213D01*
G75*
G02*
X210038371Y-104241213I98995J-98995D01*
G01*
X210278787Y-104481629D01*
G75*
G02*
X210278787Y-104679619I-98995J-98995D01*
G01*
X210080797Y-104877609D01*
G75*
G02*
X209882807Y-104877609I-98995J98995D01*
G01*
G37*
G36*
G01*
X210561629Y-104198787D02*
X210321213Y-103958371D01*
G75*
G02*
X210321213Y-103760381I98995J98995D01*
G01*
X210519203Y-103562391D01*
G75*
G02*
X210717193Y-103562391I98995J-98995D01*
G01*
X210957609Y-103802807D01*
G75*
G02*
X210957609Y-104000797I-98995J-98995D01*
G01*
X210759619Y-104198787D01*
G75*
G02*
X210561629Y-104198787I-98995J98995D01*
G01*
G37*
%TD*%
%TO.C,C62*%
G36*
G01*
X212151629Y-107398787D02*
X211911213Y-107158371D01*
G75*
G02*
X211911213Y-106960381I98995J98995D01*
G01*
X212109203Y-106762391D01*
G75*
G02*
X212307193Y-106762391I98995J-98995D01*
G01*
X212547609Y-107002807D01*
G75*
G02*
X212547609Y-107200797I-98995J-98995D01*
G01*
X212349619Y-107398787D01*
G75*
G02*
X212151629Y-107398787I-98995J98995D01*
G01*
G37*
G36*
G01*
X211472807Y-108077609D02*
X211232391Y-107837193D01*
G75*
G02*
X211232391Y-107639203I98995J98995D01*
G01*
X211430381Y-107441213D01*
G75*
G02*
X211628371Y-107441213I98995J-98995D01*
G01*
X211868787Y-107681629D01*
G75*
G02*
X211868787Y-107879619I-98995J-98995D01*
G01*
X211670797Y-108077609D01*
G75*
G02*
X211472807Y-108077609I-98995J98995D01*
G01*
G37*
%TD*%
%TO.C,C64*%
G36*
G01*
X210551629Y-115998787D02*
X210311213Y-115758371D01*
G75*
G02*
X210311213Y-115560381I98995J98995D01*
G01*
X210509203Y-115362391D01*
G75*
G02*
X210707193Y-115362391I98995J-98995D01*
G01*
X210947609Y-115602807D01*
G75*
G02*
X210947609Y-115800797I-98995J-98995D01*
G01*
X210749619Y-115998787D01*
G75*
G02*
X210551629Y-115998787I-98995J98995D01*
G01*
G37*
G36*
G01*
X209872807Y-116677609D02*
X209632391Y-116437193D01*
G75*
G02*
X209632391Y-116239203I98995J98995D01*
G01*
X209830381Y-116041213D01*
G75*
G02*
X210028371Y-116041213I98995J-98995D01*
G01*
X210268787Y-116281629D01*
G75*
G02*
X210268787Y-116479619I-98995J-98995D01*
G01*
X210070797Y-116677609D01*
G75*
G02*
X209872807Y-116677609I-98995J98995D01*
G01*
G37*
%TD*%
%TO.C,C65*%
G36*
G01*
X200922807Y-107167609D02*
X200682391Y-106927193D01*
G75*
G02*
X200682391Y-106729203I98995J98995D01*
G01*
X200880381Y-106531213D01*
G75*
G02*
X201078371Y-106531213I98995J-98995D01*
G01*
X201318787Y-106771629D01*
G75*
G02*
X201318787Y-106969619I-98995J-98995D01*
G01*
X201120797Y-107167609D01*
G75*
G02*
X200922807Y-107167609I-98995J98995D01*
G01*
G37*
G36*
G01*
X201601629Y-106488787D02*
X201361213Y-106248371D01*
G75*
G02*
X201361213Y-106050381I98995J98995D01*
G01*
X201559203Y-105852391D01*
G75*
G02*
X201757193Y-105852391I98995J-98995D01*
G01*
X201997609Y-106092807D01*
G75*
G02*
X201997609Y-106290797I-98995J-98995D01*
G01*
X201799619Y-106488787D01*
G75*
G02*
X201601629Y-106488787I-98995J98995D01*
G01*
G37*
%TD*%
%TO.C,C66*%
G36*
G01*
X209801629Y-115228787D02*
X209561213Y-114988371D01*
G75*
G02*
X209561213Y-114790381I98995J98995D01*
G01*
X209759203Y-114592391D01*
G75*
G02*
X209957193Y-114592391I98995J-98995D01*
G01*
X210197609Y-114832807D01*
G75*
G02*
X210197609Y-115030797I-98995J-98995D01*
G01*
X209999619Y-115228787D01*
G75*
G02*
X209801629Y-115228787I-98995J98995D01*
G01*
G37*
G36*
G01*
X209122807Y-115907609D02*
X208882391Y-115667193D01*
G75*
G02*
X208882391Y-115469203I98995J98995D01*
G01*
X209080381Y-115271213D01*
G75*
G02*
X209278371Y-115271213I98995J-98995D01*
G01*
X209518787Y-115511629D01*
G75*
G02*
X209518787Y-115709619I-98995J-98995D01*
G01*
X209320797Y-115907609D01*
G75*
G02*
X209122807Y-115907609I-98995J98995D01*
G01*
G37*
%TD*%
%TO.C,R27*%
G36*
G01*
X210079272Y-106272357D02*
X209817643Y-106010728D01*
G75*
G02*
X209817643Y-105819810I95459J95459D01*
G01*
X210008562Y-105628891D01*
G75*
G02*
X210199480Y-105628891I95459J-95459D01*
G01*
X210461109Y-105890520D01*
G75*
G02*
X210461109Y-106081438I-95459J-95459D01*
G01*
X210270190Y-106272357D01*
G75*
G02*
X210079272Y-106272357I-95459J95459D01*
G01*
G37*
G36*
G01*
X210800520Y-105551109D02*
X210538891Y-105289480D01*
G75*
G02*
X210538891Y-105098562I95459J95459D01*
G01*
X210729810Y-104907643D01*
G75*
G02*
X210920728Y-104907643I95459J-95459D01*
G01*
X211182357Y-105169272D01*
G75*
G02*
X211182357Y-105360190I-95459J-95459D01*
G01*
X210991438Y-105551109D01*
G75*
G02*
X210800520Y-105551109I-95459J95459D01*
G01*
G37*
%TD*%
%TO.C,R28*%
G36*
G01*
X210679272Y-107352357D02*
X210417643Y-107090728D01*
G75*
G02*
X210417643Y-106899810I95459J95459D01*
G01*
X210608562Y-106708891D01*
G75*
G02*
X210799480Y-106708891I95459J-95459D01*
G01*
X211061109Y-106970520D01*
G75*
G02*
X211061109Y-107161438I-95459J-95459D01*
G01*
X210870190Y-107352357D01*
G75*
G02*
X210679272Y-107352357I-95459J95459D01*
G01*
G37*
G36*
G01*
X211400520Y-106631109D02*
X211138891Y-106369480D01*
G75*
G02*
X211138891Y-106178562I95459J95459D01*
G01*
X211329810Y-105987643D01*
G75*
G02*
X211520728Y-105987643I95459J-95459D01*
G01*
X211782357Y-106249272D01*
G75*
G02*
X211782357Y-106440190I-95459J-95459D01*
G01*
X211591438Y-106631109D01*
G75*
G02*
X211400520Y-106631109I-95459J95459D01*
G01*
G37*
%TD*%
%TO.C,R31*%
G36*
G01*
X202379272Y-104312357D02*
X202117643Y-104050728D01*
G75*
G02*
X202117643Y-103859810I95459J95459D01*
G01*
X202308562Y-103668891D01*
G75*
G02*
X202499480Y-103668891I95459J-95459D01*
G01*
X202761109Y-103930520D01*
G75*
G02*
X202761109Y-104121438I-95459J-95459D01*
G01*
X202570190Y-104312357D01*
G75*
G02*
X202379272Y-104312357I-95459J95459D01*
G01*
G37*
G36*
G01*
X203100520Y-103591109D02*
X202838891Y-103329480D01*
G75*
G02*
X202838891Y-103138562I95459J95459D01*
G01*
X203029810Y-102947643D01*
G75*
G02*
X203220728Y-102947643I95459J-95459D01*
G01*
X203482357Y-103209272D01*
G75*
G02*
X203482357Y-103400190I-95459J-95459D01*
G01*
X203291438Y-103591109D01*
G75*
G02*
X203100520Y-103591109I-95459J95459D01*
G01*
G37*
%TD*%
%TO.C,R32*%
G36*
G01*
X203700520Y-104511109D02*
X203438891Y-104249480D01*
G75*
G02*
X203438891Y-104058562I95459J95459D01*
G01*
X203629810Y-103867643D01*
G75*
G02*
X203820728Y-103867643I95459J-95459D01*
G01*
X204082357Y-104129272D01*
G75*
G02*
X204082357Y-104320190I-95459J-95459D01*
G01*
X203891438Y-104511109D01*
G75*
G02*
X203700520Y-104511109I-95459J95459D01*
G01*
G37*
G36*
G01*
X202979272Y-105232357D02*
X202717643Y-104970728D01*
G75*
G02*
X202717643Y-104779810I95459J95459D01*
G01*
X202908562Y-104588891D01*
G75*
G02*
X203099480Y-104588891I95459J-95459D01*
G01*
X203361109Y-104850520D01*
G75*
G02*
X203361109Y-105041438I-95459J-95459D01*
G01*
X203170190Y-105232357D01*
G75*
G02*
X202979272Y-105232357I-95459J95459D01*
G01*
G37*
%TD*%
%TO.C,R33*%
G36*
G01*
X208440520Y-116661109D02*
X208178891Y-116399480D01*
G75*
G02*
X208178891Y-116208562I95459J95459D01*
G01*
X208369810Y-116017643D01*
G75*
G02*
X208560728Y-116017643I95459J-95459D01*
G01*
X208822357Y-116279272D01*
G75*
G02*
X208822357Y-116470190I-95459J-95459D01*
G01*
X208631438Y-116661109D01*
G75*
G02*
X208440520Y-116661109I-95459J95459D01*
G01*
G37*
G36*
G01*
X207719272Y-117382357D02*
X207457643Y-117120728D01*
G75*
G02*
X207457643Y-116929810I95459J95459D01*
G01*
X207648562Y-116738891D01*
G75*
G02*
X207839480Y-116738891I95459J-95459D01*
G01*
X208101109Y-117000520D01*
G75*
G02*
X208101109Y-117191438I-95459J-95459D01*
G01*
X207910190Y-117382357D01*
G75*
G02*
X207719272Y-117382357I-95459J95459D01*
G01*
G37*
%TD*%
%TO.C,R35*%
G36*
G01*
X201340205Y-115909636D02*
X201078576Y-115648007D01*
G75*
G02*
X201078576Y-115457089I95459J95459D01*
G01*
X201269495Y-115266170D01*
G75*
G02*
X201460413Y-115266170I95459J-95459D01*
G01*
X201722042Y-115527799D01*
G75*
G02*
X201722042Y-115718717I-95459J-95459D01*
G01*
X201531123Y-115909636D01*
G75*
G02*
X201340205Y-115909636I-95459J95459D01*
G01*
G37*
G36*
G01*
X200618957Y-116630884D02*
X200357328Y-116369255D01*
G75*
G02*
X200357328Y-116178337I95459J95459D01*
G01*
X200548247Y-115987418D01*
G75*
G02*
X200739165Y-115987418I95459J-95459D01*
G01*
X201000794Y-116249047D01*
G75*
G02*
X201000794Y-116439965I-95459J-95459D01*
G01*
X200809875Y-116630884D01*
G75*
G02*
X200618957Y-116630884I-95459J95459D01*
G01*
G37*
%TD*%
%TO.C,R36*%
G36*
G01*
X199855281Y-115867208D02*
X199593652Y-115605579D01*
G75*
G02*
X199593652Y-115414661I95459J95459D01*
G01*
X199784571Y-115223742D01*
G75*
G02*
X199975489Y-115223742I95459J-95459D01*
G01*
X200237118Y-115485371D01*
G75*
G02*
X200237118Y-115676289I-95459J-95459D01*
G01*
X200046199Y-115867208D01*
G75*
G02*
X199855281Y-115867208I-95459J95459D01*
G01*
G37*
G36*
G01*
X200576529Y-115145960D02*
X200314900Y-114884331D01*
G75*
G02*
X200314900Y-114693413I95459J95459D01*
G01*
X200505819Y-114502494D01*
G75*
G02*
X200696737Y-114502494I95459J-95459D01*
G01*
X200958366Y-114764123D01*
G75*
G02*
X200958366Y-114955041I-95459J-95459D01*
G01*
X200767447Y-115145960D01*
G75*
G02*
X200576529Y-115145960I-95459J95459D01*
G01*
G37*
%TD*%
%TO.C,R37*%
G36*
G01*
X199826996Y-114382286D02*
X199565367Y-114120657D01*
G75*
G02*
X199565367Y-113929739I95459J95459D01*
G01*
X199756286Y-113738820D01*
G75*
G02*
X199947204Y-113738820I95459J-95459D01*
G01*
X200208833Y-114000449D01*
G75*
G02*
X200208833Y-114191367I-95459J-95459D01*
G01*
X200017914Y-114382286D01*
G75*
G02*
X199826996Y-114382286I-95459J95459D01*
G01*
G37*
G36*
G01*
X199105748Y-115103534D02*
X198844119Y-114841905D01*
G75*
G02*
X198844119Y-114650987I95459J95459D01*
G01*
X199035038Y-114460068D01*
G75*
G02*
X199225956Y-114460068I95459J-95459D01*
G01*
X199487585Y-114721697D01*
G75*
G02*
X199487585Y-114912615I-95459J-95459D01*
G01*
X199296666Y-115103534D01*
G75*
G02*
X199105748Y-115103534I-95459J95459D01*
G01*
G37*
%TD*%
%TO.C,R38*%
G36*
G01*
X198342072Y-114339860D02*
X198080443Y-114078231D01*
G75*
G02*
X198080443Y-113887313I95459J95459D01*
G01*
X198271362Y-113696394D01*
G75*
G02*
X198462280Y-113696394I95459J-95459D01*
G01*
X198723909Y-113958023D01*
G75*
G02*
X198723909Y-114148941I-95459J-95459D01*
G01*
X198532990Y-114339860D01*
G75*
G02*
X198342072Y-114339860I-95459J95459D01*
G01*
G37*
G36*
G01*
X199063320Y-113618612D02*
X198801691Y-113356983D01*
G75*
G02*
X198801691Y-113166065I95459J95459D01*
G01*
X198992610Y-112975146D01*
G75*
G02*
X199183528Y-112975146I95459J-95459D01*
G01*
X199445157Y-113236775D01*
G75*
G02*
X199445157Y-113427693I-95459J-95459D01*
G01*
X199254238Y-113618612D01*
G75*
G02*
X199063320Y-113618612I-95459J95459D01*
G01*
G37*
%TD*%
%TO.C,R39*%
G36*
G01*
X198299645Y-112854935D02*
X198038016Y-112593306D01*
G75*
G02*
X198038016Y-112402388I95459J95459D01*
G01*
X198228935Y-112211469D01*
G75*
G02*
X198419853Y-112211469I95459J-95459D01*
G01*
X198681482Y-112473098D01*
G75*
G02*
X198681482Y-112664016I-95459J-95459D01*
G01*
X198490563Y-112854935D01*
G75*
G02*
X198299645Y-112854935I-95459J95459D01*
G01*
G37*
G36*
G01*
X197578397Y-113576183D02*
X197316768Y-113314554D01*
G75*
G02*
X197316768Y-113123636I95459J95459D01*
G01*
X197507687Y-112932717D01*
G75*
G02*
X197698605Y-112932717I95459J-95459D01*
G01*
X197960234Y-113194346D01*
G75*
G02*
X197960234Y-113385264I-95459J-95459D01*
G01*
X197769315Y-113576183D01*
G75*
G02*
X197578397Y-113576183I-95459J95459D01*
G01*
G37*
%TD*%
%TO.C,R40*%
G36*
G01*
X198359272Y-109442357D02*
X198097643Y-109180728D01*
G75*
G02*
X198097643Y-108989810I95459J95459D01*
G01*
X198288562Y-108798891D01*
G75*
G02*
X198479480Y-108798891I95459J-95459D01*
G01*
X198741109Y-109060520D01*
G75*
G02*
X198741109Y-109251438I-95459J-95459D01*
G01*
X198550190Y-109442357D01*
G75*
G02*
X198359272Y-109442357I-95459J95459D01*
G01*
G37*
G36*
G01*
X199080520Y-108721109D02*
X198818891Y-108459480D01*
G75*
G02*
X198818891Y-108268562I95459J95459D01*
G01*
X199009810Y-108077643D01*
G75*
G02*
X199200728Y-108077643I95459J-95459D01*
G01*
X199462357Y-108339272D01*
G75*
G02*
X199462357Y-108530190I-95459J-95459D01*
G01*
X199271438Y-108721109D01*
G75*
G02*
X199080520Y-108721109I-95459J95459D01*
G01*
G37*
%TD*%
D10*
%TO.C,U7*%
G36*
X211295243Y-112266536D02*
G01*
X210906334Y-112655445D01*
X209774963Y-111524074D01*
X210163872Y-111135165D01*
X211295243Y-112266536D01*
G37*
G36*
X210729557Y-112832221D02*
G01*
X210340648Y-113221130D01*
X209209277Y-112089759D01*
X209598186Y-111700850D01*
X210729557Y-112832221D01*
G37*
G36*
X210163872Y-113397907D02*
G01*
X209774963Y-113786816D01*
X208643592Y-112655445D01*
X209032501Y-112266536D01*
X210163872Y-113397907D01*
G37*
G36*
X209598187Y-113963592D02*
G01*
X209209278Y-114352501D01*
X208077907Y-113221130D01*
X208466816Y-112832221D01*
X209598187Y-113963592D01*
G37*
G36*
X209032501Y-114529278D02*
G01*
X208643592Y-114918187D01*
X207512221Y-113786816D01*
X207901130Y-113397907D01*
X209032501Y-114529278D01*
G37*
G36*
X208466816Y-115094963D02*
G01*
X208077907Y-115483872D01*
X206946536Y-114352501D01*
X207335445Y-113963592D01*
X208466816Y-115094963D01*
G37*
G36*
X207901130Y-115660648D02*
G01*
X207512221Y-116049557D01*
X206380850Y-114918186D01*
X206769759Y-114529277D01*
X207901130Y-115660648D01*
G37*
G36*
X207335445Y-116226334D02*
G01*
X206946536Y-116615243D01*
X205815165Y-115483872D01*
X206204074Y-115094963D01*
X207335445Y-116226334D01*
G37*
G36*
X204153464Y-116615243D02*
G01*
X203764555Y-116226334D01*
X204895926Y-115094963D01*
X205284835Y-115483872D01*
X204153464Y-116615243D01*
G37*
G36*
X203587779Y-116049557D02*
G01*
X203198870Y-115660648D01*
X204330241Y-114529277D01*
X204719150Y-114918186D01*
X203587779Y-116049557D01*
G37*
G36*
X203022093Y-115483872D02*
G01*
X202633184Y-115094963D01*
X203764555Y-113963592D01*
X204153464Y-114352501D01*
X203022093Y-115483872D01*
G37*
G36*
X202456408Y-114918187D02*
G01*
X202067499Y-114529278D01*
X203198870Y-113397907D01*
X203587779Y-113786816D01*
X202456408Y-114918187D01*
G37*
G36*
X201890722Y-114352501D02*
G01*
X201501813Y-113963592D01*
X202633184Y-112832221D01*
X203022093Y-113221130D01*
X201890722Y-114352501D01*
G37*
G36*
X201325037Y-113786816D02*
G01*
X200936128Y-113397907D01*
X202067499Y-112266536D01*
X202456408Y-112655445D01*
X201325037Y-113786816D01*
G37*
G36*
X200759352Y-113221130D02*
G01*
X200370443Y-112832221D01*
X201501814Y-111700850D01*
X201890723Y-112089759D01*
X200759352Y-113221130D01*
G37*
G36*
X200193666Y-112655445D02*
G01*
X199804757Y-112266536D01*
X200936128Y-111135165D01*
X201325037Y-111524074D01*
X200193666Y-112655445D01*
G37*
G36*
X201325037Y-110215926D02*
G01*
X200936128Y-110604835D01*
X199804757Y-109473464D01*
X200193666Y-109084555D01*
X201325037Y-110215926D01*
G37*
G36*
X201890723Y-109650241D02*
G01*
X201501814Y-110039150D01*
X200370443Y-108907779D01*
X200759352Y-108518870D01*
X201890723Y-109650241D01*
G37*
G36*
X202456408Y-109084555D02*
G01*
X202067499Y-109473464D01*
X200936128Y-108342093D01*
X201325037Y-107953184D01*
X202456408Y-109084555D01*
G37*
G36*
X203022093Y-108518870D02*
G01*
X202633184Y-108907779D01*
X201501813Y-107776408D01*
X201890722Y-107387499D01*
X203022093Y-108518870D01*
G37*
G36*
X203587779Y-107953184D02*
G01*
X203198870Y-108342093D01*
X202067499Y-107210722D01*
X202456408Y-106821813D01*
X203587779Y-107953184D01*
G37*
G36*
X204153464Y-107387499D02*
G01*
X203764555Y-107776408D01*
X202633184Y-106645037D01*
X203022093Y-106256128D01*
X204153464Y-107387499D01*
G37*
G36*
X204719150Y-106821814D02*
G01*
X204330241Y-107210723D01*
X203198870Y-106079352D01*
X203587779Y-105690443D01*
X204719150Y-106821814D01*
G37*
G36*
X205284835Y-106256128D02*
G01*
X204895926Y-106645037D01*
X203764555Y-105513666D01*
X204153464Y-105124757D01*
X205284835Y-106256128D01*
G37*
G36*
X206204074Y-106645037D02*
G01*
X205815165Y-106256128D01*
X206946536Y-105124757D01*
X207335445Y-105513666D01*
X206204074Y-106645037D01*
G37*
G36*
X206769759Y-107210723D02*
G01*
X206380850Y-106821814D01*
X207512221Y-105690443D01*
X207901130Y-106079352D01*
X206769759Y-107210723D01*
G37*
G36*
X207335445Y-107776408D02*
G01*
X206946536Y-107387499D01*
X208077907Y-106256128D01*
X208466816Y-106645037D01*
X207335445Y-107776408D01*
G37*
G36*
X207901130Y-108342093D02*
G01*
X207512221Y-107953184D01*
X208643592Y-106821813D01*
X209032501Y-107210722D01*
X207901130Y-108342093D01*
G37*
G36*
X208466816Y-108907779D02*
G01*
X208077907Y-108518870D01*
X209209278Y-107387499D01*
X209598187Y-107776408D01*
X208466816Y-108907779D01*
G37*
G36*
X209032501Y-109473464D02*
G01*
X208643592Y-109084555D01*
X209774963Y-107953184D01*
X210163872Y-108342093D01*
X209032501Y-109473464D01*
G37*
G36*
X209598186Y-110039150D02*
G01*
X209209277Y-109650241D01*
X210340648Y-108518870D01*
X210729557Y-108907779D01*
X209598186Y-110039150D01*
G37*
G36*
X210163872Y-110604835D02*
G01*
X209774963Y-110215926D01*
X210906334Y-109084555D01*
X211295243Y-109473464D01*
X210163872Y-110604835D01*
G37*
%TD*%
D11*
%TO.C,J1*%
X200140000Y-94750000D03*
X200140000Y-99800000D03*
X202680000Y-94750000D03*
X202680000Y-99800000D03*
X205220000Y-94750000D03*
X205220000Y-99800000D03*
X207760000Y-94750000D03*
X207760000Y-99800000D03*
X210300000Y-94750000D03*
X210300000Y-99800000D03*
X212840000Y-94750000D03*
X212840000Y-99800000D03*
%TD*%
%TO.C,C1*%
G36*
G01*
X200060571Y-106212983D02*
X199707017Y-105859429D01*
G75*
G02*
X199707017Y-105541231I159099J159099D01*
G01*
X200025215Y-105223033D01*
G75*
G02*
X200343413Y-105223033I159099J-159099D01*
G01*
X200696967Y-105576587D01*
G75*
G02*
X200696967Y-105894785I-159099J-159099D01*
G01*
X200378769Y-106212983D01*
G75*
G02*
X200060571Y-106212983I-159099J159099D01*
G01*
G37*
G36*
G01*
X201156587Y-105116967D02*
X200803033Y-104763413D01*
G75*
G02*
X200803033Y-104445215I159099J159099D01*
G01*
X201121231Y-104127017D01*
G75*
G02*
X201439429Y-104127017I159099J-159099D01*
G01*
X201792983Y-104480571D01*
G75*
G02*
X201792983Y-104798769I-159099J-159099D01*
G01*
X201474785Y-105116967D01*
G75*
G02*
X201156587Y-105116967I-159099J159099D01*
G01*
G37*
%TD*%
%TO.C,C2*%
G36*
G01*
X211567193Y-113062391D02*
X211807609Y-113302807D01*
G75*
G02*
X211807609Y-113500797I-98995J-98995D01*
G01*
X211609619Y-113698787D01*
G75*
G02*
X211411629Y-113698787I-98995J98995D01*
G01*
X211171213Y-113458371D01*
G75*
G02*
X211171213Y-113260381I98995J98995D01*
G01*
X211369203Y-113062391D01*
G75*
G02*
X211567193Y-113062391I98995J-98995D01*
G01*
G37*
G36*
G01*
X210888371Y-113741213D02*
X211128787Y-113981629D01*
G75*
G02*
X211128787Y-114179619I-98995J-98995D01*
G01*
X210930797Y-114377609D01*
G75*
G02*
X210732807Y-114377609I-98995J98995D01*
G01*
X210492391Y-114137193D01*
G75*
G02*
X210492391Y-113939203I98995J98995D01*
G01*
X210690381Y-113741213D01*
G75*
G02*
X210888371Y-113741213I98995J-98995D01*
G01*
G37*
%TD*%
%TO.C,D1*%
G36*
G01*
X89800000Y-103756250D02*
X89800000Y-103243750D01*
G75*
G02*
X90018750Y-103025000I218750J0D01*
G01*
X90456250Y-103025000D01*
G75*
G02*
X90675000Y-103243750I0J-218750D01*
G01*
X90675000Y-103756250D01*
G75*
G02*
X90456250Y-103975000I-218750J0D01*
G01*
X90018750Y-103975000D01*
G75*
G02*
X89800000Y-103756250I0J218750D01*
G01*
G37*
G36*
G01*
X88225000Y-103756250D02*
X88225000Y-103243750D01*
G75*
G02*
X88443750Y-103025000I218750J0D01*
G01*
X88881250Y-103025000D01*
G75*
G02*
X89100000Y-103243750I0J-218750D01*
G01*
X89100000Y-103756250D01*
G75*
G02*
X88881250Y-103975000I-218750J0D01*
G01*
X88443750Y-103975000D01*
G75*
G02*
X88225000Y-103756250I0J218750D01*
G01*
G37*
%TD*%
%TO.C,D2*%
G36*
G01*
X89800000Y-90106250D02*
X89800000Y-89593750D01*
G75*
G02*
X90018750Y-89375000I218750J0D01*
G01*
X90456250Y-89375000D01*
G75*
G02*
X90675000Y-89593750I0J-218750D01*
G01*
X90675000Y-90106250D01*
G75*
G02*
X90456250Y-90325000I-218750J0D01*
G01*
X90018750Y-90325000D01*
G75*
G02*
X89800000Y-90106250I0J218750D01*
G01*
G37*
G36*
G01*
X88225000Y-90106250D02*
X88225000Y-89593750D01*
G75*
G02*
X88443750Y-89375000I218750J0D01*
G01*
X88881250Y-89375000D01*
G75*
G02*
X89100000Y-89593750I0J-218750D01*
G01*
X89100000Y-90106250D01*
G75*
G02*
X88881250Y-90325000I-218750J0D01*
G01*
X88443750Y-90325000D01*
G75*
G02*
X88225000Y-90106250I0J218750D01*
G01*
G37*
%TD*%
%TO.C,D3*%
G36*
G01*
X88237500Y-76406250D02*
X88237500Y-75893750D01*
G75*
G02*
X88456250Y-75675000I218750J0D01*
G01*
X88893750Y-75675000D01*
G75*
G02*
X89112500Y-75893750I0J-218750D01*
G01*
X89112500Y-76406250D01*
G75*
G02*
X88893750Y-76625000I-218750J0D01*
G01*
X88456250Y-76625000D01*
G75*
G02*
X88237500Y-76406250I0J218750D01*
G01*
G37*
G36*
G01*
X89812500Y-76406250D02*
X89812500Y-75893750D01*
G75*
G02*
X90031250Y-75675000I218750J0D01*
G01*
X90468750Y-75675000D01*
G75*
G02*
X90687500Y-75893750I0J-218750D01*
G01*
X90687500Y-76406250D01*
G75*
G02*
X90468750Y-76625000I-218750J0D01*
G01*
X90031250Y-76625000D01*
G75*
G02*
X89812500Y-76406250I0J218750D01*
G01*
G37*
%TD*%
%TO.C,D4*%
G36*
G01*
X88175000Y-62656250D02*
X88175000Y-62143750D01*
G75*
G02*
X88393750Y-61925000I218750J0D01*
G01*
X88831250Y-61925000D01*
G75*
G02*
X89050000Y-62143750I0J-218750D01*
G01*
X89050000Y-62656250D01*
G75*
G02*
X88831250Y-62875000I-218750J0D01*
G01*
X88393750Y-62875000D01*
G75*
G02*
X88175000Y-62656250I0J218750D01*
G01*
G37*
G36*
G01*
X89750000Y-62656250D02*
X89750000Y-62143750D01*
G75*
G02*
X89968750Y-61925000I218750J0D01*
G01*
X90406250Y-61925000D01*
G75*
G02*
X90625000Y-62143750I0J-218750D01*
G01*
X90625000Y-62656250D01*
G75*
G02*
X90406250Y-62875000I-218750J0D01*
G01*
X89968750Y-62875000D01*
G75*
G02*
X89750000Y-62656250I0J218750D01*
G01*
G37*
%TD*%
%TO.C,FB1*%
G36*
G01*
X198759567Y-104346481D02*
X199003519Y-104590433D01*
G75*
G02*
X199003519Y-104799029I-104298J-104298D01*
G01*
X198794923Y-105007625D01*
G75*
G02*
X198586327Y-105007625I-104298J104298D01*
G01*
X198342375Y-104763673D01*
G75*
G02*
X198342375Y-104555077I104298J104298D01*
G01*
X198550971Y-104346481D01*
G75*
G02*
X198759567Y-104346481I104298J-104298D01*
G01*
G37*
G36*
G01*
X198073673Y-105032375D02*
X198317625Y-105276327D01*
G75*
G02*
X198317625Y-105484923I-104298J-104298D01*
G01*
X198109029Y-105693519D01*
G75*
G02*
X197900433Y-105693519I-104298J104298D01*
G01*
X197656481Y-105449567D01*
G75*
G02*
X197656481Y-105240971I104298J104298D01*
G01*
X197865077Y-105032375D01*
G75*
G02*
X198073673Y-105032375I104298J-104298D01*
G01*
G37*
%TD*%
%TO.C,R1*%
G36*
G01*
X201185000Y-71990000D02*
X201555000Y-71990000D01*
G75*
G02*
X201690000Y-72125000I0J-135000D01*
G01*
X201690000Y-72395000D01*
G75*
G02*
X201555000Y-72530000I-135000J0D01*
G01*
X201185000Y-72530000D01*
G75*
G02*
X201050000Y-72395000I0J135000D01*
G01*
X201050000Y-72125000D01*
G75*
G02*
X201185000Y-71990000I135000J0D01*
G01*
G37*
G36*
G01*
X201185000Y-70970000D02*
X201555000Y-70970000D01*
G75*
G02*
X201690000Y-71105000I0J-135000D01*
G01*
X201690000Y-71375000D01*
G75*
G02*
X201555000Y-71510000I-135000J0D01*
G01*
X201185000Y-71510000D01*
G75*
G02*
X201050000Y-71375000I0J135000D01*
G01*
X201050000Y-71105000D01*
G75*
G02*
X201185000Y-70970000I135000J0D01*
G01*
G37*
%TD*%
%TO.C,R2*%
G36*
G01*
X202315000Y-71980000D02*
X202685000Y-71980000D01*
G75*
G02*
X202820000Y-72115000I0J-135000D01*
G01*
X202820000Y-72385000D01*
G75*
G02*
X202685000Y-72520000I-135000J0D01*
G01*
X202315000Y-72520000D01*
G75*
G02*
X202180000Y-72385000I0J135000D01*
G01*
X202180000Y-72115000D01*
G75*
G02*
X202315000Y-71980000I135000J0D01*
G01*
G37*
G36*
G01*
X202315000Y-70960000D02*
X202685000Y-70960000D01*
G75*
G02*
X202820000Y-71095000I0J-135000D01*
G01*
X202820000Y-71365000D01*
G75*
G02*
X202685000Y-71500000I-135000J0D01*
G01*
X202315000Y-71500000D01*
G75*
G02*
X202180000Y-71365000I0J135000D01*
G01*
X202180000Y-71095000D01*
G75*
G02*
X202315000Y-70960000I135000J0D01*
G01*
G37*
%TD*%
%TO.C,R3*%
G36*
G01*
X203455000Y-70950000D02*
X203825000Y-70950000D01*
G75*
G02*
X203960000Y-71085000I0J-135000D01*
G01*
X203960000Y-71355000D01*
G75*
G02*
X203825000Y-71490000I-135000J0D01*
G01*
X203455000Y-71490000D01*
G75*
G02*
X203320000Y-71355000I0J135000D01*
G01*
X203320000Y-71085000D01*
G75*
G02*
X203455000Y-70950000I135000J0D01*
G01*
G37*
G36*
G01*
X203455000Y-71970000D02*
X203825000Y-71970000D01*
G75*
G02*
X203960000Y-72105000I0J-135000D01*
G01*
X203960000Y-72375000D01*
G75*
G02*
X203825000Y-72510000I-135000J0D01*
G01*
X203455000Y-72510000D01*
G75*
G02*
X203320000Y-72375000I0J135000D01*
G01*
X203320000Y-72105000D01*
G75*
G02*
X203455000Y-71970000I135000J0D01*
G01*
G37*
%TD*%
%TO.C,R4*%
G36*
G01*
X204605000Y-70950000D02*
X204975000Y-70950000D01*
G75*
G02*
X205110000Y-71085000I0J-135000D01*
G01*
X205110000Y-71355000D01*
G75*
G02*
X204975000Y-71490000I-135000J0D01*
G01*
X204605000Y-71490000D01*
G75*
G02*
X204470000Y-71355000I0J135000D01*
G01*
X204470000Y-71085000D01*
G75*
G02*
X204605000Y-70950000I135000J0D01*
G01*
G37*
G36*
G01*
X204605000Y-71970000D02*
X204975000Y-71970000D01*
G75*
G02*
X205110000Y-72105000I0J-135000D01*
G01*
X205110000Y-72375000D01*
G75*
G02*
X204975000Y-72510000I-135000J0D01*
G01*
X204605000Y-72510000D01*
G75*
G02*
X204470000Y-72375000I0J135000D01*
G01*
X204470000Y-72105000D01*
G75*
G02*
X204605000Y-71970000I135000J0D01*
G01*
G37*
%TD*%
%TO.C,R5*%
G36*
G01*
X198447643Y-106069272D02*
X198709272Y-105807643D01*
G75*
G02*
X198900190Y-105807643I95459J-95459D01*
G01*
X199091109Y-105998562D01*
G75*
G02*
X199091109Y-106189480I-95459J-95459D01*
G01*
X198829480Y-106451109D01*
G75*
G02*
X198638562Y-106451109I-95459J95459D01*
G01*
X198447643Y-106260190D01*
G75*
G02*
X198447643Y-106069272I95459J95459D01*
G01*
G37*
G36*
G01*
X199168891Y-106790520D02*
X199430520Y-106528891D01*
G75*
G02*
X199621438Y-106528891I95459J-95459D01*
G01*
X199812357Y-106719810D01*
G75*
G02*
X199812357Y-106910728I-95459J-95459D01*
G01*
X199550728Y-107172357D01*
G75*
G02*
X199359810Y-107172357I-95459J95459D01*
G01*
X199168891Y-106981438D01*
G75*
G02*
X199168891Y-106790520I95459J95459D01*
G01*
G37*
%TD*%
M02*
