%FSLAX45Y45*%
G04 Gerber Fmt 4.5, Leading zero omitted, Abs format (unit mm)*
G04 Created by KiCad (PCBNEW 5.1.9+dfsg1-1~bpo10+1) date 2021-11-03 11:38:21*
%MOMM*%
%LPD*%
G01*
G04 APERTURE LIST*
%TA.AperFunction,Profile*%
%ADD10C,0.050000*%
%TD*%
%ADD11C,0.200000*%
%ADD12C,0.300000*%
G04 APERTURE END LIST*
D10*
X19089750Y-5549750D02*
G75*
G02*
X19290000Y-5750000I0J-200250D01*
G01*
X19290000Y-10840000D02*
G75*
G02*
X19089750Y-11040250I-200250J0D01*
G01*
X9880250Y-11040250D02*
G75*
G02*
X9680000Y-10840000I0J200250D01*
G01*
X9680000Y-5750000D02*
G75*
G02*
X9880250Y-5549750I200250J0D01*
G01*
X19089750Y-5549750D02*
X9880250Y-5549750D01*
X19290000Y-10840000D02*
X19290000Y-5750000D01*
X9880250Y-11040250D02*
X19089750Y-11040250D01*
X9680000Y-5750000D02*
X9680000Y-10840000D01*
X9209000Y-13427500D02*
X7209000Y-11427500D01*
X19759000Y-13427500D02*
X9209000Y-13427500D01*
X21759000Y-11427500D02*
X19759000Y-13427500D01*
X21759000Y-5167500D02*
X21759000Y-11427500D01*
X19759000Y-3167500D02*
X21759000Y-5167500D01*
X9209000Y-3167500D02*
X19759000Y-3167500D01*
X7209000Y-5167500D02*
X9209000Y-3167500D01*
X7209000Y-11427500D02*
X7209000Y-5167500D01*
D11*
X9832000Y-11927000D02*
X9862000Y-11957000D01*
X9862000Y-11927000D02*
X9832000Y-11957000D01*
X9833000Y-12728000D02*
X9863000Y-12758000D01*
X9863000Y-12728000D02*
X9833000Y-12758000D01*
X10603000Y-12131000D02*
X10633000Y-12161000D01*
X10633000Y-12131000D02*
X10603000Y-12161000D01*
X10604500Y-11528500D02*
X10634500Y-11558500D01*
X10634500Y-11528500D02*
X10604500Y-11558500D01*
X11381000Y-11931000D02*
X11411000Y-11961000D01*
X11411000Y-11931000D02*
X11381000Y-11961000D01*
X11382000Y-12730000D02*
X11412000Y-12760000D01*
X11412000Y-12730000D02*
X11382000Y-12760000D01*
X12149000Y-12132000D02*
X12179000Y-12162000D01*
X12179000Y-12132000D02*
X12149000Y-12162000D01*
X12149500Y-11528500D02*
X12179500Y-11558500D01*
X12179500Y-11528500D02*
X12149500Y-11558500D01*
X12925000Y-12730000D02*
X12955000Y-12760000D01*
X12955000Y-12730000D02*
X12925000Y-12760000D01*
X12926000Y-11931000D02*
X12956000Y-11961000D01*
X12956000Y-11931000D02*
X12926000Y-11961000D01*
X13699000Y-12132000D02*
X13729000Y-12162000D01*
X13729000Y-12132000D02*
X13699000Y-12162000D01*
X13701500Y-11529500D02*
X13731500Y-11559500D01*
X13731500Y-11529500D02*
X13701500Y-11559500D01*
X14469000Y-12730000D02*
X14499000Y-12760000D01*
X14499000Y-12730000D02*
X14469000Y-12760000D01*
X14474000Y-11934000D02*
X14504000Y-11964000D01*
X14504000Y-11934000D02*
X14474000Y-11964000D01*
X15247000Y-12129000D02*
X15277000Y-12159000D01*
X15277000Y-12129000D02*
X15247000Y-12159000D01*
X15250500Y-11525500D02*
X15280500Y-11555500D01*
X15280500Y-11525500D02*
X15250500Y-11555500D01*
X16014000Y-11934000D02*
X16044000Y-11964000D01*
X16044000Y-11934000D02*
X16014000Y-11964000D01*
X16016000Y-12732000D02*
X16046000Y-12762000D01*
X16046000Y-12732000D02*
X16016000Y-12762000D01*
X16783000Y-12130000D02*
X16813000Y-12160000D01*
X16813000Y-12130000D02*
X16783000Y-12160000D01*
X16785000Y-11528000D02*
X16815000Y-11558000D01*
X16815000Y-11528000D02*
X16785000Y-11558000D01*
X17562000Y-11939000D02*
X17592000Y-11969000D01*
X17592000Y-11939000D02*
X17562000Y-11969000D01*
X17563000Y-12728000D02*
X17593000Y-12758000D01*
X17593000Y-12728000D02*
X17563000Y-12758000D01*
X18325500Y-12136500D02*
X18355500Y-12166500D01*
X18355500Y-12136500D02*
X18325500Y-12166500D01*
X18328000Y-11534000D02*
X18358000Y-11564000D01*
X18358000Y-11534000D02*
X18328000Y-11564000D01*
X19112000Y-11940000D02*
X19142000Y-11970000D01*
X19142000Y-11940000D02*
X19112000Y-11970000D01*
X19112000Y-12733000D02*
X19142000Y-12763000D01*
X19142000Y-12733000D02*
X19112000Y-12763000D01*
X20071000Y-10394000D02*
G75*
G03*
X20071000Y-10394000I-20000J0D01*
G01*
X20185000Y-10314000D02*
G75*
G03*
X20185000Y-10314000I-20000J0D01*
G01*
X20279308Y-10978692D02*
G75*
G03*
X20279308Y-10978692I-20000J0D01*
G01*
X20318000Y-11620000D02*
G75*
G03*
X20318000Y-11620000I-20000J0D01*
G01*
X20390000Y-10874000D02*
G75*
G03*
X20390000Y-10874000I-20000J0D01*
G01*
X20454000Y-10803000D02*
G75*
G03*
X20454000Y-10803000I-20000J0D01*
G01*
X20457000Y-11374000D02*
G75*
G03*
X20457000Y-11374000I-20000J0D01*
G01*
X20563000Y-10516000D02*
G75*
G03*
X20563000Y-10516000I-20000J0D01*
G01*
X20563000Y-11433000D02*
G75*
G03*
X20563000Y-11433000I-20000J0D01*
G01*
X20911000Y-11139000D02*
G75*
G03*
X20911000Y-11139000I-20000J0D01*
G01*
X20925000Y-10368000D02*
G75*
G03*
X20925000Y-10368000I-20000J0D01*
G01*
X21125000Y-11510000D02*
G75*
G03*
X21125000Y-11510000I-20000J0D01*
G01*
X21148000Y-9725000D02*
G75*
G03*
X21148000Y-9725000I-20000J0D01*
G01*
X21155544Y-10212550D02*
G75*
G03*
X21155544Y-10212550I-20000J0D01*
G01*
X21186000Y-11073000D02*
G75*
G03*
X21186000Y-11073000I-20000J0D01*
G01*
X21196000Y-11435000D02*
G75*
G03*
X21196000Y-11435000I-20000J0D01*
G01*
X21214000Y-10871000D02*
G75*
G03*
X21214000Y-10871000I-20000J0D01*
G01*
X21418360Y-10455740D02*
G75*
G03*
X21418360Y-10455740I-20000J0D01*
G01*
D12*
X7492928Y-13895714D02*
X7492928Y-13595714D01*
X7564357Y-13595714D01*
X7607214Y-13610000D01*
X7635786Y-13638571D01*
X7650071Y-13667143D01*
X7664357Y-13724286D01*
X7664357Y-13767143D01*
X7650071Y-13824286D01*
X7635786Y-13852857D01*
X7607214Y-13881429D01*
X7564357Y-13895714D01*
X7492928Y-13895714D01*
X7792928Y-13895714D02*
X7792928Y-13695714D01*
X7792928Y-13752857D02*
X7807214Y-13724286D01*
X7821500Y-13710000D01*
X7850071Y-13695714D01*
X7878643Y-13695714D01*
X7978643Y-13895714D02*
X7978643Y-13695714D01*
X7978643Y-13595714D02*
X7964357Y-13610000D01*
X7978643Y-13624286D01*
X7992928Y-13610000D01*
X7978643Y-13595714D01*
X7978643Y-13624286D01*
X8164357Y-13895714D02*
X8135786Y-13881429D01*
X8121500Y-13852857D01*
X8121500Y-13595714D01*
X8321500Y-13895714D02*
X8292928Y-13881429D01*
X8278643Y-13852857D01*
X8278643Y-13595714D01*
X8664357Y-13895714D02*
X8664357Y-13595714D01*
X8764357Y-13810000D01*
X8864357Y-13595714D01*
X8864357Y-13895714D01*
X9135786Y-13895714D02*
X9135786Y-13738571D01*
X9121500Y-13710000D01*
X9092928Y-13695714D01*
X9035786Y-13695714D01*
X9007214Y-13710000D01*
X9135786Y-13881429D02*
X9107214Y-13895714D01*
X9035786Y-13895714D01*
X9007214Y-13881429D01*
X8992928Y-13852857D01*
X8992928Y-13824286D01*
X9007214Y-13795714D01*
X9035786Y-13781429D01*
X9107214Y-13781429D01*
X9135786Y-13767143D01*
X9278643Y-13695714D02*
X9278643Y-13995714D01*
X9278643Y-13710000D02*
X9307214Y-13695714D01*
X9364357Y-13695714D01*
X9392928Y-13710000D01*
X9407214Y-13724286D01*
X9421500Y-13752857D01*
X9421500Y-13838571D01*
X9407214Y-13867143D01*
X9392928Y-13881429D01*
X9364357Y-13895714D01*
X9307214Y-13895714D01*
X9278643Y-13881429D01*
X9550071Y-13867143D02*
X9564357Y-13881429D01*
X9550071Y-13895714D01*
X9535786Y-13881429D01*
X9550071Y-13867143D01*
X9550071Y-13895714D01*
X9550071Y-13710000D02*
X9564357Y-13724286D01*
X9550071Y-13738571D01*
X9535786Y-13724286D01*
X9550071Y-13710000D01*
X9550071Y-13738571D01*
X7176500Y-14375000D02*
X7206500Y-14405000D01*
X7206500Y-14375000D02*
X7176500Y-14405000D01*
X7550071Y-14225714D02*
X7578643Y-14225714D01*
X7607214Y-14240000D01*
X7621500Y-14254286D01*
X7635786Y-14282857D01*
X7650071Y-14340000D01*
X7650071Y-14411429D01*
X7635786Y-14468571D01*
X7621500Y-14497143D01*
X7607214Y-14511429D01*
X7578643Y-14525714D01*
X7550071Y-14525714D01*
X7521500Y-14511429D01*
X7507214Y-14497143D01*
X7492928Y-14468571D01*
X7478643Y-14411429D01*
X7478643Y-14340000D01*
X7492928Y-14282857D01*
X7507214Y-14254286D01*
X7521500Y-14240000D01*
X7550071Y-14225714D01*
X7778643Y-14497143D02*
X7792928Y-14511429D01*
X7778643Y-14525714D01*
X7764357Y-14511429D01*
X7778643Y-14497143D01*
X7778643Y-14525714D01*
X7892928Y-14225714D02*
X8078643Y-14225714D01*
X7978643Y-14340000D01*
X8021500Y-14340000D01*
X8050071Y-14354286D01*
X8064357Y-14368571D01*
X8078643Y-14397143D01*
X8078643Y-14468571D01*
X8064357Y-14497143D01*
X8050071Y-14511429D01*
X8021500Y-14525714D01*
X7935786Y-14525714D01*
X7907214Y-14511429D01*
X7892928Y-14497143D01*
X8264357Y-14225714D02*
X8292928Y-14225714D01*
X8321500Y-14240000D01*
X8335786Y-14254286D01*
X8350071Y-14282857D01*
X8364357Y-14340000D01*
X8364357Y-14411429D01*
X8350071Y-14468571D01*
X8335786Y-14497143D01*
X8321500Y-14511429D01*
X8292928Y-14525714D01*
X8264357Y-14525714D01*
X8235786Y-14511429D01*
X8221500Y-14497143D01*
X8207214Y-14468571D01*
X8192928Y-14411429D01*
X8192928Y-14340000D01*
X8207214Y-14282857D01*
X8221500Y-14254286D01*
X8235786Y-14240000D01*
X8264357Y-14225714D01*
X8492928Y-14525714D02*
X8492928Y-14325714D01*
X8492928Y-14354286D02*
X8507214Y-14340000D01*
X8535786Y-14325714D01*
X8578643Y-14325714D01*
X8607214Y-14340000D01*
X8621500Y-14368571D01*
X8621500Y-14525714D01*
X8621500Y-14368571D02*
X8635786Y-14340000D01*
X8664357Y-14325714D01*
X8707214Y-14325714D01*
X8735786Y-14340000D01*
X8750071Y-14368571D01*
X8750071Y-14525714D01*
X8892928Y-14525714D02*
X8892928Y-14325714D01*
X8892928Y-14354286D02*
X8907214Y-14340000D01*
X8935786Y-14325714D01*
X8978643Y-14325714D01*
X9007214Y-14340000D01*
X9021500Y-14368571D01*
X9021500Y-14525714D01*
X9021500Y-14368571D02*
X9035786Y-14340000D01*
X9064357Y-14325714D01*
X9107214Y-14325714D01*
X9135786Y-14340000D01*
X9150071Y-14368571D01*
X9150071Y-14525714D01*
X9735786Y-14211429D02*
X9478643Y-14597143D01*
X10121500Y-14225714D02*
X10150071Y-14225714D01*
X10178643Y-14240000D01*
X10192928Y-14254286D01*
X10207214Y-14282857D01*
X10221500Y-14340000D01*
X10221500Y-14411429D01*
X10207214Y-14468571D01*
X10192928Y-14497143D01*
X10178643Y-14511429D01*
X10150071Y-14525714D01*
X10121500Y-14525714D01*
X10092928Y-14511429D01*
X10078643Y-14497143D01*
X10064357Y-14468571D01*
X10050071Y-14411429D01*
X10050071Y-14340000D01*
X10064357Y-14282857D01*
X10078643Y-14254286D01*
X10092928Y-14240000D01*
X10121500Y-14225714D01*
X10350071Y-14497143D02*
X10364357Y-14511429D01*
X10350071Y-14525714D01*
X10335786Y-14511429D01*
X10350071Y-14497143D01*
X10350071Y-14525714D01*
X10550071Y-14225714D02*
X10578643Y-14225714D01*
X10607214Y-14240000D01*
X10621500Y-14254286D01*
X10635786Y-14282857D01*
X10650071Y-14340000D01*
X10650071Y-14411429D01*
X10635786Y-14468571D01*
X10621500Y-14497143D01*
X10607214Y-14511429D01*
X10578643Y-14525714D01*
X10550071Y-14525714D01*
X10521500Y-14511429D01*
X10507214Y-14497143D01*
X10492928Y-14468571D01*
X10478643Y-14411429D01*
X10478643Y-14340000D01*
X10492928Y-14282857D01*
X10507214Y-14254286D01*
X10521500Y-14240000D01*
X10550071Y-14225714D01*
X10935786Y-14525714D02*
X10764357Y-14525714D01*
X10850071Y-14525714D02*
X10850071Y-14225714D01*
X10821500Y-14268571D01*
X10792928Y-14297143D01*
X10764357Y-14311429D01*
X11050071Y-14254286D02*
X11064357Y-14240000D01*
X11092928Y-14225714D01*
X11164357Y-14225714D01*
X11192928Y-14240000D01*
X11207214Y-14254286D01*
X11221500Y-14282857D01*
X11221500Y-14311429D01*
X11207214Y-14354286D01*
X11035786Y-14525714D01*
X11221500Y-14525714D01*
X11335786Y-14225714D02*
X11335786Y-14282857D01*
X11450071Y-14225714D02*
X11450071Y-14282857D01*
X11892928Y-14640000D02*
X11878643Y-14625714D01*
X11850071Y-14582857D01*
X11835786Y-14554286D01*
X11821500Y-14511429D01*
X11807214Y-14440000D01*
X11807214Y-14382857D01*
X11821500Y-14311429D01*
X11835786Y-14268571D01*
X11850071Y-14240000D01*
X11878643Y-14197143D01*
X11892928Y-14182857D01*
X11992928Y-14254286D02*
X12007214Y-14240000D01*
X12035786Y-14225714D01*
X12107214Y-14225714D01*
X12135786Y-14240000D01*
X12150071Y-14254286D01*
X12164357Y-14282857D01*
X12164357Y-14311429D01*
X12150071Y-14354286D01*
X11978643Y-14525714D01*
X12164357Y-14525714D01*
X12421500Y-14225714D02*
X12364357Y-14225714D01*
X12335786Y-14240000D01*
X12321500Y-14254286D01*
X12292928Y-14297143D01*
X12278643Y-14354286D01*
X12278643Y-14468571D01*
X12292928Y-14497143D01*
X12307214Y-14511429D01*
X12335786Y-14525714D01*
X12392928Y-14525714D01*
X12421500Y-14511429D01*
X12435786Y-14497143D01*
X12450071Y-14468571D01*
X12450071Y-14397143D01*
X12435786Y-14368571D01*
X12421500Y-14354286D01*
X12392928Y-14340000D01*
X12335786Y-14340000D01*
X12307214Y-14354286D01*
X12292928Y-14368571D01*
X12278643Y-14397143D01*
X12807214Y-14525714D02*
X12807214Y-14225714D01*
X12935786Y-14525714D02*
X12935786Y-14368571D01*
X12921500Y-14340000D01*
X12892928Y-14325714D01*
X12850071Y-14325714D01*
X12821500Y-14340000D01*
X12807214Y-14354286D01*
X13121500Y-14525714D02*
X13092928Y-14511429D01*
X13078643Y-14497143D01*
X13064357Y-14468571D01*
X13064357Y-14382857D01*
X13078643Y-14354286D01*
X13092928Y-14340000D01*
X13121500Y-14325714D01*
X13164357Y-14325714D01*
X13192928Y-14340000D01*
X13207214Y-14354286D01*
X13221500Y-14382857D01*
X13221500Y-14468571D01*
X13207214Y-14497143D01*
X13192928Y-14511429D01*
X13164357Y-14525714D01*
X13121500Y-14525714D01*
X13392928Y-14525714D02*
X13364357Y-14511429D01*
X13350071Y-14482857D01*
X13350071Y-14225714D01*
X13621500Y-14511429D02*
X13592928Y-14525714D01*
X13535786Y-14525714D01*
X13507214Y-14511429D01*
X13492928Y-14482857D01*
X13492928Y-14368571D01*
X13507214Y-14340000D01*
X13535786Y-14325714D01*
X13592928Y-14325714D01*
X13621500Y-14340000D01*
X13635786Y-14368571D01*
X13635786Y-14397143D01*
X13492928Y-14425714D01*
X13750071Y-14511429D02*
X13778643Y-14525714D01*
X13835786Y-14525714D01*
X13864357Y-14511429D01*
X13878643Y-14482857D01*
X13878643Y-14468571D01*
X13864357Y-14440000D01*
X13835786Y-14425714D01*
X13792928Y-14425714D01*
X13764357Y-14411429D01*
X13750071Y-14382857D01*
X13750071Y-14368571D01*
X13764357Y-14340000D01*
X13792928Y-14325714D01*
X13835786Y-14325714D01*
X13864357Y-14340000D01*
X13978643Y-14640000D02*
X13992928Y-14625714D01*
X14021500Y-14582857D01*
X14035786Y-14554286D01*
X14050071Y-14511429D01*
X14064357Y-14440000D01*
X14064357Y-14382857D01*
X14050071Y-14311429D01*
X14035786Y-14268571D01*
X14021500Y-14240000D01*
X13992928Y-14197143D01*
X13978643Y-14182857D01*
X7206500Y-14786000D02*
G75*
G03*
X7206500Y-14786000I-20000J0D01*
G01*
X7550071Y-14621714D02*
X7578643Y-14621714D01*
X7607214Y-14636000D01*
X7621500Y-14650286D01*
X7635786Y-14678857D01*
X7650071Y-14736000D01*
X7650071Y-14807429D01*
X7635786Y-14864571D01*
X7621500Y-14893143D01*
X7607214Y-14907429D01*
X7578643Y-14921714D01*
X7550071Y-14921714D01*
X7521500Y-14907429D01*
X7507214Y-14893143D01*
X7492928Y-14864571D01*
X7478643Y-14807429D01*
X7478643Y-14736000D01*
X7492928Y-14678857D01*
X7507214Y-14650286D01*
X7521500Y-14636000D01*
X7550071Y-14621714D01*
X7778643Y-14893143D02*
X7792928Y-14907429D01*
X7778643Y-14921714D01*
X7764357Y-14907429D01*
X7778643Y-14893143D01*
X7778643Y-14921714D01*
X8050071Y-14721714D02*
X8050071Y-14921714D01*
X7978643Y-14607429D02*
X7907214Y-14821714D01*
X8092928Y-14821714D01*
X8264357Y-14621714D02*
X8292928Y-14621714D01*
X8321500Y-14636000D01*
X8335786Y-14650286D01*
X8350071Y-14678857D01*
X8364357Y-14736000D01*
X8364357Y-14807429D01*
X8350071Y-14864571D01*
X8335786Y-14893143D01*
X8321500Y-14907429D01*
X8292928Y-14921714D01*
X8264357Y-14921714D01*
X8235786Y-14907429D01*
X8221500Y-14893143D01*
X8207214Y-14864571D01*
X8192928Y-14807429D01*
X8192928Y-14736000D01*
X8207214Y-14678857D01*
X8221500Y-14650286D01*
X8235786Y-14636000D01*
X8264357Y-14621714D01*
X8492928Y-14921714D02*
X8492928Y-14721714D01*
X8492928Y-14750286D02*
X8507214Y-14736000D01*
X8535786Y-14721714D01*
X8578643Y-14721714D01*
X8607214Y-14736000D01*
X8621500Y-14764571D01*
X8621500Y-14921714D01*
X8621500Y-14764571D02*
X8635786Y-14736000D01*
X8664357Y-14721714D01*
X8707214Y-14721714D01*
X8735786Y-14736000D01*
X8750071Y-14764571D01*
X8750071Y-14921714D01*
X8892928Y-14921714D02*
X8892928Y-14721714D01*
X8892928Y-14750286D02*
X8907214Y-14736000D01*
X8935786Y-14721714D01*
X8978643Y-14721714D01*
X9007214Y-14736000D01*
X9021500Y-14764571D01*
X9021500Y-14921714D01*
X9021500Y-14764571D02*
X9035786Y-14736000D01*
X9064357Y-14721714D01*
X9107214Y-14721714D01*
X9135786Y-14736000D01*
X9150071Y-14764571D01*
X9150071Y-14921714D01*
X9735786Y-14607429D02*
X9478643Y-14993143D01*
X10121500Y-14621714D02*
X10150071Y-14621714D01*
X10178643Y-14636000D01*
X10192928Y-14650286D01*
X10207214Y-14678857D01*
X10221500Y-14736000D01*
X10221500Y-14807429D01*
X10207214Y-14864571D01*
X10192928Y-14893143D01*
X10178643Y-14907429D01*
X10150071Y-14921714D01*
X10121500Y-14921714D01*
X10092928Y-14907429D01*
X10078643Y-14893143D01*
X10064357Y-14864571D01*
X10050071Y-14807429D01*
X10050071Y-14736000D01*
X10064357Y-14678857D01*
X10078643Y-14650286D01*
X10092928Y-14636000D01*
X10121500Y-14621714D01*
X10350071Y-14893143D02*
X10364357Y-14907429D01*
X10350071Y-14921714D01*
X10335786Y-14907429D01*
X10350071Y-14893143D01*
X10350071Y-14921714D01*
X10550071Y-14621714D02*
X10578643Y-14621714D01*
X10607214Y-14636000D01*
X10621500Y-14650286D01*
X10635786Y-14678857D01*
X10650071Y-14736000D01*
X10650071Y-14807429D01*
X10635786Y-14864571D01*
X10621500Y-14893143D01*
X10607214Y-14907429D01*
X10578643Y-14921714D01*
X10550071Y-14921714D01*
X10521500Y-14907429D01*
X10507214Y-14893143D01*
X10492928Y-14864571D01*
X10478643Y-14807429D01*
X10478643Y-14736000D01*
X10492928Y-14678857D01*
X10507214Y-14650286D01*
X10521500Y-14636000D01*
X10550071Y-14621714D01*
X10935786Y-14921714D02*
X10764357Y-14921714D01*
X10850071Y-14921714D02*
X10850071Y-14621714D01*
X10821500Y-14664571D01*
X10792928Y-14693143D01*
X10764357Y-14707429D01*
X11192928Y-14621714D02*
X11135786Y-14621714D01*
X11107214Y-14636000D01*
X11092928Y-14650286D01*
X11064357Y-14693143D01*
X11050071Y-14750286D01*
X11050071Y-14864571D01*
X11064357Y-14893143D01*
X11078643Y-14907429D01*
X11107214Y-14921714D01*
X11164357Y-14921714D01*
X11192928Y-14907429D01*
X11207214Y-14893143D01*
X11221500Y-14864571D01*
X11221500Y-14793143D01*
X11207214Y-14764571D01*
X11192928Y-14750286D01*
X11164357Y-14736000D01*
X11107214Y-14736000D01*
X11078643Y-14750286D01*
X11064357Y-14764571D01*
X11050071Y-14793143D01*
X11335786Y-14621714D02*
X11335786Y-14678857D01*
X11450071Y-14621714D02*
X11450071Y-14678857D01*
X11892928Y-15036000D02*
X11878643Y-15021714D01*
X11850071Y-14978857D01*
X11835786Y-14950286D01*
X11821500Y-14907429D01*
X11807214Y-14836000D01*
X11807214Y-14778857D01*
X11821500Y-14707429D01*
X11835786Y-14664571D01*
X11850071Y-14636000D01*
X11878643Y-14593143D01*
X11892928Y-14578857D01*
X12164357Y-14921714D02*
X11992928Y-14921714D01*
X12078643Y-14921714D02*
X12078643Y-14621714D01*
X12050071Y-14664571D01*
X12021500Y-14693143D01*
X11992928Y-14707429D01*
X12335786Y-14750286D02*
X12307214Y-14736000D01*
X12292928Y-14721714D01*
X12278643Y-14693143D01*
X12278643Y-14678857D01*
X12292928Y-14650286D01*
X12307214Y-14636000D01*
X12335786Y-14621714D01*
X12392928Y-14621714D01*
X12421500Y-14636000D01*
X12435786Y-14650286D01*
X12450071Y-14678857D01*
X12450071Y-14693143D01*
X12435786Y-14721714D01*
X12421500Y-14736000D01*
X12392928Y-14750286D01*
X12335786Y-14750286D01*
X12307214Y-14764571D01*
X12292928Y-14778857D01*
X12278643Y-14807429D01*
X12278643Y-14864571D01*
X12292928Y-14893143D01*
X12307214Y-14907429D01*
X12335786Y-14921714D01*
X12392928Y-14921714D01*
X12421500Y-14907429D01*
X12435786Y-14893143D01*
X12450071Y-14864571D01*
X12450071Y-14807429D01*
X12435786Y-14778857D01*
X12421500Y-14764571D01*
X12392928Y-14750286D01*
X12807214Y-14921714D02*
X12807214Y-14621714D01*
X12935786Y-14921714D02*
X12935786Y-14764571D01*
X12921500Y-14736000D01*
X12892928Y-14721714D01*
X12850071Y-14721714D01*
X12821500Y-14736000D01*
X12807214Y-14750286D01*
X13121500Y-14921714D02*
X13092928Y-14907429D01*
X13078643Y-14893143D01*
X13064357Y-14864571D01*
X13064357Y-14778857D01*
X13078643Y-14750286D01*
X13092928Y-14736000D01*
X13121500Y-14721714D01*
X13164357Y-14721714D01*
X13192928Y-14736000D01*
X13207214Y-14750286D01*
X13221500Y-14778857D01*
X13221500Y-14864571D01*
X13207214Y-14893143D01*
X13192928Y-14907429D01*
X13164357Y-14921714D01*
X13121500Y-14921714D01*
X13392928Y-14921714D02*
X13364357Y-14907429D01*
X13350071Y-14878857D01*
X13350071Y-14621714D01*
X13621500Y-14907429D02*
X13592928Y-14921714D01*
X13535786Y-14921714D01*
X13507214Y-14907429D01*
X13492928Y-14878857D01*
X13492928Y-14764571D01*
X13507214Y-14736000D01*
X13535786Y-14721714D01*
X13592928Y-14721714D01*
X13621500Y-14736000D01*
X13635786Y-14764571D01*
X13635786Y-14793143D01*
X13492928Y-14821714D01*
X13750071Y-14907429D02*
X13778643Y-14921714D01*
X13835786Y-14921714D01*
X13864357Y-14907429D01*
X13878643Y-14878857D01*
X13878643Y-14864571D01*
X13864357Y-14836000D01*
X13835786Y-14821714D01*
X13792928Y-14821714D01*
X13764357Y-14807429D01*
X13750071Y-14778857D01*
X13750071Y-14764571D01*
X13764357Y-14736000D01*
X13792928Y-14721714D01*
X13835786Y-14721714D01*
X13864357Y-14736000D01*
X13978643Y-15036000D02*
X13992928Y-15021714D01*
X14021500Y-14978857D01*
X14035786Y-14950286D01*
X14050071Y-14907429D01*
X14064357Y-14836000D01*
X14064357Y-14778857D01*
X14050071Y-14707429D01*
X14035786Y-14664571D01*
X14021500Y-14636000D01*
X13992928Y-14593143D01*
X13978643Y-14578857D01*
M02*
