M48
; DRILL file {KiCad 5.1.9+dfsg1-1~bpo10+1} date Wed Nov  3 11:38:19 2021
; FORMAT={-:-/ absolute / metric / decimal}
; #@! TF.CreationDate,2021-11-03T11:38:19+01:00
; #@! TF.GenerationSoftware,Kicad,Pcbnew,5.1.9+dfsg1-1~bpo10+1
; #@! TF.FileFunction,Plated,1,2,PTH
FMAT,2
METRIC
T1C0.300
T2C0.400
%
G90
G05
T1
X98.47Y-119.42
X98.48Y-127.43
X106.18Y-121.46
X106.195Y-115.435
X113.96Y-119.46
X113.97Y-127.45
X121.64Y-121.47
X121.645Y-115.435
X129.4Y-127.45
X129.41Y-119.46
X137.14Y-121.47
X137.165Y-115.445
X144.84Y-127.45
X144.89Y-119.49
X152.62Y-121.44
X152.655Y-115.405
X160.29Y-119.49
X160.31Y-127.47
X167.98Y-121.45
X168.0Y-115.43
X175.77Y-119.54
X175.78Y-127.43
X183.405Y-121.515
X183.43Y-115.49
X191.27Y-119.55
X191.27Y-127.48
T2
X200.51Y-103.94
X201.65Y-103.14
X202.593Y-109.787
X202.98Y-116.2
X203.7Y-108.74
X204.34Y-108.03
X204.37Y-113.74
X205.43Y-105.16
X205.43Y-114.33
X208.91Y-111.39
X209.05Y-103.68
X211.05Y-115.1
X211.28Y-97.25
X211.355Y-102.125
X211.66Y-110.73
X211.76Y-114.35
X211.94Y-108.71
X213.984Y-104.557
T0
M30
