%FSLAX45Y45*%
G04 Gerber Fmt 4.5, Leading zero omitted, Abs format (unit mm)*
G04 Created by KiCad (PCBNEW 5.1.9+dfsg1-1~bpo10+1) date 2021-11-03 11:38:21*
%MOMM*%
%LPD*%
G01*
G04 APERTURE LIST*
%TA.AperFunction,Profile*%
%ADD10C,0.050000*%
%TD*%
%ADD11C,0.200000*%
%ADD12C,0.300000*%
G04 APERTURE END LIST*
D10*
X19089750Y-5549750D02*
G75*
G02*
X19290000Y-5750000I0J-200250D01*
G01*
X19290000Y-10840000D02*
G75*
G02*
X19089750Y-11040250I-200250J0D01*
G01*
X9880250Y-11040250D02*
G75*
G02*
X9680000Y-10840000I0J200250D01*
G01*
X9680000Y-5750000D02*
G75*
G02*
X9880250Y-5549750I200250J0D01*
G01*
X19089750Y-5549750D02*
X9880250Y-5549750D01*
X19290000Y-10840000D02*
X19290000Y-5750000D01*
X9880250Y-11040250D02*
X19089750Y-11040250D01*
X9680000Y-5750000D02*
X9680000Y-10840000D01*
X9209000Y-13427500D02*
X7209000Y-11427500D01*
X19759000Y-13427500D02*
X9209000Y-13427500D01*
X21759000Y-11427500D02*
X19759000Y-13427500D01*
X21759000Y-5167500D02*
X21759000Y-11427500D01*
X19759000Y-3167500D02*
X21759000Y-5167500D01*
X9209000Y-3167500D02*
X19759000Y-3167500D01*
X7209000Y-5167500D02*
X9209000Y-3167500D01*
X7209000Y-11427500D02*
X7209000Y-5167500D01*
D11*
X8435000Y-4398000D02*
X8705000Y-4668000D01*
X8705000Y-4398000D02*
X8435000Y-4668000D01*
X8435000Y-11937000D02*
X8705000Y-12207000D01*
X8705000Y-11937000D02*
X8435000Y-12207000D01*
X20262600Y-11936180D02*
X20532600Y-12206180D01*
X20532600Y-11936180D02*
X20262600Y-12206180D01*
X20263000Y-4397000D02*
X20533000Y-4667000D01*
X20533000Y-4397000D02*
X20263000Y-4667000D01*
X8561000Y-6243000D02*
G75*
G03*
X8561000Y-6243000I-350000J0D01*
G01*
X8561000Y-7612000D02*
G75*
G03*
X8561000Y-7612000I-350000J0D01*
G01*
X8564000Y-8984000D02*
G75*
G03*
X8564000Y-8984000I-350000J0D01*
G01*
X8564000Y-10353000D02*
G75*
G03*
X8564000Y-10353000I-350000J0D01*
G01*
X20761000Y-7894000D02*
X20761000Y-8694000D01*
X20361000Y-8294000D02*
X21161000Y-8294000D01*
D12*
X7492928Y-13895714D02*
X7492928Y-13595714D01*
X7564357Y-13595714D01*
X7607214Y-13610000D01*
X7635786Y-13638571D01*
X7650071Y-13667143D01*
X7664357Y-13724286D01*
X7664357Y-13767143D01*
X7650071Y-13824286D01*
X7635786Y-13852857D01*
X7607214Y-13881429D01*
X7564357Y-13895714D01*
X7492928Y-13895714D01*
X7792928Y-13895714D02*
X7792928Y-13695714D01*
X7792928Y-13752857D02*
X7807214Y-13724286D01*
X7821500Y-13710000D01*
X7850071Y-13695714D01*
X7878643Y-13695714D01*
X7978643Y-13895714D02*
X7978643Y-13695714D01*
X7978643Y-13595714D02*
X7964357Y-13610000D01*
X7978643Y-13624286D01*
X7992928Y-13610000D01*
X7978643Y-13595714D01*
X7978643Y-13624286D01*
X8164357Y-13895714D02*
X8135786Y-13881429D01*
X8121500Y-13852857D01*
X8121500Y-13595714D01*
X8321500Y-13895714D02*
X8292928Y-13881429D01*
X8278643Y-13852857D01*
X8278643Y-13595714D01*
X8664357Y-13895714D02*
X8664357Y-13595714D01*
X8764357Y-13810000D01*
X8864357Y-13595714D01*
X8864357Y-13895714D01*
X9135786Y-13895714D02*
X9135786Y-13738571D01*
X9121500Y-13710000D01*
X9092928Y-13695714D01*
X9035786Y-13695714D01*
X9007214Y-13710000D01*
X9135786Y-13881429D02*
X9107214Y-13895714D01*
X9035786Y-13895714D01*
X9007214Y-13881429D01*
X8992928Y-13852857D01*
X8992928Y-13824286D01*
X9007214Y-13795714D01*
X9035786Y-13781429D01*
X9107214Y-13781429D01*
X9135786Y-13767143D01*
X9278643Y-13695714D02*
X9278643Y-13995714D01*
X9278643Y-13710000D02*
X9307214Y-13695714D01*
X9364357Y-13695714D01*
X9392928Y-13710000D01*
X9407214Y-13724286D01*
X9421500Y-13752857D01*
X9421500Y-13838571D01*
X9407214Y-13867143D01*
X9392928Y-13881429D01*
X9364357Y-13895714D01*
X9307214Y-13895714D01*
X9278643Y-13881429D01*
X9550071Y-13867143D02*
X9564357Y-13881429D01*
X9550071Y-13895714D01*
X9535786Y-13881429D01*
X9550071Y-13867143D01*
X9550071Y-13895714D01*
X9550071Y-13710000D02*
X9564357Y-13724286D01*
X9550071Y-13738571D01*
X9535786Y-13724286D01*
X9550071Y-13710000D01*
X9550071Y-13738571D01*
X6936500Y-14255000D02*
X7206500Y-14525000D01*
X7206500Y-14255000D02*
X6936500Y-14525000D01*
X7478643Y-14254286D02*
X7492928Y-14240000D01*
X7521500Y-14225714D01*
X7592928Y-14225714D01*
X7621500Y-14240000D01*
X7635786Y-14254286D01*
X7650071Y-14282857D01*
X7650071Y-14311429D01*
X7635786Y-14354286D01*
X7464357Y-14525714D01*
X7650071Y-14525714D01*
X7778643Y-14497143D02*
X7792928Y-14511429D01*
X7778643Y-14525714D01*
X7764357Y-14511429D01*
X7778643Y-14497143D01*
X7778643Y-14525714D01*
X7892928Y-14225714D02*
X8092928Y-14225714D01*
X7964357Y-14525714D01*
X8264357Y-14225714D02*
X8292928Y-14225714D01*
X8321500Y-14240000D01*
X8335786Y-14254286D01*
X8350071Y-14282857D01*
X8364357Y-14340000D01*
X8364357Y-14411429D01*
X8350071Y-14468571D01*
X8335786Y-14497143D01*
X8321500Y-14511429D01*
X8292928Y-14525714D01*
X8264357Y-14525714D01*
X8235786Y-14511429D01*
X8221500Y-14497143D01*
X8207214Y-14468571D01*
X8192928Y-14411429D01*
X8192928Y-14340000D01*
X8207214Y-14282857D01*
X8221500Y-14254286D01*
X8235786Y-14240000D01*
X8264357Y-14225714D01*
X8492928Y-14525714D02*
X8492928Y-14325714D01*
X8492928Y-14354286D02*
X8507214Y-14340000D01*
X8535786Y-14325714D01*
X8578643Y-14325714D01*
X8607214Y-14340000D01*
X8621500Y-14368571D01*
X8621500Y-14525714D01*
X8621500Y-14368571D02*
X8635786Y-14340000D01*
X8664357Y-14325714D01*
X8707214Y-14325714D01*
X8735786Y-14340000D01*
X8750071Y-14368571D01*
X8750071Y-14525714D01*
X8892928Y-14525714D02*
X8892928Y-14325714D01*
X8892928Y-14354286D02*
X8907214Y-14340000D01*
X8935786Y-14325714D01*
X8978643Y-14325714D01*
X9007214Y-14340000D01*
X9021500Y-14368571D01*
X9021500Y-14525714D01*
X9021500Y-14368571D02*
X9035786Y-14340000D01*
X9064357Y-14325714D01*
X9107214Y-14325714D01*
X9135786Y-14340000D01*
X9150071Y-14368571D01*
X9150071Y-14525714D01*
X9735786Y-14211429D02*
X9478643Y-14597143D01*
X10121500Y-14225714D02*
X10150071Y-14225714D01*
X10178643Y-14240000D01*
X10192928Y-14254286D01*
X10207214Y-14282857D01*
X10221500Y-14340000D01*
X10221500Y-14411429D01*
X10207214Y-14468571D01*
X10192928Y-14497143D01*
X10178643Y-14511429D01*
X10150071Y-14525714D01*
X10121500Y-14525714D01*
X10092928Y-14511429D01*
X10078643Y-14497143D01*
X10064357Y-14468571D01*
X10050071Y-14411429D01*
X10050071Y-14340000D01*
X10064357Y-14282857D01*
X10078643Y-14254286D01*
X10092928Y-14240000D01*
X10121500Y-14225714D01*
X10350071Y-14497143D02*
X10364357Y-14511429D01*
X10350071Y-14525714D01*
X10335786Y-14511429D01*
X10350071Y-14497143D01*
X10350071Y-14525714D01*
X10650071Y-14525714D02*
X10478643Y-14525714D01*
X10564357Y-14525714D02*
X10564357Y-14225714D01*
X10535786Y-14268571D01*
X10507214Y-14297143D01*
X10478643Y-14311429D01*
X10835786Y-14225714D02*
X10864357Y-14225714D01*
X10892928Y-14240000D01*
X10907214Y-14254286D01*
X10921500Y-14282857D01*
X10935786Y-14340000D01*
X10935786Y-14411429D01*
X10921500Y-14468571D01*
X10907214Y-14497143D01*
X10892928Y-14511429D01*
X10864357Y-14525714D01*
X10835786Y-14525714D01*
X10807214Y-14511429D01*
X10792928Y-14497143D01*
X10778643Y-14468571D01*
X10764357Y-14411429D01*
X10764357Y-14340000D01*
X10778643Y-14282857D01*
X10792928Y-14254286D01*
X10807214Y-14240000D01*
X10835786Y-14225714D01*
X11192928Y-14225714D02*
X11135786Y-14225714D01*
X11107214Y-14240000D01*
X11092928Y-14254286D01*
X11064357Y-14297143D01*
X11050071Y-14354286D01*
X11050071Y-14468571D01*
X11064357Y-14497143D01*
X11078643Y-14511429D01*
X11107214Y-14525714D01*
X11164357Y-14525714D01*
X11192928Y-14511429D01*
X11207214Y-14497143D01*
X11221500Y-14468571D01*
X11221500Y-14397143D01*
X11207214Y-14368571D01*
X11192928Y-14354286D01*
X11164357Y-14340000D01*
X11107214Y-14340000D01*
X11078643Y-14354286D01*
X11064357Y-14368571D01*
X11050071Y-14397143D01*
X11335786Y-14225714D02*
X11335786Y-14282857D01*
X11450071Y-14225714D02*
X11450071Y-14282857D01*
X11892928Y-14640000D02*
X11878643Y-14625714D01*
X11850071Y-14582857D01*
X11835786Y-14554286D01*
X11821500Y-14511429D01*
X11807214Y-14440000D01*
X11807214Y-14382857D01*
X11821500Y-14311429D01*
X11835786Y-14268571D01*
X11850071Y-14240000D01*
X11878643Y-14197143D01*
X11892928Y-14182857D01*
X12135786Y-14325714D02*
X12135786Y-14525714D01*
X12064357Y-14211429D02*
X11992928Y-14425714D01*
X12178643Y-14425714D01*
X12521500Y-14525714D02*
X12521500Y-14225714D01*
X12650071Y-14525714D02*
X12650071Y-14368571D01*
X12635786Y-14340000D01*
X12607214Y-14325714D01*
X12564357Y-14325714D01*
X12535786Y-14340000D01*
X12521500Y-14354286D01*
X12835786Y-14525714D02*
X12807214Y-14511429D01*
X12792928Y-14497143D01*
X12778643Y-14468571D01*
X12778643Y-14382857D01*
X12792928Y-14354286D01*
X12807214Y-14340000D01*
X12835786Y-14325714D01*
X12878643Y-14325714D01*
X12907214Y-14340000D01*
X12921500Y-14354286D01*
X12935786Y-14382857D01*
X12935786Y-14468571D01*
X12921500Y-14497143D01*
X12907214Y-14511429D01*
X12878643Y-14525714D01*
X12835786Y-14525714D01*
X13107214Y-14525714D02*
X13078643Y-14511429D01*
X13064357Y-14482857D01*
X13064357Y-14225714D01*
X13335786Y-14511429D02*
X13307214Y-14525714D01*
X13250071Y-14525714D01*
X13221500Y-14511429D01*
X13207214Y-14482857D01*
X13207214Y-14368571D01*
X13221500Y-14340000D01*
X13250071Y-14325714D01*
X13307214Y-14325714D01*
X13335786Y-14340000D01*
X13350071Y-14368571D01*
X13350071Y-14397143D01*
X13207214Y-14425714D01*
X13464357Y-14511429D02*
X13492928Y-14525714D01*
X13550071Y-14525714D01*
X13578643Y-14511429D01*
X13592928Y-14482857D01*
X13592928Y-14468571D01*
X13578643Y-14440000D01*
X13550071Y-14425714D01*
X13507214Y-14425714D01*
X13478643Y-14411429D01*
X13464357Y-14382857D01*
X13464357Y-14368571D01*
X13478643Y-14340000D01*
X13507214Y-14325714D01*
X13550071Y-14325714D01*
X13578643Y-14340000D01*
X13692928Y-14640000D02*
X13707214Y-14625714D01*
X13735786Y-14582857D01*
X13750071Y-14554286D01*
X13764357Y-14511429D01*
X13778643Y-14440000D01*
X13778643Y-14382857D01*
X13764357Y-14311429D01*
X13750071Y-14268571D01*
X13735786Y-14240000D01*
X13707214Y-14197143D01*
X13692928Y-14182857D01*
X14235786Y-14640000D02*
X14221500Y-14625714D01*
X14192928Y-14582857D01*
X14178643Y-14554286D01*
X14164357Y-14511429D01*
X14150071Y-14440000D01*
X14150071Y-14382857D01*
X14164357Y-14311429D01*
X14178643Y-14268571D01*
X14192928Y-14240000D01*
X14221500Y-14197143D01*
X14235786Y-14182857D01*
X14350071Y-14325714D02*
X14350071Y-14525714D01*
X14350071Y-14354286D02*
X14364357Y-14340000D01*
X14392928Y-14325714D01*
X14435786Y-14325714D01*
X14464357Y-14340000D01*
X14478643Y-14368571D01*
X14478643Y-14525714D01*
X14664357Y-14525714D02*
X14635786Y-14511429D01*
X14621500Y-14497143D01*
X14607214Y-14468571D01*
X14607214Y-14382857D01*
X14621500Y-14354286D01*
X14635786Y-14340000D01*
X14664357Y-14325714D01*
X14707214Y-14325714D01*
X14735786Y-14340000D01*
X14750071Y-14354286D01*
X14764357Y-14382857D01*
X14764357Y-14468571D01*
X14750071Y-14497143D01*
X14735786Y-14511429D01*
X14707214Y-14525714D01*
X14664357Y-14525714D01*
X14850071Y-14325714D02*
X14964357Y-14325714D01*
X14892928Y-14225714D02*
X14892928Y-14482857D01*
X14907214Y-14511429D01*
X14935786Y-14525714D01*
X14964357Y-14525714D01*
X15292928Y-14325714D02*
X15292928Y-14625714D01*
X15292928Y-14340000D02*
X15321500Y-14325714D01*
X15378643Y-14325714D01*
X15407214Y-14340000D01*
X15421500Y-14354286D01*
X15435786Y-14382857D01*
X15435786Y-14468571D01*
X15421500Y-14497143D01*
X15407214Y-14511429D01*
X15378643Y-14525714D01*
X15321500Y-14525714D01*
X15292928Y-14511429D01*
X15607214Y-14525714D02*
X15578643Y-14511429D01*
X15564357Y-14482857D01*
X15564357Y-14225714D01*
X15850071Y-14525714D02*
X15850071Y-14368571D01*
X15835786Y-14340000D01*
X15807214Y-14325714D01*
X15750071Y-14325714D01*
X15721500Y-14340000D01*
X15850071Y-14511429D02*
X15821500Y-14525714D01*
X15750071Y-14525714D01*
X15721500Y-14511429D01*
X15707214Y-14482857D01*
X15707214Y-14454286D01*
X15721500Y-14425714D01*
X15750071Y-14411429D01*
X15821500Y-14411429D01*
X15850071Y-14397143D01*
X15950071Y-14325714D02*
X16064357Y-14325714D01*
X15992928Y-14225714D02*
X15992928Y-14482857D01*
X16007214Y-14511429D01*
X16035786Y-14525714D01*
X16064357Y-14525714D01*
X16278643Y-14511429D02*
X16250071Y-14525714D01*
X16192928Y-14525714D01*
X16164357Y-14511429D01*
X16150071Y-14482857D01*
X16150071Y-14368571D01*
X16164357Y-14340000D01*
X16192928Y-14325714D01*
X16250071Y-14325714D01*
X16278643Y-14340000D01*
X16292928Y-14368571D01*
X16292928Y-14397143D01*
X16150071Y-14425714D01*
X16550071Y-14525714D02*
X16550071Y-14225714D01*
X16550071Y-14511429D02*
X16521500Y-14525714D01*
X16464357Y-14525714D01*
X16435786Y-14511429D01*
X16421500Y-14497143D01*
X16407214Y-14468571D01*
X16407214Y-14382857D01*
X16421500Y-14354286D01*
X16435786Y-14340000D01*
X16464357Y-14325714D01*
X16521500Y-14325714D01*
X16550071Y-14340000D01*
X16664357Y-14640000D02*
X16678643Y-14625714D01*
X16707214Y-14582857D01*
X16721500Y-14554286D01*
X16735786Y-14511429D01*
X16750071Y-14440000D01*
X16750071Y-14382857D01*
X16735786Y-14311429D01*
X16721500Y-14268571D01*
X16707214Y-14240000D01*
X16678643Y-14197143D01*
X16664357Y-14182857D01*
X7206500Y-14790000D02*
G75*
G03*
X7206500Y-14790000I-350000J0D01*
G01*
X7464357Y-14625714D02*
X7664357Y-14625714D01*
X7535786Y-14925714D01*
X7778643Y-14897143D02*
X7792928Y-14911429D01*
X7778643Y-14925714D01*
X7764357Y-14911429D01*
X7778643Y-14897143D01*
X7778643Y-14925714D01*
X7978643Y-14625714D02*
X8007214Y-14625714D01*
X8035786Y-14640000D01*
X8050071Y-14654286D01*
X8064357Y-14682857D01*
X8078643Y-14740000D01*
X8078643Y-14811429D01*
X8064357Y-14868571D01*
X8050071Y-14897143D01*
X8035786Y-14911429D01*
X8007214Y-14925714D01*
X7978643Y-14925714D01*
X7950071Y-14911429D01*
X7935786Y-14897143D01*
X7921500Y-14868571D01*
X7907214Y-14811429D01*
X7907214Y-14740000D01*
X7921500Y-14682857D01*
X7935786Y-14654286D01*
X7950071Y-14640000D01*
X7978643Y-14625714D01*
X8264357Y-14625714D02*
X8292928Y-14625714D01*
X8321500Y-14640000D01*
X8335786Y-14654286D01*
X8350071Y-14682857D01*
X8364357Y-14740000D01*
X8364357Y-14811429D01*
X8350071Y-14868571D01*
X8335786Y-14897143D01*
X8321500Y-14911429D01*
X8292928Y-14925714D01*
X8264357Y-14925714D01*
X8235786Y-14911429D01*
X8221500Y-14897143D01*
X8207214Y-14868571D01*
X8192928Y-14811429D01*
X8192928Y-14740000D01*
X8207214Y-14682857D01*
X8221500Y-14654286D01*
X8235786Y-14640000D01*
X8264357Y-14625714D01*
X8492928Y-14925714D02*
X8492928Y-14725714D01*
X8492928Y-14754286D02*
X8507214Y-14740000D01*
X8535786Y-14725714D01*
X8578643Y-14725714D01*
X8607214Y-14740000D01*
X8621500Y-14768571D01*
X8621500Y-14925714D01*
X8621500Y-14768571D02*
X8635786Y-14740000D01*
X8664357Y-14725714D01*
X8707214Y-14725714D01*
X8735786Y-14740000D01*
X8750071Y-14768571D01*
X8750071Y-14925714D01*
X8892928Y-14925714D02*
X8892928Y-14725714D01*
X8892928Y-14754286D02*
X8907214Y-14740000D01*
X8935786Y-14725714D01*
X8978643Y-14725714D01*
X9007214Y-14740000D01*
X9021500Y-14768571D01*
X9021500Y-14925714D01*
X9021500Y-14768571D02*
X9035786Y-14740000D01*
X9064357Y-14725714D01*
X9107214Y-14725714D01*
X9135786Y-14740000D01*
X9150071Y-14768571D01*
X9150071Y-14925714D01*
X9735786Y-14611429D02*
X9478643Y-14997143D01*
X10121500Y-14625714D02*
X10150071Y-14625714D01*
X10178643Y-14640000D01*
X10192928Y-14654286D01*
X10207214Y-14682857D01*
X10221500Y-14740000D01*
X10221500Y-14811429D01*
X10207214Y-14868571D01*
X10192928Y-14897143D01*
X10178643Y-14911429D01*
X10150071Y-14925714D01*
X10121500Y-14925714D01*
X10092928Y-14911429D01*
X10078643Y-14897143D01*
X10064357Y-14868571D01*
X10050071Y-14811429D01*
X10050071Y-14740000D01*
X10064357Y-14682857D01*
X10078643Y-14654286D01*
X10092928Y-14640000D01*
X10121500Y-14625714D01*
X10350071Y-14897143D02*
X10364357Y-14911429D01*
X10350071Y-14925714D01*
X10335786Y-14911429D01*
X10350071Y-14897143D01*
X10350071Y-14925714D01*
X10478643Y-14654286D02*
X10492928Y-14640000D01*
X10521500Y-14625714D01*
X10592928Y-14625714D01*
X10621500Y-14640000D01*
X10635786Y-14654286D01*
X10650071Y-14682857D01*
X10650071Y-14711429D01*
X10635786Y-14754286D01*
X10464357Y-14925714D01*
X10650071Y-14925714D01*
X10750071Y-14625714D02*
X10950071Y-14625714D01*
X10821500Y-14925714D01*
X11192928Y-14625714D02*
X11135786Y-14625714D01*
X11107214Y-14640000D01*
X11092928Y-14654286D01*
X11064357Y-14697143D01*
X11050071Y-14754286D01*
X11050071Y-14868571D01*
X11064357Y-14897143D01*
X11078643Y-14911429D01*
X11107214Y-14925714D01*
X11164357Y-14925714D01*
X11192928Y-14911429D01*
X11207214Y-14897143D01*
X11221500Y-14868571D01*
X11221500Y-14797143D01*
X11207214Y-14768571D01*
X11192928Y-14754286D01*
X11164357Y-14740000D01*
X11107214Y-14740000D01*
X11078643Y-14754286D01*
X11064357Y-14768571D01*
X11050071Y-14797143D01*
X11335786Y-14625714D02*
X11335786Y-14682857D01*
X11450071Y-14625714D02*
X11450071Y-14682857D01*
X11892928Y-15040000D02*
X11878643Y-15025714D01*
X11850071Y-14982857D01*
X11835786Y-14954286D01*
X11821500Y-14911429D01*
X11807214Y-14840000D01*
X11807214Y-14782857D01*
X11821500Y-14711429D01*
X11835786Y-14668571D01*
X11850071Y-14640000D01*
X11878643Y-14597143D01*
X11892928Y-14582857D01*
X12135786Y-14725714D02*
X12135786Y-14925714D01*
X12064357Y-14611429D02*
X11992928Y-14825714D01*
X12178643Y-14825714D01*
X12521500Y-14925714D02*
X12521500Y-14625714D01*
X12650071Y-14925714D02*
X12650071Y-14768571D01*
X12635786Y-14740000D01*
X12607214Y-14725714D01*
X12564357Y-14725714D01*
X12535786Y-14740000D01*
X12521500Y-14754286D01*
X12835786Y-14925714D02*
X12807214Y-14911429D01*
X12792928Y-14897143D01*
X12778643Y-14868571D01*
X12778643Y-14782857D01*
X12792928Y-14754286D01*
X12807214Y-14740000D01*
X12835786Y-14725714D01*
X12878643Y-14725714D01*
X12907214Y-14740000D01*
X12921500Y-14754286D01*
X12935786Y-14782857D01*
X12935786Y-14868571D01*
X12921500Y-14897143D01*
X12907214Y-14911429D01*
X12878643Y-14925714D01*
X12835786Y-14925714D01*
X13107214Y-14925714D02*
X13078643Y-14911429D01*
X13064357Y-14882857D01*
X13064357Y-14625714D01*
X13335786Y-14911429D02*
X13307214Y-14925714D01*
X13250071Y-14925714D01*
X13221500Y-14911429D01*
X13207214Y-14882857D01*
X13207214Y-14768571D01*
X13221500Y-14740000D01*
X13250071Y-14725714D01*
X13307214Y-14725714D01*
X13335786Y-14740000D01*
X13350071Y-14768571D01*
X13350071Y-14797143D01*
X13207214Y-14825714D01*
X13464357Y-14911429D02*
X13492928Y-14925714D01*
X13550071Y-14925714D01*
X13578643Y-14911429D01*
X13592928Y-14882857D01*
X13592928Y-14868571D01*
X13578643Y-14840000D01*
X13550071Y-14825714D01*
X13507214Y-14825714D01*
X13478643Y-14811429D01*
X13464357Y-14782857D01*
X13464357Y-14768571D01*
X13478643Y-14740000D01*
X13507214Y-14725714D01*
X13550071Y-14725714D01*
X13578643Y-14740000D01*
X13692928Y-15040000D02*
X13707214Y-15025714D01*
X13735786Y-14982857D01*
X13750071Y-14954286D01*
X13764357Y-14911429D01*
X13778643Y-14840000D01*
X13778643Y-14782857D01*
X13764357Y-14711429D01*
X13750071Y-14668571D01*
X13735786Y-14640000D01*
X13707214Y-14597143D01*
X13692928Y-14582857D01*
X14235786Y-15040000D02*
X14221500Y-15025714D01*
X14192928Y-14982857D01*
X14178643Y-14954286D01*
X14164357Y-14911429D01*
X14150071Y-14840000D01*
X14150071Y-14782857D01*
X14164357Y-14711429D01*
X14178643Y-14668571D01*
X14192928Y-14640000D01*
X14221500Y-14597143D01*
X14235786Y-14582857D01*
X14350071Y-14725714D02*
X14350071Y-14925714D01*
X14350071Y-14754286D02*
X14364357Y-14740000D01*
X14392928Y-14725714D01*
X14435786Y-14725714D01*
X14464357Y-14740000D01*
X14478643Y-14768571D01*
X14478643Y-14925714D01*
X14664357Y-14925714D02*
X14635786Y-14911429D01*
X14621500Y-14897143D01*
X14607214Y-14868571D01*
X14607214Y-14782857D01*
X14621500Y-14754286D01*
X14635786Y-14740000D01*
X14664357Y-14725714D01*
X14707214Y-14725714D01*
X14735786Y-14740000D01*
X14750071Y-14754286D01*
X14764357Y-14782857D01*
X14764357Y-14868571D01*
X14750071Y-14897143D01*
X14735786Y-14911429D01*
X14707214Y-14925714D01*
X14664357Y-14925714D01*
X14850071Y-14725714D02*
X14964357Y-14725714D01*
X14892928Y-14625714D02*
X14892928Y-14882857D01*
X14907214Y-14911429D01*
X14935786Y-14925714D01*
X14964357Y-14925714D01*
X15292928Y-14725714D02*
X15292928Y-15025714D01*
X15292928Y-14740000D02*
X15321500Y-14725714D01*
X15378643Y-14725714D01*
X15407214Y-14740000D01*
X15421500Y-14754286D01*
X15435786Y-14782857D01*
X15435786Y-14868571D01*
X15421500Y-14897143D01*
X15407214Y-14911429D01*
X15378643Y-14925714D01*
X15321500Y-14925714D01*
X15292928Y-14911429D01*
X15607214Y-14925714D02*
X15578643Y-14911429D01*
X15564357Y-14882857D01*
X15564357Y-14625714D01*
X15850071Y-14925714D02*
X15850071Y-14768571D01*
X15835786Y-14740000D01*
X15807214Y-14725714D01*
X15750071Y-14725714D01*
X15721500Y-14740000D01*
X15850071Y-14911429D02*
X15821500Y-14925714D01*
X15750071Y-14925714D01*
X15721500Y-14911429D01*
X15707214Y-14882857D01*
X15707214Y-14854286D01*
X15721500Y-14825714D01*
X15750071Y-14811429D01*
X15821500Y-14811429D01*
X15850071Y-14797143D01*
X15950071Y-14725714D02*
X16064357Y-14725714D01*
X15992928Y-14625714D02*
X15992928Y-14882857D01*
X16007214Y-14911429D01*
X16035786Y-14925714D01*
X16064357Y-14925714D01*
X16278643Y-14911429D02*
X16250071Y-14925714D01*
X16192928Y-14925714D01*
X16164357Y-14911429D01*
X16150071Y-14882857D01*
X16150071Y-14768571D01*
X16164357Y-14740000D01*
X16192928Y-14725714D01*
X16250071Y-14725714D01*
X16278643Y-14740000D01*
X16292928Y-14768571D01*
X16292928Y-14797143D01*
X16150071Y-14825714D01*
X16550071Y-14925714D02*
X16550071Y-14625714D01*
X16550071Y-14911429D02*
X16521500Y-14925714D01*
X16464357Y-14925714D01*
X16435786Y-14911429D01*
X16421500Y-14897143D01*
X16407214Y-14868571D01*
X16407214Y-14782857D01*
X16421500Y-14754286D01*
X16435786Y-14740000D01*
X16464357Y-14725714D01*
X16521500Y-14725714D01*
X16550071Y-14740000D01*
X16664357Y-15040000D02*
X16678643Y-15025714D01*
X16707214Y-14982857D01*
X16721500Y-14954286D01*
X16735786Y-14911429D01*
X16750071Y-14840000D01*
X16750071Y-14782857D01*
X16735786Y-14711429D01*
X16721500Y-14668571D01*
X16707214Y-14640000D01*
X16678643Y-14597143D01*
X16664357Y-14582857D01*
X6806500Y-15220000D02*
X6806500Y-16020000D01*
X6406500Y-15620000D02*
X7206500Y-15620000D01*
X7535786Y-15584286D02*
X7507214Y-15570000D01*
X7492928Y-15555714D01*
X7478643Y-15527143D01*
X7478643Y-15512857D01*
X7492928Y-15484286D01*
X7507214Y-15470000D01*
X7535786Y-15455714D01*
X7592928Y-15455714D01*
X7621500Y-15470000D01*
X7635786Y-15484286D01*
X7650071Y-15512857D01*
X7650071Y-15527143D01*
X7635786Y-15555714D01*
X7621500Y-15570000D01*
X7592928Y-15584286D01*
X7535786Y-15584286D01*
X7507214Y-15598571D01*
X7492928Y-15612857D01*
X7478643Y-15641429D01*
X7478643Y-15698571D01*
X7492928Y-15727143D01*
X7507214Y-15741429D01*
X7535786Y-15755714D01*
X7592928Y-15755714D01*
X7621500Y-15741429D01*
X7635786Y-15727143D01*
X7650071Y-15698571D01*
X7650071Y-15641429D01*
X7635786Y-15612857D01*
X7621500Y-15598571D01*
X7592928Y-15584286D01*
X7778643Y-15727143D02*
X7792928Y-15741429D01*
X7778643Y-15755714D01*
X7764357Y-15741429D01*
X7778643Y-15727143D01*
X7778643Y-15755714D01*
X7978643Y-15455714D02*
X8007214Y-15455714D01*
X8035786Y-15470000D01*
X8050071Y-15484286D01*
X8064357Y-15512857D01*
X8078643Y-15570000D01*
X8078643Y-15641429D01*
X8064357Y-15698571D01*
X8050071Y-15727143D01*
X8035786Y-15741429D01*
X8007214Y-15755714D01*
X7978643Y-15755714D01*
X7950071Y-15741429D01*
X7935786Y-15727143D01*
X7921500Y-15698571D01*
X7907214Y-15641429D01*
X7907214Y-15570000D01*
X7921500Y-15512857D01*
X7935786Y-15484286D01*
X7950071Y-15470000D01*
X7978643Y-15455714D01*
X8264357Y-15455714D02*
X8292928Y-15455714D01*
X8321500Y-15470000D01*
X8335786Y-15484286D01*
X8350071Y-15512857D01*
X8364357Y-15570000D01*
X8364357Y-15641429D01*
X8350071Y-15698571D01*
X8335786Y-15727143D01*
X8321500Y-15741429D01*
X8292928Y-15755714D01*
X8264357Y-15755714D01*
X8235786Y-15741429D01*
X8221500Y-15727143D01*
X8207214Y-15698571D01*
X8192928Y-15641429D01*
X8192928Y-15570000D01*
X8207214Y-15512857D01*
X8221500Y-15484286D01*
X8235786Y-15470000D01*
X8264357Y-15455714D01*
X8492928Y-15755714D02*
X8492928Y-15555714D01*
X8492928Y-15584286D02*
X8507214Y-15570000D01*
X8535786Y-15555714D01*
X8578643Y-15555714D01*
X8607214Y-15570000D01*
X8621500Y-15598571D01*
X8621500Y-15755714D01*
X8621500Y-15598571D02*
X8635786Y-15570000D01*
X8664357Y-15555714D01*
X8707214Y-15555714D01*
X8735786Y-15570000D01*
X8750071Y-15598571D01*
X8750071Y-15755714D01*
X8892928Y-15755714D02*
X8892928Y-15555714D01*
X8892928Y-15584286D02*
X8907214Y-15570000D01*
X8935786Y-15555714D01*
X8978643Y-15555714D01*
X9007214Y-15570000D01*
X9021500Y-15598571D01*
X9021500Y-15755714D01*
X9021500Y-15598571D02*
X9035786Y-15570000D01*
X9064357Y-15555714D01*
X9107214Y-15555714D01*
X9135786Y-15570000D01*
X9150071Y-15598571D01*
X9150071Y-15755714D01*
X9735786Y-15441429D02*
X9478643Y-15827143D01*
X10121500Y-15455714D02*
X10150071Y-15455714D01*
X10178643Y-15470000D01*
X10192928Y-15484286D01*
X10207214Y-15512857D01*
X10221500Y-15570000D01*
X10221500Y-15641429D01*
X10207214Y-15698571D01*
X10192928Y-15727143D01*
X10178643Y-15741429D01*
X10150071Y-15755714D01*
X10121500Y-15755714D01*
X10092928Y-15741429D01*
X10078643Y-15727143D01*
X10064357Y-15698571D01*
X10050071Y-15641429D01*
X10050071Y-15570000D01*
X10064357Y-15512857D01*
X10078643Y-15484286D01*
X10092928Y-15470000D01*
X10121500Y-15455714D01*
X10350071Y-15727143D02*
X10364357Y-15741429D01*
X10350071Y-15755714D01*
X10335786Y-15741429D01*
X10350071Y-15727143D01*
X10350071Y-15755714D01*
X10464357Y-15455714D02*
X10650071Y-15455714D01*
X10550071Y-15570000D01*
X10592928Y-15570000D01*
X10621500Y-15584286D01*
X10635786Y-15598571D01*
X10650071Y-15627143D01*
X10650071Y-15698571D01*
X10635786Y-15727143D01*
X10621500Y-15741429D01*
X10592928Y-15755714D01*
X10507214Y-15755714D01*
X10478643Y-15741429D01*
X10464357Y-15727143D01*
X10935786Y-15755714D02*
X10764357Y-15755714D01*
X10850071Y-15755714D02*
X10850071Y-15455714D01*
X10821500Y-15498571D01*
X10792928Y-15527143D01*
X10764357Y-15541429D01*
X11207214Y-15455714D02*
X11064357Y-15455714D01*
X11050071Y-15598571D01*
X11064357Y-15584286D01*
X11092928Y-15570000D01*
X11164357Y-15570000D01*
X11192928Y-15584286D01*
X11207214Y-15598571D01*
X11221500Y-15627143D01*
X11221500Y-15698571D01*
X11207214Y-15727143D01*
X11192928Y-15741429D01*
X11164357Y-15755714D01*
X11092928Y-15755714D01*
X11064357Y-15741429D01*
X11050071Y-15727143D01*
X11335786Y-15455714D02*
X11335786Y-15512857D01*
X11450071Y-15455714D02*
X11450071Y-15512857D01*
X11892928Y-15870000D02*
X11878643Y-15855714D01*
X11850071Y-15812857D01*
X11835786Y-15784286D01*
X11821500Y-15741429D01*
X11807214Y-15670000D01*
X11807214Y-15612857D01*
X11821500Y-15541429D01*
X11835786Y-15498571D01*
X11850071Y-15470000D01*
X11878643Y-15427143D01*
X11892928Y-15412857D01*
X12164357Y-15755714D02*
X11992928Y-15755714D01*
X12078643Y-15755714D02*
X12078643Y-15455714D01*
X12050071Y-15498571D01*
X12021500Y-15527143D01*
X11992928Y-15541429D01*
X12521500Y-15755714D02*
X12521500Y-15455714D01*
X12650071Y-15755714D02*
X12650071Y-15598571D01*
X12635786Y-15570000D01*
X12607214Y-15555714D01*
X12564357Y-15555714D01*
X12535786Y-15570000D01*
X12521500Y-15584286D01*
X12835786Y-15755714D02*
X12807214Y-15741429D01*
X12792928Y-15727143D01*
X12778643Y-15698571D01*
X12778643Y-15612857D01*
X12792928Y-15584286D01*
X12807214Y-15570000D01*
X12835786Y-15555714D01*
X12878643Y-15555714D01*
X12907214Y-15570000D01*
X12921500Y-15584286D01*
X12935786Y-15612857D01*
X12935786Y-15698571D01*
X12921500Y-15727143D01*
X12907214Y-15741429D01*
X12878643Y-15755714D01*
X12835786Y-15755714D01*
X13107214Y-15755714D02*
X13078643Y-15741429D01*
X13064357Y-15712857D01*
X13064357Y-15455714D01*
X13335786Y-15741429D02*
X13307214Y-15755714D01*
X13250071Y-15755714D01*
X13221500Y-15741429D01*
X13207214Y-15712857D01*
X13207214Y-15598571D01*
X13221500Y-15570000D01*
X13250071Y-15555714D01*
X13307214Y-15555714D01*
X13335786Y-15570000D01*
X13350071Y-15598571D01*
X13350071Y-15627143D01*
X13207214Y-15655714D01*
X13450071Y-15870000D02*
X13464357Y-15855714D01*
X13492928Y-15812857D01*
X13507214Y-15784286D01*
X13521500Y-15741429D01*
X13535786Y-15670000D01*
X13535786Y-15612857D01*
X13521500Y-15541429D01*
X13507214Y-15498571D01*
X13492928Y-15470000D01*
X13464357Y-15427143D01*
X13450071Y-15412857D01*
X13992928Y-15870000D02*
X13978643Y-15855714D01*
X13950071Y-15812857D01*
X13935786Y-15784286D01*
X13921500Y-15741429D01*
X13907214Y-15670000D01*
X13907214Y-15612857D01*
X13921500Y-15541429D01*
X13935786Y-15498571D01*
X13950071Y-15470000D01*
X13978643Y-15427143D01*
X13992928Y-15412857D01*
X14107214Y-15555714D02*
X14107214Y-15755714D01*
X14107214Y-15584286D02*
X14121500Y-15570000D01*
X14150071Y-15555714D01*
X14192928Y-15555714D01*
X14221500Y-15570000D01*
X14235786Y-15598571D01*
X14235786Y-15755714D01*
X14421500Y-15755714D02*
X14392928Y-15741429D01*
X14378643Y-15727143D01*
X14364357Y-15698571D01*
X14364357Y-15612857D01*
X14378643Y-15584286D01*
X14392928Y-15570000D01*
X14421500Y-15555714D01*
X14464357Y-15555714D01*
X14492928Y-15570000D01*
X14507214Y-15584286D01*
X14521500Y-15612857D01*
X14521500Y-15698571D01*
X14507214Y-15727143D01*
X14492928Y-15741429D01*
X14464357Y-15755714D01*
X14421500Y-15755714D01*
X14607214Y-15555714D02*
X14721500Y-15555714D01*
X14650071Y-15455714D02*
X14650071Y-15712857D01*
X14664357Y-15741429D01*
X14692928Y-15755714D01*
X14721500Y-15755714D01*
X15050071Y-15555714D02*
X15050071Y-15855714D01*
X15050071Y-15570000D02*
X15078643Y-15555714D01*
X15135786Y-15555714D01*
X15164357Y-15570000D01*
X15178643Y-15584286D01*
X15192928Y-15612857D01*
X15192928Y-15698571D01*
X15178643Y-15727143D01*
X15164357Y-15741429D01*
X15135786Y-15755714D01*
X15078643Y-15755714D01*
X15050071Y-15741429D01*
X15364357Y-15755714D02*
X15335786Y-15741429D01*
X15321500Y-15712857D01*
X15321500Y-15455714D01*
X15607214Y-15755714D02*
X15607214Y-15598571D01*
X15592928Y-15570000D01*
X15564357Y-15555714D01*
X15507214Y-15555714D01*
X15478643Y-15570000D01*
X15607214Y-15741429D02*
X15578643Y-15755714D01*
X15507214Y-15755714D01*
X15478643Y-15741429D01*
X15464357Y-15712857D01*
X15464357Y-15684286D01*
X15478643Y-15655714D01*
X15507214Y-15641429D01*
X15578643Y-15641429D01*
X15607214Y-15627143D01*
X15707214Y-15555714D02*
X15821500Y-15555714D01*
X15750071Y-15455714D02*
X15750071Y-15712857D01*
X15764357Y-15741429D01*
X15792928Y-15755714D01*
X15821500Y-15755714D01*
X16035786Y-15741429D02*
X16007214Y-15755714D01*
X15950071Y-15755714D01*
X15921500Y-15741429D01*
X15907214Y-15712857D01*
X15907214Y-15598571D01*
X15921500Y-15570000D01*
X15950071Y-15555714D01*
X16007214Y-15555714D01*
X16035786Y-15570000D01*
X16050071Y-15598571D01*
X16050071Y-15627143D01*
X15907214Y-15655714D01*
X16307214Y-15755714D02*
X16307214Y-15455714D01*
X16307214Y-15741429D02*
X16278643Y-15755714D01*
X16221500Y-15755714D01*
X16192928Y-15741429D01*
X16178643Y-15727143D01*
X16164357Y-15698571D01*
X16164357Y-15612857D01*
X16178643Y-15584286D01*
X16192928Y-15570000D01*
X16221500Y-15555714D01*
X16278643Y-15555714D01*
X16307214Y-15570000D01*
X16421500Y-15870000D02*
X16435786Y-15855714D01*
X16464357Y-15812857D01*
X16478643Y-15784286D01*
X16492928Y-15741429D01*
X16507214Y-15670000D01*
X16507214Y-15612857D01*
X16492928Y-15541429D01*
X16478643Y-15498571D01*
X16464357Y-15470000D01*
X16435786Y-15427143D01*
X16421500Y-15412857D01*
M02*
