%TF.GenerationSoftware,KiCad,Pcbnew,5.1.9+dfsg1-1~bpo10+1*%
%TF.CreationDate,2021-11-03T11:38:12+01:00*%
%TF.ProjectId,SynthoGame_top,53796e74-686f-4476-916d-655f746f702e,rev?*%
%TF.SameCoordinates,Original*%
%TF.FileFunction,Legend,Bot*%
%TF.FilePolarity,Positive*%
%FSLAX46Y46*%
G04 Gerber Fmt 4.6, Leading zero omitted, Abs format (unit mm)*
G04 Created by KiCad (PCBNEW 5.1.9+dfsg1-1~bpo10+1) date 2021-11-03 11:38:12*
%MOMM*%
%LPD*%
G01*
G04 APERTURE LIST*
%ADD10C,0.200000*%
%ADD11C,0.120000*%
%ADD12C,0.150000*%
%ADD13C,0.100000*%
G04 APERTURE END LIST*
D10*
X215582733Y-113247604D02*
X215515389Y-113382291D01*
X215347031Y-113550650D01*
X215246015Y-113584321D01*
X215178672Y-113584321D01*
X215077657Y-113550650D01*
X215010313Y-113483306D01*
X214976641Y-113382291D01*
X214976641Y-113314947D01*
X215010313Y-113213932D01*
X215111328Y-113045573D01*
X215145000Y-112944558D01*
X215145000Y-112877215D01*
X215111328Y-112776199D01*
X215043985Y-112708856D01*
X214942970Y-112675184D01*
X214875626Y-112675184D01*
X214774611Y-112708856D01*
X214606252Y-112877215D01*
X214538909Y-113011902D01*
X213865473Y-113685337D02*
X213899145Y-113584321D01*
X214000160Y-113483306D01*
X214134847Y-113415963D01*
X214269534Y-113415963D01*
X214370550Y-113449634D01*
X214538909Y-113550650D01*
X214639924Y-113651665D01*
X214740939Y-113820024D01*
X214774611Y-113921039D01*
X214774611Y-114055726D01*
X214707267Y-114190413D01*
X214639924Y-114257757D01*
X214505237Y-114325100D01*
X214437893Y-114325100D01*
X214202191Y-114089398D01*
X214336878Y-113954711D01*
X213057351Y-114426115D02*
X212653290Y-114830176D01*
X213562428Y-115335253D02*
X212855321Y-114628146D01*
X213023680Y-115874001D02*
X213057351Y-115772985D01*
X213057351Y-115705642D01*
X213023680Y-115604627D01*
X212821649Y-115402596D01*
X212720634Y-115368924D01*
X212653290Y-115368924D01*
X212552275Y-115402596D01*
X212451260Y-115503611D01*
X212417588Y-115604627D01*
X212417588Y-115671970D01*
X212451260Y-115772985D01*
X212653290Y-115975016D01*
X212754306Y-116008688D01*
X212821649Y-116008688D01*
X212922664Y-115975016D01*
X213023680Y-115874001D01*
X211710481Y-116244390D02*
X212181886Y-116715794D01*
X212013527Y-115941344D02*
X212383916Y-116311733D01*
X212417588Y-116412749D01*
X212383916Y-116513764D01*
X212282901Y-116614779D01*
X212181886Y-116648451D01*
X212114542Y-116648451D01*
X211508451Y-117321886D02*
X211609466Y-117288214D01*
X211744153Y-117153527D01*
X211777825Y-117052512D01*
X211777825Y-116985168D01*
X211744153Y-116884153D01*
X211542123Y-116682123D01*
X211441107Y-116648451D01*
X211373764Y-116648451D01*
X211272749Y-116682123D01*
X211138062Y-116816810D01*
X211104390Y-116917825D01*
X211239077Y-117658603D02*
X210531970Y-116951497D01*
X210936031Y-117961649D02*
X210565642Y-117591260D01*
X210531970Y-117490245D01*
X210565642Y-117389229D01*
X210666657Y-117288214D01*
X210767672Y-117254542D01*
X210835016Y-117254542D01*
X209656505Y-118298367D02*
X209959550Y-118938130D01*
X209319787Y-118635084D01*
X209151428Y-119746252D02*
X209555489Y-119342191D01*
X209353459Y-119544222D02*
X208646352Y-118837115D01*
X208814711Y-118870786D01*
X208949398Y-118870786D01*
X209050413Y-118837115D01*
X208781039Y-119981954D02*
X208781039Y-120049298D01*
X208848383Y-120049298D01*
X208848383Y-119981954D01*
X208781039Y-119981954D01*
X208848383Y-120049298D01*
X207669871Y-119813596D02*
X207602528Y-119880939D01*
X207568856Y-119981954D01*
X207568856Y-120049298D01*
X207602528Y-120150313D01*
X207703543Y-120318672D01*
X207871902Y-120487031D01*
X208040260Y-120588046D01*
X208141276Y-120621718D01*
X208208619Y-120621718D01*
X208309634Y-120588046D01*
X208376978Y-120520702D01*
X208410650Y-120419687D01*
X208410650Y-120352344D01*
X208376978Y-120251328D01*
X208275963Y-120082970D01*
X208107604Y-119914611D01*
X207939245Y-119813596D01*
X207838230Y-119779924D01*
X207770886Y-119779924D01*
X207669871Y-119813596D01*
X215101227Y-114786403D02*
X215033884Y-114853747D01*
X215000212Y-114954762D01*
X215000212Y-115022106D01*
X215033884Y-115123121D01*
X215134899Y-115291480D01*
X215303258Y-115459839D01*
X215471616Y-115560854D01*
X215572632Y-115594526D01*
X215639975Y-115594526D01*
X215740991Y-115560854D01*
X215808334Y-115493510D01*
X215842006Y-115392495D01*
X215842006Y-115325152D01*
X215808334Y-115224136D01*
X215707319Y-115055777D01*
X215538960Y-114887419D01*
X215370601Y-114786403D01*
X215269586Y-114752732D01*
X215202242Y-114752732D01*
X215101227Y-114786403D01*
X214629823Y-115257808D02*
X214192090Y-115695541D01*
X214697166Y-115729213D01*
X214596151Y-115830228D01*
X214562479Y-115931243D01*
X214562479Y-115998587D01*
X214596151Y-116099602D01*
X214764510Y-116267961D01*
X214865525Y-116301632D01*
X214932868Y-116301632D01*
X215033884Y-116267961D01*
X215235914Y-116065930D01*
X215269586Y-115964915D01*
X215269586Y-115897571D01*
X214528807Y-116638350D02*
X214528807Y-116705693D01*
X214596151Y-116705693D01*
X214596151Y-116638350D01*
X214528807Y-116638350D01*
X214596151Y-116705693D01*
X213889044Y-117412800D02*
X214293105Y-117008739D01*
X214091075Y-117210770D02*
X213383968Y-116503663D01*
X213552327Y-116537335D01*
X213687014Y-116537335D01*
X213788029Y-116503663D01*
X213215609Y-118086235D02*
X213619670Y-117682174D01*
X213417640Y-117884205D02*
X212710533Y-117177098D01*
X212878892Y-117210770D01*
X213013579Y-117210770D01*
X213114594Y-117177098D01*
X212845220Y-118321937D02*
X212845220Y-118389281D01*
X212912563Y-118389281D01*
X212912563Y-118321937D01*
X212845220Y-118321937D01*
X212912563Y-118389281D01*
X211969754Y-118052563D02*
X211902411Y-118052563D01*
X211801396Y-118086235D01*
X211633037Y-118254594D01*
X211599365Y-118355609D01*
X211599365Y-118422953D01*
X211633037Y-118523968D01*
X211700380Y-118591311D01*
X211835067Y-118658655D01*
X212643189Y-118658655D01*
X212205457Y-119096388D01*
X211060617Y-118827014D02*
X210993274Y-118894357D01*
X210959602Y-118995372D01*
X210959602Y-119062716D01*
X210993274Y-119163731D01*
X211094289Y-119332090D01*
X211262648Y-119500449D01*
X211431006Y-119601464D01*
X211532022Y-119635136D01*
X211599365Y-119635136D01*
X211700380Y-119601464D01*
X211767724Y-119534120D01*
X211801396Y-119433105D01*
X211801396Y-119365762D01*
X211767724Y-119264746D01*
X211666709Y-119096388D01*
X211498350Y-118928029D01*
X211329991Y-118827014D01*
X211228976Y-118793342D01*
X211161632Y-118793342D01*
X211060617Y-118827014D01*
X210622884Y-119399433D02*
X210555541Y-119399433D01*
X210454526Y-119433105D01*
X210286167Y-119601464D01*
X210252495Y-119702479D01*
X210252495Y-119769823D01*
X210286167Y-119870838D01*
X210353510Y-119938181D01*
X210488197Y-120005525D01*
X211296319Y-120005525D01*
X210858587Y-120443258D01*
X210185152Y-121116693D02*
X210589213Y-120712632D01*
X210387182Y-120914662D02*
X209680075Y-120207555D01*
X209848434Y-120241227D01*
X209983121Y-120241227D01*
X210084136Y-120207555D01*
D11*
%TO.C,C61*%
X210478307Y-104550810D02*
X210630810Y-104398307D01*
X209969190Y-104041693D02*
X210121693Y-103889190D01*
%TO.C,C62*%
X211559190Y-107241693D02*
X211711693Y-107089190D01*
X212068307Y-107750810D02*
X212220810Y-107598307D01*
%TO.C,C64*%
X209959190Y-115841693D02*
X210111693Y-115689190D01*
X210468307Y-116350810D02*
X210620810Y-116198307D01*
%TO.C,C65*%
X201518307Y-106840810D02*
X201670810Y-106688307D01*
X201009190Y-106331693D02*
X201161693Y-106179190D01*
%TO.C,C66*%
X209209190Y-115071693D02*
X209361693Y-114919190D01*
X209718307Y-115580810D02*
X209870810Y-115428307D01*
%TO.C,R27*%
X210660060Y-105967341D02*
X210877341Y-105750060D01*
X210122659Y-105429940D02*
X210339940Y-105212659D01*
%TO.C,R28*%
X211260060Y-107047341D02*
X211477341Y-106830060D01*
X210722659Y-106509940D02*
X210939940Y-106292659D01*
%TO.C,R31*%
X202960060Y-104007341D02*
X203177341Y-103790060D01*
X202422659Y-103469940D02*
X202639940Y-103252659D01*
%TO.C,R32*%
X203022659Y-104389940D02*
X203239940Y-104172659D01*
X203560060Y-104927341D02*
X203777341Y-104710060D01*
%TO.C,R33*%
X207762659Y-116539940D02*
X207979940Y-116322659D01*
X208300060Y-117077341D02*
X208517341Y-116860060D01*
%TO.C,R35*%
X200662344Y-115788467D02*
X200879625Y-115571186D01*
X201199745Y-116325868D02*
X201417026Y-116108587D01*
%TO.C,R36*%
X200436069Y-115562192D02*
X200653350Y-115344911D01*
X199898668Y-115024791D02*
X200115949Y-114807510D01*
%TO.C,R37*%
X199149135Y-114261117D02*
X199366416Y-114043836D01*
X199686536Y-114798518D02*
X199903817Y-114581237D01*
%TO.C,R38*%
X198922860Y-114034844D02*
X199140141Y-113817563D01*
X198385459Y-113497443D02*
X198602740Y-113280162D01*
%TO.C,R39*%
X197621784Y-112733766D02*
X197839065Y-112516485D01*
X198159185Y-113271167D02*
X198376466Y-113053886D01*
%TO.C,R40*%
X198940060Y-109137341D02*
X199157341Y-108920060D01*
X198402659Y-108599940D02*
X198619940Y-108382659D01*
D12*
%TO.C,U7*%
X210676524Y-110870000D02*
X210517425Y-111029099D01*
X205550000Y-105743476D02*
X205320190Y-105973286D01*
X200423476Y-110870000D02*
X200653286Y-110640190D01*
X205550000Y-115996524D02*
X205779810Y-115766714D01*
X210676524Y-110870000D02*
X210446714Y-110640190D01*
X205550000Y-115996524D02*
X205320190Y-115766714D01*
X200423476Y-110870000D02*
X200653286Y-111099810D01*
X205550000Y-105743476D02*
X205779810Y-105973286D01*
X210517425Y-111029099D02*
X211525052Y-112036726D01*
D11*
%TO.C,J1*%
X198810000Y-94675000D02*
X198810000Y-99875000D01*
X214170000Y-94675000D02*
X214170000Y-99875000D01*
X199380000Y-93235000D02*
X199380000Y-94675000D01*
X198810000Y-94675000D02*
X199380000Y-94675000D01*
X198810000Y-99875000D02*
X199380000Y-99875000D01*
X213600000Y-94675000D02*
X214170000Y-94675000D01*
X213600000Y-99875000D02*
X214170000Y-99875000D01*
X200900000Y-94675000D02*
X201920000Y-94675000D01*
X200900000Y-99875000D02*
X201920000Y-99875000D01*
X203440000Y-94675000D02*
X204460000Y-94675000D01*
X203440000Y-99875000D02*
X204460000Y-99875000D01*
X205980000Y-94675000D02*
X207000000Y-94675000D01*
X205980000Y-99875000D02*
X207000000Y-99875000D01*
X208520000Y-94675000D02*
X209540000Y-94675000D01*
X208520000Y-99875000D02*
X209540000Y-99875000D01*
X211060000Y-94675000D02*
X212080000Y-94675000D01*
X211060000Y-99875000D02*
X212080000Y-99875000D01*
%TO.C,C1*%
X200289970Y-104908781D02*
X200488781Y-104709970D01*
X201011219Y-105630030D02*
X201210030Y-105431219D01*
%TO.C,C2*%
X211480810Y-113898307D02*
X211328307Y-114050810D01*
X210971693Y-113389190D02*
X210819190Y-113541693D01*
%TO.C,D1*%
X90250000Y-104235000D02*
X87965000Y-104235000D01*
X87965000Y-104235000D02*
X87965000Y-102765000D01*
X87965000Y-102765000D02*
X90250000Y-102765000D01*
%TO.C,D2*%
X90250000Y-90585000D02*
X87965000Y-90585000D01*
X87965000Y-90585000D02*
X87965000Y-89115000D01*
X87965000Y-89115000D02*
X90250000Y-89115000D01*
%TO.C,D3*%
X87977500Y-75415000D02*
X90262500Y-75415000D01*
X87977500Y-76885000D02*
X87977500Y-75415000D01*
X90262500Y-76885000D02*
X87977500Y-76885000D01*
%TO.C,D4*%
X87915000Y-61665000D02*
X90200000Y-61665000D01*
X87915000Y-63135000D02*
X87915000Y-61665000D01*
X90200000Y-63135000D02*
X87915000Y-63135000D01*
%TO.C,R1*%
X200990000Y-71596359D02*
X200990000Y-71903641D01*
X201750000Y-71596359D02*
X201750000Y-71903641D01*
%TO.C,R2*%
X202120000Y-71586359D02*
X202120000Y-71893641D01*
X202880000Y-71586359D02*
X202880000Y-71893641D01*
%TO.C,R3*%
X204020000Y-71576359D02*
X204020000Y-71883641D01*
X203260000Y-71576359D02*
X203260000Y-71883641D01*
%TO.C,R4*%
X205170000Y-71576359D02*
X205170000Y-71883641D01*
X204410000Y-71576359D02*
X204410000Y-71883641D01*
%TO.C,R5*%
X199290060Y-106112659D02*
X199507341Y-106329940D01*
X198752659Y-106650060D02*
X198969940Y-106867341D01*
%TO.C,C61*%
D13*
X211843553Y-102938984D02*
X211877225Y-102938984D01*
X211944568Y-102905312D01*
X211978240Y-102871641D01*
X212011912Y-102804297D01*
X212011912Y-102736954D01*
X211995076Y-102686446D01*
X211944568Y-102602267D01*
X211894061Y-102551759D01*
X211809881Y-102501251D01*
X211759374Y-102484416D01*
X211692030Y-102484416D01*
X211624687Y-102518087D01*
X211591015Y-102551759D01*
X211557343Y-102619103D01*
X211557343Y-102652774D01*
X211220625Y-102922148D02*
X211287969Y-102854805D01*
X211338477Y-102837969D01*
X211372148Y-102837969D01*
X211456328Y-102854805D01*
X211540507Y-102905312D01*
X211675194Y-103040000D01*
X211692030Y-103090507D01*
X211692030Y-103124179D01*
X211675194Y-103174687D01*
X211607851Y-103242030D01*
X211557343Y-103258866D01*
X211523671Y-103258866D01*
X211473164Y-103242030D01*
X211388984Y-103157851D01*
X211372148Y-103107343D01*
X211372148Y-103073671D01*
X211388984Y-103023164D01*
X211456328Y-102955820D01*
X211506835Y-102938984D01*
X211540507Y-102938984D01*
X211591015Y-102955820D01*
X211203790Y-103646091D02*
X211405820Y-103444061D01*
X211304805Y-103545076D02*
X210951251Y-103191522D01*
X211035431Y-103208358D01*
X211102774Y-103208358D01*
X211153282Y-103191522D01*
%TO.C,C62*%
X213443553Y-106088984D02*
X213477225Y-106088984D01*
X213544568Y-106055312D01*
X213578240Y-106021641D01*
X213611912Y-105954297D01*
X213611912Y-105886954D01*
X213595076Y-105836446D01*
X213544568Y-105752267D01*
X213494061Y-105701759D01*
X213409881Y-105651251D01*
X213359374Y-105634416D01*
X213292030Y-105634416D01*
X213224687Y-105668087D01*
X213191015Y-105701759D01*
X213157343Y-105769103D01*
X213157343Y-105802774D01*
X212820625Y-106072148D02*
X212887969Y-106004805D01*
X212938477Y-105987969D01*
X212972148Y-105987969D01*
X213056328Y-106004805D01*
X213140507Y-106055312D01*
X213275194Y-106190000D01*
X213292030Y-106240507D01*
X213292030Y-106274179D01*
X213275194Y-106324687D01*
X213207851Y-106392030D01*
X213157343Y-106408866D01*
X213123671Y-106408866D01*
X213073164Y-106392030D01*
X212988984Y-106307851D01*
X212972148Y-106257343D01*
X212972148Y-106223671D01*
X212988984Y-106173164D01*
X213056328Y-106105820D01*
X213106835Y-106088984D01*
X213140507Y-106088984D01*
X213191015Y-106105820D01*
X212685938Y-106274179D02*
X212652267Y-106274179D01*
X212601759Y-106291015D01*
X212517580Y-106375194D01*
X212500744Y-106425702D01*
X212500744Y-106459374D01*
X212517580Y-106509881D01*
X212551251Y-106543553D01*
X212618595Y-106577225D01*
X213022656Y-106577225D01*
X212803790Y-106796091D01*
%TO.C,C64*%
X211853553Y-114718984D02*
X211887225Y-114718984D01*
X211954568Y-114685312D01*
X211988240Y-114651641D01*
X212021912Y-114584297D01*
X212021912Y-114516954D01*
X212005076Y-114466446D01*
X211954568Y-114382267D01*
X211904061Y-114331759D01*
X211819881Y-114281251D01*
X211769374Y-114264416D01*
X211702030Y-114264416D01*
X211634687Y-114298087D01*
X211601015Y-114331759D01*
X211567343Y-114399103D01*
X211567343Y-114432774D01*
X211230625Y-114702148D02*
X211297969Y-114634805D01*
X211348477Y-114617969D01*
X211382148Y-114617969D01*
X211466328Y-114634805D01*
X211550507Y-114685312D01*
X211685194Y-114820000D01*
X211702030Y-114870507D01*
X211702030Y-114904179D01*
X211685194Y-114954687D01*
X211617851Y-115022030D01*
X211567343Y-115038866D01*
X211533671Y-115038866D01*
X211483164Y-115022030D01*
X211398984Y-114937851D01*
X211382148Y-114887343D01*
X211382148Y-114853671D01*
X211398984Y-114803164D01*
X211466328Y-114735820D01*
X211516835Y-114718984D01*
X211550507Y-114718984D01*
X211601015Y-114735820D01*
X211011759Y-115156717D02*
X211247461Y-115392419D01*
X210961251Y-114937851D02*
X211297969Y-115106209D01*
X211079103Y-115325076D01*
%TO.C,C65*%
X200533553Y-107618984D02*
X200567225Y-107618984D01*
X200634568Y-107585312D01*
X200668240Y-107551641D01*
X200701912Y-107484297D01*
X200701912Y-107416954D01*
X200685076Y-107366446D01*
X200634568Y-107282267D01*
X200584061Y-107231759D01*
X200499881Y-107181251D01*
X200449374Y-107164416D01*
X200382030Y-107164416D01*
X200314687Y-107198087D01*
X200281015Y-107231759D01*
X200247343Y-107299103D01*
X200247343Y-107332774D01*
X199910625Y-107602148D02*
X199977969Y-107534805D01*
X200028477Y-107517969D01*
X200062148Y-107517969D01*
X200146328Y-107534805D01*
X200230507Y-107585312D01*
X200365194Y-107720000D01*
X200382030Y-107770507D01*
X200382030Y-107804179D01*
X200365194Y-107854687D01*
X200297851Y-107922030D01*
X200247343Y-107938866D01*
X200213671Y-107938866D01*
X200163164Y-107922030D01*
X200078984Y-107837851D01*
X200062148Y-107787343D01*
X200062148Y-107753671D01*
X200078984Y-107703164D01*
X200146328Y-107635820D01*
X200196835Y-107618984D01*
X200230507Y-107618984D01*
X200281015Y-107635820D01*
X199557072Y-107955702D02*
X199725431Y-107787343D01*
X199910625Y-107938866D01*
X199876954Y-107938866D01*
X199826446Y-107955702D01*
X199742267Y-108039881D01*
X199725431Y-108090389D01*
X199725431Y-108124061D01*
X199742267Y-108174568D01*
X199826446Y-108258748D01*
X199876954Y-108275583D01*
X199910625Y-108275583D01*
X199961133Y-108258748D01*
X200045312Y-108174568D01*
X200062148Y-108124061D01*
X200062148Y-108090389D01*
%TO.C,C66*%
X209313553Y-117128983D02*
X209347225Y-117128983D01*
X209414568Y-117095311D01*
X209448240Y-117061640D01*
X209481912Y-116994296D01*
X209481912Y-116926953D01*
X209465076Y-116876445D01*
X209414568Y-116792266D01*
X209364061Y-116741758D01*
X209279881Y-116691250D01*
X209229374Y-116674415D01*
X209162030Y-116674415D01*
X209094687Y-116708086D01*
X209061015Y-116741758D01*
X209027343Y-116809102D01*
X209027343Y-116842773D01*
X208690625Y-117112147D02*
X208757969Y-117044804D01*
X208808477Y-117027968D01*
X208842148Y-117027968D01*
X208926328Y-117044804D01*
X209010507Y-117095311D01*
X209145194Y-117229999D01*
X209162030Y-117280506D01*
X209162030Y-117314178D01*
X209145194Y-117364686D01*
X209077851Y-117432029D01*
X209027343Y-117448865D01*
X208993671Y-117448865D01*
X208943164Y-117432029D01*
X208858984Y-117347850D01*
X208842148Y-117297342D01*
X208842148Y-117263670D01*
X208858984Y-117213163D01*
X208926328Y-117145819D01*
X208976835Y-117128983D01*
X209010507Y-117128983D01*
X209061015Y-117145819D01*
X208353908Y-117448865D02*
X208421251Y-117381521D01*
X208471759Y-117364686D01*
X208505431Y-117364686D01*
X208589610Y-117381521D01*
X208673790Y-117432029D01*
X208808477Y-117566716D01*
X208825312Y-117617224D01*
X208825312Y-117650895D01*
X208808477Y-117701403D01*
X208741133Y-117768747D01*
X208690625Y-117785582D01*
X208656954Y-117785582D01*
X208606446Y-117768747D01*
X208522267Y-117684567D01*
X208505431Y-117634060D01*
X208505431Y-117600388D01*
X208522267Y-117549880D01*
X208589610Y-117482537D01*
X208640118Y-117465701D01*
X208673790Y-117465701D01*
X208724297Y-117482537D01*
%TO.C,R27*%
X212018596Y-104306432D02*
X211968088Y-104020222D01*
X212220626Y-104104401D02*
X211867073Y-103750848D01*
X211732386Y-103885535D01*
X211715550Y-103936043D01*
X211715550Y-103969714D01*
X211732386Y-104020222D01*
X211782893Y-104070730D01*
X211833401Y-104087566D01*
X211867073Y-104087566D01*
X211917580Y-104070730D01*
X212052267Y-103936043D01*
X211564027Y-104121237D02*
X211530355Y-104121237D01*
X211479848Y-104138073D01*
X211395668Y-104222253D01*
X211378832Y-104272760D01*
X211378832Y-104306432D01*
X211395668Y-104356940D01*
X211429340Y-104390611D01*
X211496683Y-104424283D01*
X211900745Y-104424283D01*
X211681878Y-104643150D01*
X211210474Y-104407447D02*
X210974771Y-104643150D01*
X211479848Y-104845180D01*
%TO.C,R28*%
X212661022Y-105400574D02*
X212610514Y-105114364D01*
X212863052Y-105198543D02*
X212509499Y-104844990D01*
X212374812Y-104979677D01*
X212357976Y-105030185D01*
X212357976Y-105063856D01*
X212374812Y-105114364D01*
X212425319Y-105164872D01*
X212475827Y-105181708D01*
X212509499Y-105181708D01*
X212560006Y-105164872D01*
X212694693Y-105030185D01*
X212206453Y-105215379D02*
X212172781Y-105215379D01*
X212122274Y-105232215D01*
X212038094Y-105316395D01*
X212021258Y-105366902D01*
X212021258Y-105400574D01*
X212038094Y-105451082D01*
X212071766Y-105484753D01*
X212139109Y-105518425D01*
X212543171Y-105518425D01*
X212324304Y-105737292D01*
X211920243Y-105737292D02*
X211937079Y-105686784D01*
X211937079Y-105653112D01*
X211920243Y-105602605D01*
X211903407Y-105585769D01*
X211852900Y-105568933D01*
X211819228Y-105568933D01*
X211768720Y-105585769D01*
X211701377Y-105653112D01*
X211684541Y-105703620D01*
X211684541Y-105737292D01*
X211701377Y-105787799D01*
X211718213Y-105804635D01*
X211768720Y-105821471D01*
X211802392Y-105821471D01*
X211852900Y-105804635D01*
X211920243Y-105737292D01*
X211970751Y-105720456D01*
X212004422Y-105720456D01*
X212054930Y-105737292D01*
X212122274Y-105804635D01*
X212139109Y-105855143D01*
X212139109Y-105888814D01*
X212122274Y-105939322D01*
X212054930Y-106006666D01*
X212004422Y-106023501D01*
X211970751Y-106023501D01*
X211920243Y-106006666D01*
X211852900Y-105939322D01*
X211836064Y-105888814D01*
X211836064Y-105855143D01*
X211852900Y-105804635D01*
%TO.C,R31*%
X202597225Y-102942656D02*
X202546717Y-102656446D01*
X202799255Y-102740625D02*
X202445702Y-102387072D01*
X202311015Y-102521759D01*
X202294179Y-102572267D01*
X202294179Y-102605938D01*
X202311015Y-102656446D01*
X202361522Y-102706954D01*
X202412030Y-102723790D01*
X202445702Y-102723790D01*
X202496209Y-102706954D01*
X202630896Y-102572267D01*
X202125820Y-102706954D02*
X201906954Y-102925820D01*
X202159492Y-102942656D01*
X202108984Y-102993164D01*
X202092148Y-103043671D01*
X202092148Y-103077343D01*
X202108984Y-103127851D01*
X202193164Y-103212030D01*
X202243671Y-103228866D01*
X202277343Y-103228866D01*
X202327851Y-103212030D01*
X202428866Y-103111015D01*
X202445702Y-103060507D01*
X202445702Y-103026835D01*
X201923790Y-103616091D02*
X202125820Y-103414061D01*
X202024805Y-103515076D02*
X201671251Y-103161522D01*
X201755431Y-103178358D01*
X201822774Y-103178358D01*
X201873282Y-103161522D01*
%TO.C,R32*%
X204996378Y-103301788D02*
X204945870Y-103015578D01*
X205198408Y-103099757D02*
X204844855Y-102746204D01*
X204710168Y-102880891D01*
X204693332Y-102931399D01*
X204693332Y-102965070D01*
X204710168Y-103015578D01*
X204760675Y-103066086D01*
X204811183Y-103082922D01*
X204844855Y-103082922D01*
X204895362Y-103066086D01*
X205030049Y-102931399D01*
X204524973Y-103066086D02*
X204306107Y-103284952D01*
X204558645Y-103301788D01*
X204508137Y-103352296D01*
X204491301Y-103402803D01*
X204491301Y-103436475D01*
X204508137Y-103486983D01*
X204592317Y-103571162D01*
X204642824Y-103587998D01*
X204676496Y-103587998D01*
X204727004Y-103571162D01*
X204828019Y-103470147D01*
X204844855Y-103419639D01*
X204844855Y-103385967D01*
X204205091Y-103453311D02*
X204171420Y-103453311D01*
X204120912Y-103470147D01*
X204036733Y-103554326D01*
X204019897Y-103604834D01*
X204019897Y-103638506D01*
X204036733Y-103689013D01*
X204070404Y-103722685D01*
X204137748Y-103756357D01*
X204541809Y-103756357D01*
X204322943Y-103975223D01*
%TO.C,R33*%
X207332215Y-117813524D02*
X207281707Y-117527314D01*
X207534245Y-117611493D02*
X207180692Y-117257940D01*
X207046005Y-117392627D01*
X207029169Y-117443135D01*
X207029169Y-117476806D01*
X207046005Y-117527314D01*
X207096512Y-117577822D01*
X207147020Y-117594658D01*
X207180692Y-117594658D01*
X207231199Y-117577822D01*
X207365886Y-117443135D01*
X206860810Y-117577822D02*
X206641944Y-117796688D01*
X206894482Y-117813524D01*
X206843974Y-117864032D01*
X206827138Y-117914539D01*
X206827138Y-117948211D01*
X206843974Y-117998719D01*
X206928154Y-118082898D01*
X206978661Y-118099734D01*
X207012333Y-118099734D01*
X207062841Y-118082898D01*
X207163856Y-117981883D01*
X207180692Y-117931375D01*
X207180692Y-117897703D01*
X206524093Y-117914539D02*
X206305226Y-118133406D01*
X206557764Y-118150242D01*
X206507257Y-118200749D01*
X206490421Y-118251257D01*
X206490421Y-118284929D01*
X206507257Y-118335436D01*
X206591436Y-118419616D01*
X206641944Y-118436451D01*
X206675615Y-118436451D01*
X206726123Y-118419616D01*
X206827138Y-118318600D01*
X206843974Y-118268093D01*
X206843974Y-118234421D01*
%TO.C,R35*%
X200203615Y-117047909D02*
X200153107Y-116761699D01*
X200405645Y-116845878D02*
X200052092Y-116492325D01*
X199917405Y-116627012D01*
X199900569Y-116677520D01*
X199900569Y-116711191D01*
X199917405Y-116761699D01*
X199967912Y-116812207D01*
X200018420Y-116829043D01*
X200052092Y-116829043D01*
X200102599Y-116812207D01*
X200237286Y-116677520D01*
X199732210Y-116812207D02*
X199513344Y-117031073D01*
X199765882Y-117047909D01*
X199715374Y-117098417D01*
X199698538Y-117148924D01*
X199698538Y-117182596D01*
X199715374Y-117233104D01*
X199799554Y-117317283D01*
X199850061Y-117334119D01*
X199883733Y-117334119D01*
X199934241Y-117317283D01*
X200035256Y-117216268D01*
X200052092Y-117165760D01*
X200052092Y-117132088D01*
X199193462Y-117350955D02*
X199361821Y-117182596D01*
X199547015Y-117334119D01*
X199513344Y-117334119D01*
X199462836Y-117350955D01*
X199378657Y-117435134D01*
X199361821Y-117485642D01*
X199361821Y-117519314D01*
X199378657Y-117569821D01*
X199462836Y-117654001D01*
X199513344Y-117670836D01*
X199547015Y-117670836D01*
X199597523Y-117654001D01*
X199681702Y-117569821D01*
X199698538Y-117519314D01*
X199698538Y-117485642D01*
%TO.C,R36*%
X199411655Y-116270091D02*
X199361147Y-115983881D01*
X199613685Y-116068060D02*
X199260132Y-115714507D01*
X199125445Y-115849194D01*
X199108609Y-115899702D01*
X199108609Y-115933373D01*
X199125445Y-115983881D01*
X199175952Y-116034389D01*
X199226460Y-116051225D01*
X199260132Y-116051225D01*
X199310639Y-116034389D01*
X199445326Y-115899702D01*
X198940250Y-116034389D02*
X198721384Y-116253255D01*
X198973922Y-116270091D01*
X198923414Y-116320599D01*
X198906578Y-116371106D01*
X198906578Y-116404778D01*
X198923414Y-116455286D01*
X199007594Y-116539465D01*
X199058101Y-116556301D01*
X199091773Y-116556301D01*
X199142281Y-116539465D01*
X199243296Y-116438450D01*
X199260132Y-116387942D01*
X199260132Y-116354270D01*
X198418338Y-116556301D02*
X198485681Y-116488957D01*
X198536189Y-116472122D01*
X198569861Y-116472122D01*
X198654040Y-116488957D01*
X198738220Y-116539465D01*
X198872907Y-116674152D01*
X198889742Y-116724660D01*
X198889742Y-116758331D01*
X198872907Y-116808839D01*
X198805563Y-116876183D01*
X198755055Y-116893018D01*
X198721384Y-116893018D01*
X198670876Y-116876183D01*
X198586697Y-116792003D01*
X198569861Y-116741496D01*
X198569861Y-116707824D01*
X198586697Y-116657316D01*
X198654040Y-116589973D01*
X198704548Y-116573137D01*
X198738220Y-116573137D01*
X198788727Y-116589973D01*
%TO.C,R37*%
X198704548Y-115520559D02*
X198654040Y-115234349D01*
X198906578Y-115318528D02*
X198553025Y-114964975D01*
X198418338Y-115099662D01*
X198401502Y-115150170D01*
X198401502Y-115183841D01*
X198418338Y-115234349D01*
X198468845Y-115284857D01*
X198519353Y-115301693D01*
X198553025Y-115301693D01*
X198603532Y-115284857D01*
X198738219Y-115150170D01*
X198233143Y-115284857D02*
X198014277Y-115503723D01*
X198266815Y-115520559D01*
X198216307Y-115571067D01*
X198199471Y-115621574D01*
X198199471Y-115655246D01*
X198216307Y-115705754D01*
X198300487Y-115789933D01*
X198350994Y-115806769D01*
X198384666Y-115806769D01*
X198435174Y-115789933D01*
X198536189Y-115688918D01*
X198553025Y-115638410D01*
X198553025Y-115604738D01*
X197896426Y-115621574D02*
X197660723Y-115857277D01*
X198165800Y-116059307D01*
%TO.C,R38*%
X197997442Y-114855879D02*
X197946934Y-114569669D01*
X198199472Y-114653848D02*
X197845919Y-114300295D01*
X197711232Y-114434982D01*
X197694396Y-114485490D01*
X197694396Y-114519161D01*
X197711232Y-114569669D01*
X197761739Y-114620177D01*
X197812247Y-114637013D01*
X197845919Y-114637013D01*
X197896426Y-114620177D01*
X198031113Y-114485490D01*
X197526037Y-114620177D02*
X197307171Y-114839043D01*
X197559709Y-114855879D01*
X197509201Y-114906387D01*
X197492365Y-114956894D01*
X197492365Y-114990566D01*
X197509201Y-115041074D01*
X197593381Y-115125253D01*
X197643888Y-115142089D01*
X197677560Y-115142089D01*
X197728068Y-115125253D01*
X197829083Y-115024238D01*
X197845919Y-114973730D01*
X197845919Y-114940058D01*
X197256663Y-115192597D02*
X197273499Y-115142089D01*
X197273499Y-115108417D01*
X197256663Y-115057910D01*
X197239827Y-115041074D01*
X197189320Y-115024238D01*
X197155648Y-115024238D01*
X197105140Y-115041074D01*
X197037797Y-115108417D01*
X197020961Y-115158925D01*
X197020961Y-115192597D01*
X197037797Y-115243104D01*
X197054633Y-115259940D01*
X197105140Y-115276776D01*
X197138812Y-115276776D01*
X197189320Y-115259940D01*
X197256663Y-115192597D01*
X197307171Y-115175761D01*
X197340842Y-115175761D01*
X197391350Y-115192597D01*
X197458694Y-115259940D01*
X197475529Y-115310448D01*
X197475529Y-115344119D01*
X197458694Y-115394627D01*
X197391350Y-115461971D01*
X197340842Y-115478806D01*
X197307171Y-115478806D01*
X197256663Y-115461971D01*
X197189320Y-115394627D01*
X197172484Y-115344119D01*
X197172484Y-115310448D01*
X197189320Y-115259940D01*
%TO.C,R39*%
X197177197Y-114007350D02*
X197126689Y-113721140D01*
X197379227Y-113805319D02*
X197025674Y-113451766D01*
X196890987Y-113586453D01*
X196874151Y-113636961D01*
X196874151Y-113670632D01*
X196890987Y-113721140D01*
X196941494Y-113771648D01*
X196992002Y-113788484D01*
X197025674Y-113788484D01*
X197076181Y-113771648D01*
X197210868Y-113636961D01*
X196705792Y-113771648D02*
X196486926Y-113990514D01*
X196739464Y-114007350D01*
X196688956Y-114057858D01*
X196672120Y-114108365D01*
X196672120Y-114142037D01*
X196688956Y-114192545D01*
X196773136Y-114276724D01*
X196823643Y-114293560D01*
X196857315Y-114293560D01*
X196907823Y-114276724D01*
X197008838Y-114175709D01*
X197025674Y-114125201D01*
X197025674Y-114091529D01*
X196672120Y-114512426D02*
X196604777Y-114579770D01*
X196554269Y-114596606D01*
X196520597Y-114596606D01*
X196436418Y-114579770D01*
X196352239Y-114529262D01*
X196217552Y-114394575D01*
X196200716Y-114344068D01*
X196200716Y-114310396D01*
X196217552Y-114259888D01*
X196284895Y-114192545D01*
X196335403Y-114175709D01*
X196369075Y-114175709D01*
X196419582Y-114192545D01*
X196503762Y-114276724D01*
X196520597Y-114327232D01*
X196520597Y-114360903D01*
X196503762Y-114411411D01*
X196436418Y-114478755D01*
X196385910Y-114495590D01*
X196352239Y-114495590D01*
X196301731Y-114478755D01*
%TO.C,R40*%
X197986357Y-109859382D02*
X197935849Y-109573172D01*
X198188387Y-109657351D02*
X197834834Y-109303798D01*
X197700147Y-109438485D01*
X197683311Y-109488993D01*
X197683311Y-109522664D01*
X197700147Y-109573172D01*
X197750654Y-109623680D01*
X197801162Y-109640516D01*
X197834834Y-109640516D01*
X197885341Y-109623680D01*
X198020028Y-109488993D01*
X197447609Y-109926726D02*
X197683311Y-110162428D01*
X197397101Y-109707859D02*
X197733819Y-109876218D01*
X197514952Y-110095084D01*
X197077219Y-110061413D02*
X197043548Y-110095084D01*
X197026712Y-110145592D01*
X197026712Y-110179264D01*
X197043548Y-110229771D01*
X197094055Y-110313951D01*
X197178235Y-110398130D01*
X197262414Y-110448638D01*
X197312922Y-110465474D01*
X197346593Y-110465474D01*
X197397101Y-110448638D01*
X197430773Y-110414966D01*
X197447609Y-110364458D01*
X197447609Y-110330787D01*
X197430773Y-110280279D01*
X197380265Y-110196100D01*
X197296086Y-110111920D01*
X197211906Y-110061413D01*
X197161399Y-110044577D01*
X197127727Y-110044577D01*
X197077219Y-110061413D01*
%TO.C,U7*%
X213529532Y-110309365D02*
X213243322Y-110595575D01*
X213192815Y-110612411D01*
X213159143Y-110612411D01*
X213108635Y-110595575D01*
X213041292Y-110528231D01*
X213024456Y-110477724D01*
X213024456Y-110444052D01*
X213041292Y-110393544D01*
X213327502Y-110107334D01*
X213192815Y-109972647D02*
X212957112Y-109736945D01*
X212755082Y-110242021D01*
%TO.C,J1*%
D12*
X206823333Y-96722380D02*
X206823333Y-97436666D01*
X206870952Y-97579523D01*
X206966190Y-97674761D01*
X207109047Y-97722380D01*
X207204285Y-97722380D01*
X205823333Y-97722380D02*
X206394761Y-97722380D01*
X206109047Y-97722380D02*
X206109047Y-96722380D01*
X206204285Y-96865238D01*
X206299523Y-96960476D01*
X206394761Y-97008095D01*
%TO.C,C1*%
D13*
X200025194Y-104537343D02*
X200058866Y-104537343D01*
X200126209Y-104503671D01*
X200159881Y-104470000D01*
X200193553Y-104402656D01*
X200193553Y-104335312D01*
X200176717Y-104284805D01*
X200126209Y-104200625D01*
X200075702Y-104150118D01*
X199991522Y-104099610D01*
X199941015Y-104082774D01*
X199873671Y-104082774D01*
X199806328Y-104116446D01*
X199772656Y-104150118D01*
X199738984Y-104217461D01*
X199738984Y-104251133D01*
X199722148Y-104907732D02*
X199924179Y-104705702D01*
X199823164Y-104806717D02*
X199469610Y-104453164D01*
X199553790Y-104469999D01*
X199621133Y-104469999D01*
X199671641Y-104453164D01*
%TO.C,C2*%
X211972656Y-112975194D02*
X211972656Y-113008866D01*
X212006328Y-113076209D01*
X212040000Y-113109881D01*
X212107343Y-113143553D01*
X212174687Y-113143553D01*
X212225194Y-113126717D01*
X212309374Y-113076209D01*
X212359881Y-113025702D01*
X212410389Y-112941522D01*
X212427225Y-112891015D01*
X212427225Y-112823671D01*
X212393553Y-112756328D01*
X212359881Y-112722656D01*
X212292538Y-112688984D01*
X212258866Y-112688984D01*
X212124179Y-112554297D02*
X212124179Y-112520625D01*
X212107343Y-112470118D01*
X212023164Y-112385938D01*
X211972656Y-112369103D01*
X211938984Y-112369103D01*
X211888477Y-112385938D01*
X211854805Y-112419610D01*
X211821133Y-112486954D01*
X211821133Y-112891015D01*
X211602267Y-112672148D01*
%TO.C,D1*%
D12*
X90188095Y-105932380D02*
X90188095Y-104932380D01*
X89950000Y-104932380D01*
X89807142Y-104980000D01*
X89711904Y-105075238D01*
X89664285Y-105170476D01*
X89616666Y-105360952D01*
X89616666Y-105503809D01*
X89664285Y-105694285D01*
X89711904Y-105789523D01*
X89807142Y-105884761D01*
X89950000Y-105932380D01*
X90188095Y-105932380D01*
X88664285Y-105932380D02*
X89235714Y-105932380D01*
X88950000Y-105932380D02*
X88950000Y-104932380D01*
X89045238Y-105075238D01*
X89140476Y-105170476D01*
X89235714Y-105218095D01*
%TO.C,D2*%
X90188095Y-92122380D02*
X90188095Y-91122380D01*
X89950000Y-91122380D01*
X89807142Y-91170000D01*
X89711904Y-91265238D01*
X89664285Y-91360476D01*
X89616666Y-91550952D01*
X89616666Y-91693809D01*
X89664285Y-91884285D01*
X89711904Y-91979523D01*
X89807142Y-92074761D01*
X89950000Y-92122380D01*
X90188095Y-92122380D01*
X89235714Y-91217619D02*
X89188095Y-91170000D01*
X89092857Y-91122380D01*
X88854761Y-91122380D01*
X88759523Y-91170000D01*
X88711904Y-91217619D01*
X88664285Y-91312857D01*
X88664285Y-91408095D01*
X88711904Y-91550952D01*
X89283333Y-92122380D01*
X88664285Y-92122380D01*
%TO.C,D3*%
X90208095Y-78422380D02*
X90208095Y-77422380D01*
X89970000Y-77422380D01*
X89827142Y-77470000D01*
X89731904Y-77565238D01*
X89684285Y-77660476D01*
X89636666Y-77850952D01*
X89636666Y-77993809D01*
X89684285Y-78184285D01*
X89731904Y-78279523D01*
X89827142Y-78374761D01*
X89970000Y-78422380D01*
X90208095Y-78422380D01*
X89303333Y-77422380D02*
X88684285Y-77422380D01*
X89017619Y-77803333D01*
X88874761Y-77803333D01*
X88779523Y-77850952D01*
X88731904Y-77898571D01*
X88684285Y-77993809D01*
X88684285Y-78231904D01*
X88731904Y-78327142D01*
X88779523Y-78374761D01*
X88874761Y-78422380D01*
X89160476Y-78422380D01*
X89255714Y-78374761D01*
X89303333Y-78327142D01*
%TO.C,D4*%
X90148095Y-64752380D02*
X90148095Y-63752380D01*
X89910000Y-63752380D01*
X89767142Y-63800000D01*
X89671904Y-63895238D01*
X89624285Y-63990476D01*
X89576666Y-64180952D01*
X89576666Y-64323809D01*
X89624285Y-64514285D01*
X89671904Y-64609523D01*
X89767142Y-64704761D01*
X89910000Y-64752380D01*
X90148095Y-64752380D01*
X88719523Y-64085714D02*
X88719523Y-64752380D01*
X88957619Y-63704761D02*
X89195714Y-64419047D01*
X88576666Y-64419047D01*
%TO.C,FB1*%
D13*
X197569881Y-106199374D02*
X197687732Y-106317225D01*
X197502538Y-106502419D02*
X197856091Y-106148866D01*
X197687732Y-105980507D01*
X197266835Y-105896328D02*
X197199492Y-105862656D01*
X197165820Y-105862656D01*
X197115312Y-105879492D01*
X197064805Y-105930000D01*
X197047969Y-105980507D01*
X197047969Y-106014179D01*
X197064805Y-106064687D01*
X197199492Y-106199374D01*
X197553045Y-105845820D01*
X197435194Y-105727969D01*
X197384687Y-105711133D01*
X197351015Y-105711133D01*
X197300507Y-105727969D01*
X197266835Y-105761641D01*
X197250000Y-105812148D01*
X197250000Y-105845820D01*
X197266835Y-105896328D01*
X197384687Y-106014179D01*
X196660744Y-105660625D02*
X196862774Y-105862656D01*
X196761759Y-105761641D02*
X197115312Y-105408087D01*
X197098477Y-105492267D01*
X197098477Y-105559610D01*
X197115312Y-105610118D01*
%TO.C,R1*%
X201596190Y-73126666D02*
X201358095Y-72960000D01*
X201596190Y-72840952D02*
X201096190Y-72840952D01*
X201096190Y-73031428D01*
X201120000Y-73079047D01*
X201143809Y-73102857D01*
X201191428Y-73126666D01*
X201262857Y-73126666D01*
X201310476Y-73102857D01*
X201334285Y-73079047D01*
X201358095Y-73031428D01*
X201358095Y-72840952D01*
X201596190Y-73602857D02*
X201596190Y-73317142D01*
X201596190Y-73460000D02*
X201096190Y-73460000D01*
X201167619Y-73412380D01*
X201215238Y-73364761D01*
X201239047Y-73317142D01*
%TO.C,R2*%
X202726190Y-73096666D02*
X202488095Y-72930000D01*
X202726190Y-72810952D02*
X202226190Y-72810952D01*
X202226190Y-73001428D01*
X202250000Y-73049047D01*
X202273809Y-73072857D01*
X202321428Y-73096666D01*
X202392857Y-73096666D01*
X202440476Y-73072857D01*
X202464285Y-73049047D01*
X202488095Y-73001428D01*
X202488095Y-72810952D01*
X202273809Y-73287142D02*
X202250000Y-73310952D01*
X202226190Y-73358571D01*
X202226190Y-73477619D01*
X202250000Y-73525238D01*
X202273809Y-73549047D01*
X202321428Y-73572857D01*
X202369047Y-73572857D01*
X202440476Y-73549047D01*
X202726190Y-73263333D01*
X202726190Y-73572857D01*
%TO.C,R3*%
X203896190Y-73096666D02*
X203658095Y-72930000D01*
X203896190Y-72810952D02*
X203396190Y-72810952D01*
X203396190Y-73001428D01*
X203420000Y-73049047D01*
X203443809Y-73072857D01*
X203491428Y-73096666D01*
X203562857Y-73096666D01*
X203610476Y-73072857D01*
X203634285Y-73049047D01*
X203658095Y-73001428D01*
X203658095Y-72810952D01*
X203396190Y-73263333D02*
X203396190Y-73572857D01*
X203586666Y-73406190D01*
X203586666Y-73477619D01*
X203610476Y-73525238D01*
X203634285Y-73549047D01*
X203681904Y-73572857D01*
X203800952Y-73572857D01*
X203848571Y-73549047D01*
X203872380Y-73525238D01*
X203896190Y-73477619D01*
X203896190Y-73334761D01*
X203872380Y-73287142D01*
X203848571Y-73263333D01*
%TO.C,R4*%
X205016190Y-73096666D02*
X204778095Y-72930000D01*
X205016190Y-72810952D02*
X204516190Y-72810952D01*
X204516190Y-73001428D01*
X204540000Y-73049047D01*
X204563809Y-73072857D01*
X204611428Y-73096666D01*
X204682857Y-73096666D01*
X204730476Y-73072857D01*
X204754285Y-73049047D01*
X204778095Y-73001428D01*
X204778095Y-72810952D01*
X204682857Y-73525238D02*
X205016190Y-73525238D01*
X204492380Y-73406190D02*
X204849523Y-73287142D01*
X204849523Y-73596666D01*
%TO.C,R5*%
X198368985Y-107298866D02*
X198655195Y-107248358D01*
X198571016Y-107500896D02*
X198924569Y-107147343D01*
X198789882Y-107012656D01*
X198739375Y-106995820D01*
X198705703Y-106995820D01*
X198655195Y-107012656D01*
X198604688Y-107063164D01*
X198587852Y-107113671D01*
X198587852Y-107147343D01*
X198604688Y-107197851D01*
X198739375Y-107332538D01*
X198402657Y-106625431D02*
X198571016Y-106793790D01*
X198419493Y-106978984D01*
X198419493Y-106945312D01*
X198402657Y-106894805D01*
X198318478Y-106810625D01*
X198267970Y-106793790D01*
X198234298Y-106793790D01*
X198183791Y-106810625D01*
X198099611Y-106894805D01*
X198082775Y-106945312D01*
X198082775Y-106978984D01*
X198099611Y-107029492D01*
X198183791Y-107113671D01*
X198234298Y-107130507D01*
X198267970Y-107130507D01*
%TD*%
M02*
