%TF.GenerationSoftware,KiCad,Pcbnew,5.1.9+dfsg1-1~bpo10+1*%
%TF.CreationDate,2021-11-03T11:38:12+01:00*%
%TF.ProjectId,SynthoGame_top,53796e74-686f-4476-916d-655f746f702e,rev?*%
%TF.SameCoordinates,Original*%
%TF.FileFunction,Copper,L1,Top*%
%TF.FilePolarity,Positive*%
%FSLAX46Y46*%
G04 Gerber Fmt 4.6, Leading zero omitted, Abs format (unit mm)*
G04 Created by KiCad (PCBNEW 5.1.9+dfsg1-1~bpo10+1) date 2021-11-03 11:38:12*
%MOMM*%
%LPD*%
G01*
G04 APERTURE LIST*
%TA.AperFunction,SMDPad,CuDef*%
%ADD10R,0.600000X1.500000*%
%TD*%
%TA.AperFunction,SMDPad,CuDef*%
%ADD11R,0.200000X7.200000*%
%TD*%
%TA.AperFunction,SMDPad,CuDef*%
%ADD12R,3.000000X1.000000*%
%TD*%
%TA.AperFunction,SMDPad,CuDef*%
%ADD13R,2.000000X1.000000*%
%TD*%
%TA.AperFunction,SMDPad,CuDef*%
%ADD14R,0.200000X7.500000*%
%TD*%
%TA.AperFunction,SMDPad,CuDef*%
%ADD15C,0.100000*%
%TD*%
%TA.AperFunction,SMDPad,CuDef*%
%ADD16C,1.000000*%
%TD*%
%TA.AperFunction,ViaPad*%
%ADD17C,0.800000*%
%TD*%
%TA.AperFunction,ViaPad*%
%ADD18C,0.600000*%
%TD*%
%TA.AperFunction,Conductor*%
%ADD19C,0.250000*%
%TD*%
%TA.AperFunction,Conductor*%
%ADD20C,0.200000*%
%TD*%
%TA.AperFunction,Conductor*%
%ADD21C,0.254000*%
%TD*%
%TA.AperFunction,Conductor*%
%ADD22C,0.100000*%
%TD*%
G04 APERTURE END LIST*
D10*
%TO.P,SW1,2*%
%TO.N,/X0*%
X99510000Y-122130000D03*
D11*
%TO.P,SW1,1*%
%TO.N,/Y0*%
X98485000Y-125130000D03*
D10*
%TO.P,SW1,2*%
%TO.N,/X0*%
X97410000Y-122130000D03*
D12*
X100910000Y-129430000D03*
D13*
X100410000Y-125430000D03*
D14*
%TO.P,SW1,1*%
%TO.N,/Y0*%
X98485000Y-127630000D03*
%TA.AperFunction,SMDPad,CuDef*%
G36*
G01*
X95485000Y-131440000D02*
X95485000Y-131420000D01*
G75*
G02*
X95575000Y-131330000I90000J0D01*
G01*
X101395000Y-131330000D01*
G75*
G02*
X101485000Y-131420000I0J-90000D01*
G01*
X101485000Y-131440000D01*
G75*
G02*
X101395000Y-131530000I-90000J0D01*
G01*
X95575000Y-131530000D01*
G75*
G02*
X95485000Y-131440000I0J90000D01*
G01*
G37*
%TD.AperFunction*%
D12*
%TO.P,SW1,2*%
%TO.N,/X0*%
X96010000Y-129430000D03*
%TO.P,SW1,1*%
%TO.N,/Y0*%
%TA.AperFunction,SMDPad,CuDef*%
G36*
G01*
X96485000Y-127440000D02*
X96485000Y-127420000D01*
G75*
G02*
X96575000Y-127330000I90000J0D01*
G01*
X100395000Y-127330000D01*
G75*
G02*
X100485000Y-127420000I0J-90000D01*
G01*
X100485000Y-127440000D01*
G75*
G02*
X100395000Y-127530000I-90000J0D01*
G01*
X96575000Y-127530000D01*
G75*
G02*
X96485000Y-127440000I0J90000D01*
G01*
G37*
%TD.AperFunction*%
D13*
%TO.P,SW1,2*%
%TO.N,/X0*%
X96510000Y-125430000D03*
%TA.AperFunction,SMDPad,CuDef*%
D15*
G36*
X97240000Y-120580000D02*
G01*
X98430000Y-117280000D01*
X98440000Y-117280000D01*
X99630000Y-120580000D01*
X97240000Y-120580000D01*
G37*
%TD.AperFunction*%
%TO.P,SW1,1*%
%TO.N,/Y0*%
%TA.AperFunction,SMDPad,CuDef*%
G36*
G01*
X97735000Y-123940000D02*
X97735000Y-123920000D01*
G75*
G02*
X97825000Y-123830000I90000J0D01*
G01*
X99145000Y-123830000D01*
G75*
G02*
X99235000Y-123920000I0J-90000D01*
G01*
X99235000Y-123940000D01*
G75*
G02*
X99145000Y-124030000I-90000J0D01*
G01*
X97825000Y-124030000D01*
G75*
G02*
X97735000Y-123940000I0J90000D01*
G01*
G37*
%TD.AperFunction*%
%TA.AperFunction,SMDPad,CuDef*%
%TO.P,SW1,2*%
%TO.N,/X0*%
G36*
X97265000Y-120105000D02*
G01*
X98455000Y-116805000D01*
X98465000Y-116805000D01*
X99655000Y-120105000D01*
X97265000Y-120105000D01*
G37*
%TD.AperFunction*%
%TA.AperFunction,SMDPad,CuDef*%
G36*
X92185000Y-133955000D02*
G01*
X92585000Y-132955000D01*
X104335000Y-132955000D01*
X104735000Y-133955000D01*
X92185000Y-133955000D01*
G37*
%TD.AperFunction*%
%TA.AperFunction,SMDPad,CuDef*%
G36*
X103626315Y-133893551D02*
G01*
X98153993Y-118858469D01*
X99093685Y-118516449D01*
X104566007Y-133551531D01*
X103626315Y-133893551D01*
G37*
%TD.AperFunction*%
%TA.AperFunction,SMDPad,CuDef*%
G36*
X92378993Y-133526531D02*
G01*
X97851315Y-118491449D01*
X98791007Y-118833469D01*
X93318685Y-133868551D01*
X92378993Y-133526531D01*
G37*
%TD.AperFunction*%
%TD*%
D10*
%TO.P,SW2,2*%
%TO.N,/X0*%
X105145000Y-126760000D03*
D11*
%TO.P,SW2,1*%
%TO.N,/Y1*%
X106170000Y-123760000D03*
D10*
%TO.P,SW2,2*%
%TO.N,/X0*%
X107245000Y-126760000D03*
D12*
X103745000Y-119460000D03*
D13*
X104245000Y-123460000D03*
D14*
%TO.P,SW2,1*%
%TO.N,/Y1*%
X106170000Y-121260000D03*
%TA.AperFunction,SMDPad,CuDef*%
G36*
G01*
X109170000Y-117450000D02*
X109170000Y-117470000D01*
G75*
G02*
X109080000Y-117560000I-90000J0D01*
G01*
X103260000Y-117560000D01*
G75*
G02*
X103170000Y-117470000I0J90000D01*
G01*
X103170000Y-117450000D01*
G75*
G02*
X103260000Y-117360000I90000J0D01*
G01*
X109080000Y-117360000D01*
G75*
G02*
X109170000Y-117450000I0J-90000D01*
G01*
G37*
%TD.AperFunction*%
D12*
%TO.P,SW2,2*%
%TO.N,/X0*%
X108645000Y-119460000D03*
%TO.P,SW2,1*%
%TO.N,/Y1*%
%TA.AperFunction,SMDPad,CuDef*%
G36*
G01*
X108170000Y-121450000D02*
X108170000Y-121470000D01*
G75*
G02*
X108080000Y-121560000I-90000J0D01*
G01*
X104260000Y-121560000D01*
G75*
G02*
X104170000Y-121470000I0J90000D01*
G01*
X104170000Y-121450000D01*
G75*
G02*
X104260000Y-121360000I90000J0D01*
G01*
X108080000Y-121360000D01*
G75*
G02*
X108170000Y-121450000I0J-90000D01*
G01*
G37*
%TD.AperFunction*%
D13*
%TO.P,SW2,2*%
%TO.N,/X0*%
X108145000Y-123460000D03*
%TA.AperFunction,SMDPad,CuDef*%
D15*
G36*
X107415000Y-128310000D02*
G01*
X106225000Y-131610000D01*
X106215000Y-131610000D01*
X105025000Y-128310000D01*
X107415000Y-128310000D01*
G37*
%TD.AperFunction*%
%TO.P,SW2,1*%
%TO.N,/Y1*%
%TA.AperFunction,SMDPad,CuDef*%
G36*
G01*
X106920000Y-124950000D02*
X106920000Y-124970000D01*
G75*
G02*
X106830000Y-125060000I-90000J0D01*
G01*
X105510000Y-125060000D01*
G75*
G02*
X105420000Y-124970000I0J90000D01*
G01*
X105420000Y-124950000D01*
G75*
G02*
X105510000Y-124860000I90000J0D01*
G01*
X106830000Y-124860000D01*
G75*
G02*
X106920000Y-124950000I0J-90000D01*
G01*
G37*
%TD.AperFunction*%
%TA.AperFunction,SMDPad,CuDef*%
%TO.P,SW2,2*%
%TO.N,/X0*%
G36*
X107390000Y-128785000D02*
G01*
X106200000Y-132085000D01*
X106190000Y-132085000D01*
X105000000Y-128785000D01*
X107390000Y-128785000D01*
G37*
%TD.AperFunction*%
%TA.AperFunction,SMDPad,CuDef*%
G36*
X112470000Y-114935000D02*
G01*
X112070000Y-115935000D01*
X100320000Y-115935000D01*
X99920000Y-114935000D01*
X112470000Y-114935000D01*
G37*
%TD.AperFunction*%
%TA.AperFunction,SMDPad,CuDef*%
G36*
X101028685Y-114996449D02*
G01*
X106501007Y-130031531D01*
X105561315Y-130373551D01*
X100088993Y-115338469D01*
X101028685Y-114996449D01*
G37*
%TD.AperFunction*%
%TA.AperFunction,SMDPad,CuDef*%
G36*
X112276007Y-115363469D02*
G01*
X106803685Y-130398551D01*
X105863993Y-130056531D01*
X111336315Y-115021449D01*
X112276007Y-115363469D01*
G37*
%TD.AperFunction*%
%TD*%
D10*
%TO.P,SW3,2*%
%TO.N,/X1*%
X114980000Y-122145000D03*
D11*
%TO.P,SW3,1*%
%TO.N,/Y0*%
X113955000Y-125145000D03*
D10*
%TO.P,SW3,2*%
%TO.N,/X1*%
X112880000Y-122145000D03*
D12*
X116380000Y-129445000D03*
D13*
X115880000Y-125445000D03*
D14*
%TO.P,SW3,1*%
%TO.N,/Y0*%
X113955000Y-127645000D03*
%TA.AperFunction,SMDPad,CuDef*%
G36*
G01*
X110955000Y-131455000D02*
X110955000Y-131435000D01*
G75*
G02*
X111045000Y-131345000I90000J0D01*
G01*
X116865000Y-131345000D01*
G75*
G02*
X116955000Y-131435000I0J-90000D01*
G01*
X116955000Y-131455000D01*
G75*
G02*
X116865000Y-131545000I-90000J0D01*
G01*
X111045000Y-131545000D01*
G75*
G02*
X110955000Y-131455000I0J90000D01*
G01*
G37*
%TD.AperFunction*%
D12*
%TO.P,SW3,2*%
%TO.N,/X1*%
X111480000Y-129445000D03*
%TO.P,SW3,1*%
%TO.N,/Y0*%
%TA.AperFunction,SMDPad,CuDef*%
G36*
G01*
X111955000Y-127455000D02*
X111955000Y-127435000D01*
G75*
G02*
X112045000Y-127345000I90000J0D01*
G01*
X115865000Y-127345000D01*
G75*
G02*
X115955000Y-127435000I0J-90000D01*
G01*
X115955000Y-127455000D01*
G75*
G02*
X115865000Y-127545000I-90000J0D01*
G01*
X112045000Y-127545000D01*
G75*
G02*
X111955000Y-127455000I0J90000D01*
G01*
G37*
%TD.AperFunction*%
D13*
%TO.P,SW3,2*%
%TO.N,/X1*%
X111980000Y-125445000D03*
%TA.AperFunction,SMDPad,CuDef*%
D15*
G36*
X112710000Y-120595000D02*
G01*
X113900000Y-117295000D01*
X113910000Y-117295000D01*
X115100000Y-120595000D01*
X112710000Y-120595000D01*
G37*
%TD.AperFunction*%
%TO.P,SW3,1*%
%TO.N,/Y0*%
%TA.AperFunction,SMDPad,CuDef*%
G36*
G01*
X113205000Y-123955000D02*
X113205000Y-123935000D01*
G75*
G02*
X113295000Y-123845000I90000J0D01*
G01*
X114615000Y-123845000D01*
G75*
G02*
X114705000Y-123935000I0J-90000D01*
G01*
X114705000Y-123955000D01*
G75*
G02*
X114615000Y-124045000I-90000J0D01*
G01*
X113295000Y-124045000D01*
G75*
G02*
X113205000Y-123955000I0J90000D01*
G01*
G37*
%TD.AperFunction*%
%TA.AperFunction,SMDPad,CuDef*%
%TO.P,SW3,2*%
%TO.N,/X1*%
G36*
X112735000Y-120120000D02*
G01*
X113925000Y-116820000D01*
X113935000Y-116820000D01*
X115125000Y-120120000D01*
X112735000Y-120120000D01*
G37*
%TD.AperFunction*%
%TA.AperFunction,SMDPad,CuDef*%
G36*
X107655000Y-133970000D02*
G01*
X108055000Y-132970000D01*
X119805000Y-132970000D01*
X120205000Y-133970000D01*
X107655000Y-133970000D01*
G37*
%TD.AperFunction*%
%TA.AperFunction,SMDPad,CuDef*%
G36*
X119096315Y-133908551D02*
G01*
X113623993Y-118873469D01*
X114563685Y-118531449D01*
X120036007Y-133566531D01*
X119096315Y-133908551D01*
G37*
%TD.AperFunction*%
%TA.AperFunction,SMDPad,CuDef*%
G36*
X107848993Y-133541531D02*
G01*
X113321315Y-118506449D01*
X114261007Y-118848469D01*
X108788685Y-133883551D01*
X107848993Y-133541531D01*
G37*
%TD.AperFunction*%
%TD*%
D10*
%TO.P,SW4,2*%
%TO.N,/X1*%
X120595000Y-126760000D03*
D11*
%TO.P,SW4,1*%
%TO.N,/Y1*%
X121620000Y-123760000D03*
D10*
%TO.P,SW4,2*%
%TO.N,/X1*%
X122695000Y-126760000D03*
D12*
X119195000Y-119460000D03*
D13*
X119695000Y-123460000D03*
D14*
%TO.P,SW4,1*%
%TO.N,/Y1*%
X121620000Y-121260000D03*
%TA.AperFunction,SMDPad,CuDef*%
G36*
G01*
X124620000Y-117450000D02*
X124620000Y-117470000D01*
G75*
G02*
X124530000Y-117560000I-90000J0D01*
G01*
X118710000Y-117560000D01*
G75*
G02*
X118620000Y-117470000I0J90000D01*
G01*
X118620000Y-117450000D01*
G75*
G02*
X118710000Y-117360000I90000J0D01*
G01*
X124530000Y-117360000D01*
G75*
G02*
X124620000Y-117450000I0J-90000D01*
G01*
G37*
%TD.AperFunction*%
D12*
%TO.P,SW4,2*%
%TO.N,/X1*%
X124095000Y-119460000D03*
%TO.P,SW4,1*%
%TO.N,/Y1*%
%TA.AperFunction,SMDPad,CuDef*%
G36*
G01*
X123620000Y-121450000D02*
X123620000Y-121470000D01*
G75*
G02*
X123530000Y-121560000I-90000J0D01*
G01*
X119710000Y-121560000D01*
G75*
G02*
X119620000Y-121470000I0J90000D01*
G01*
X119620000Y-121450000D01*
G75*
G02*
X119710000Y-121360000I90000J0D01*
G01*
X123530000Y-121360000D01*
G75*
G02*
X123620000Y-121450000I0J-90000D01*
G01*
G37*
%TD.AperFunction*%
D13*
%TO.P,SW4,2*%
%TO.N,/X1*%
X123595000Y-123460000D03*
%TA.AperFunction,SMDPad,CuDef*%
D15*
G36*
X122865000Y-128310000D02*
G01*
X121675000Y-131610000D01*
X121665000Y-131610000D01*
X120475000Y-128310000D01*
X122865000Y-128310000D01*
G37*
%TD.AperFunction*%
%TO.P,SW4,1*%
%TO.N,/Y1*%
%TA.AperFunction,SMDPad,CuDef*%
G36*
G01*
X122370000Y-124950000D02*
X122370000Y-124970000D01*
G75*
G02*
X122280000Y-125060000I-90000J0D01*
G01*
X120960000Y-125060000D01*
G75*
G02*
X120870000Y-124970000I0J90000D01*
G01*
X120870000Y-124950000D01*
G75*
G02*
X120960000Y-124860000I90000J0D01*
G01*
X122280000Y-124860000D01*
G75*
G02*
X122370000Y-124950000I0J-90000D01*
G01*
G37*
%TD.AperFunction*%
%TA.AperFunction,SMDPad,CuDef*%
%TO.P,SW4,2*%
%TO.N,/X1*%
G36*
X122840000Y-128785000D02*
G01*
X121650000Y-132085000D01*
X121640000Y-132085000D01*
X120450000Y-128785000D01*
X122840000Y-128785000D01*
G37*
%TD.AperFunction*%
%TA.AperFunction,SMDPad,CuDef*%
G36*
X127920000Y-114935000D02*
G01*
X127520000Y-115935000D01*
X115770000Y-115935000D01*
X115370000Y-114935000D01*
X127920000Y-114935000D01*
G37*
%TD.AperFunction*%
%TA.AperFunction,SMDPad,CuDef*%
G36*
X116478685Y-114996449D02*
G01*
X121951007Y-130031531D01*
X121011315Y-130373551D01*
X115538993Y-115338469D01*
X116478685Y-114996449D01*
G37*
%TD.AperFunction*%
%TA.AperFunction,SMDPad,CuDef*%
G36*
X127726007Y-115363469D02*
G01*
X122253685Y-130398551D01*
X121313993Y-130056531D01*
X126786315Y-115021449D01*
X127726007Y-115363469D01*
G37*
%TD.AperFunction*%
%TD*%
D10*
%TO.P,SW5,2*%
%TO.N,/X2*%
X130425000Y-122150000D03*
D11*
%TO.P,SW5,1*%
%TO.N,/Y0*%
X129400000Y-125150000D03*
D10*
%TO.P,SW5,2*%
%TO.N,/X2*%
X128325000Y-122150000D03*
D12*
X131825000Y-129450000D03*
D13*
X131325000Y-125450000D03*
D14*
%TO.P,SW5,1*%
%TO.N,/Y0*%
X129400000Y-127650000D03*
%TA.AperFunction,SMDPad,CuDef*%
G36*
G01*
X126400000Y-131460000D02*
X126400000Y-131440000D01*
G75*
G02*
X126490000Y-131350000I90000J0D01*
G01*
X132310000Y-131350000D01*
G75*
G02*
X132400000Y-131440000I0J-90000D01*
G01*
X132400000Y-131460000D01*
G75*
G02*
X132310000Y-131550000I-90000J0D01*
G01*
X126490000Y-131550000D01*
G75*
G02*
X126400000Y-131460000I0J90000D01*
G01*
G37*
%TD.AperFunction*%
D12*
%TO.P,SW5,2*%
%TO.N,/X2*%
X126925000Y-129450000D03*
%TO.P,SW5,1*%
%TO.N,/Y0*%
%TA.AperFunction,SMDPad,CuDef*%
G36*
G01*
X127400000Y-127460000D02*
X127400000Y-127440000D01*
G75*
G02*
X127490000Y-127350000I90000J0D01*
G01*
X131310000Y-127350000D01*
G75*
G02*
X131400000Y-127440000I0J-90000D01*
G01*
X131400000Y-127460000D01*
G75*
G02*
X131310000Y-127550000I-90000J0D01*
G01*
X127490000Y-127550000D01*
G75*
G02*
X127400000Y-127460000I0J90000D01*
G01*
G37*
%TD.AperFunction*%
D13*
%TO.P,SW5,2*%
%TO.N,/X2*%
X127425000Y-125450000D03*
%TA.AperFunction,SMDPad,CuDef*%
D15*
G36*
X128155000Y-120600000D02*
G01*
X129345000Y-117300000D01*
X129355000Y-117300000D01*
X130545000Y-120600000D01*
X128155000Y-120600000D01*
G37*
%TD.AperFunction*%
%TO.P,SW5,1*%
%TO.N,/Y0*%
%TA.AperFunction,SMDPad,CuDef*%
G36*
G01*
X128650000Y-123960000D02*
X128650000Y-123940000D01*
G75*
G02*
X128740000Y-123850000I90000J0D01*
G01*
X130060000Y-123850000D01*
G75*
G02*
X130150000Y-123940000I0J-90000D01*
G01*
X130150000Y-123960000D01*
G75*
G02*
X130060000Y-124050000I-90000J0D01*
G01*
X128740000Y-124050000D01*
G75*
G02*
X128650000Y-123960000I0J90000D01*
G01*
G37*
%TD.AperFunction*%
%TA.AperFunction,SMDPad,CuDef*%
%TO.P,SW5,2*%
%TO.N,/X2*%
G36*
X128180000Y-120125000D02*
G01*
X129370000Y-116825000D01*
X129380000Y-116825000D01*
X130570000Y-120125000D01*
X128180000Y-120125000D01*
G37*
%TD.AperFunction*%
%TA.AperFunction,SMDPad,CuDef*%
G36*
X123100000Y-133975000D02*
G01*
X123500000Y-132975000D01*
X135250000Y-132975000D01*
X135650000Y-133975000D01*
X123100000Y-133975000D01*
G37*
%TD.AperFunction*%
%TA.AperFunction,SMDPad,CuDef*%
G36*
X134541315Y-133913551D02*
G01*
X129068993Y-118878469D01*
X130008685Y-118536449D01*
X135481007Y-133571531D01*
X134541315Y-133913551D01*
G37*
%TD.AperFunction*%
%TA.AperFunction,SMDPad,CuDef*%
G36*
X123293993Y-133546531D02*
G01*
X128766315Y-118511449D01*
X129706007Y-118853469D01*
X124233685Y-133888551D01*
X123293993Y-133546531D01*
G37*
%TD.AperFunction*%
%TD*%
D10*
%TO.P,SW6,2*%
%TO.N,/X2*%
X136105000Y-126770000D03*
D11*
%TO.P,SW6,1*%
%TO.N,/Y1*%
X137130000Y-123770000D03*
D10*
%TO.P,SW6,2*%
%TO.N,/X2*%
X138205000Y-126770000D03*
D12*
X134705000Y-119470000D03*
D13*
X135205000Y-123470000D03*
D14*
%TO.P,SW6,1*%
%TO.N,/Y1*%
X137130000Y-121270000D03*
%TA.AperFunction,SMDPad,CuDef*%
G36*
G01*
X140130000Y-117460000D02*
X140130000Y-117480000D01*
G75*
G02*
X140040000Y-117570000I-90000J0D01*
G01*
X134220000Y-117570000D01*
G75*
G02*
X134130000Y-117480000I0J90000D01*
G01*
X134130000Y-117460000D01*
G75*
G02*
X134220000Y-117370000I90000J0D01*
G01*
X140040000Y-117370000D01*
G75*
G02*
X140130000Y-117460000I0J-90000D01*
G01*
G37*
%TD.AperFunction*%
D12*
%TO.P,SW6,2*%
%TO.N,/X2*%
X139605000Y-119470000D03*
%TO.P,SW6,1*%
%TO.N,/Y1*%
%TA.AperFunction,SMDPad,CuDef*%
G36*
G01*
X139130000Y-121460000D02*
X139130000Y-121480000D01*
G75*
G02*
X139040000Y-121570000I-90000J0D01*
G01*
X135220000Y-121570000D01*
G75*
G02*
X135130000Y-121480000I0J90000D01*
G01*
X135130000Y-121460000D01*
G75*
G02*
X135220000Y-121370000I90000J0D01*
G01*
X139040000Y-121370000D01*
G75*
G02*
X139130000Y-121460000I0J-90000D01*
G01*
G37*
%TD.AperFunction*%
D13*
%TO.P,SW6,2*%
%TO.N,/X2*%
X139105000Y-123470000D03*
%TA.AperFunction,SMDPad,CuDef*%
D15*
G36*
X138375000Y-128320000D02*
G01*
X137185000Y-131620000D01*
X137175000Y-131620000D01*
X135985000Y-128320000D01*
X138375000Y-128320000D01*
G37*
%TD.AperFunction*%
%TO.P,SW6,1*%
%TO.N,/Y1*%
%TA.AperFunction,SMDPad,CuDef*%
G36*
G01*
X137880000Y-124960000D02*
X137880000Y-124980000D01*
G75*
G02*
X137790000Y-125070000I-90000J0D01*
G01*
X136470000Y-125070000D01*
G75*
G02*
X136380000Y-124980000I0J90000D01*
G01*
X136380000Y-124960000D01*
G75*
G02*
X136470000Y-124870000I90000J0D01*
G01*
X137790000Y-124870000D01*
G75*
G02*
X137880000Y-124960000I0J-90000D01*
G01*
G37*
%TD.AperFunction*%
%TA.AperFunction,SMDPad,CuDef*%
%TO.P,SW6,2*%
%TO.N,/X2*%
G36*
X138350000Y-128795000D02*
G01*
X137160000Y-132095000D01*
X137150000Y-132095000D01*
X135960000Y-128795000D01*
X138350000Y-128795000D01*
G37*
%TD.AperFunction*%
%TA.AperFunction,SMDPad,CuDef*%
G36*
X143430000Y-114945000D02*
G01*
X143030000Y-115945000D01*
X131280000Y-115945000D01*
X130880000Y-114945000D01*
X143430000Y-114945000D01*
G37*
%TD.AperFunction*%
%TA.AperFunction,SMDPad,CuDef*%
G36*
X131988685Y-115006449D02*
G01*
X137461007Y-130041531D01*
X136521315Y-130383551D01*
X131048993Y-115348469D01*
X131988685Y-115006449D01*
G37*
%TD.AperFunction*%
%TA.AperFunction,SMDPad,CuDef*%
G36*
X143236007Y-115373469D02*
G01*
X137763685Y-130408551D01*
X136823993Y-130066531D01*
X142296315Y-115031449D01*
X143236007Y-115373469D01*
G37*
%TD.AperFunction*%
%TD*%
D10*
%TO.P,SW7,2*%
%TO.N,/X3*%
X145870000Y-122155000D03*
D11*
%TO.P,SW7,1*%
%TO.N,/Y0*%
X144845000Y-125155000D03*
D10*
%TO.P,SW7,2*%
%TO.N,/X3*%
X143770000Y-122155000D03*
D12*
X147270000Y-129455000D03*
D13*
X146770000Y-125455000D03*
D14*
%TO.P,SW7,1*%
%TO.N,/Y0*%
X144845000Y-127655000D03*
%TA.AperFunction,SMDPad,CuDef*%
G36*
G01*
X141845000Y-131465000D02*
X141845000Y-131445000D01*
G75*
G02*
X141935000Y-131355000I90000J0D01*
G01*
X147755000Y-131355000D01*
G75*
G02*
X147845000Y-131445000I0J-90000D01*
G01*
X147845000Y-131465000D01*
G75*
G02*
X147755000Y-131555000I-90000J0D01*
G01*
X141935000Y-131555000D01*
G75*
G02*
X141845000Y-131465000I0J90000D01*
G01*
G37*
%TD.AperFunction*%
D12*
%TO.P,SW7,2*%
%TO.N,/X3*%
X142370000Y-129455000D03*
%TO.P,SW7,1*%
%TO.N,/Y0*%
%TA.AperFunction,SMDPad,CuDef*%
G36*
G01*
X142845000Y-127465000D02*
X142845000Y-127445000D01*
G75*
G02*
X142935000Y-127355000I90000J0D01*
G01*
X146755000Y-127355000D01*
G75*
G02*
X146845000Y-127445000I0J-90000D01*
G01*
X146845000Y-127465000D01*
G75*
G02*
X146755000Y-127555000I-90000J0D01*
G01*
X142935000Y-127555000D01*
G75*
G02*
X142845000Y-127465000I0J90000D01*
G01*
G37*
%TD.AperFunction*%
D13*
%TO.P,SW7,2*%
%TO.N,/X3*%
X142870000Y-125455000D03*
%TA.AperFunction,SMDPad,CuDef*%
D15*
G36*
X143600000Y-120605000D02*
G01*
X144790000Y-117305000D01*
X144800000Y-117305000D01*
X145990000Y-120605000D01*
X143600000Y-120605000D01*
G37*
%TD.AperFunction*%
%TO.P,SW7,1*%
%TO.N,/Y0*%
%TA.AperFunction,SMDPad,CuDef*%
G36*
G01*
X144095000Y-123965000D02*
X144095000Y-123945000D01*
G75*
G02*
X144185000Y-123855000I90000J0D01*
G01*
X145505000Y-123855000D01*
G75*
G02*
X145595000Y-123945000I0J-90000D01*
G01*
X145595000Y-123965000D01*
G75*
G02*
X145505000Y-124055000I-90000J0D01*
G01*
X144185000Y-124055000D01*
G75*
G02*
X144095000Y-123965000I0J90000D01*
G01*
G37*
%TD.AperFunction*%
%TA.AperFunction,SMDPad,CuDef*%
%TO.P,SW7,2*%
%TO.N,/X3*%
G36*
X143625000Y-120130000D02*
G01*
X144815000Y-116830000D01*
X144825000Y-116830000D01*
X146015000Y-120130000D01*
X143625000Y-120130000D01*
G37*
%TD.AperFunction*%
%TA.AperFunction,SMDPad,CuDef*%
G36*
X138545000Y-133980000D02*
G01*
X138945000Y-132980000D01*
X150695000Y-132980000D01*
X151095000Y-133980000D01*
X138545000Y-133980000D01*
G37*
%TD.AperFunction*%
%TA.AperFunction,SMDPad,CuDef*%
G36*
X149986315Y-133918551D02*
G01*
X144513993Y-118883469D01*
X145453685Y-118541449D01*
X150926007Y-133576531D01*
X149986315Y-133918551D01*
G37*
%TD.AperFunction*%
%TA.AperFunction,SMDPad,CuDef*%
G36*
X138738993Y-133551531D02*
G01*
X144211315Y-118516449D01*
X145151007Y-118858469D01*
X139678685Y-133893551D01*
X138738993Y-133551531D01*
G37*
%TD.AperFunction*%
%TD*%
D10*
%TO.P,SW8,2*%
%TO.N,/X3*%
X151605000Y-126730000D03*
D11*
%TO.P,SW8,1*%
%TO.N,/Y1*%
X152630000Y-123730000D03*
D10*
%TO.P,SW8,2*%
%TO.N,/X3*%
X153705000Y-126730000D03*
D12*
X150205000Y-119430000D03*
D13*
X150705000Y-123430000D03*
D14*
%TO.P,SW8,1*%
%TO.N,/Y1*%
X152630000Y-121230000D03*
%TA.AperFunction,SMDPad,CuDef*%
G36*
G01*
X155630000Y-117420000D02*
X155630000Y-117440000D01*
G75*
G02*
X155540000Y-117530000I-90000J0D01*
G01*
X149720000Y-117530000D01*
G75*
G02*
X149630000Y-117440000I0J90000D01*
G01*
X149630000Y-117420000D01*
G75*
G02*
X149720000Y-117330000I90000J0D01*
G01*
X155540000Y-117330000D01*
G75*
G02*
X155630000Y-117420000I0J-90000D01*
G01*
G37*
%TD.AperFunction*%
D12*
%TO.P,SW8,2*%
%TO.N,/X3*%
X155105000Y-119430000D03*
%TO.P,SW8,1*%
%TO.N,/Y1*%
%TA.AperFunction,SMDPad,CuDef*%
G36*
G01*
X154630000Y-121420000D02*
X154630000Y-121440000D01*
G75*
G02*
X154540000Y-121530000I-90000J0D01*
G01*
X150720000Y-121530000D01*
G75*
G02*
X150630000Y-121440000I0J90000D01*
G01*
X150630000Y-121420000D01*
G75*
G02*
X150720000Y-121330000I90000J0D01*
G01*
X154540000Y-121330000D01*
G75*
G02*
X154630000Y-121420000I0J-90000D01*
G01*
G37*
%TD.AperFunction*%
D13*
%TO.P,SW8,2*%
%TO.N,/X3*%
X154605000Y-123430000D03*
%TA.AperFunction,SMDPad,CuDef*%
D15*
G36*
X153875000Y-128280000D02*
G01*
X152685000Y-131580000D01*
X152675000Y-131580000D01*
X151485000Y-128280000D01*
X153875000Y-128280000D01*
G37*
%TD.AperFunction*%
%TO.P,SW8,1*%
%TO.N,/Y1*%
%TA.AperFunction,SMDPad,CuDef*%
G36*
G01*
X153380000Y-124920000D02*
X153380000Y-124940000D01*
G75*
G02*
X153290000Y-125030000I-90000J0D01*
G01*
X151970000Y-125030000D01*
G75*
G02*
X151880000Y-124940000I0J90000D01*
G01*
X151880000Y-124920000D01*
G75*
G02*
X151970000Y-124830000I90000J0D01*
G01*
X153290000Y-124830000D01*
G75*
G02*
X153380000Y-124920000I0J-90000D01*
G01*
G37*
%TD.AperFunction*%
%TA.AperFunction,SMDPad,CuDef*%
%TO.P,SW8,2*%
%TO.N,/X3*%
G36*
X153850000Y-128755000D02*
G01*
X152660000Y-132055000D01*
X152650000Y-132055000D01*
X151460000Y-128755000D01*
X153850000Y-128755000D01*
G37*
%TD.AperFunction*%
%TA.AperFunction,SMDPad,CuDef*%
G36*
X158930000Y-114905000D02*
G01*
X158530000Y-115905000D01*
X146780000Y-115905000D01*
X146380000Y-114905000D01*
X158930000Y-114905000D01*
G37*
%TD.AperFunction*%
%TA.AperFunction,SMDPad,CuDef*%
G36*
X147488685Y-114966449D02*
G01*
X152961007Y-130001531D01*
X152021315Y-130343551D01*
X146548993Y-115308469D01*
X147488685Y-114966449D01*
G37*
%TD.AperFunction*%
%TA.AperFunction,SMDPad,CuDef*%
G36*
X158736007Y-115333469D02*
G01*
X153263685Y-130368551D01*
X152323993Y-130026531D01*
X157796315Y-114991449D01*
X158736007Y-115333469D01*
G37*
%TD.AperFunction*%
%TD*%
D10*
%TO.P,SW9,2*%
%TO.N,/X4*%
X161330000Y-122175000D03*
D11*
%TO.P,SW9,1*%
%TO.N,/Y0*%
X160305000Y-125175000D03*
D10*
%TO.P,SW9,2*%
%TO.N,/X4*%
X159230000Y-122175000D03*
D12*
X162730000Y-129475000D03*
D13*
X162230000Y-125475000D03*
D14*
%TO.P,SW9,1*%
%TO.N,/Y0*%
X160305000Y-127675000D03*
%TA.AperFunction,SMDPad,CuDef*%
G36*
G01*
X157305000Y-131485000D02*
X157305000Y-131465000D01*
G75*
G02*
X157395000Y-131375000I90000J0D01*
G01*
X163215000Y-131375000D01*
G75*
G02*
X163305000Y-131465000I0J-90000D01*
G01*
X163305000Y-131485000D01*
G75*
G02*
X163215000Y-131575000I-90000J0D01*
G01*
X157395000Y-131575000D01*
G75*
G02*
X157305000Y-131485000I0J90000D01*
G01*
G37*
%TD.AperFunction*%
D12*
%TO.P,SW9,2*%
%TO.N,/X4*%
X157830000Y-129475000D03*
%TO.P,SW9,1*%
%TO.N,/Y0*%
%TA.AperFunction,SMDPad,CuDef*%
G36*
G01*
X158305000Y-127485000D02*
X158305000Y-127465000D01*
G75*
G02*
X158395000Y-127375000I90000J0D01*
G01*
X162215000Y-127375000D01*
G75*
G02*
X162305000Y-127465000I0J-90000D01*
G01*
X162305000Y-127485000D01*
G75*
G02*
X162215000Y-127575000I-90000J0D01*
G01*
X158395000Y-127575000D01*
G75*
G02*
X158305000Y-127485000I0J90000D01*
G01*
G37*
%TD.AperFunction*%
D13*
%TO.P,SW9,2*%
%TO.N,/X4*%
X158330000Y-125475000D03*
%TA.AperFunction,SMDPad,CuDef*%
D15*
G36*
X159060000Y-120625000D02*
G01*
X160250000Y-117325000D01*
X160260000Y-117325000D01*
X161450000Y-120625000D01*
X159060000Y-120625000D01*
G37*
%TD.AperFunction*%
%TO.P,SW9,1*%
%TO.N,/Y0*%
%TA.AperFunction,SMDPad,CuDef*%
G36*
G01*
X159555000Y-123985000D02*
X159555000Y-123965000D01*
G75*
G02*
X159645000Y-123875000I90000J0D01*
G01*
X160965000Y-123875000D01*
G75*
G02*
X161055000Y-123965000I0J-90000D01*
G01*
X161055000Y-123985000D01*
G75*
G02*
X160965000Y-124075000I-90000J0D01*
G01*
X159645000Y-124075000D01*
G75*
G02*
X159555000Y-123985000I0J90000D01*
G01*
G37*
%TD.AperFunction*%
%TA.AperFunction,SMDPad,CuDef*%
%TO.P,SW9,2*%
%TO.N,/X4*%
G36*
X159085000Y-120150000D02*
G01*
X160275000Y-116850000D01*
X160285000Y-116850000D01*
X161475000Y-120150000D01*
X159085000Y-120150000D01*
G37*
%TD.AperFunction*%
%TA.AperFunction,SMDPad,CuDef*%
G36*
X154005000Y-134000000D02*
G01*
X154405000Y-133000000D01*
X166155000Y-133000000D01*
X166555000Y-134000000D01*
X154005000Y-134000000D01*
G37*
%TD.AperFunction*%
%TA.AperFunction,SMDPad,CuDef*%
G36*
X165446315Y-133938551D02*
G01*
X159973993Y-118903469D01*
X160913685Y-118561449D01*
X166386007Y-133596531D01*
X165446315Y-133938551D01*
G37*
%TD.AperFunction*%
%TA.AperFunction,SMDPad,CuDef*%
G36*
X154198993Y-133571531D02*
G01*
X159671315Y-118536449D01*
X160611007Y-118878469D01*
X155138685Y-133913551D01*
X154198993Y-133571531D01*
G37*
%TD.AperFunction*%
%TD*%
D10*
%TO.P,SW10,2*%
%TO.N,/X4*%
X166955000Y-126750000D03*
D11*
%TO.P,SW10,1*%
%TO.N,/Y1*%
X167980000Y-123750000D03*
D10*
%TO.P,SW10,2*%
%TO.N,/X4*%
X169055000Y-126750000D03*
D12*
X165555000Y-119450000D03*
D13*
X166055000Y-123450000D03*
D14*
%TO.P,SW10,1*%
%TO.N,/Y1*%
X167980000Y-121250000D03*
%TA.AperFunction,SMDPad,CuDef*%
G36*
G01*
X170980000Y-117440000D02*
X170980000Y-117460000D01*
G75*
G02*
X170890000Y-117550000I-90000J0D01*
G01*
X165070000Y-117550000D01*
G75*
G02*
X164980000Y-117460000I0J90000D01*
G01*
X164980000Y-117440000D01*
G75*
G02*
X165070000Y-117350000I90000J0D01*
G01*
X170890000Y-117350000D01*
G75*
G02*
X170980000Y-117440000I0J-90000D01*
G01*
G37*
%TD.AperFunction*%
D12*
%TO.P,SW10,2*%
%TO.N,/X4*%
X170455000Y-119450000D03*
%TO.P,SW10,1*%
%TO.N,/Y1*%
%TA.AperFunction,SMDPad,CuDef*%
G36*
G01*
X169980000Y-121440000D02*
X169980000Y-121460000D01*
G75*
G02*
X169890000Y-121550000I-90000J0D01*
G01*
X166070000Y-121550000D01*
G75*
G02*
X165980000Y-121460000I0J90000D01*
G01*
X165980000Y-121440000D01*
G75*
G02*
X166070000Y-121350000I90000J0D01*
G01*
X169890000Y-121350000D01*
G75*
G02*
X169980000Y-121440000I0J-90000D01*
G01*
G37*
%TD.AperFunction*%
D13*
%TO.P,SW10,2*%
%TO.N,/X4*%
X169955000Y-123450000D03*
%TA.AperFunction,SMDPad,CuDef*%
D15*
G36*
X169225000Y-128300000D02*
G01*
X168035000Y-131600000D01*
X168025000Y-131600000D01*
X166835000Y-128300000D01*
X169225000Y-128300000D01*
G37*
%TD.AperFunction*%
%TO.P,SW10,1*%
%TO.N,/Y1*%
%TA.AperFunction,SMDPad,CuDef*%
G36*
G01*
X168730000Y-124940000D02*
X168730000Y-124960000D01*
G75*
G02*
X168640000Y-125050000I-90000J0D01*
G01*
X167320000Y-125050000D01*
G75*
G02*
X167230000Y-124960000I0J90000D01*
G01*
X167230000Y-124940000D01*
G75*
G02*
X167320000Y-124850000I90000J0D01*
G01*
X168640000Y-124850000D01*
G75*
G02*
X168730000Y-124940000I0J-90000D01*
G01*
G37*
%TD.AperFunction*%
%TA.AperFunction,SMDPad,CuDef*%
%TO.P,SW10,2*%
%TO.N,/X4*%
G36*
X169200000Y-128775000D02*
G01*
X168010000Y-132075000D01*
X168000000Y-132075000D01*
X166810000Y-128775000D01*
X169200000Y-128775000D01*
G37*
%TD.AperFunction*%
%TA.AperFunction,SMDPad,CuDef*%
G36*
X174280000Y-114925000D02*
G01*
X173880000Y-115925000D01*
X162130000Y-115925000D01*
X161730000Y-114925000D01*
X174280000Y-114925000D01*
G37*
%TD.AperFunction*%
%TA.AperFunction,SMDPad,CuDef*%
G36*
X162838685Y-114986449D02*
G01*
X168311007Y-130021531D01*
X167371315Y-130363551D01*
X161898993Y-115328469D01*
X162838685Y-114986449D01*
G37*
%TD.AperFunction*%
%TA.AperFunction,SMDPad,CuDef*%
G36*
X174086007Y-115353469D02*
G01*
X168613685Y-130388551D01*
X167673993Y-130046531D01*
X173146315Y-115011449D01*
X174086007Y-115353469D01*
G37*
%TD.AperFunction*%
%TD*%
D10*
%TO.P,SW11,2*%
%TO.N,/X5*%
X176800000Y-122125000D03*
D11*
%TO.P,SW11,1*%
%TO.N,/Y0*%
X175775000Y-125125000D03*
D10*
%TO.P,SW11,2*%
%TO.N,/X5*%
X174700000Y-122125000D03*
D12*
X178200000Y-129425000D03*
D13*
X177700000Y-125425000D03*
D14*
%TO.P,SW11,1*%
%TO.N,/Y0*%
X175775000Y-127625000D03*
%TA.AperFunction,SMDPad,CuDef*%
G36*
G01*
X172775000Y-131435000D02*
X172775000Y-131415000D01*
G75*
G02*
X172865000Y-131325000I90000J0D01*
G01*
X178685000Y-131325000D01*
G75*
G02*
X178775000Y-131415000I0J-90000D01*
G01*
X178775000Y-131435000D01*
G75*
G02*
X178685000Y-131525000I-90000J0D01*
G01*
X172865000Y-131525000D01*
G75*
G02*
X172775000Y-131435000I0J90000D01*
G01*
G37*
%TD.AperFunction*%
D12*
%TO.P,SW11,2*%
%TO.N,/X5*%
X173300000Y-129425000D03*
%TO.P,SW11,1*%
%TO.N,/Y0*%
%TA.AperFunction,SMDPad,CuDef*%
G36*
G01*
X173775000Y-127435000D02*
X173775000Y-127415000D01*
G75*
G02*
X173865000Y-127325000I90000J0D01*
G01*
X177685000Y-127325000D01*
G75*
G02*
X177775000Y-127415000I0J-90000D01*
G01*
X177775000Y-127435000D01*
G75*
G02*
X177685000Y-127525000I-90000J0D01*
G01*
X173865000Y-127525000D01*
G75*
G02*
X173775000Y-127435000I0J90000D01*
G01*
G37*
%TD.AperFunction*%
D13*
%TO.P,SW11,2*%
%TO.N,/X5*%
X173800000Y-125425000D03*
%TA.AperFunction,SMDPad,CuDef*%
D15*
G36*
X174530000Y-120575000D02*
G01*
X175720000Y-117275000D01*
X175730000Y-117275000D01*
X176920000Y-120575000D01*
X174530000Y-120575000D01*
G37*
%TD.AperFunction*%
%TO.P,SW11,1*%
%TO.N,/Y0*%
%TA.AperFunction,SMDPad,CuDef*%
G36*
G01*
X175025000Y-123935000D02*
X175025000Y-123915000D01*
G75*
G02*
X175115000Y-123825000I90000J0D01*
G01*
X176435000Y-123825000D01*
G75*
G02*
X176525000Y-123915000I0J-90000D01*
G01*
X176525000Y-123935000D01*
G75*
G02*
X176435000Y-124025000I-90000J0D01*
G01*
X175115000Y-124025000D01*
G75*
G02*
X175025000Y-123935000I0J90000D01*
G01*
G37*
%TD.AperFunction*%
%TA.AperFunction,SMDPad,CuDef*%
%TO.P,SW11,2*%
%TO.N,/X5*%
G36*
X174555000Y-120100000D02*
G01*
X175745000Y-116800000D01*
X175755000Y-116800000D01*
X176945000Y-120100000D01*
X174555000Y-120100000D01*
G37*
%TD.AperFunction*%
%TA.AperFunction,SMDPad,CuDef*%
G36*
X169475000Y-133950000D02*
G01*
X169875000Y-132950000D01*
X181625000Y-132950000D01*
X182025000Y-133950000D01*
X169475000Y-133950000D01*
G37*
%TD.AperFunction*%
%TA.AperFunction,SMDPad,CuDef*%
G36*
X180916315Y-133888551D02*
G01*
X175443993Y-118853469D01*
X176383685Y-118511449D01*
X181856007Y-133546531D01*
X180916315Y-133888551D01*
G37*
%TD.AperFunction*%
%TA.AperFunction,SMDPad,CuDef*%
G36*
X169668993Y-133521531D02*
G01*
X175141315Y-118486449D01*
X176081007Y-118828469D01*
X170608685Y-133863551D01*
X169668993Y-133521531D01*
G37*
%TD.AperFunction*%
%TD*%
D10*
%TO.P,SW12,2*%
%TO.N,/X5*%
X182380000Y-126815000D03*
D11*
%TO.P,SW12,1*%
%TO.N,/Y1*%
X183405000Y-123815000D03*
D10*
%TO.P,SW12,2*%
%TO.N,/X5*%
X184480000Y-126815000D03*
D12*
X180980000Y-119515000D03*
D13*
X181480000Y-123515000D03*
D14*
%TO.P,SW12,1*%
%TO.N,/Y1*%
X183405000Y-121315000D03*
%TA.AperFunction,SMDPad,CuDef*%
G36*
G01*
X186405000Y-117505000D02*
X186405000Y-117525000D01*
G75*
G02*
X186315000Y-117615000I-90000J0D01*
G01*
X180495000Y-117615000D01*
G75*
G02*
X180405000Y-117525000I0J90000D01*
G01*
X180405000Y-117505000D01*
G75*
G02*
X180495000Y-117415000I90000J0D01*
G01*
X186315000Y-117415000D01*
G75*
G02*
X186405000Y-117505000I0J-90000D01*
G01*
G37*
%TD.AperFunction*%
D12*
%TO.P,SW12,2*%
%TO.N,/X5*%
X185880000Y-119515000D03*
%TO.P,SW12,1*%
%TO.N,/Y1*%
%TA.AperFunction,SMDPad,CuDef*%
G36*
G01*
X185405000Y-121505000D02*
X185405000Y-121525000D01*
G75*
G02*
X185315000Y-121615000I-90000J0D01*
G01*
X181495000Y-121615000D01*
G75*
G02*
X181405000Y-121525000I0J90000D01*
G01*
X181405000Y-121505000D01*
G75*
G02*
X181495000Y-121415000I90000J0D01*
G01*
X185315000Y-121415000D01*
G75*
G02*
X185405000Y-121505000I0J-90000D01*
G01*
G37*
%TD.AperFunction*%
D13*
%TO.P,SW12,2*%
%TO.N,/X5*%
X185380000Y-123515000D03*
%TA.AperFunction,SMDPad,CuDef*%
D15*
G36*
X184650000Y-128365000D02*
G01*
X183460000Y-131665000D01*
X183450000Y-131665000D01*
X182260000Y-128365000D01*
X184650000Y-128365000D01*
G37*
%TD.AperFunction*%
%TO.P,SW12,1*%
%TO.N,/Y1*%
%TA.AperFunction,SMDPad,CuDef*%
G36*
G01*
X184155000Y-125005000D02*
X184155000Y-125025000D01*
G75*
G02*
X184065000Y-125115000I-90000J0D01*
G01*
X182745000Y-125115000D01*
G75*
G02*
X182655000Y-125025000I0J90000D01*
G01*
X182655000Y-125005000D01*
G75*
G02*
X182745000Y-124915000I90000J0D01*
G01*
X184065000Y-124915000D01*
G75*
G02*
X184155000Y-125005000I0J-90000D01*
G01*
G37*
%TD.AperFunction*%
%TA.AperFunction,SMDPad,CuDef*%
%TO.P,SW12,2*%
%TO.N,/X5*%
G36*
X184625000Y-128840000D02*
G01*
X183435000Y-132140000D01*
X183425000Y-132140000D01*
X182235000Y-128840000D01*
X184625000Y-128840000D01*
G37*
%TD.AperFunction*%
%TA.AperFunction,SMDPad,CuDef*%
G36*
X189705000Y-114990000D02*
G01*
X189305000Y-115990000D01*
X177555000Y-115990000D01*
X177155000Y-114990000D01*
X189705000Y-114990000D01*
G37*
%TD.AperFunction*%
%TA.AperFunction,SMDPad,CuDef*%
G36*
X178263685Y-115051449D02*
G01*
X183736007Y-130086531D01*
X182796315Y-130428551D01*
X177323993Y-115393469D01*
X178263685Y-115051449D01*
G37*
%TD.AperFunction*%
%TA.AperFunction,SMDPad,CuDef*%
G36*
X189511007Y-115418469D02*
G01*
X184038685Y-130453551D01*
X183098993Y-130111531D01*
X188571315Y-115076449D01*
X189511007Y-115418469D01*
G37*
%TD.AperFunction*%
%TD*%
D16*
%TO.P,TP1,1*%
%TO.N,/DBG_CLK*%
X206800000Y-111390000D03*
%TD*%
%TO.P,TP2,1*%
%TO.N,/S_SYNC*%
X204910000Y-112210000D03*
%TD*%
%TA.AperFunction,SMDPad,CuDef*%
D15*
%TO.P,SW13,2*%
%TO.N,/X6*%
G36*
X185163993Y-133576531D02*
G01*
X190636315Y-118541449D01*
X191576007Y-118883469D01*
X186103685Y-133918551D01*
X185163993Y-133576531D01*
G37*
%TD.AperFunction*%
%TA.AperFunction,SMDPad,CuDef*%
G36*
X196411315Y-133943551D02*
G01*
X190938993Y-118908469D01*
X191878685Y-118566449D01*
X197351007Y-133601531D01*
X196411315Y-133943551D01*
G37*
%TD.AperFunction*%
%TA.AperFunction,SMDPad,CuDef*%
G36*
X184970000Y-134005000D02*
G01*
X185370000Y-133005000D01*
X197120000Y-133005000D01*
X197520000Y-134005000D01*
X184970000Y-134005000D01*
G37*
%TD.AperFunction*%
%TA.AperFunction,SMDPad,CuDef*%
G36*
X190050000Y-120155000D02*
G01*
X191240000Y-116855000D01*
X191250000Y-116855000D01*
X192440000Y-120155000D01*
X190050000Y-120155000D01*
G37*
%TD.AperFunction*%
%TO.P,SW13,1*%
%TO.N,/Y0*%
%TA.AperFunction,SMDPad,CuDef*%
G36*
G01*
X190520000Y-123990000D02*
X190520000Y-123970000D01*
G75*
G02*
X190610000Y-123880000I90000J0D01*
G01*
X191930000Y-123880000D01*
G75*
G02*
X192020000Y-123970000I0J-90000D01*
G01*
X192020000Y-123990000D01*
G75*
G02*
X191930000Y-124080000I-90000J0D01*
G01*
X190610000Y-124080000D01*
G75*
G02*
X190520000Y-123990000I0J90000D01*
G01*
G37*
%TD.AperFunction*%
%TA.AperFunction,SMDPad,CuDef*%
%TO.P,SW13,2*%
%TO.N,/X6*%
G36*
X190025000Y-120630000D02*
G01*
X191215000Y-117330000D01*
X191225000Y-117330000D01*
X192415000Y-120630000D01*
X190025000Y-120630000D01*
G37*
%TD.AperFunction*%
D13*
X189295000Y-125480000D03*
%TO.P,SW13,1*%
%TO.N,/Y0*%
%TA.AperFunction,SMDPad,CuDef*%
G36*
G01*
X189270000Y-127490000D02*
X189270000Y-127470000D01*
G75*
G02*
X189360000Y-127380000I90000J0D01*
G01*
X193180000Y-127380000D01*
G75*
G02*
X193270000Y-127470000I0J-90000D01*
G01*
X193270000Y-127490000D01*
G75*
G02*
X193180000Y-127580000I-90000J0D01*
G01*
X189360000Y-127580000D01*
G75*
G02*
X189270000Y-127490000I0J90000D01*
G01*
G37*
%TD.AperFunction*%
D12*
%TO.P,SW13,2*%
%TO.N,/X6*%
X188795000Y-129480000D03*
%TO.P,SW13,1*%
%TO.N,/Y0*%
%TA.AperFunction,SMDPad,CuDef*%
G36*
G01*
X188270000Y-131490000D02*
X188270000Y-131470000D01*
G75*
G02*
X188360000Y-131380000I90000J0D01*
G01*
X194180000Y-131380000D01*
G75*
G02*
X194270000Y-131470000I0J-90000D01*
G01*
X194270000Y-131490000D01*
G75*
G02*
X194180000Y-131580000I-90000J0D01*
G01*
X188360000Y-131580000D01*
G75*
G02*
X188270000Y-131490000I0J90000D01*
G01*
G37*
%TD.AperFunction*%
D14*
X191270000Y-127680000D03*
D13*
%TO.P,SW13,2*%
%TO.N,/X6*%
X193195000Y-125480000D03*
D12*
X193695000Y-129480000D03*
D10*
X190195000Y-122180000D03*
D11*
%TO.P,SW13,1*%
%TO.N,/Y0*%
X191270000Y-125180000D03*
D10*
%TO.P,SW13,2*%
%TO.N,/X6*%
X192295000Y-122180000D03*
%TD*%
D17*
%TO.N,Net-(C61-Pad2)*%
X201650000Y-103140000D03*
X211355438Y-102125499D03*
%TO.N,Net-(C62-Pad2)*%
X205430000Y-105160000D03*
X211940000Y-108710000D03*
%TO.N,GND*%
X203700000Y-108740000D03*
X204340000Y-108030000D03*
X200510000Y-103940000D03*
X202593084Y-109786916D03*
X202980000Y-116200000D03*
X211760000Y-114350000D03*
X211050000Y-115100000D03*
X213983600Y-104557400D03*
%TO.N,+3V3*%
X211660000Y-110730000D03*
X211280000Y-97250000D03*
%TO.N,~CHANGE*%
X209050000Y-103680000D03*
X208910000Y-111390000D03*
%TO.N,/DBG_CLK*%
X205430000Y-114330000D03*
%TO.N,/S_SYNC*%
X204370000Y-113740000D03*
D18*
%TO.N,/Y0*%
X98480000Y-127430000D03*
X113970000Y-127450000D03*
X129400000Y-127450000D03*
X144840000Y-127450000D03*
X160310000Y-127470000D03*
X175780000Y-127430000D03*
X191270000Y-127480000D03*
%TO.N,/Y1*%
X183405000Y-121515000D03*
X167980000Y-121450000D03*
X137140000Y-121470000D03*
X152620000Y-121440000D03*
X121640000Y-121470000D03*
X106180000Y-121460000D03*
%TO.N,/X6*%
X191270000Y-119550000D03*
%TO.N,/X0*%
X98470000Y-119420000D03*
X106195000Y-115435000D03*
%TO.N,/X1*%
X113960000Y-119460000D03*
X121645000Y-115435000D03*
%TO.N,/X2*%
X129410000Y-119460000D03*
X137165000Y-115445000D03*
%TO.N,/X3*%
X144890000Y-119490000D03*
X152655000Y-115405000D03*
%TO.N,/X4*%
X160290000Y-119490000D03*
X168000000Y-115430000D03*
%TO.N,/X5*%
X175770000Y-119540000D03*
X183430000Y-115490000D03*
%TD*%
D19*
%TO.N,Net-(C61-Pad2)*%
X206785415Y-102125415D02*
X202664585Y-102125415D01*
X204664585Y-102125415D02*
X206785415Y-102125415D01*
X202664585Y-102125415D02*
X201650000Y-103140000D01*
X206785415Y-102125415D02*
X211355354Y-102125415D01*
X211355354Y-102125415D02*
X211355438Y-102125499D01*
%TO.N,Net-(C62-Pad2)*%
X207739584Y-102850416D02*
X209360416Y-102850416D01*
X205430000Y-105160000D02*
X207739584Y-102850416D01*
X209360416Y-102850416D02*
X211940000Y-105430000D01*
X211940000Y-105430000D02*
X211940000Y-108710000D01*
%TO.N,+3V3*%
X212730000Y-109660000D02*
X211660000Y-110730000D01*
X212730000Y-102750000D02*
X212730000Y-109660000D01*
X212080000Y-102100000D02*
X212730000Y-102750000D01*
X212080000Y-101640000D02*
X212080000Y-102100000D01*
X211280000Y-97250000D02*
X211280000Y-100840000D01*
X211280000Y-100840000D02*
X212080000Y-101640000D01*
%TO.N,~CHANGE*%
X209050000Y-103680000D02*
X209050000Y-111250000D01*
X209050000Y-111250000D02*
X208910000Y-111390000D01*
%TO.N,/DBG_CLK*%
X205430000Y-113360000D02*
X205430000Y-114330000D01*
X206800000Y-111390000D02*
X206800000Y-111990000D01*
X206800000Y-111990000D02*
X205430000Y-113360000D01*
%TO.N,/S_SYNC*%
X204370000Y-112750000D02*
X204910000Y-112210000D01*
X204370000Y-113740000D02*
X204370000Y-112750000D01*
D20*
%TO.N,/Y0*%
X129400000Y-125150000D02*
X129400000Y-127450000D01*
X113955000Y-125145000D02*
X113970000Y-127450000D01*
X98485000Y-127630000D02*
X98480000Y-127430000D01*
X191270000Y-127680000D02*
X191270000Y-127480000D01*
X175775000Y-125125000D02*
X175780000Y-127430000D01*
X175775000Y-131425000D02*
X175775000Y-127625000D01*
X160305000Y-125175000D02*
X160310000Y-127470000D01*
X144845000Y-131455000D02*
X144840000Y-127450000D01*
X98480000Y-127430000D02*
X98485000Y-131430000D01*
X113970000Y-127450000D02*
X113955000Y-131445000D01*
X129400000Y-127450000D02*
X129400000Y-131450000D01*
X144840000Y-127450000D02*
X144845000Y-125155000D01*
X160310000Y-127470000D02*
X160305000Y-131475000D01*
X175780000Y-127430000D02*
X175775000Y-127625000D01*
X191270000Y-127480000D02*
X191270000Y-131480000D01*
%TO.N,/Y1*%
X137130000Y-117470000D02*
X137140000Y-121470000D01*
X121620000Y-117460000D02*
X121640000Y-121470000D01*
X106170000Y-117460000D02*
X106180000Y-121460000D01*
X183405000Y-117515000D02*
X183405000Y-121515000D01*
X167980000Y-117450000D02*
X167980000Y-121450000D01*
X152630000Y-117430000D02*
X152620000Y-121440000D01*
X167980000Y-121450000D02*
X167980000Y-121250000D01*
X137140000Y-121470000D02*
X137130000Y-123770000D01*
X152620000Y-121440000D02*
X152630000Y-121430000D01*
X121640000Y-121470000D02*
X121620000Y-121460000D01*
X106180000Y-121460000D02*
X106170000Y-121460000D01*
D19*
%TO.N,/X6*%
X188700000Y-125480000D02*
X188670000Y-125450000D01*
X189295000Y-125480000D02*
X188700000Y-125480000D01*
X187370000Y-129480000D02*
X187310000Y-129540000D01*
X188795000Y-129480000D02*
X187370000Y-129480000D01*
X195190000Y-129480000D02*
X195290000Y-129380000D01*
X193695000Y-129480000D02*
X195190000Y-129480000D01*
X193710000Y-125480000D02*
X193990000Y-125760000D01*
X193195000Y-125480000D02*
X193710000Y-125480000D01*
X196705000Y-133505000D02*
X196820000Y-133390000D01*
X191245000Y-133505000D02*
X196705000Y-133505000D01*
%TO.N,/X0*%
X96335000Y-125430000D02*
X95585000Y-126180000D01*
X96510000Y-125430000D02*
X96335000Y-125430000D01*
X95585000Y-126595000D02*
X95585000Y-126180000D01*
X95585000Y-126705000D02*
X95585000Y-126180000D01*
X94630000Y-129430000D02*
X94460000Y-129260000D01*
X96010000Y-129430000D02*
X94630000Y-129430000D01*
X93155000Y-133455000D02*
X93060000Y-133360000D01*
X98460000Y-133455000D02*
X93155000Y-133455000D01*
X100585000Y-125430000D02*
X101360000Y-126205000D01*
X100410000Y-125430000D02*
X100585000Y-125430000D01*
X102420000Y-129430000D02*
X102480000Y-129490000D01*
X100910000Y-129430000D02*
X102420000Y-129430000D01*
X102360000Y-119460000D02*
X102340000Y-119480000D01*
X103745000Y-119460000D02*
X102360000Y-119460000D01*
X103590000Y-123460000D02*
X103520000Y-123530000D01*
X104245000Y-123460000D02*
X103590000Y-123460000D01*
X108700000Y-123460000D02*
X108730000Y-123430000D01*
X108145000Y-123460000D02*
X108700000Y-123460000D01*
X110070000Y-119460000D02*
X110260000Y-119650000D01*
X108645000Y-119460000D02*
X110070000Y-119460000D01*
X111575000Y-115435000D02*
X111670000Y-115530000D01*
X106195000Y-115435000D02*
X111575000Y-115435000D01*
%TO.N,/X1*%
X111365000Y-125445000D02*
X111270000Y-125540000D01*
X111980000Y-125445000D02*
X111365000Y-125445000D01*
X109945000Y-129445000D02*
X109810000Y-129580000D01*
X111480000Y-129445000D02*
X109945000Y-129445000D01*
X116535000Y-125445000D02*
X116600000Y-125510000D01*
X115880000Y-125445000D02*
X116535000Y-125445000D01*
X117865000Y-129445000D02*
X118000000Y-129580000D01*
X116380000Y-129445000D02*
X117865000Y-129445000D01*
X119360000Y-133470000D02*
X119490000Y-133340000D01*
X113930000Y-133470000D02*
X119360000Y-133470000D01*
X119310000Y-123460000D02*
X119180000Y-123590000D01*
X119695000Y-123460000D02*
X119310000Y-123460000D01*
X117680000Y-119460000D02*
X117620000Y-119520000D01*
X119195000Y-119460000D02*
X117680000Y-119460000D01*
X125710000Y-119460000D02*
X125780000Y-119390000D01*
X124095000Y-119460000D02*
X125710000Y-119460000D01*
X124200000Y-123460000D02*
X124420000Y-123240000D01*
X123595000Y-123460000D02*
X124200000Y-123460000D01*
X127035000Y-115435000D02*
X127050000Y-115450000D01*
X121645000Y-115435000D02*
X127035000Y-115435000D01*
%TO.N,/X2*%
X126810000Y-125450000D02*
X126670000Y-125590000D01*
X127425000Y-125450000D02*
X126810000Y-125450000D01*
X125430000Y-129450000D02*
X125400000Y-129480000D01*
X126925000Y-129450000D02*
X125430000Y-129450000D01*
X133250000Y-129450000D02*
X133290000Y-129410000D01*
X131870000Y-125450000D02*
X132070000Y-125650000D01*
X131325000Y-125450000D02*
X131870000Y-125450000D01*
X133250000Y-129450000D02*
X133390000Y-129590000D01*
X131825000Y-129450000D02*
X133250000Y-129450000D01*
X134865000Y-133475000D02*
X134870000Y-133480000D01*
X129375000Y-133475000D02*
X134865000Y-133475000D01*
X132930000Y-119470000D02*
X132910000Y-119490000D01*
X134705000Y-119470000D02*
X132930000Y-119470000D01*
X134630000Y-123470000D02*
X134550000Y-123550000D01*
X135205000Y-123470000D02*
X134630000Y-123470000D01*
X141160000Y-119470000D02*
X141340000Y-119290000D01*
X139605000Y-119470000D02*
X141160000Y-119470000D01*
X139560000Y-123470000D02*
X139660000Y-123570000D01*
X139105000Y-123470000D02*
X139560000Y-123470000D01*
X142475000Y-115445000D02*
X142640000Y-115610000D01*
X137155000Y-115445000D02*
X137165000Y-115445000D01*
X137165000Y-115445000D02*
X142475000Y-115445000D01*
%TO.N,/X3*%
X142695000Y-125455000D02*
X141945000Y-126205000D01*
X142870000Y-125455000D02*
X142695000Y-125455000D01*
X146945000Y-125455000D02*
X147720000Y-126230000D01*
X146770000Y-125455000D02*
X146945000Y-125455000D01*
X140835000Y-129455000D02*
X140830000Y-129450000D01*
X142370000Y-129455000D02*
X140835000Y-129455000D01*
X148875000Y-129455000D02*
X148930000Y-129400000D01*
X147270000Y-129455000D02*
X148875000Y-129455000D01*
X150180000Y-133480000D02*
X150270000Y-133390000D01*
X144820000Y-133480000D02*
X150180000Y-133480000D01*
X148560000Y-119430000D02*
X148500000Y-119370000D01*
X150205000Y-119430000D02*
X148560000Y-119430000D01*
X156580000Y-119430000D02*
X156620000Y-119390000D01*
X155105000Y-119430000D02*
X156580000Y-119430000D01*
X155330000Y-123430000D02*
X155380000Y-123380000D01*
X154605000Y-123430000D02*
X155330000Y-123430000D01*
X150530000Y-123430000D02*
X149755000Y-122655000D01*
X150705000Y-123430000D02*
X150530000Y-123430000D01*
X157895000Y-115405000D02*
X158050000Y-115560000D01*
X152655000Y-115405000D02*
X157895000Y-115405000D01*
%TO.N,/X4*%
X157795000Y-125475000D02*
X157660000Y-125340000D01*
X158330000Y-125475000D02*
X157795000Y-125475000D01*
X162775000Y-125475000D02*
X162900000Y-125600000D01*
X162230000Y-125475000D02*
X162775000Y-125475000D01*
X164045000Y-129475000D02*
X164250000Y-129680000D01*
X162730000Y-129475000D02*
X164045000Y-129475000D01*
X156275000Y-129475000D02*
X156180000Y-129570000D01*
X157830000Y-129475000D02*
X156275000Y-129475000D01*
X165670000Y-133500000D02*
X165730000Y-133440000D01*
X160280000Y-133500000D02*
X165670000Y-133500000D01*
X165550000Y-123450000D02*
X165510000Y-123490000D01*
X166055000Y-123450000D02*
X165550000Y-123450000D01*
X165555000Y-119450000D02*
X163950000Y-119450000D01*
X167970000Y-115460000D02*
X162620000Y-115460000D01*
X168005000Y-115425000D02*
X168000000Y-115430000D01*
X172010000Y-119450000D02*
X172050000Y-119490000D01*
X170455000Y-119450000D02*
X172010000Y-119450000D01*
X170490000Y-123450000D02*
X170500000Y-123460000D01*
X169955000Y-123450000D02*
X170490000Y-123450000D01*
X168000000Y-115430000D02*
X167970000Y-115460000D01*
%TO.N,/X5*%
X173205000Y-125425000D02*
X173200000Y-125430000D01*
X173800000Y-125425000D02*
X173205000Y-125425000D01*
X171915000Y-129425000D02*
X171890000Y-129400000D01*
X173300000Y-129425000D02*
X171915000Y-129425000D01*
X179655000Y-129425000D02*
X179800000Y-129280000D01*
X178200000Y-129425000D02*
X179655000Y-129425000D01*
X178305000Y-125425000D02*
X178310000Y-125430000D01*
X177700000Y-125425000D02*
X178305000Y-125425000D01*
X180920000Y-133450000D02*
X181170000Y-133200000D01*
X175750000Y-133450000D02*
X180920000Y-133450000D01*
X179575000Y-119515000D02*
X179420000Y-119670000D01*
X180980000Y-119515000D02*
X179575000Y-119515000D01*
X180985000Y-123515000D02*
X180690000Y-123220000D01*
X181480000Y-123515000D02*
X180985000Y-123515000D01*
X185995000Y-123515000D02*
X186030000Y-123480000D01*
X185380000Y-123515000D02*
X185995000Y-123515000D01*
X185965000Y-119600000D02*
X187430000Y-119600000D01*
X185880000Y-119515000D02*
X185965000Y-119600000D01*
X188910000Y-115490000D02*
X188960000Y-115440000D01*
X183430000Y-115490000D02*
X188910000Y-115490000D01*
%TD*%
D21*
%TO.N,GND*%
X216930000Y-51948380D02*
X216930001Y-110173000D01*
X213292160Y-110173000D01*
X213364974Y-110084276D01*
X213435546Y-109952247D01*
X213479003Y-109808986D01*
X213490000Y-109697333D01*
X213493677Y-109660000D01*
X213490000Y-109622667D01*
X213490000Y-102787323D01*
X213493676Y-102750000D01*
X213490000Y-102712677D01*
X213490000Y-102712667D01*
X213479003Y-102601014D01*
X213435546Y-102457753D01*
X213364974Y-102325724D01*
X213270001Y-102209999D01*
X213241004Y-102186202D01*
X212840000Y-101785199D01*
X212840000Y-101677323D01*
X212843676Y-101640000D01*
X212840000Y-101602677D01*
X212840000Y-101602667D01*
X212829003Y-101491014D01*
X212785546Y-101347753D01*
X212714974Y-101215724D01*
X212620001Y-101099999D01*
X212591004Y-101076202D01*
X212040000Y-100525199D01*
X212040000Y-97953711D01*
X212083937Y-97909774D01*
X212197205Y-97740256D01*
X212275226Y-97551898D01*
X212315000Y-97351939D01*
X212315000Y-97148061D01*
X212275226Y-96948102D01*
X212197205Y-96759744D01*
X212083937Y-96590226D01*
X211939774Y-96446063D01*
X211770256Y-96332795D01*
X211581898Y-96254774D01*
X211381939Y-96215000D01*
X211178061Y-96215000D01*
X210978102Y-96254774D01*
X210789744Y-96332795D01*
X210620226Y-96446063D01*
X210476063Y-96590226D01*
X210362795Y-96759744D01*
X210284774Y-96948102D01*
X210245000Y-97148061D01*
X210245000Y-97351939D01*
X210284774Y-97551898D01*
X210362795Y-97740256D01*
X210476063Y-97909774D01*
X210520000Y-97953711D01*
X210520001Y-100802668D01*
X210516324Y-100840000D01*
X210530998Y-100988985D01*
X210574454Y-101132246D01*
X210645026Y-101264276D01*
X210693674Y-101323552D01*
X210651811Y-101365415D01*
X202701908Y-101365415D01*
X202664585Y-101361739D01*
X202627262Y-101365415D01*
X202627252Y-101365415D01*
X202515599Y-101376412D01*
X202372338Y-101419869D01*
X202240309Y-101490441D01*
X202124584Y-101585414D01*
X202100786Y-101614412D01*
X201610199Y-102105000D01*
X201548061Y-102105000D01*
X201348102Y-102144774D01*
X201159744Y-102222795D01*
X200990226Y-102336063D01*
X200846063Y-102480226D01*
X200732795Y-102649744D01*
X200654774Y-102838102D01*
X200615000Y-103038061D01*
X200615000Y-103241939D01*
X200654774Y-103441898D01*
X200732795Y-103630256D01*
X200846063Y-103799774D01*
X200990226Y-103943937D01*
X201159744Y-104057205D01*
X201348102Y-104135226D01*
X201548061Y-104175000D01*
X201751939Y-104175000D01*
X201951898Y-104135226D01*
X202140256Y-104057205D01*
X202309774Y-103943937D01*
X202453937Y-103799774D01*
X202567205Y-103630256D01*
X202645226Y-103441898D01*
X202685000Y-103241939D01*
X202685000Y-103179801D01*
X202979387Y-102885415D01*
X206629783Y-102885415D01*
X205390199Y-104125000D01*
X205328061Y-104125000D01*
X205128102Y-104164774D01*
X204939744Y-104242795D01*
X204770226Y-104356063D01*
X204626063Y-104500226D01*
X204512795Y-104669744D01*
X204434774Y-104858102D01*
X204395000Y-105058061D01*
X204395000Y-105261939D01*
X204434774Y-105461898D01*
X204512795Y-105650256D01*
X204626063Y-105819774D01*
X204770226Y-105963937D01*
X204939744Y-106077205D01*
X205128102Y-106155226D01*
X205328061Y-106195000D01*
X205531939Y-106195000D01*
X205731898Y-106155226D01*
X205920256Y-106077205D01*
X206089774Y-105963937D01*
X206233937Y-105819774D01*
X206347205Y-105650256D01*
X206425226Y-105461898D01*
X206465000Y-105261939D01*
X206465000Y-105199801D01*
X208015000Y-103649802D01*
X208015000Y-103781939D01*
X208054774Y-103981898D01*
X208132795Y-104170256D01*
X208246063Y-104339774D01*
X208290000Y-104383711D01*
X208290001Y-110173000D01*
X192874873Y-110173000D01*
X193076889Y-109925303D01*
X193109980Y-109875497D01*
X193143787Y-109826124D01*
X193148170Y-109818017D01*
X193331649Y-109472945D01*
X193354443Y-109417641D01*
X193378010Y-109362657D01*
X193380735Y-109353854D01*
X193493694Y-108979715D01*
X193505311Y-108921044D01*
X193517750Y-108862523D01*
X193518713Y-108853358D01*
X193556850Y-108464404D01*
X193556850Y-108464402D01*
X193560000Y-108432419D01*
X193560000Y-82483492D01*
X202975000Y-82483492D01*
X202975000Y-83396508D01*
X203153120Y-84291980D01*
X203502516Y-85135496D01*
X204009760Y-85894640D01*
X204655360Y-86540240D01*
X205414504Y-87047484D01*
X206258020Y-87396880D01*
X207153492Y-87575000D01*
X208066508Y-87575000D01*
X208961980Y-87396880D01*
X209805496Y-87047484D01*
X210564640Y-86540240D01*
X211210240Y-85894640D01*
X211717484Y-85135496D01*
X212066880Y-84291980D01*
X212245000Y-83396508D01*
X212245000Y-82483492D01*
X212066880Y-81588020D01*
X211717484Y-80744504D01*
X211210240Y-79985360D01*
X210564640Y-79339760D01*
X209805496Y-78832516D01*
X208961980Y-78483120D01*
X208066508Y-78305000D01*
X207153492Y-78305000D01*
X206258020Y-78483120D01*
X205414504Y-78832516D01*
X204655360Y-79339760D01*
X204009760Y-79985360D01*
X203502516Y-80744504D01*
X203153120Y-81588020D01*
X202975000Y-82483492D01*
X193560000Y-82483492D01*
X193560000Y-57467581D01*
X193557148Y-57438626D01*
X193557235Y-57426202D01*
X193556335Y-57417031D01*
X193515483Y-57028353D01*
X193503462Y-56969790D01*
X193492247Y-56910997D01*
X193489583Y-56902175D01*
X193374015Y-56528834D01*
X193350830Y-56473679D01*
X193328426Y-56418226D01*
X193324099Y-56410090D01*
X193324099Y-56410089D01*
X193324096Y-56410085D01*
X193138216Y-56066305D01*
X193104768Y-56016715D01*
X193072012Y-55966659D01*
X193066191Y-55959523D01*
X193066187Y-55959517D01*
X193066182Y-55959512D01*
X192817070Y-55658386D01*
X192774631Y-55616243D01*
X192732770Y-55573496D01*
X192725670Y-55567622D01*
X192422805Y-55320613D01*
X192372999Y-55287522D01*
X192323626Y-55253715D01*
X192315520Y-55249332D01*
X191970447Y-55065853D01*
X191915143Y-55043059D01*
X191860159Y-55019492D01*
X191851355Y-55016767D01*
X191477217Y-54903808D01*
X191418546Y-54892191D01*
X191360025Y-54879752D01*
X191350860Y-54878789D01*
X190961906Y-54840652D01*
X190961904Y-54840652D01*
X190929921Y-54837502D01*
X98770079Y-54837502D01*
X98741124Y-54840354D01*
X98728700Y-54840267D01*
X98719529Y-54841167D01*
X98330851Y-54882019D01*
X98272288Y-54894040D01*
X98213495Y-54905255D01*
X98204673Y-54907919D01*
X97831332Y-55023487D01*
X97776177Y-55046672D01*
X97720724Y-55069076D01*
X97712592Y-55073401D01*
X97712587Y-55073403D01*
X97712583Y-55073406D01*
X97368803Y-55259286D01*
X97319213Y-55292734D01*
X97269157Y-55325490D01*
X97262021Y-55331311D01*
X97262015Y-55331315D01*
X97262010Y-55331320D01*
X96960884Y-55580432D01*
X96918741Y-55622871D01*
X96875994Y-55664732D01*
X96870120Y-55671832D01*
X96623111Y-55974697D01*
X96590020Y-56024503D01*
X96556213Y-56073876D01*
X96551830Y-56081982D01*
X96368351Y-56427055D01*
X96345557Y-56482359D01*
X96321990Y-56537343D01*
X96319265Y-56546147D01*
X96206306Y-56920285D01*
X96194689Y-56978956D01*
X96182250Y-57037477D01*
X96181287Y-57046642D01*
X96143150Y-57435596D01*
X96140000Y-57467582D01*
X96140001Y-108432419D01*
X96142852Y-108461365D01*
X96142765Y-108473798D01*
X96143665Y-108482969D01*
X96184517Y-108871647D01*
X96196538Y-108930210D01*
X96207753Y-108989003D01*
X96210417Y-108997825D01*
X96325985Y-109371166D01*
X96349170Y-109426321D01*
X96371574Y-109481774D01*
X96375901Y-109489911D01*
X96561784Y-109833695D01*
X96595229Y-109883279D01*
X96627989Y-109933342D01*
X96633813Y-109940483D01*
X96826168Y-110173000D01*
X72750000Y-110173000D01*
X72750000Y-103122738D01*
X78005000Y-103122738D01*
X78005000Y-103937262D01*
X78163906Y-104736135D01*
X78475611Y-105488657D01*
X78928136Y-106165909D01*
X79504091Y-106741864D01*
X80181343Y-107194389D01*
X80933865Y-107506094D01*
X81732738Y-107665000D01*
X82547262Y-107665000D01*
X83346135Y-107506094D01*
X84098657Y-107194389D01*
X84775909Y-106741864D01*
X85351864Y-106165909D01*
X85804389Y-105488657D01*
X86116094Y-104736135D01*
X86275000Y-103937262D01*
X86275000Y-103122738D01*
X86151130Y-102500000D01*
X88073000Y-102500000D01*
X88073000Y-104650000D01*
X88075440Y-104674776D01*
X88082667Y-104698601D01*
X88094403Y-104720557D01*
X88110197Y-104739803D01*
X88129443Y-104755597D01*
X88151399Y-104767333D01*
X88175224Y-104774560D01*
X88200000Y-104777000D01*
X90650000Y-104777000D01*
X90674776Y-104774560D01*
X90698601Y-104767333D01*
X90720557Y-104755597D01*
X90739803Y-104739803D01*
X90755597Y-104720557D01*
X90767333Y-104698601D01*
X90774560Y-104674776D01*
X90777000Y-104650000D01*
X90777000Y-102500000D01*
X90774560Y-102475224D01*
X90767333Y-102451399D01*
X90755597Y-102429443D01*
X90739803Y-102410197D01*
X90720557Y-102394403D01*
X90698601Y-102382667D01*
X90674776Y-102375440D01*
X90650000Y-102373000D01*
X88200000Y-102373000D01*
X88175224Y-102375440D01*
X88151399Y-102382667D01*
X88129443Y-102394403D01*
X88110197Y-102410197D01*
X88094403Y-102429443D01*
X88082667Y-102451399D01*
X88075440Y-102475224D01*
X88073000Y-102500000D01*
X86151130Y-102500000D01*
X86116094Y-102323865D01*
X85804389Y-101571343D01*
X85351864Y-100894091D01*
X84775909Y-100318136D01*
X84098657Y-99865611D01*
X83346135Y-99553906D01*
X82547262Y-99395000D01*
X81732738Y-99395000D01*
X80933865Y-99553906D01*
X80181343Y-99865611D01*
X79504091Y-100318136D01*
X78928136Y-100894091D01*
X78475611Y-101571343D01*
X78163906Y-102323865D01*
X78005000Y-103122738D01*
X72750000Y-103122738D01*
X72750000Y-89432738D01*
X78005000Y-89432738D01*
X78005000Y-90247262D01*
X78163906Y-91046135D01*
X78475611Y-91798657D01*
X78928136Y-92475909D01*
X79504091Y-93051864D01*
X80181343Y-93504389D01*
X80933865Y-93816094D01*
X81732738Y-93975000D01*
X82547262Y-93975000D01*
X83346135Y-93816094D01*
X84098657Y-93504389D01*
X84775909Y-93051864D01*
X85351864Y-92475909D01*
X85804389Y-91798657D01*
X86116094Y-91046135D01*
X86275000Y-90247262D01*
X86275000Y-89432738D01*
X86139195Y-88750000D01*
X88073000Y-88750000D01*
X88073000Y-90900000D01*
X88075440Y-90924776D01*
X88082667Y-90948601D01*
X88094403Y-90970557D01*
X88110197Y-90989803D01*
X88129443Y-91005597D01*
X88151399Y-91017333D01*
X88175224Y-91024560D01*
X88200000Y-91027000D01*
X90650000Y-91027000D01*
X90674776Y-91024560D01*
X90698601Y-91017333D01*
X90720557Y-91005597D01*
X90739803Y-90989803D01*
X90755597Y-90970557D01*
X90767333Y-90948601D01*
X90774560Y-90924776D01*
X90777000Y-90900000D01*
X90777000Y-88750000D01*
X90774560Y-88725224D01*
X90767333Y-88701399D01*
X90755597Y-88679443D01*
X90739803Y-88660197D01*
X90720557Y-88644403D01*
X90698601Y-88632667D01*
X90674776Y-88625440D01*
X90650000Y-88623000D01*
X88200000Y-88623000D01*
X88175224Y-88625440D01*
X88151399Y-88632667D01*
X88129443Y-88644403D01*
X88110197Y-88660197D01*
X88094403Y-88679443D01*
X88082667Y-88701399D01*
X88075440Y-88725224D01*
X88073000Y-88750000D01*
X86139195Y-88750000D01*
X86116094Y-88633865D01*
X85804389Y-87881343D01*
X85351864Y-87204091D01*
X84775909Y-86628136D01*
X84098657Y-86175611D01*
X83346135Y-85863906D01*
X82547262Y-85705000D01*
X81732738Y-85705000D01*
X80933865Y-85863906D01*
X80181343Y-86175611D01*
X79504091Y-86628136D01*
X78928136Y-87204091D01*
X78475611Y-87881343D01*
X78163906Y-88633865D01*
X78005000Y-89432738D01*
X72750000Y-89432738D01*
X72750000Y-75712738D01*
X77975000Y-75712738D01*
X77975000Y-76527262D01*
X78133906Y-77326135D01*
X78445611Y-78078657D01*
X78898136Y-78755909D01*
X79474091Y-79331864D01*
X80151343Y-79784389D01*
X80903865Y-80096094D01*
X81702738Y-80255000D01*
X82517262Y-80255000D01*
X83316135Y-80096094D01*
X84068657Y-79784389D01*
X84745909Y-79331864D01*
X85321864Y-78755909D01*
X85774389Y-78078657D01*
X86086094Y-77326135D01*
X86245000Y-76527262D01*
X86245000Y-75712738D01*
X86113173Y-75050000D01*
X88073000Y-75050000D01*
X88073000Y-77200000D01*
X88075440Y-77224776D01*
X88082667Y-77248601D01*
X88094403Y-77270557D01*
X88110197Y-77289803D01*
X88129443Y-77305597D01*
X88151399Y-77317333D01*
X88175224Y-77324560D01*
X88200000Y-77327000D01*
X90650000Y-77327000D01*
X90674776Y-77324560D01*
X90698601Y-77317333D01*
X90720557Y-77305597D01*
X90739803Y-77289803D01*
X90755597Y-77270557D01*
X90767333Y-77248601D01*
X90774560Y-77224776D01*
X90777000Y-77200000D01*
X90777000Y-75050000D01*
X90774560Y-75025224D01*
X90767333Y-75001399D01*
X90755597Y-74979443D01*
X90739803Y-74960197D01*
X90720557Y-74944403D01*
X90698601Y-74932667D01*
X90674776Y-74925440D01*
X90650000Y-74923000D01*
X88200000Y-74923000D01*
X88175224Y-74925440D01*
X88151399Y-74932667D01*
X88129443Y-74944403D01*
X88110197Y-74960197D01*
X88094403Y-74979443D01*
X88082667Y-75001399D01*
X88075440Y-75025224D01*
X88073000Y-75050000D01*
X86113173Y-75050000D01*
X86086094Y-74913865D01*
X85774389Y-74161343D01*
X85321864Y-73484091D01*
X84745909Y-72908136D01*
X84068657Y-72455611D01*
X83316135Y-72143906D01*
X82517262Y-71985000D01*
X81702738Y-71985000D01*
X80903865Y-72143906D01*
X80151343Y-72455611D01*
X79474091Y-72908136D01*
X78898136Y-73484091D01*
X78445611Y-74161343D01*
X78133906Y-74913865D01*
X77975000Y-75712738D01*
X72750000Y-75712738D01*
X72750000Y-62022738D01*
X77975000Y-62022738D01*
X77975000Y-62837262D01*
X78133906Y-63636135D01*
X78445611Y-64388657D01*
X78898136Y-65065909D01*
X79474091Y-65641864D01*
X80151343Y-66094389D01*
X80903865Y-66406094D01*
X81702738Y-66565000D01*
X82517262Y-66565000D01*
X83316135Y-66406094D01*
X84068657Y-66094389D01*
X84745909Y-65641864D01*
X85321864Y-65065909D01*
X85774389Y-64388657D01*
X86086094Y-63636135D01*
X86245000Y-62837262D01*
X86245000Y-62022738D01*
X86109195Y-61340000D01*
X88063000Y-61340000D01*
X88063000Y-63490000D01*
X88065440Y-63514776D01*
X88072667Y-63538601D01*
X88084403Y-63560557D01*
X88100197Y-63579803D01*
X88119443Y-63595597D01*
X88141399Y-63607333D01*
X88165224Y-63614560D01*
X88190000Y-63617000D01*
X90640000Y-63617000D01*
X90664776Y-63614560D01*
X90688601Y-63607333D01*
X90710557Y-63595597D01*
X90729803Y-63579803D01*
X90745597Y-63560557D01*
X90757333Y-63538601D01*
X90764560Y-63514776D01*
X90767000Y-63490000D01*
X90767000Y-61340000D01*
X90764560Y-61315224D01*
X90757333Y-61291399D01*
X90745597Y-61269443D01*
X90729803Y-61250197D01*
X90710557Y-61234403D01*
X90688601Y-61222667D01*
X90664776Y-61215440D01*
X90640000Y-61213000D01*
X88190000Y-61213000D01*
X88165224Y-61215440D01*
X88141399Y-61222667D01*
X88119443Y-61234403D01*
X88100197Y-61250197D01*
X88084403Y-61269443D01*
X88072667Y-61291399D01*
X88065440Y-61315224D01*
X88063000Y-61340000D01*
X86109195Y-61340000D01*
X86086094Y-61223865D01*
X85774389Y-60471343D01*
X85321864Y-59794091D01*
X84745909Y-59218136D01*
X84068657Y-58765611D01*
X83316135Y-58453906D01*
X82517262Y-58295000D01*
X81702738Y-58295000D01*
X80903865Y-58453906D01*
X80151343Y-58765611D01*
X79474091Y-59218136D01*
X78898136Y-59794091D01*
X78445611Y-60471343D01*
X78133906Y-61223865D01*
X77975000Y-62022738D01*
X72750000Y-62022738D01*
X72750000Y-51948380D01*
X79563885Y-45134495D01*
X83715000Y-45134495D01*
X83715000Y-45525505D01*
X83791282Y-45909003D01*
X83940915Y-46270250D01*
X84158149Y-46595364D01*
X84434636Y-46871851D01*
X84759750Y-47089085D01*
X85120997Y-47238718D01*
X85504495Y-47315000D01*
X85895505Y-47315000D01*
X86279003Y-47238718D01*
X86640250Y-47089085D01*
X86965364Y-46871851D01*
X87241851Y-46595364D01*
X87459085Y-46270250D01*
X87608718Y-45909003D01*
X87685000Y-45525505D01*
X87685000Y-45134495D01*
X87683011Y-45124495D01*
X201995000Y-45124495D01*
X201995000Y-45515505D01*
X202071282Y-45899003D01*
X202220915Y-46260250D01*
X202438149Y-46585364D01*
X202714636Y-46861851D01*
X203039750Y-47079085D01*
X203400997Y-47228718D01*
X203784495Y-47305000D01*
X204175505Y-47305000D01*
X204559003Y-47228718D01*
X204920250Y-47079085D01*
X205245364Y-46861851D01*
X205521851Y-46585364D01*
X205739085Y-46260250D01*
X205888718Y-45899003D01*
X205965000Y-45515505D01*
X205965000Y-45124495D01*
X205888718Y-44740997D01*
X205739085Y-44379750D01*
X205521851Y-44054636D01*
X205245364Y-43778149D01*
X204920250Y-43560915D01*
X204559003Y-43411282D01*
X204175505Y-43335000D01*
X203784495Y-43335000D01*
X203400997Y-43411282D01*
X203039750Y-43560915D01*
X202714636Y-43778149D01*
X202438149Y-44054636D01*
X202220915Y-44379750D01*
X202071282Y-44740997D01*
X201995000Y-45124495D01*
X87683011Y-45124495D01*
X87608718Y-44750997D01*
X87459085Y-44389750D01*
X87241851Y-44064636D01*
X86965364Y-43788149D01*
X86640250Y-43570915D01*
X86279003Y-43421282D01*
X85895505Y-43345000D01*
X85504495Y-43345000D01*
X85120997Y-43421282D01*
X84759750Y-43570915D01*
X84434636Y-43788149D01*
X84158149Y-44064636D01*
X83940915Y-44389750D01*
X83791282Y-44750997D01*
X83715000Y-45134495D01*
X79563885Y-45134495D01*
X92363380Y-32335000D01*
X197316620Y-32335000D01*
X216930000Y-51948380D01*
%TA.AperFunction,Conductor*%
D22*
G36*
X216930000Y-51948380D02*
G01*
X216930001Y-110173000D01*
X213292160Y-110173000D01*
X213364974Y-110084276D01*
X213435546Y-109952247D01*
X213479003Y-109808986D01*
X213490000Y-109697333D01*
X213493677Y-109660000D01*
X213490000Y-109622667D01*
X213490000Y-102787323D01*
X213493676Y-102750000D01*
X213490000Y-102712677D01*
X213490000Y-102712667D01*
X213479003Y-102601014D01*
X213435546Y-102457753D01*
X213364974Y-102325724D01*
X213270001Y-102209999D01*
X213241004Y-102186202D01*
X212840000Y-101785199D01*
X212840000Y-101677323D01*
X212843676Y-101640000D01*
X212840000Y-101602677D01*
X212840000Y-101602667D01*
X212829003Y-101491014D01*
X212785546Y-101347753D01*
X212714974Y-101215724D01*
X212620001Y-101099999D01*
X212591004Y-101076202D01*
X212040000Y-100525199D01*
X212040000Y-97953711D01*
X212083937Y-97909774D01*
X212197205Y-97740256D01*
X212275226Y-97551898D01*
X212315000Y-97351939D01*
X212315000Y-97148061D01*
X212275226Y-96948102D01*
X212197205Y-96759744D01*
X212083937Y-96590226D01*
X211939774Y-96446063D01*
X211770256Y-96332795D01*
X211581898Y-96254774D01*
X211381939Y-96215000D01*
X211178061Y-96215000D01*
X210978102Y-96254774D01*
X210789744Y-96332795D01*
X210620226Y-96446063D01*
X210476063Y-96590226D01*
X210362795Y-96759744D01*
X210284774Y-96948102D01*
X210245000Y-97148061D01*
X210245000Y-97351939D01*
X210284774Y-97551898D01*
X210362795Y-97740256D01*
X210476063Y-97909774D01*
X210520000Y-97953711D01*
X210520001Y-100802668D01*
X210516324Y-100840000D01*
X210530998Y-100988985D01*
X210574454Y-101132246D01*
X210645026Y-101264276D01*
X210693674Y-101323552D01*
X210651811Y-101365415D01*
X202701908Y-101365415D01*
X202664585Y-101361739D01*
X202627262Y-101365415D01*
X202627252Y-101365415D01*
X202515599Y-101376412D01*
X202372338Y-101419869D01*
X202240309Y-101490441D01*
X202124584Y-101585414D01*
X202100786Y-101614412D01*
X201610199Y-102105000D01*
X201548061Y-102105000D01*
X201348102Y-102144774D01*
X201159744Y-102222795D01*
X200990226Y-102336063D01*
X200846063Y-102480226D01*
X200732795Y-102649744D01*
X200654774Y-102838102D01*
X200615000Y-103038061D01*
X200615000Y-103241939D01*
X200654774Y-103441898D01*
X200732795Y-103630256D01*
X200846063Y-103799774D01*
X200990226Y-103943937D01*
X201159744Y-104057205D01*
X201348102Y-104135226D01*
X201548061Y-104175000D01*
X201751939Y-104175000D01*
X201951898Y-104135226D01*
X202140256Y-104057205D01*
X202309774Y-103943937D01*
X202453937Y-103799774D01*
X202567205Y-103630256D01*
X202645226Y-103441898D01*
X202685000Y-103241939D01*
X202685000Y-103179801D01*
X202979387Y-102885415D01*
X206629783Y-102885415D01*
X205390199Y-104125000D01*
X205328061Y-104125000D01*
X205128102Y-104164774D01*
X204939744Y-104242795D01*
X204770226Y-104356063D01*
X204626063Y-104500226D01*
X204512795Y-104669744D01*
X204434774Y-104858102D01*
X204395000Y-105058061D01*
X204395000Y-105261939D01*
X204434774Y-105461898D01*
X204512795Y-105650256D01*
X204626063Y-105819774D01*
X204770226Y-105963937D01*
X204939744Y-106077205D01*
X205128102Y-106155226D01*
X205328061Y-106195000D01*
X205531939Y-106195000D01*
X205731898Y-106155226D01*
X205920256Y-106077205D01*
X206089774Y-105963937D01*
X206233937Y-105819774D01*
X206347205Y-105650256D01*
X206425226Y-105461898D01*
X206465000Y-105261939D01*
X206465000Y-105199801D01*
X208015000Y-103649802D01*
X208015000Y-103781939D01*
X208054774Y-103981898D01*
X208132795Y-104170256D01*
X208246063Y-104339774D01*
X208290000Y-104383711D01*
X208290001Y-110173000D01*
X192874873Y-110173000D01*
X193076889Y-109925303D01*
X193109980Y-109875497D01*
X193143787Y-109826124D01*
X193148170Y-109818017D01*
X193331649Y-109472945D01*
X193354443Y-109417641D01*
X193378010Y-109362657D01*
X193380735Y-109353854D01*
X193493694Y-108979715D01*
X193505311Y-108921044D01*
X193517750Y-108862523D01*
X193518713Y-108853358D01*
X193556850Y-108464404D01*
X193556850Y-108464402D01*
X193560000Y-108432419D01*
X193560000Y-82483492D01*
X202975000Y-82483492D01*
X202975000Y-83396508D01*
X203153120Y-84291980D01*
X203502516Y-85135496D01*
X204009760Y-85894640D01*
X204655360Y-86540240D01*
X205414504Y-87047484D01*
X206258020Y-87396880D01*
X207153492Y-87575000D01*
X208066508Y-87575000D01*
X208961980Y-87396880D01*
X209805496Y-87047484D01*
X210564640Y-86540240D01*
X211210240Y-85894640D01*
X211717484Y-85135496D01*
X212066880Y-84291980D01*
X212245000Y-83396508D01*
X212245000Y-82483492D01*
X212066880Y-81588020D01*
X211717484Y-80744504D01*
X211210240Y-79985360D01*
X210564640Y-79339760D01*
X209805496Y-78832516D01*
X208961980Y-78483120D01*
X208066508Y-78305000D01*
X207153492Y-78305000D01*
X206258020Y-78483120D01*
X205414504Y-78832516D01*
X204655360Y-79339760D01*
X204009760Y-79985360D01*
X203502516Y-80744504D01*
X203153120Y-81588020D01*
X202975000Y-82483492D01*
X193560000Y-82483492D01*
X193560000Y-57467581D01*
X193557148Y-57438626D01*
X193557235Y-57426202D01*
X193556335Y-57417031D01*
X193515483Y-57028353D01*
X193503462Y-56969790D01*
X193492247Y-56910997D01*
X193489583Y-56902175D01*
X193374015Y-56528834D01*
X193350830Y-56473679D01*
X193328426Y-56418226D01*
X193324099Y-56410090D01*
X193324099Y-56410089D01*
X193324096Y-56410085D01*
X193138216Y-56066305D01*
X193104768Y-56016715D01*
X193072012Y-55966659D01*
X193066191Y-55959523D01*
X193066187Y-55959517D01*
X193066182Y-55959512D01*
X192817070Y-55658386D01*
X192774631Y-55616243D01*
X192732770Y-55573496D01*
X192725670Y-55567622D01*
X192422805Y-55320613D01*
X192372999Y-55287522D01*
X192323626Y-55253715D01*
X192315520Y-55249332D01*
X191970447Y-55065853D01*
X191915143Y-55043059D01*
X191860159Y-55019492D01*
X191851355Y-55016767D01*
X191477217Y-54903808D01*
X191418546Y-54892191D01*
X191360025Y-54879752D01*
X191350860Y-54878789D01*
X190961906Y-54840652D01*
X190961904Y-54840652D01*
X190929921Y-54837502D01*
X98770079Y-54837502D01*
X98741124Y-54840354D01*
X98728700Y-54840267D01*
X98719529Y-54841167D01*
X98330851Y-54882019D01*
X98272288Y-54894040D01*
X98213495Y-54905255D01*
X98204673Y-54907919D01*
X97831332Y-55023487D01*
X97776177Y-55046672D01*
X97720724Y-55069076D01*
X97712592Y-55073401D01*
X97712587Y-55073403D01*
X97712583Y-55073406D01*
X97368803Y-55259286D01*
X97319213Y-55292734D01*
X97269157Y-55325490D01*
X97262021Y-55331311D01*
X97262015Y-55331315D01*
X97262010Y-55331320D01*
X96960884Y-55580432D01*
X96918741Y-55622871D01*
X96875994Y-55664732D01*
X96870120Y-55671832D01*
X96623111Y-55974697D01*
X96590020Y-56024503D01*
X96556213Y-56073876D01*
X96551830Y-56081982D01*
X96368351Y-56427055D01*
X96345557Y-56482359D01*
X96321990Y-56537343D01*
X96319265Y-56546147D01*
X96206306Y-56920285D01*
X96194689Y-56978956D01*
X96182250Y-57037477D01*
X96181287Y-57046642D01*
X96143150Y-57435596D01*
X96140000Y-57467582D01*
X96140001Y-108432419D01*
X96142852Y-108461365D01*
X96142765Y-108473798D01*
X96143665Y-108482969D01*
X96184517Y-108871647D01*
X96196538Y-108930210D01*
X96207753Y-108989003D01*
X96210417Y-108997825D01*
X96325985Y-109371166D01*
X96349170Y-109426321D01*
X96371574Y-109481774D01*
X96375901Y-109489911D01*
X96561784Y-109833695D01*
X96595229Y-109883279D01*
X96627989Y-109933342D01*
X96633813Y-109940483D01*
X96826168Y-110173000D01*
X72750000Y-110173000D01*
X72750000Y-103122738D01*
X78005000Y-103122738D01*
X78005000Y-103937262D01*
X78163906Y-104736135D01*
X78475611Y-105488657D01*
X78928136Y-106165909D01*
X79504091Y-106741864D01*
X80181343Y-107194389D01*
X80933865Y-107506094D01*
X81732738Y-107665000D01*
X82547262Y-107665000D01*
X83346135Y-107506094D01*
X84098657Y-107194389D01*
X84775909Y-106741864D01*
X85351864Y-106165909D01*
X85804389Y-105488657D01*
X86116094Y-104736135D01*
X86275000Y-103937262D01*
X86275000Y-103122738D01*
X86151130Y-102500000D01*
X88073000Y-102500000D01*
X88073000Y-104650000D01*
X88075440Y-104674776D01*
X88082667Y-104698601D01*
X88094403Y-104720557D01*
X88110197Y-104739803D01*
X88129443Y-104755597D01*
X88151399Y-104767333D01*
X88175224Y-104774560D01*
X88200000Y-104777000D01*
X90650000Y-104777000D01*
X90674776Y-104774560D01*
X90698601Y-104767333D01*
X90720557Y-104755597D01*
X90739803Y-104739803D01*
X90755597Y-104720557D01*
X90767333Y-104698601D01*
X90774560Y-104674776D01*
X90777000Y-104650000D01*
X90777000Y-102500000D01*
X90774560Y-102475224D01*
X90767333Y-102451399D01*
X90755597Y-102429443D01*
X90739803Y-102410197D01*
X90720557Y-102394403D01*
X90698601Y-102382667D01*
X90674776Y-102375440D01*
X90650000Y-102373000D01*
X88200000Y-102373000D01*
X88175224Y-102375440D01*
X88151399Y-102382667D01*
X88129443Y-102394403D01*
X88110197Y-102410197D01*
X88094403Y-102429443D01*
X88082667Y-102451399D01*
X88075440Y-102475224D01*
X88073000Y-102500000D01*
X86151130Y-102500000D01*
X86116094Y-102323865D01*
X85804389Y-101571343D01*
X85351864Y-100894091D01*
X84775909Y-100318136D01*
X84098657Y-99865611D01*
X83346135Y-99553906D01*
X82547262Y-99395000D01*
X81732738Y-99395000D01*
X80933865Y-99553906D01*
X80181343Y-99865611D01*
X79504091Y-100318136D01*
X78928136Y-100894091D01*
X78475611Y-101571343D01*
X78163906Y-102323865D01*
X78005000Y-103122738D01*
X72750000Y-103122738D01*
X72750000Y-89432738D01*
X78005000Y-89432738D01*
X78005000Y-90247262D01*
X78163906Y-91046135D01*
X78475611Y-91798657D01*
X78928136Y-92475909D01*
X79504091Y-93051864D01*
X80181343Y-93504389D01*
X80933865Y-93816094D01*
X81732738Y-93975000D01*
X82547262Y-93975000D01*
X83346135Y-93816094D01*
X84098657Y-93504389D01*
X84775909Y-93051864D01*
X85351864Y-92475909D01*
X85804389Y-91798657D01*
X86116094Y-91046135D01*
X86275000Y-90247262D01*
X86275000Y-89432738D01*
X86139195Y-88750000D01*
X88073000Y-88750000D01*
X88073000Y-90900000D01*
X88075440Y-90924776D01*
X88082667Y-90948601D01*
X88094403Y-90970557D01*
X88110197Y-90989803D01*
X88129443Y-91005597D01*
X88151399Y-91017333D01*
X88175224Y-91024560D01*
X88200000Y-91027000D01*
X90650000Y-91027000D01*
X90674776Y-91024560D01*
X90698601Y-91017333D01*
X90720557Y-91005597D01*
X90739803Y-90989803D01*
X90755597Y-90970557D01*
X90767333Y-90948601D01*
X90774560Y-90924776D01*
X90777000Y-90900000D01*
X90777000Y-88750000D01*
X90774560Y-88725224D01*
X90767333Y-88701399D01*
X90755597Y-88679443D01*
X90739803Y-88660197D01*
X90720557Y-88644403D01*
X90698601Y-88632667D01*
X90674776Y-88625440D01*
X90650000Y-88623000D01*
X88200000Y-88623000D01*
X88175224Y-88625440D01*
X88151399Y-88632667D01*
X88129443Y-88644403D01*
X88110197Y-88660197D01*
X88094403Y-88679443D01*
X88082667Y-88701399D01*
X88075440Y-88725224D01*
X88073000Y-88750000D01*
X86139195Y-88750000D01*
X86116094Y-88633865D01*
X85804389Y-87881343D01*
X85351864Y-87204091D01*
X84775909Y-86628136D01*
X84098657Y-86175611D01*
X83346135Y-85863906D01*
X82547262Y-85705000D01*
X81732738Y-85705000D01*
X80933865Y-85863906D01*
X80181343Y-86175611D01*
X79504091Y-86628136D01*
X78928136Y-87204091D01*
X78475611Y-87881343D01*
X78163906Y-88633865D01*
X78005000Y-89432738D01*
X72750000Y-89432738D01*
X72750000Y-75712738D01*
X77975000Y-75712738D01*
X77975000Y-76527262D01*
X78133906Y-77326135D01*
X78445611Y-78078657D01*
X78898136Y-78755909D01*
X79474091Y-79331864D01*
X80151343Y-79784389D01*
X80903865Y-80096094D01*
X81702738Y-80255000D01*
X82517262Y-80255000D01*
X83316135Y-80096094D01*
X84068657Y-79784389D01*
X84745909Y-79331864D01*
X85321864Y-78755909D01*
X85774389Y-78078657D01*
X86086094Y-77326135D01*
X86245000Y-76527262D01*
X86245000Y-75712738D01*
X86113173Y-75050000D01*
X88073000Y-75050000D01*
X88073000Y-77200000D01*
X88075440Y-77224776D01*
X88082667Y-77248601D01*
X88094403Y-77270557D01*
X88110197Y-77289803D01*
X88129443Y-77305597D01*
X88151399Y-77317333D01*
X88175224Y-77324560D01*
X88200000Y-77327000D01*
X90650000Y-77327000D01*
X90674776Y-77324560D01*
X90698601Y-77317333D01*
X90720557Y-77305597D01*
X90739803Y-77289803D01*
X90755597Y-77270557D01*
X90767333Y-77248601D01*
X90774560Y-77224776D01*
X90777000Y-77200000D01*
X90777000Y-75050000D01*
X90774560Y-75025224D01*
X90767333Y-75001399D01*
X90755597Y-74979443D01*
X90739803Y-74960197D01*
X90720557Y-74944403D01*
X90698601Y-74932667D01*
X90674776Y-74925440D01*
X90650000Y-74923000D01*
X88200000Y-74923000D01*
X88175224Y-74925440D01*
X88151399Y-74932667D01*
X88129443Y-74944403D01*
X88110197Y-74960197D01*
X88094403Y-74979443D01*
X88082667Y-75001399D01*
X88075440Y-75025224D01*
X88073000Y-75050000D01*
X86113173Y-75050000D01*
X86086094Y-74913865D01*
X85774389Y-74161343D01*
X85321864Y-73484091D01*
X84745909Y-72908136D01*
X84068657Y-72455611D01*
X83316135Y-72143906D01*
X82517262Y-71985000D01*
X81702738Y-71985000D01*
X80903865Y-72143906D01*
X80151343Y-72455611D01*
X79474091Y-72908136D01*
X78898136Y-73484091D01*
X78445611Y-74161343D01*
X78133906Y-74913865D01*
X77975000Y-75712738D01*
X72750000Y-75712738D01*
X72750000Y-62022738D01*
X77975000Y-62022738D01*
X77975000Y-62837262D01*
X78133906Y-63636135D01*
X78445611Y-64388657D01*
X78898136Y-65065909D01*
X79474091Y-65641864D01*
X80151343Y-66094389D01*
X80903865Y-66406094D01*
X81702738Y-66565000D01*
X82517262Y-66565000D01*
X83316135Y-66406094D01*
X84068657Y-66094389D01*
X84745909Y-65641864D01*
X85321864Y-65065909D01*
X85774389Y-64388657D01*
X86086094Y-63636135D01*
X86245000Y-62837262D01*
X86245000Y-62022738D01*
X86109195Y-61340000D01*
X88063000Y-61340000D01*
X88063000Y-63490000D01*
X88065440Y-63514776D01*
X88072667Y-63538601D01*
X88084403Y-63560557D01*
X88100197Y-63579803D01*
X88119443Y-63595597D01*
X88141399Y-63607333D01*
X88165224Y-63614560D01*
X88190000Y-63617000D01*
X90640000Y-63617000D01*
X90664776Y-63614560D01*
X90688601Y-63607333D01*
X90710557Y-63595597D01*
X90729803Y-63579803D01*
X90745597Y-63560557D01*
X90757333Y-63538601D01*
X90764560Y-63514776D01*
X90767000Y-63490000D01*
X90767000Y-61340000D01*
X90764560Y-61315224D01*
X90757333Y-61291399D01*
X90745597Y-61269443D01*
X90729803Y-61250197D01*
X90710557Y-61234403D01*
X90688601Y-61222667D01*
X90664776Y-61215440D01*
X90640000Y-61213000D01*
X88190000Y-61213000D01*
X88165224Y-61215440D01*
X88141399Y-61222667D01*
X88119443Y-61234403D01*
X88100197Y-61250197D01*
X88084403Y-61269443D01*
X88072667Y-61291399D01*
X88065440Y-61315224D01*
X88063000Y-61340000D01*
X86109195Y-61340000D01*
X86086094Y-61223865D01*
X85774389Y-60471343D01*
X85321864Y-59794091D01*
X84745909Y-59218136D01*
X84068657Y-58765611D01*
X83316135Y-58453906D01*
X82517262Y-58295000D01*
X81702738Y-58295000D01*
X80903865Y-58453906D01*
X80151343Y-58765611D01*
X79474091Y-59218136D01*
X78898136Y-59794091D01*
X78445611Y-60471343D01*
X78133906Y-61223865D01*
X77975000Y-62022738D01*
X72750000Y-62022738D01*
X72750000Y-51948380D01*
X79563885Y-45134495D01*
X83715000Y-45134495D01*
X83715000Y-45525505D01*
X83791282Y-45909003D01*
X83940915Y-46270250D01*
X84158149Y-46595364D01*
X84434636Y-46871851D01*
X84759750Y-47089085D01*
X85120997Y-47238718D01*
X85504495Y-47315000D01*
X85895505Y-47315000D01*
X86279003Y-47238718D01*
X86640250Y-47089085D01*
X86965364Y-46871851D01*
X87241851Y-46595364D01*
X87459085Y-46270250D01*
X87608718Y-45909003D01*
X87685000Y-45525505D01*
X87685000Y-45134495D01*
X87683011Y-45124495D01*
X201995000Y-45124495D01*
X201995000Y-45515505D01*
X202071282Y-45899003D01*
X202220915Y-46260250D01*
X202438149Y-46585364D01*
X202714636Y-46861851D01*
X203039750Y-47079085D01*
X203400997Y-47228718D01*
X203784495Y-47305000D01*
X204175505Y-47305000D01*
X204559003Y-47228718D01*
X204920250Y-47079085D01*
X205245364Y-46861851D01*
X205521851Y-46585364D01*
X205739085Y-46260250D01*
X205888718Y-45899003D01*
X205965000Y-45515505D01*
X205965000Y-45124495D01*
X205888718Y-44740997D01*
X205739085Y-44379750D01*
X205521851Y-44054636D01*
X205245364Y-43778149D01*
X204920250Y-43560915D01*
X204559003Y-43411282D01*
X204175505Y-43335000D01*
X203784495Y-43335000D01*
X203400997Y-43411282D01*
X203039750Y-43560915D01*
X202714636Y-43778149D01*
X202438149Y-44054636D01*
X202220915Y-44379750D01*
X202071282Y-44740997D01*
X201995000Y-45124495D01*
X87683011Y-45124495D01*
X87608718Y-44750997D01*
X87459085Y-44389750D01*
X87241851Y-44064636D01*
X86965364Y-43788149D01*
X86640250Y-43570915D01*
X86279003Y-43421282D01*
X85895505Y-43345000D01*
X85504495Y-43345000D01*
X85120997Y-43421282D01*
X84759750Y-43570915D01*
X84434636Y-43788149D01*
X84158149Y-44064636D01*
X83940915Y-44389750D01*
X83791282Y-44750997D01*
X83715000Y-45134495D01*
X79563885Y-45134495D01*
X92363380Y-32335000D01*
X197316620Y-32335000D01*
X216930000Y-51948380D01*
G37*
%TD.AperFunction*%
D21*
X211180000Y-105744802D02*
X211180001Y-108006288D01*
X211136063Y-108050226D01*
X211022795Y-108219744D01*
X210944774Y-108408102D01*
X210905000Y-108608061D01*
X210905000Y-108811939D01*
X210944774Y-109011898D01*
X211022795Y-109200256D01*
X211136063Y-109369774D01*
X211280226Y-109513937D01*
X211449744Y-109627205D01*
X211613414Y-109695000D01*
X211558061Y-109695000D01*
X211358102Y-109734774D01*
X211169744Y-109812795D01*
X211000226Y-109926063D01*
X210856063Y-110070226D01*
X210787392Y-110173000D01*
X209810000Y-110173000D01*
X209810000Y-104383711D01*
X209814455Y-104379256D01*
X211180000Y-105744802D01*
%TA.AperFunction,Conductor*%
D22*
G36*
X211180000Y-105744802D02*
G01*
X211180001Y-108006288D01*
X211136063Y-108050226D01*
X211022795Y-108219744D01*
X210944774Y-108408102D01*
X210905000Y-108608061D01*
X210905000Y-108811939D01*
X210944774Y-109011898D01*
X211022795Y-109200256D01*
X211136063Y-109369774D01*
X211280226Y-109513937D01*
X211449744Y-109627205D01*
X211613414Y-109695000D01*
X211558061Y-109695000D01*
X211358102Y-109734774D01*
X211169744Y-109812795D01*
X211000226Y-109926063D01*
X210856063Y-110070226D01*
X210787392Y-110173000D01*
X209810000Y-110173000D01*
X209810000Y-104383711D01*
X209814455Y-104379256D01*
X211180000Y-105744802D01*
G37*
%TD.AperFunction*%
%TD*%
D21*
%TO.N,GND*%
X216930001Y-114001619D02*
X200583050Y-130348570D01*
X196993127Y-120516295D01*
X201991000Y-120516295D01*
X201991000Y-120907305D01*
X202067282Y-121290803D01*
X202216915Y-121652050D01*
X202434149Y-121977164D01*
X202710636Y-122253651D01*
X203035750Y-122470885D01*
X203396997Y-122620518D01*
X203780495Y-122696800D01*
X204171505Y-122696800D01*
X204555003Y-122620518D01*
X204916250Y-122470885D01*
X205241364Y-122253651D01*
X205517851Y-121977164D01*
X205735085Y-121652050D01*
X205884718Y-121290803D01*
X205961000Y-120907305D01*
X205961000Y-120516295D01*
X205884718Y-120132797D01*
X205735085Y-119771550D01*
X205517851Y-119446436D01*
X205241364Y-119169949D01*
X204916250Y-118952715D01*
X204555003Y-118803082D01*
X204171505Y-118726800D01*
X203780495Y-118726800D01*
X203396997Y-118803082D01*
X203035750Y-118952715D01*
X202710636Y-119169949D01*
X202434149Y-119446436D01*
X202216915Y-119771550D01*
X202067282Y-120132797D01*
X201991000Y-120516295D01*
X196993127Y-120516295D01*
X193179271Y-110070703D01*
X208290001Y-109533168D01*
X208290001Y-110559486D01*
X208250226Y-110586063D01*
X208106063Y-110730226D01*
X207992795Y-110899744D01*
X207914774Y-111088102D01*
X207905980Y-111132315D01*
X207891383Y-111058933D01*
X207805824Y-110852376D01*
X207681612Y-110666480D01*
X207523520Y-110508388D01*
X207337624Y-110384176D01*
X207131067Y-110298617D01*
X206911788Y-110255000D01*
X206688212Y-110255000D01*
X206468933Y-110298617D01*
X206262376Y-110384176D01*
X206076480Y-110508388D01*
X205918388Y-110666480D01*
X205794176Y-110852376D01*
X205708617Y-111058933D01*
X205665000Y-111278212D01*
X205665000Y-111359868D01*
X205633520Y-111328388D01*
X205447624Y-111204176D01*
X205241067Y-111118617D01*
X205021788Y-111075000D01*
X204798212Y-111075000D01*
X204578933Y-111118617D01*
X204372376Y-111204176D01*
X204186480Y-111328388D01*
X204028388Y-111486480D01*
X203904176Y-111672376D01*
X203818617Y-111878933D01*
X203775000Y-112098212D01*
X203775000Y-112277016D01*
X203735026Y-112325724D01*
X203664454Y-112457754D01*
X203620998Y-112601015D01*
X203606324Y-112750000D01*
X203610001Y-112787332D01*
X203610001Y-113036288D01*
X203566063Y-113080226D01*
X203452795Y-113249744D01*
X203374774Y-113438102D01*
X203335000Y-113638061D01*
X203335000Y-113841939D01*
X203374774Y-114041898D01*
X203452795Y-114230256D01*
X203566063Y-114399774D01*
X203710226Y-114543937D01*
X203879744Y-114657205D01*
X204068102Y-114735226D01*
X204268061Y-114775000D01*
X204471939Y-114775000D01*
X204492366Y-114770937D01*
X204512795Y-114820256D01*
X204626063Y-114989774D01*
X204770226Y-115133937D01*
X204939744Y-115247205D01*
X205128102Y-115325226D01*
X205328061Y-115365000D01*
X205531939Y-115365000D01*
X205731898Y-115325226D01*
X205920256Y-115247205D01*
X206089774Y-115133937D01*
X206233937Y-114989774D01*
X206347205Y-114820256D01*
X206425226Y-114631898D01*
X206465000Y-114431939D01*
X206465000Y-114228061D01*
X206425226Y-114028102D01*
X206347205Y-113839744D01*
X206233937Y-113670226D01*
X206214256Y-113650545D01*
X207311003Y-112553799D01*
X207340001Y-112530001D01*
X207434974Y-112414276D01*
X207504403Y-112284386D01*
X207523520Y-112271612D01*
X207681612Y-112113520D01*
X207805824Y-111927624D01*
X207891383Y-111721067D01*
X207905980Y-111647685D01*
X207914774Y-111691898D01*
X207992795Y-111880256D01*
X208106063Y-112049774D01*
X208250226Y-112193937D01*
X208419744Y-112307205D01*
X208608102Y-112385226D01*
X208808061Y-112425000D01*
X209011939Y-112425000D01*
X209211898Y-112385226D01*
X209400256Y-112307205D01*
X209569774Y-112193937D01*
X209713937Y-112049774D01*
X209827205Y-111880256D01*
X209905226Y-111691898D01*
X209945000Y-111491939D01*
X209945000Y-111288061D01*
X209905226Y-111088102D01*
X209827205Y-110899744D01*
X209810000Y-110873995D01*
X209810000Y-109479096D01*
X211196078Y-109429789D01*
X211280226Y-109513937D01*
X211449744Y-109627205D01*
X211613414Y-109695000D01*
X211558061Y-109695000D01*
X211358102Y-109734774D01*
X211169744Y-109812795D01*
X211000226Y-109926063D01*
X210856063Y-110070226D01*
X210742795Y-110239744D01*
X210664774Y-110428102D01*
X210625000Y-110628061D01*
X210625000Y-110831939D01*
X210664774Y-111031898D01*
X210742795Y-111220256D01*
X210856063Y-111389774D01*
X211000226Y-111533937D01*
X211169744Y-111647205D01*
X211358102Y-111725226D01*
X211558061Y-111765000D01*
X211761939Y-111765000D01*
X211961898Y-111725226D01*
X212150256Y-111647205D01*
X212319774Y-111533937D01*
X212463937Y-111389774D01*
X212577205Y-111220256D01*
X212655226Y-111031898D01*
X212695000Y-110831939D01*
X212695000Y-110769801D01*
X213241003Y-110223799D01*
X213270001Y-110200001D01*
X213364974Y-110084276D01*
X213435546Y-109952247D01*
X213479003Y-109808986D01*
X213490000Y-109697333D01*
X213493677Y-109660000D01*
X213490000Y-109622667D01*
X213490000Y-109348187D01*
X216930001Y-109225816D01*
X216930001Y-114001619D01*
%TA.AperFunction,Conductor*%
D22*
G36*
X216930001Y-114001619D02*
G01*
X200583050Y-130348570D01*
X196993127Y-120516295D01*
X201991000Y-120516295D01*
X201991000Y-120907305D01*
X202067282Y-121290803D01*
X202216915Y-121652050D01*
X202434149Y-121977164D01*
X202710636Y-122253651D01*
X203035750Y-122470885D01*
X203396997Y-122620518D01*
X203780495Y-122696800D01*
X204171505Y-122696800D01*
X204555003Y-122620518D01*
X204916250Y-122470885D01*
X205241364Y-122253651D01*
X205517851Y-121977164D01*
X205735085Y-121652050D01*
X205884718Y-121290803D01*
X205961000Y-120907305D01*
X205961000Y-120516295D01*
X205884718Y-120132797D01*
X205735085Y-119771550D01*
X205517851Y-119446436D01*
X205241364Y-119169949D01*
X204916250Y-118952715D01*
X204555003Y-118803082D01*
X204171505Y-118726800D01*
X203780495Y-118726800D01*
X203396997Y-118803082D01*
X203035750Y-118952715D01*
X202710636Y-119169949D01*
X202434149Y-119446436D01*
X202216915Y-119771550D01*
X202067282Y-120132797D01*
X201991000Y-120516295D01*
X196993127Y-120516295D01*
X193179271Y-110070703D01*
X208290001Y-109533168D01*
X208290001Y-110559486D01*
X208250226Y-110586063D01*
X208106063Y-110730226D01*
X207992795Y-110899744D01*
X207914774Y-111088102D01*
X207905980Y-111132315D01*
X207891383Y-111058933D01*
X207805824Y-110852376D01*
X207681612Y-110666480D01*
X207523520Y-110508388D01*
X207337624Y-110384176D01*
X207131067Y-110298617D01*
X206911788Y-110255000D01*
X206688212Y-110255000D01*
X206468933Y-110298617D01*
X206262376Y-110384176D01*
X206076480Y-110508388D01*
X205918388Y-110666480D01*
X205794176Y-110852376D01*
X205708617Y-111058933D01*
X205665000Y-111278212D01*
X205665000Y-111359868D01*
X205633520Y-111328388D01*
X205447624Y-111204176D01*
X205241067Y-111118617D01*
X205021788Y-111075000D01*
X204798212Y-111075000D01*
X204578933Y-111118617D01*
X204372376Y-111204176D01*
X204186480Y-111328388D01*
X204028388Y-111486480D01*
X203904176Y-111672376D01*
X203818617Y-111878933D01*
X203775000Y-112098212D01*
X203775000Y-112277016D01*
X203735026Y-112325724D01*
X203664454Y-112457754D01*
X203620998Y-112601015D01*
X203606324Y-112750000D01*
X203610001Y-112787332D01*
X203610001Y-113036288D01*
X203566063Y-113080226D01*
X203452795Y-113249744D01*
X203374774Y-113438102D01*
X203335000Y-113638061D01*
X203335000Y-113841939D01*
X203374774Y-114041898D01*
X203452795Y-114230256D01*
X203566063Y-114399774D01*
X203710226Y-114543937D01*
X203879744Y-114657205D01*
X204068102Y-114735226D01*
X204268061Y-114775000D01*
X204471939Y-114775000D01*
X204492366Y-114770937D01*
X204512795Y-114820256D01*
X204626063Y-114989774D01*
X204770226Y-115133937D01*
X204939744Y-115247205D01*
X205128102Y-115325226D01*
X205328061Y-115365000D01*
X205531939Y-115365000D01*
X205731898Y-115325226D01*
X205920256Y-115247205D01*
X206089774Y-115133937D01*
X206233937Y-114989774D01*
X206347205Y-114820256D01*
X206425226Y-114631898D01*
X206465000Y-114431939D01*
X206465000Y-114228061D01*
X206425226Y-114028102D01*
X206347205Y-113839744D01*
X206233937Y-113670226D01*
X206214256Y-113650545D01*
X207311003Y-112553799D01*
X207340001Y-112530001D01*
X207434974Y-112414276D01*
X207504403Y-112284386D01*
X207523520Y-112271612D01*
X207681612Y-112113520D01*
X207805824Y-111927624D01*
X207891383Y-111721067D01*
X207905980Y-111647685D01*
X207914774Y-111691898D01*
X207992795Y-111880256D01*
X208106063Y-112049774D01*
X208250226Y-112193937D01*
X208419744Y-112307205D01*
X208608102Y-112385226D01*
X208808061Y-112425000D01*
X209011939Y-112425000D01*
X209211898Y-112385226D01*
X209400256Y-112307205D01*
X209569774Y-112193937D01*
X209713937Y-112049774D01*
X209827205Y-111880256D01*
X209905226Y-111691898D01*
X209945000Y-111491939D01*
X209945000Y-111288061D01*
X209905226Y-111088102D01*
X209827205Y-110899744D01*
X209810000Y-110873995D01*
X209810000Y-109479096D01*
X211196078Y-109429789D01*
X211280226Y-109513937D01*
X211449744Y-109627205D01*
X211613414Y-109695000D01*
X211558061Y-109695000D01*
X211358102Y-109734774D01*
X211169744Y-109812795D01*
X211000226Y-109926063D01*
X210856063Y-110070226D01*
X210742795Y-110239744D01*
X210664774Y-110428102D01*
X210625000Y-110628061D01*
X210625000Y-110831939D01*
X210664774Y-111031898D01*
X210742795Y-111220256D01*
X210856063Y-111389774D01*
X211000226Y-111533937D01*
X211169744Y-111647205D01*
X211358102Y-111725226D01*
X211558061Y-111765000D01*
X211761939Y-111765000D01*
X211961898Y-111725226D01*
X212150256Y-111647205D01*
X212319774Y-111533937D01*
X212463937Y-111389774D01*
X212577205Y-111220256D01*
X212655226Y-111031898D01*
X212695000Y-110831939D01*
X212695000Y-110769801D01*
X213241003Y-110223799D01*
X213270001Y-110200001D01*
X213364974Y-110084276D01*
X213435546Y-109952247D01*
X213479003Y-109808986D01*
X213490000Y-109697333D01*
X213493677Y-109660000D01*
X213490000Y-109622667D01*
X213490000Y-109348187D01*
X216930001Y-109225816D01*
X216930001Y-114001619D01*
G37*
%TD.AperFunction*%
%TD*%
D21*
%TO.N,GND*%
X96557419Y-109825622D02*
X96561784Y-109833695D01*
X96595229Y-109883279D01*
X96627989Y-109933342D01*
X96633813Y-109940483D01*
X96882930Y-110241614D01*
X96925386Y-110283774D01*
X96943966Y-110302747D01*
X89466116Y-130717736D01*
X79272875Y-120524495D01*
X83715000Y-120524495D01*
X83715000Y-120915505D01*
X83791282Y-121299003D01*
X83940915Y-121660250D01*
X84158149Y-121985364D01*
X84434636Y-122261851D01*
X84759750Y-122479085D01*
X85120997Y-122628718D01*
X85504495Y-122705000D01*
X85895505Y-122705000D01*
X86279003Y-122628718D01*
X86640250Y-122479085D01*
X86965364Y-122261851D01*
X87241851Y-121985364D01*
X87459085Y-121660250D01*
X87608718Y-121299003D01*
X87685000Y-120915505D01*
X87685000Y-120524495D01*
X87608718Y-120140997D01*
X87459085Y-119779750D01*
X87241851Y-119454636D01*
X86965364Y-119178149D01*
X86640250Y-118960915D01*
X86279003Y-118811282D01*
X85895505Y-118735000D01*
X85504495Y-118735000D01*
X85120997Y-118811282D01*
X84759750Y-118960915D01*
X84434636Y-119178149D01*
X84158149Y-119454636D01*
X83940915Y-119779750D01*
X83791282Y-120140997D01*
X83715000Y-120524495D01*
X79272875Y-120524495D01*
X72750000Y-114001620D01*
X72750000Y-109781453D01*
X96557419Y-109825622D01*
%TA.AperFunction,Conductor*%
D22*
G36*
X96557419Y-109825622D02*
G01*
X96561784Y-109833695D01*
X96595229Y-109883279D01*
X96627989Y-109933342D01*
X96633813Y-109940483D01*
X96882930Y-110241614D01*
X96925386Y-110283774D01*
X96943966Y-110302747D01*
X89466116Y-130717736D01*
X79272875Y-120524495D01*
X83715000Y-120524495D01*
X83715000Y-120915505D01*
X83791282Y-121299003D01*
X83940915Y-121660250D01*
X84158149Y-121985364D01*
X84434636Y-122261851D01*
X84759750Y-122479085D01*
X85120997Y-122628718D01*
X85504495Y-122705000D01*
X85895505Y-122705000D01*
X86279003Y-122628718D01*
X86640250Y-122479085D01*
X86965364Y-122261851D01*
X87241851Y-121985364D01*
X87459085Y-121660250D01*
X87608718Y-121299003D01*
X87685000Y-120915505D01*
X87685000Y-120524495D01*
X87608718Y-120140997D01*
X87459085Y-119779750D01*
X87241851Y-119454636D01*
X86965364Y-119178149D01*
X86640250Y-118960915D01*
X86279003Y-118811282D01*
X85895505Y-118735000D01*
X85504495Y-118735000D01*
X85120997Y-118811282D01*
X84759750Y-118960915D01*
X84434636Y-119178149D01*
X84158149Y-119454636D01*
X83940915Y-119779750D01*
X83791282Y-120140997D01*
X83715000Y-120524495D01*
X79272875Y-120524495D01*
X72750000Y-114001620D01*
X72750000Y-109781453D01*
X96557419Y-109825622D01*
G37*
%TD.AperFunction*%
%TD*%
M02*
