%FSLAX45Y45*%
G04 Gerber Fmt 4.5, Leading zero omitted, Abs format (unit mm)*
G04 Created by KiCad (PCBNEW 5.1.9+dfsg1-1~bpo10+1) date 2021-11-03 11:33:02*
%MOMM*%
%LPD*%
G01*
G04 APERTURE LIST*
%TA.AperFunction,Profile*%
%ADD10C,0.050000*%
%TD*%
%ADD11C,0.200000*%
%ADD12C,0.300000*%
G04 APERTURE END LIST*
D10*
X9209000Y-13427500D02*
X7209000Y-11427500D01*
X19759000Y-13427500D02*
X9209000Y-13427500D01*
X21759000Y-11427500D02*
X19759000Y-13427500D01*
X21759000Y-5167500D02*
X21759000Y-11427500D01*
X19759000Y-3167500D02*
X21759000Y-5167500D01*
X9209000Y-3167500D02*
X19759000Y-3167500D01*
X7209000Y-5167500D02*
X9209000Y-3167500D01*
X7209000Y-11427500D02*
X7209000Y-5167500D01*
D11*
X16530500Y-3761000D02*
X16595500Y-3826000D01*
X16595500Y-3761000D02*
X16530500Y-3826000D01*
X17108500Y-3761000D02*
X17173500Y-3826000D01*
X17173500Y-3761000D02*
X17108500Y-3826000D01*
X9828000Y-12137500D02*
G75*
G03*
X9828000Y-12137500I-85000J0D01*
G01*
X9828000Y-12837500D02*
G75*
G03*
X9828000Y-12837500I-85000J0D01*
G01*
X9844000Y-3762500D02*
G75*
G03*
X9844000Y-3762500I-85000J0D01*
G01*
X9844000Y-4462500D02*
G75*
G03*
X9844000Y-4462500I-85000J0D01*
G01*
X12619000Y-3762500D02*
G75*
G03*
X12619000Y-3762500I-85000J0D01*
G01*
X12619000Y-4462500D02*
G75*
G03*
X12619000Y-4462500I-85000J0D01*
G01*
X14044000Y-3762500D02*
G75*
G03*
X14044000Y-3762500I-85000J0D01*
G01*
X14044000Y-4462500D02*
G75*
G03*
X14044000Y-4462500I-85000J0D01*
G01*
X8209000Y-5692500D02*
X8209000Y-5892500D01*
X8109000Y-5792500D02*
X8309000Y-5792500D01*
X8209000Y-6592500D02*
X8209000Y-6792500D01*
X8109000Y-6692500D02*
X8309000Y-6692500D01*
X8209000Y-7062500D02*
X8209000Y-7262500D01*
X8109000Y-7162500D02*
X8309000Y-7162500D01*
X8209000Y-7962500D02*
X8209000Y-8162500D01*
X8109000Y-8062500D02*
X8309000Y-8062500D01*
X8209000Y-8432500D02*
X8209000Y-8632500D01*
X8109000Y-8532500D02*
X8309000Y-8532500D01*
X8209000Y-9332500D02*
X8209000Y-9532500D01*
X8109000Y-9432500D02*
X8309000Y-9432500D01*
X8209000Y-9802500D02*
X8209000Y-10002500D01*
X8109000Y-9902500D02*
X8309000Y-9902500D01*
X8209000Y-10702500D02*
X8209000Y-10902500D01*
X8109000Y-10802500D02*
X8309000Y-10802500D01*
X8664460Y-4627960D02*
X8664460Y-4437040D01*
X8473540Y-4437040D01*
X8473540Y-4627960D01*
X8664460Y-4627960D01*
X8664460Y-12167960D02*
X8664460Y-11977040D01*
X8473540Y-11977040D01*
X8473540Y-12167960D01*
X8664460Y-12167960D01*
X9674460Y-5547960D02*
X9674460Y-5357040D01*
X9483540Y-5357040D01*
X9483540Y-5547960D01*
X9674460Y-5547960D01*
X9674460Y-11237960D02*
X9674460Y-11047040D01*
X9483540Y-11047040D01*
X9483540Y-11237960D01*
X9674460Y-11237960D01*
X19484460Y-5547960D02*
X19484460Y-5357040D01*
X19293540Y-5357040D01*
X19293540Y-5547960D01*
X19484460Y-5547960D01*
X19484460Y-11237960D02*
X19484460Y-11047040D01*
X19293540Y-11047040D01*
X19293540Y-11237960D01*
X19484460Y-11237960D01*
X20494460Y-4627960D02*
X20494460Y-4437040D01*
X20303540Y-4437040D01*
X20303540Y-4627960D01*
X20494460Y-4627960D01*
X20494460Y-12167960D02*
X20494460Y-11977040D01*
X20303540Y-11977040D01*
X20303540Y-12167960D01*
X20494460Y-12167960D01*
D12*
X7492928Y-13895714D02*
X7492928Y-13595714D01*
X7564357Y-13595714D01*
X7607214Y-13610000D01*
X7635786Y-13638571D01*
X7650071Y-13667143D01*
X7664357Y-13724286D01*
X7664357Y-13767143D01*
X7650071Y-13824286D01*
X7635786Y-13852857D01*
X7607214Y-13881429D01*
X7564357Y-13895714D01*
X7492928Y-13895714D01*
X7792928Y-13895714D02*
X7792928Y-13695714D01*
X7792928Y-13752857D02*
X7807214Y-13724286D01*
X7821500Y-13710000D01*
X7850071Y-13695714D01*
X7878643Y-13695714D01*
X7978643Y-13895714D02*
X7978643Y-13695714D01*
X7978643Y-13595714D02*
X7964357Y-13610000D01*
X7978643Y-13624286D01*
X7992928Y-13610000D01*
X7978643Y-13595714D01*
X7978643Y-13624286D01*
X8164357Y-13895714D02*
X8135786Y-13881429D01*
X8121500Y-13852857D01*
X8121500Y-13595714D01*
X8321500Y-13895714D02*
X8292928Y-13881429D01*
X8278643Y-13852857D01*
X8278643Y-13595714D01*
X8664357Y-13895714D02*
X8664357Y-13595714D01*
X8764357Y-13810000D01*
X8864357Y-13595714D01*
X8864357Y-13895714D01*
X9135786Y-13895714D02*
X9135786Y-13738571D01*
X9121500Y-13710000D01*
X9092928Y-13695714D01*
X9035786Y-13695714D01*
X9007214Y-13710000D01*
X9135786Y-13881429D02*
X9107214Y-13895714D01*
X9035786Y-13895714D01*
X9007214Y-13881429D01*
X8992928Y-13852857D01*
X8992928Y-13824286D01*
X9007214Y-13795714D01*
X9035786Y-13781429D01*
X9107214Y-13781429D01*
X9135786Y-13767143D01*
X9278643Y-13695714D02*
X9278643Y-13995714D01*
X9278643Y-13710000D02*
X9307214Y-13695714D01*
X9364357Y-13695714D01*
X9392928Y-13710000D01*
X9407214Y-13724286D01*
X9421500Y-13752857D01*
X9421500Y-13838571D01*
X9407214Y-13867143D01*
X9392928Y-13881429D01*
X9364357Y-13895714D01*
X9307214Y-13895714D01*
X9278643Y-13881429D01*
X9550071Y-13867143D02*
X9564357Y-13881429D01*
X9550071Y-13895714D01*
X9535786Y-13881429D01*
X9550071Y-13867143D01*
X9550071Y-13895714D01*
X9550071Y-13710000D02*
X9564357Y-13724286D01*
X9550071Y-13738571D01*
X9535786Y-13724286D01*
X9550071Y-13710000D01*
X9550071Y-13738571D01*
X7141500Y-14357500D02*
X7206500Y-14422500D01*
X7206500Y-14357500D02*
X7141500Y-14422500D01*
X7550071Y-14225714D02*
X7578643Y-14225714D01*
X7607214Y-14240000D01*
X7621500Y-14254286D01*
X7635786Y-14282857D01*
X7650071Y-14340000D01*
X7650071Y-14411429D01*
X7635786Y-14468571D01*
X7621500Y-14497143D01*
X7607214Y-14511429D01*
X7578643Y-14525714D01*
X7550071Y-14525714D01*
X7521500Y-14511429D01*
X7507214Y-14497143D01*
X7492928Y-14468571D01*
X7478643Y-14411429D01*
X7478643Y-14340000D01*
X7492928Y-14282857D01*
X7507214Y-14254286D01*
X7521500Y-14240000D01*
X7550071Y-14225714D01*
X7778643Y-14497143D02*
X7792928Y-14511429D01*
X7778643Y-14525714D01*
X7764357Y-14511429D01*
X7778643Y-14497143D01*
X7778643Y-14525714D01*
X8050071Y-14225714D02*
X7992928Y-14225714D01*
X7964357Y-14240000D01*
X7950071Y-14254286D01*
X7921500Y-14297143D01*
X7907214Y-14354286D01*
X7907214Y-14468571D01*
X7921500Y-14497143D01*
X7935786Y-14511429D01*
X7964357Y-14525714D01*
X8021500Y-14525714D01*
X8050071Y-14511429D01*
X8064357Y-14497143D01*
X8078643Y-14468571D01*
X8078643Y-14397143D01*
X8064357Y-14368571D01*
X8050071Y-14354286D01*
X8021500Y-14340000D01*
X7964357Y-14340000D01*
X7935786Y-14354286D01*
X7921500Y-14368571D01*
X7907214Y-14397143D01*
X8350071Y-14225714D02*
X8207214Y-14225714D01*
X8192928Y-14368571D01*
X8207214Y-14354286D01*
X8235786Y-14340000D01*
X8307214Y-14340000D01*
X8335786Y-14354286D01*
X8350071Y-14368571D01*
X8364357Y-14397143D01*
X8364357Y-14468571D01*
X8350071Y-14497143D01*
X8335786Y-14511429D01*
X8307214Y-14525714D01*
X8235786Y-14525714D01*
X8207214Y-14511429D01*
X8192928Y-14497143D01*
X8492928Y-14525714D02*
X8492928Y-14325714D01*
X8492928Y-14354286D02*
X8507214Y-14340000D01*
X8535786Y-14325714D01*
X8578643Y-14325714D01*
X8607214Y-14340000D01*
X8621500Y-14368571D01*
X8621500Y-14525714D01*
X8621500Y-14368571D02*
X8635786Y-14340000D01*
X8664357Y-14325714D01*
X8707214Y-14325714D01*
X8735786Y-14340000D01*
X8750071Y-14368571D01*
X8750071Y-14525714D01*
X8892928Y-14525714D02*
X8892928Y-14325714D01*
X8892928Y-14354286D02*
X8907214Y-14340000D01*
X8935786Y-14325714D01*
X8978643Y-14325714D01*
X9007214Y-14340000D01*
X9021500Y-14368571D01*
X9021500Y-14525714D01*
X9021500Y-14368571D02*
X9035786Y-14340000D01*
X9064357Y-14325714D01*
X9107214Y-14325714D01*
X9135786Y-14340000D01*
X9150071Y-14368571D01*
X9150071Y-14525714D01*
X9735786Y-14211429D02*
X9478643Y-14597143D01*
X10121500Y-14225714D02*
X10150071Y-14225714D01*
X10178643Y-14240000D01*
X10192928Y-14254286D01*
X10207214Y-14282857D01*
X10221500Y-14340000D01*
X10221500Y-14411429D01*
X10207214Y-14468571D01*
X10192928Y-14497143D01*
X10178643Y-14511429D01*
X10150071Y-14525714D01*
X10121500Y-14525714D01*
X10092928Y-14511429D01*
X10078643Y-14497143D01*
X10064357Y-14468571D01*
X10050071Y-14411429D01*
X10050071Y-14340000D01*
X10064357Y-14282857D01*
X10078643Y-14254286D01*
X10092928Y-14240000D01*
X10121500Y-14225714D01*
X10350071Y-14497143D02*
X10364357Y-14511429D01*
X10350071Y-14525714D01*
X10335786Y-14511429D01*
X10350071Y-14497143D01*
X10350071Y-14525714D01*
X10550071Y-14225714D02*
X10578643Y-14225714D01*
X10607214Y-14240000D01*
X10621500Y-14254286D01*
X10635786Y-14282857D01*
X10650071Y-14340000D01*
X10650071Y-14411429D01*
X10635786Y-14468571D01*
X10621500Y-14497143D01*
X10607214Y-14511429D01*
X10578643Y-14525714D01*
X10550071Y-14525714D01*
X10521500Y-14511429D01*
X10507214Y-14497143D01*
X10492928Y-14468571D01*
X10478643Y-14411429D01*
X10478643Y-14340000D01*
X10492928Y-14282857D01*
X10507214Y-14254286D01*
X10521500Y-14240000D01*
X10550071Y-14225714D01*
X10764357Y-14254286D02*
X10778643Y-14240000D01*
X10807214Y-14225714D01*
X10878643Y-14225714D01*
X10907214Y-14240000D01*
X10921500Y-14254286D01*
X10935786Y-14282857D01*
X10935786Y-14311429D01*
X10921500Y-14354286D01*
X10750071Y-14525714D01*
X10935786Y-14525714D01*
X11192928Y-14225714D02*
X11135786Y-14225714D01*
X11107214Y-14240000D01*
X11092928Y-14254286D01*
X11064357Y-14297143D01*
X11050071Y-14354286D01*
X11050071Y-14468571D01*
X11064357Y-14497143D01*
X11078643Y-14511429D01*
X11107214Y-14525714D01*
X11164357Y-14525714D01*
X11192928Y-14511429D01*
X11207214Y-14497143D01*
X11221500Y-14468571D01*
X11221500Y-14397143D01*
X11207214Y-14368571D01*
X11192928Y-14354286D01*
X11164357Y-14340000D01*
X11107214Y-14340000D01*
X11078643Y-14354286D01*
X11064357Y-14368571D01*
X11050071Y-14397143D01*
X11335786Y-14225714D02*
X11335786Y-14282857D01*
X11450071Y-14225714D02*
X11450071Y-14282857D01*
X11892928Y-14640000D02*
X11878643Y-14625714D01*
X11850071Y-14582857D01*
X11835786Y-14554286D01*
X11821500Y-14511429D01*
X11807214Y-14440000D01*
X11807214Y-14382857D01*
X11821500Y-14311429D01*
X11835786Y-14268571D01*
X11850071Y-14240000D01*
X11878643Y-14197143D01*
X11892928Y-14182857D01*
X11992928Y-14254286D02*
X12007214Y-14240000D01*
X12035786Y-14225714D01*
X12107214Y-14225714D01*
X12135786Y-14240000D01*
X12150071Y-14254286D01*
X12164357Y-14282857D01*
X12164357Y-14311429D01*
X12150071Y-14354286D01*
X11978643Y-14525714D01*
X12164357Y-14525714D01*
X12521500Y-14525714D02*
X12521500Y-14225714D01*
X12650071Y-14525714D02*
X12650071Y-14368571D01*
X12635786Y-14340000D01*
X12607214Y-14325714D01*
X12564357Y-14325714D01*
X12535786Y-14340000D01*
X12521500Y-14354286D01*
X12835786Y-14525714D02*
X12807214Y-14511429D01*
X12792928Y-14497143D01*
X12778643Y-14468571D01*
X12778643Y-14382857D01*
X12792928Y-14354286D01*
X12807214Y-14340000D01*
X12835786Y-14325714D01*
X12878643Y-14325714D01*
X12907214Y-14340000D01*
X12921500Y-14354286D01*
X12935786Y-14382857D01*
X12935786Y-14468571D01*
X12921500Y-14497143D01*
X12907214Y-14511429D01*
X12878643Y-14525714D01*
X12835786Y-14525714D01*
X13107214Y-14525714D02*
X13078643Y-14511429D01*
X13064357Y-14482857D01*
X13064357Y-14225714D01*
X13335786Y-14511429D02*
X13307214Y-14525714D01*
X13250071Y-14525714D01*
X13221500Y-14511429D01*
X13207214Y-14482857D01*
X13207214Y-14368571D01*
X13221500Y-14340000D01*
X13250071Y-14325714D01*
X13307214Y-14325714D01*
X13335786Y-14340000D01*
X13350071Y-14368571D01*
X13350071Y-14397143D01*
X13207214Y-14425714D01*
X13464357Y-14511429D02*
X13492928Y-14525714D01*
X13550071Y-14525714D01*
X13578643Y-14511429D01*
X13592928Y-14482857D01*
X13592928Y-14468571D01*
X13578643Y-14440000D01*
X13550071Y-14425714D01*
X13507214Y-14425714D01*
X13478643Y-14411429D01*
X13464357Y-14382857D01*
X13464357Y-14368571D01*
X13478643Y-14340000D01*
X13507214Y-14325714D01*
X13550071Y-14325714D01*
X13578643Y-14340000D01*
X13692928Y-14640000D02*
X13707214Y-14625714D01*
X13735786Y-14582857D01*
X13750071Y-14554286D01*
X13764357Y-14511429D01*
X13778643Y-14440000D01*
X13778643Y-14382857D01*
X13764357Y-14311429D01*
X13750071Y-14268571D01*
X13735786Y-14240000D01*
X13707214Y-14197143D01*
X13692928Y-14182857D01*
X14235786Y-14640000D02*
X14221500Y-14625714D01*
X14192928Y-14582857D01*
X14178643Y-14554286D01*
X14164357Y-14511429D01*
X14150071Y-14440000D01*
X14150071Y-14382857D01*
X14164357Y-14311429D01*
X14178643Y-14268571D01*
X14192928Y-14240000D01*
X14221500Y-14197143D01*
X14235786Y-14182857D01*
X14350071Y-14325714D02*
X14350071Y-14525714D01*
X14350071Y-14354286D02*
X14364357Y-14340000D01*
X14392928Y-14325714D01*
X14435786Y-14325714D01*
X14464357Y-14340000D01*
X14478643Y-14368571D01*
X14478643Y-14525714D01*
X14664357Y-14525714D02*
X14635786Y-14511429D01*
X14621500Y-14497143D01*
X14607214Y-14468571D01*
X14607214Y-14382857D01*
X14621500Y-14354286D01*
X14635786Y-14340000D01*
X14664357Y-14325714D01*
X14707214Y-14325714D01*
X14735786Y-14340000D01*
X14750071Y-14354286D01*
X14764357Y-14382857D01*
X14764357Y-14468571D01*
X14750071Y-14497143D01*
X14735786Y-14511429D01*
X14707214Y-14525714D01*
X14664357Y-14525714D01*
X14850071Y-14325714D02*
X14964357Y-14325714D01*
X14892928Y-14225714D02*
X14892928Y-14482857D01*
X14907214Y-14511429D01*
X14935786Y-14525714D01*
X14964357Y-14525714D01*
X15292928Y-14325714D02*
X15292928Y-14625714D01*
X15292928Y-14340000D02*
X15321500Y-14325714D01*
X15378643Y-14325714D01*
X15407214Y-14340000D01*
X15421500Y-14354286D01*
X15435786Y-14382857D01*
X15435786Y-14468571D01*
X15421500Y-14497143D01*
X15407214Y-14511429D01*
X15378643Y-14525714D01*
X15321500Y-14525714D01*
X15292928Y-14511429D01*
X15607214Y-14525714D02*
X15578643Y-14511429D01*
X15564357Y-14482857D01*
X15564357Y-14225714D01*
X15850071Y-14525714D02*
X15850071Y-14368571D01*
X15835786Y-14340000D01*
X15807214Y-14325714D01*
X15750071Y-14325714D01*
X15721500Y-14340000D01*
X15850071Y-14511429D02*
X15821500Y-14525714D01*
X15750071Y-14525714D01*
X15721500Y-14511429D01*
X15707214Y-14482857D01*
X15707214Y-14454286D01*
X15721500Y-14425714D01*
X15750071Y-14411429D01*
X15821500Y-14411429D01*
X15850071Y-14397143D01*
X15950071Y-14325714D02*
X16064357Y-14325714D01*
X15992928Y-14225714D02*
X15992928Y-14482857D01*
X16007214Y-14511429D01*
X16035786Y-14525714D01*
X16064357Y-14525714D01*
X16278643Y-14511429D02*
X16250071Y-14525714D01*
X16192928Y-14525714D01*
X16164357Y-14511429D01*
X16150071Y-14482857D01*
X16150071Y-14368571D01*
X16164357Y-14340000D01*
X16192928Y-14325714D01*
X16250071Y-14325714D01*
X16278643Y-14340000D01*
X16292928Y-14368571D01*
X16292928Y-14397143D01*
X16150071Y-14425714D01*
X16550071Y-14525714D02*
X16550071Y-14225714D01*
X16550071Y-14511429D02*
X16521500Y-14525714D01*
X16464357Y-14525714D01*
X16435786Y-14511429D01*
X16421500Y-14497143D01*
X16407214Y-14468571D01*
X16407214Y-14382857D01*
X16421500Y-14354286D01*
X16435786Y-14340000D01*
X16464357Y-14325714D01*
X16521500Y-14325714D01*
X16550071Y-14340000D01*
X16664357Y-14640000D02*
X16678643Y-14625714D01*
X16707214Y-14582857D01*
X16721500Y-14554286D01*
X16735786Y-14511429D01*
X16750071Y-14440000D01*
X16750071Y-14382857D01*
X16735786Y-14311429D01*
X16721500Y-14268571D01*
X16707214Y-14240000D01*
X16678643Y-14197143D01*
X16664357Y-14182857D01*
X7206500Y-14786000D02*
G75*
G03*
X7206500Y-14786000I-85000J0D01*
G01*
X7650071Y-14921714D02*
X7478643Y-14921714D01*
X7564357Y-14921714D02*
X7564357Y-14621714D01*
X7535786Y-14664571D01*
X7507214Y-14693143D01*
X7478643Y-14707429D01*
X7778643Y-14893143D02*
X7792928Y-14907429D01*
X7778643Y-14921714D01*
X7764357Y-14907429D01*
X7778643Y-14893143D01*
X7778643Y-14921714D01*
X7892928Y-14621714D02*
X8092928Y-14621714D01*
X7964357Y-14921714D01*
X8264357Y-14621714D02*
X8292928Y-14621714D01*
X8321500Y-14636000D01*
X8335786Y-14650286D01*
X8350071Y-14678857D01*
X8364357Y-14736000D01*
X8364357Y-14807429D01*
X8350071Y-14864571D01*
X8335786Y-14893143D01*
X8321500Y-14907429D01*
X8292928Y-14921714D01*
X8264357Y-14921714D01*
X8235786Y-14907429D01*
X8221500Y-14893143D01*
X8207214Y-14864571D01*
X8192928Y-14807429D01*
X8192928Y-14736000D01*
X8207214Y-14678857D01*
X8221500Y-14650286D01*
X8235786Y-14636000D01*
X8264357Y-14621714D01*
X8492928Y-14921714D02*
X8492928Y-14721714D01*
X8492928Y-14750286D02*
X8507214Y-14736000D01*
X8535786Y-14721714D01*
X8578643Y-14721714D01*
X8607214Y-14736000D01*
X8621500Y-14764571D01*
X8621500Y-14921714D01*
X8621500Y-14764571D02*
X8635786Y-14736000D01*
X8664357Y-14721714D01*
X8707214Y-14721714D01*
X8735786Y-14736000D01*
X8750071Y-14764571D01*
X8750071Y-14921714D01*
X8892928Y-14921714D02*
X8892928Y-14721714D01*
X8892928Y-14750286D02*
X8907214Y-14736000D01*
X8935786Y-14721714D01*
X8978643Y-14721714D01*
X9007214Y-14736000D01*
X9021500Y-14764571D01*
X9021500Y-14921714D01*
X9021500Y-14764571D02*
X9035786Y-14736000D01*
X9064357Y-14721714D01*
X9107214Y-14721714D01*
X9135786Y-14736000D01*
X9150071Y-14764571D01*
X9150071Y-14921714D01*
X9735786Y-14607429D02*
X9478643Y-14993143D01*
X10121500Y-14621714D02*
X10150071Y-14621714D01*
X10178643Y-14636000D01*
X10192928Y-14650286D01*
X10207214Y-14678857D01*
X10221500Y-14736000D01*
X10221500Y-14807429D01*
X10207214Y-14864571D01*
X10192928Y-14893143D01*
X10178643Y-14907429D01*
X10150071Y-14921714D01*
X10121500Y-14921714D01*
X10092928Y-14907429D01*
X10078643Y-14893143D01*
X10064357Y-14864571D01*
X10050071Y-14807429D01*
X10050071Y-14736000D01*
X10064357Y-14678857D01*
X10078643Y-14650286D01*
X10092928Y-14636000D01*
X10121500Y-14621714D01*
X10350071Y-14893143D02*
X10364357Y-14907429D01*
X10350071Y-14921714D01*
X10335786Y-14907429D01*
X10350071Y-14893143D01*
X10350071Y-14921714D01*
X10550071Y-14621714D02*
X10578643Y-14621714D01*
X10607214Y-14636000D01*
X10621500Y-14650286D01*
X10635786Y-14678857D01*
X10650071Y-14736000D01*
X10650071Y-14807429D01*
X10635786Y-14864571D01*
X10621500Y-14893143D01*
X10607214Y-14907429D01*
X10578643Y-14921714D01*
X10550071Y-14921714D01*
X10521500Y-14907429D01*
X10507214Y-14893143D01*
X10492928Y-14864571D01*
X10478643Y-14807429D01*
X10478643Y-14736000D01*
X10492928Y-14678857D01*
X10507214Y-14650286D01*
X10521500Y-14636000D01*
X10550071Y-14621714D01*
X10907214Y-14621714D02*
X10850071Y-14621714D01*
X10821500Y-14636000D01*
X10807214Y-14650286D01*
X10778643Y-14693143D01*
X10764357Y-14750286D01*
X10764357Y-14864571D01*
X10778643Y-14893143D01*
X10792928Y-14907429D01*
X10821500Y-14921714D01*
X10878643Y-14921714D01*
X10907214Y-14907429D01*
X10921500Y-14893143D01*
X10935786Y-14864571D01*
X10935786Y-14793143D01*
X10921500Y-14764571D01*
X10907214Y-14750286D01*
X10878643Y-14736000D01*
X10821500Y-14736000D01*
X10792928Y-14750286D01*
X10778643Y-14764571D01*
X10764357Y-14793143D01*
X11035786Y-14621714D02*
X11235786Y-14621714D01*
X11107214Y-14921714D01*
X11335786Y-14621714D02*
X11335786Y-14678857D01*
X11450071Y-14621714D02*
X11450071Y-14678857D01*
X11892928Y-15036000D02*
X11878643Y-15021714D01*
X11850071Y-14978857D01*
X11835786Y-14950286D01*
X11821500Y-14907429D01*
X11807214Y-14836000D01*
X11807214Y-14778857D01*
X11821500Y-14707429D01*
X11835786Y-14664571D01*
X11850071Y-14636000D01*
X11878643Y-14593143D01*
X11892928Y-14578857D01*
X12050071Y-14750286D02*
X12021500Y-14736000D01*
X12007214Y-14721714D01*
X11992928Y-14693143D01*
X11992928Y-14678857D01*
X12007214Y-14650286D01*
X12021500Y-14636000D01*
X12050071Y-14621714D01*
X12107214Y-14621714D01*
X12135786Y-14636000D01*
X12150071Y-14650286D01*
X12164357Y-14678857D01*
X12164357Y-14693143D01*
X12150071Y-14721714D01*
X12135786Y-14736000D01*
X12107214Y-14750286D01*
X12050071Y-14750286D01*
X12021500Y-14764571D01*
X12007214Y-14778857D01*
X11992928Y-14807429D01*
X11992928Y-14864571D01*
X12007214Y-14893143D01*
X12021500Y-14907429D01*
X12050071Y-14921714D01*
X12107214Y-14921714D01*
X12135786Y-14907429D01*
X12150071Y-14893143D01*
X12164357Y-14864571D01*
X12164357Y-14807429D01*
X12150071Y-14778857D01*
X12135786Y-14764571D01*
X12107214Y-14750286D01*
X12521500Y-14921714D02*
X12521500Y-14621714D01*
X12650071Y-14921714D02*
X12650071Y-14764571D01*
X12635786Y-14736000D01*
X12607214Y-14721714D01*
X12564357Y-14721714D01*
X12535786Y-14736000D01*
X12521500Y-14750286D01*
X12835786Y-14921714D02*
X12807214Y-14907429D01*
X12792928Y-14893143D01*
X12778643Y-14864571D01*
X12778643Y-14778857D01*
X12792928Y-14750286D01*
X12807214Y-14736000D01*
X12835786Y-14721714D01*
X12878643Y-14721714D01*
X12907214Y-14736000D01*
X12921500Y-14750286D01*
X12935786Y-14778857D01*
X12935786Y-14864571D01*
X12921500Y-14893143D01*
X12907214Y-14907429D01*
X12878643Y-14921714D01*
X12835786Y-14921714D01*
X13107214Y-14921714D02*
X13078643Y-14907429D01*
X13064357Y-14878857D01*
X13064357Y-14621714D01*
X13335786Y-14907429D02*
X13307214Y-14921714D01*
X13250071Y-14921714D01*
X13221500Y-14907429D01*
X13207214Y-14878857D01*
X13207214Y-14764571D01*
X13221500Y-14736000D01*
X13250071Y-14721714D01*
X13307214Y-14721714D01*
X13335786Y-14736000D01*
X13350071Y-14764571D01*
X13350071Y-14793143D01*
X13207214Y-14821714D01*
X13464357Y-14907429D02*
X13492928Y-14921714D01*
X13550071Y-14921714D01*
X13578643Y-14907429D01*
X13592928Y-14878857D01*
X13592928Y-14864571D01*
X13578643Y-14836000D01*
X13550071Y-14821714D01*
X13507214Y-14821714D01*
X13478643Y-14807429D01*
X13464357Y-14778857D01*
X13464357Y-14764571D01*
X13478643Y-14736000D01*
X13507214Y-14721714D01*
X13550071Y-14721714D01*
X13578643Y-14736000D01*
X13692928Y-15036000D02*
X13707214Y-15021714D01*
X13735786Y-14978857D01*
X13750071Y-14950286D01*
X13764357Y-14907429D01*
X13778643Y-14836000D01*
X13778643Y-14778857D01*
X13764357Y-14707429D01*
X13750071Y-14664571D01*
X13735786Y-14636000D01*
X13707214Y-14593143D01*
X13692928Y-14578857D01*
X14235786Y-15036000D02*
X14221500Y-15021714D01*
X14192928Y-14978857D01*
X14178643Y-14950286D01*
X14164357Y-14907429D01*
X14150071Y-14836000D01*
X14150071Y-14778857D01*
X14164357Y-14707429D01*
X14178643Y-14664571D01*
X14192928Y-14636000D01*
X14221500Y-14593143D01*
X14235786Y-14578857D01*
X14350071Y-14721714D02*
X14350071Y-14921714D01*
X14350071Y-14750286D02*
X14364357Y-14736000D01*
X14392928Y-14721714D01*
X14435786Y-14721714D01*
X14464357Y-14736000D01*
X14478643Y-14764571D01*
X14478643Y-14921714D01*
X14664357Y-14921714D02*
X14635786Y-14907429D01*
X14621500Y-14893143D01*
X14607214Y-14864571D01*
X14607214Y-14778857D01*
X14621500Y-14750286D01*
X14635786Y-14736000D01*
X14664357Y-14721714D01*
X14707214Y-14721714D01*
X14735786Y-14736000D01*
X14750071Y-14750286D01*
X14764357Y-14778857D01*
X14764357Y-14864571D01*
X14750071Y-14893143D01*
X14735786Y-14907429D01*
X14707214Y-14921714D01*
X14664357Y-14921714D01*
X14850071Y-14721714D02*
X14964357Y-14721714D01*
X14892928Y-14621714D02*
X14892928Y-14878857D01*
X14907214Y-14907429D01*
X14935786Y-14921714D01*
X14964357Y-14921714D01*
X15292928Y-14721714D02*
X15292928Y-15021714D01*
X15292928Y-14736000D02*
X15321500Y-14721714D01*
X15378643Y-14721714D01*
X15407214Y-14736000D01*
X15421500Y-14750286D01*
X15435786Y-14778857D01*
X15435786Y-14864571D01*
X15421500Y-14893143D01*
X15407214Y-14907429D01*
X15378643Y-14921714D01*
X15321500Y-14921714D01*
X15292928Y-14907429D01*
X15607214Y-14921714D02*
X15578643Y-14907429D01*
X15564357Y-14878857D01*
X15564357Y-14621714D01*
X15850071Y-14921714D02*
X15850071Y-14764571D01*
X15835786Y-14736000D01*
X15807214Y-14721714D01*
X15750071Y-14721714D01*
X15721500Y-14736000D01*
X15850071Y-14907429D02*
X15821500Y-14921714D01*
X15750071Y-14921714D01*
X15721500Y-14907429D01*
X15707214Y-14878857D01*
X15707214Y-14850286D01*
X15721500Y-14821714D01*
X15750071Y-14807429D01*
X15821500Y-14807429D01*
X15850071Y-14793143D01*
X15950071Y-14721714D02*
X16064357Y-14721714D01*
X15992928Y-14621714D02*
X15992928Y-14878857D01*
X16007214Y-14907429D01*
X16035786Y-14921714D01*
X16064357Y-14921714D01*
X16278643Y-14907429D02*
X16250071Y-14921714D01*
X16192928Y-14921714D01*
X16164357Y-14907429D01*
X16150071Y-14878857D01*
X16150071Y-14764571D01*
X16164357Y-14736000D01*
X16192928Y-14721714D01*
X16250071Y-14721714D01*
X16278643Y-14736000D01*
X16292928Y-14764571D01*
X16292928Y-14793143D01*
X16150071Y-14821714D01*
X16550071Y-14921714D02*
X16550071Y-14621714D01*
X16550071Y-14907429D02*
X16521500Y-14921714D01*
X16464357Y-14921714D01*
X16435786Y-14907429D01*
X16421500Y-14893143D01*
X16407214Y-14864571D01*
X16407214Y-14778857D01*
X16421500Y-14750286D01*
X16435786Y-14736000D01*
X16464357Y-14721714D01*
X16521500Y-14721714D01*
X16550071Y-14736000D01*
X16664357Y-15036000D02*
X16678643Y-15021714D01*
X16707214Y-14978857D01*
X16721500Y-14950286D01*
X16735786Y-14907429D01*
X16750071Y-14836000D01*
X16750071Y-14778857D01*
X16735786Y-14707429D01*
X16721500Y-14664571D01*
X16707214Y-14636000D01*
X16678643Y-14593143D01*
X16664357Y-14578857D01*
X7106500Y-15082000D02*
X7106500Y-15282000D01*
X7006500Y-15182000D02*
X7206500Y-15182000D01*
X7478643Y-15046286D02*
X7492928Y-15032000D01*
X7521500Y-15017714D01*
X7592928Y-15017714D01*
X7621500Y-15032000D01*
X7635786Y-15046286D01*
X7650071Y-15074857D01*
X7650071Y-15103429D01*
X7635786Y-15146286D01*
X7464357Y-15317714D01*
X7650071Y-15317714D01*
X7778643Y-15289143D02*
X7792928Y-15303429D01*
X7778643Y-15317714D01*
X7764357Y-15303429D01*
X7778643Y-15289143D01*
X7778643Y-15317714D01*
X7978643Y-15017714D02*
X8007214Y-15017714D01*
X8035786Y-15032000D01*
X8050071Y-15046286D01*
X8064357Y-15074857D01*
X8078643Y-15132000D01*
X8078643Y-15203429D01*
X8064357Y-15260571D01*
X8050071Y-15289143D01*
X8035786Y-15303429D01*
X8007214Y-15317714D01*
X7978643Y-15317714D01*
X7950071Y-15303429D01*
X7935786Y-15289143D01*
X7921500Y-15260571D01*
X7907214Y-15203429D01*
X7907214Y-15132000D01*
X7921500Y-15074857D01*
X7935786Y-15046286D01*
X7950071Y-15032000D01*
X7978643Y-15017714D01*
X8264357Y-15017714D02*
X8292928Y-15017714D01*
X8321500Y-15032000D01*
X8335786Y-15046286D01*
X8350071Y-15074857D01*
X8364357Y-15132000D01*
X8364357Y-15203429D01*
X8350071Y-15260571D01*
X8335786Y-15289143D01*
X8321500Y-15303429D01*
X8292928Y-15317714D01*
X8264357Y-15317714D01*
X8235786Y-15303429D01*
X8221500Y-15289143D01*
X8207214Y-15260571D01*
X8192928Y-15203429D01*
X8192928Y-15132000D01*
X8207214Y-15074857D01*
X8221500Y-15046286D01*
X8235786Y-15032000D01*
X8264357Y-15017714D01*
X8492928Y-15317714D02*
X8492928Y-15117714D01*
X8492928Y-15146286D02*
X8507214Y-15132000D01*
X8535786Y-15117714D01*
X8578643Y-15117714D01*
X8607214Y-15132000D01*
X8621500Y-15160571D01*
X8621500Y-15317714D01*
X8621500Y-15160571D02*
X8635786Y-15132000D01*
X8664357Y-15117714D01*
X8707214Y-15117714D01*
X8735786Y-15132000D01*
X8750071Y-15160571D01*
X8750071Y-15317714D01*
X8892928Y-15317714D02*
X8892928Y-15117714D01*
X8892928Y-15146286D02*
X8907214Y-15132000D01*
X8935786Y-15117714D01*
X8978643Y-15117714D01*
X9007214Y-15132000D01*
X9021500Y-15160571D01*
X9021500Y-15317714D01*
X9021500Y-15160571D02*
X9035786Y-15132000D01*
X9064357Y-15117714D01*
X9107214Y-15117714D01*
X9135786Y-15132000D01*
X9150071Y-15160571D01*
X9150071Y-15317714D01*
X9735786Y-15003429D02*
X9478643Y-15389143D01*
X10121500Y-15017714D02*
X10150071Y-15017714D01*
X10178643Y-15032000D01*
X10192928Y-15046286D01*
X10207214Y-15074857D01*
X10221500Y-15132000D01*
X10221500Y-15203429D01*
X10207214Y-15260571D01*
X10192928Y-15289143D01*
X10178643Y-15303429D01*
X10150071Y-15317714D01*
X10121500Y-15317714D01*
X10092928Y-15303429D01*
X10078643Y-15289143D01*
X10064357Y-15260571D01*
X10050071Y-15203429D01*
X10050071Y-15132000D01*
X10064357Y-15074857D01*
X10078643Y-15046286D01*
X10092928Y-15032000D01*
X10121500Y-15017714D01*
X10350071Y-15289143D02*
X10364357Y-15303429D01*
X10350071Y-15317714D01*
X10335786Y-15303429D01*
X10350071Y-15289143D01*
X10350071Y-15317714D01*
X10550071Y-15017714D02*
X10578643Y-15017714D01*
X10607214Y-15032000D01*
X10621500Y-15046286D01*
X10635786Y-15074857D01*
X10650071Y-15132000D01*
X10650071Y-15203429D01*
X10635786Y-15260571D01*
X10621500Y-15289143D01*
X10607214Y-15303429D01*
X10578643Y-15317714D01*
X10550071Y-15317714D01*
X10521500Y-15303429D01*
X10507214Y-15289143D01*
X10492928Y-15260571D01*
X10478643Y-15203429D01*
X10478643Y-15132000D01*
X10492928Y-15074857D01*
X10507214Y-15046286D01*
X10521500Y-15032000D01*
X10550071Y-15017714D01*
X10750071Y-15017714D02*
X10950071Y-15017714D01*
X10821500Y-15317714D01*
X11078643Y-15317714D02*
X11135786Y-15317714D01*
X11164357Y-15303429D01*
X11178643Y-15289143D01*
X11207214Y-15246286D01*
X11221500Y-15189143D01*
X11221500Y-15074857D01*
X11207214Y-15046286D01*
X11192928Y-15032000D01*
X11164357Y-15017714D01*
X11107214Y-15017714D01*
X11078643Y-15032000D01*
X11064357Y-15046286D01*
X11050071Y-15074857D01*
X11050071Y-15146286D01*
X11064357Y-15174857D01*
X11078643Y-15189143D01*
X11107214Y-15203429D01*
X11164357Y-15203429D01*
X11192928Y-15189143D01*
X11207214Y-15174857D01*
X11221500Y-15146286D01*
X11335786Y-15017714D02*
X11335786Y-15074857D01*
X11450071Y-15017714D02*
X11450071Y-15074857D01*
X11892928Y-15432000D02*
X11878643Y-15417714D01*
X11850071Y-15374857D01*
X11835786Y-15346286D01*
X11821500Y-15303429D01*
X11807214Y-15232000D01*
X11807214Y-15174857D01*
X11821500Y-15103429D01*
X11835786Y-15060571D01*
X11850071Y-15032000D01*
X11878643Y-14989143D01*
X11892928Y-14974857D01*
X12050071Y-15146286D02*
X12021500Y-15132000D01*
X12007214Y-15117714D01*
X11992928Y-15089143D01*
X11992928Y-15074857D01*
X12007214Y-15046286D01*
X12021500Y-15032000D01*
X12050071Y-15017714D01*
X12107214Y-15017714D01*
X12135786Y-15032000D01*
X12150071Y-15046286D01*
X12164357Y-15074857D01*
X12164357Y-15089143D01*
X12150071Y-15117714D01*
X12135786Y-15132000D01*
X12107214Y-15146286D01*
X12050071Y-15146286D01*
X12021500Y-15160571D01*
X12007214Y-15174857D01*
X11992928Y-15203429D01*
X11992928Y-15260571D01*
X12007214Y-15289143D01*
X12021500Y-15303429D01*
X12050071Y-15317714D01*
X12107214Y-15317714D01*
X12135786Y-15303429D01*
X12150071Y-15289143D01*
X12164357Y-15260571D01*
X12164357Y-15203429D01*
X12150071Y-15174857D01*
X12135786Y-15160571D01*
X12107214Y-15146286D01*
X12521500Y-15317714D02*
X12521500Y-15017714D01*
X12650071Y-15317714D02*
X12650071Y-15160571D01*
X12635786Y-15132000D01*
X12607214Y-15117714D01*
X12564357Y-15117714D01*
X12535786Y-15132000D01*
X12521500Y-15146286D01*
X12835786Y-15317714D02*
X12807214Y-15303429D01*
X12792928Y-15289143D01*
X12778643Y-15260571D01*
X12778643Y-15174857D01*
X12792928Y-15146286D01*
X12807214Y-15132000D01*
X12835786Y-15117714D01*
X12878643Y-15117714D01*
X12907214Y-15132000D01*
X12921500Y-15146286D01*
X12935786Y-15174857D01*
X12935786Y-15260571D01*
X12921500Y-15289143D01*
X12907214Y-15303429D01*
X12878643Y-15317714D01*
X12835786Y-15317714D01*
X13107214Y-15317714D02*
X13078643Y-15303429D01*
X13064357Y-15274857D01*
X13064357Y-15017714D01*
X13335786Y-15303429D02*
X13307214Y-15317714D01*
X13250071Y-15317714D01*
X13221500Y-15303429D01*
X13207214Y-15274857D01*
X13207214Y-15160571D01*
X13221500Y-15132000D01*
X13250071Y-15117714D01*
X13307214Y-15117714D01*
X13335786Y-15132000D01*
X13350071Y-15160571D01*
X13350071Y-15189143D01*
X13207214Y-15217714D01*
X13464357Y-15303429D02*
X13492928Y-15317714D01*
X13550071Y-15317714D01*
X13578643Y-15303429D01*
X13592928Y-15274857D01*
X13592928Y-15260571D01*
X13578643Y-15232000D01*
X13550071Y-15217714D01*
X13507214Y-15217714D01*
X13478643Y-15203429D01*
X13464357Y-15174857D01*
X13464357Y-15160571D01*
X13478643Y-15132000D01*
X13507214Y-15117714D01*
X13550071Y-15117714D01*
X13578643Y-15132000D01*
X13692928Y-15432000D02*
X13707214Y-15417714D01*
X13735786Y-15374857D01*
X13750071Y-15346286D01*
X13764357Y-15303429D01*
X13778643Y-15232000D01*
X13778643Y-15174857D01*
X13764357Y-15103429D01*
X13750071Y-15060571D01*
X13735786Y-15032000D01*
X13707214Y-14989143D01*
X13692928Y-14974857D01*
X14235786Y-15432000D02*
X14221500Y-15417714D01*
X14192928Y-15374857D01*
X14178643Y-15346286D01*
X14164357Y-15303429D01*
X14150071Y-15232000D01*
X14150071Y-15174857D01*
X14164357Y-15103429D01*
X14178643Y-15060571D01*
X14192928Y-15032000D01*
X14221500Y-14989143D01*
X14235786Y-14974857D01*
X14350071Y-15117714D02*
X14350071Y-15317714D01*
X14350071Y-15146286D02*
X14364357Y-15132000D01*
X14392928Y-15117714D01*
X14435786Y-15117714D01*
X14464357Y-15132000D01*
X14478643Y-15160571D01*
X14478643Y-15317714D01*
X14664357Y-15317714D02*
X14635786Y-15303429D01*
X14621500Y-15289143D01*
X14607214Y-15260571D01*
X14607214Y-15174857D01*
X14621500Y-15146286D01*
X14635786Y-15132000D01*
X14664357Y-15117714D01*
X14707214Y-15117714D01*
X14735786Y-15132000D01*
X14750071Y-15146286D01*
X14764357Y-15174857D01*
X14764357Y-15260571D01*
X14750071Y-15289143D01*
X14735786Y-15303429D01*
X14707214Y-15317714D01*
X14664357Y-15317714D01*
X14850071Y-15117714D02*
X14964357Y-15117714D01*
X14892928Y-15017714D02*
X14892928Y-15274857D01*
X14907214Y-15303429D01*
X14935786Y-15317714D01*
X14964357Y-15317714D01*
X15292928Y-15117714D02*
X15292928Y-15417714D01*
X15292928Y-15132000D02*
X15321500Y-15117714D01*
X15378643Y-15117714D01*
X15407214Y-15132000D01*
X15421500Y-15146286D01*
X15435786Y-15174857D01*
X15435786Y-15260571D01*
X15421500Y-15289143D01*
X15407214Y-15303429D01*
X15378643Y-15317714D01*
X15321500Y-15317714D01*
X15292928Y-15303429D01*
X15607214Y-15317714D02*
X15578643Y-15303429D01*
X15564357Y-15274857D01*
X15564357Y-15017714D01*
X15850071Y-15317714D02*
X15850071Y-15160571D01*
X15835786Y-15132000D01*
X15807214Y-15117714D01*
X15750071Y-15117714D01*
X15721500Y-15132000D01*
X15850071Y-15303429D02*
X15821500Y-15317714D01*
X15750071Y-15317714D01*
X15721500Y-15303429D01*
X15707214Y-15274857D01*
X15707214Y-15246286D01*
X15721500Y-15217714D01*
X15750071Y-15203429D01*
X15821500Y-15203429D01*
X15850071Y-15189143D01*
X15950071Y-15117714D02*
X16064357Y-15117714D01*
X15992928Y-15017714D02*
X15992928Y-15274857D01*
X16007214Y-15303429D01*
X16035786Y-15317714D01*
X16064357Y-15317714D01*
X16278643Y-15303429D02*
X16250071Y-15317714D01*
X16192928Y-15317714D01*
X16164357Y-15303429D01*
X16150071Y-15274857D01*
X16150071Y-15160571D01*
X16164357Y-15132000D01*
X16192928Y-15117714D01*
X16250071Y-15117714D01*
X16278643Y-15132000D01*
X16292928Y-15160571D01*
X16292928Y-15189143D01*
X16150071Y-15217714D01*
X16550071Y-15317714D02*
X16550071Y-15017714D01*
X16550071Y-15303429D02*
X16521500Y-15317714D01*
X16464357Y-15317714D01*
X16435786Y-15303429D01*
X16421500Y-15289143D01*
X16407214Y-15260571D01*
X16407214Y-15174857D01*
X16421500Y-15146286D01*
X16435786Y-15132000D01*
X16464357Y-15117714D01*
X16521500Y-15117714D01*
X16550071Y-15132000D01*
X16664357Y-15432000D02*
X16678643Y-15417714D01*
X16707214Y-15374857D01*
X16721500Y-15346286D01*
X16735786Y-15303429D01*
X16750071Y-15232000D01*
X16750071Y-15174857D01*
X16735786Y-15103429D01*
X16721500Y-15060571D01*
X16707214Y-15032000D01*
X16678643Y-14989143D01*
X16664357Y-14974857D01*
X7166960Y-15673460D02*
X7166960Y-15482540D01*
X6976040Y-15482540D01*
X6976040Y-15673460D01*
X7166960Y-15673460D01*
X7478643Y-15442286D02*
X7492928Y-15428000D01*
X7521500Y-15413714D01*
X7592928Y-15413714D01*
X7621500Y-15428000D01*
X7635786Y-15442286D01*
X7650071Y-15470857D01*
X7650071Y-15499429D01*
X7635786Y-15542286D01*
X7464357Y-15713714D01*
X7650071Y-15713714D01*
X7778643Y-15685143D02*
X7792928Y-15699429D01*
X7778643Y-15713714D01*
X7764357Y-15699429D01*
X7778643Y-15685143D01*
X7778643Y-15713714D01*
X7892928Y-15413714D02*
X8092928Y-15413714D01*
X7964357Y-15713714D01*
X8264357Y-15413714D02*
X8292928Y-15413714D01*
X8321500Y-15428000D01*
X8335786Y-15442286D01*
X8350071Y-15470857D01*
X8364357Y-15528000D01*
X8364357Y-15599429D01*
X8350071Y-15656571D01*
X8335786Y-15685143D01*
X8321500Y-15699429D01*
X8292928Y-15713714D01*
X8264357Y-15713714D01*
X8235786Y-15699429D01*
X8221500Y-15685143D01*
X8207214Y-15656571D01*
X8192928Y-15599429D01*
X8192928Y-15528000D01*
X8207214Y-15470857D01*
X8221500Y-15442286D01*
X8235786Y-15428000D01*
X8264357Y-15413714D01*
X8492928Y-15713714D02*
X8492928Y-15513714D01*
X8492928Y-15542286D02*
X8507214Y-15528000D01*
X8535786Y-15513714D01*
X8578643Y-15513714D01*
X8607214Y-15528000D01*
X8621500Y-15556571D01*
X8621500Y-15713714D01*
X8621500Y-15556571D02*
X8635786Y-15528000D01*
X8664357Y-15513714D01*
X8707214Y-15513714D01*
X8735786Y-15528000D01*
X8750071Y-15556571D01*
X8750071Y-15713714D01*
X8892928Y-15713714D02*
X8892928Y-15513714D01*
X8892928Y-15542286D02*
X8907214Y-15528000D01*
X8935786Y-15513714D01*
X8978643Y-15513714D01*
X9007214Y-15528000D01*
X9021500Y-15556571D01*
X9021500Y-15713714D01*
X9021500Y-15556571D02*
X9035786Y-15528000D01*
X9064357Y-15513714D01*
X9107214Y-15513714D01*
X9135786Y-15528000D01*
X9150071Y-15556571D01*
X9150071Y-15713714D01*
X9735786Y-15399429D02*
X9478643Y-15785143D01*
X10121500Y-15413714D02*
X10150071Y-15413714D01*
X10178643Y-15428000D01*
X10192928Y-15442286D01*
X10207214Y-15470857D01*
X10221500Y-15528000D01*
X10221500Y-15599429D01*
X10207214Y-15656571D01*
X10192928Y-15685143D01*
X10178643Y-15699429D01*
X10150071Y-15713714D01*
X10121500Y-15713714D01*
X10092928Y-15699429D01*
X10078643Y-15685143D01*
X10064357Y-15656571D01*
X10050071Y-15599429D01*
X10050071Y-15528000D01*
X10064357Y-15470857D01*
X10078643Y-15442286D01*
X10092928Y-15428000D01*
X10121500Y-15413714D01*
X10350071Y-15685143D02*
X10364357Y-15699429D01*
X10350071Y-15713714D01*
X10335786Y-15699429D01*
X10350071Y-15685143D01*
X10350071Y-15713714D01*
X10650071Y-15713714D02*
X10478643Y-15713714D01*
X10564357Y-15713714D02*
X10564357Y-15413714D01*
X10535786Y-15456571D01*
X10507214Y-15485143D01*
X10478643Y-15499429D01*
X10835786Y-15413714D02*
X10864357Y-15413714D01*
X10892928Y-15428000D01*
X10907214Y-15442286D01*
X10921500Y-15470857D01*
X10935786Y-15528000D01*
X10935786Y-15599429D01*
X10921500Y-15656571D01*
X10907214Y-15685143D01*
X10892928Y-15699429D01*
X10864357Y-15713714D01*
X10835786Y-15713714D01*
X10807214Y-15699429D01*
X10792928Y-15685143D01*
X10778643Y-15656571D01*
X10764357Y-15599429D01*
X10764357Y-15528000D01*
X10778643Y-15470857D01*
X10792928Y-15442286D01*
X10807214Y-15428000D01*
X10835786Y-15413714D01*
X11192928Y-15413714D02*
X11135786Y-15413714D01*
X11107214Y-15428000D01*
X11092928Y-15442286D01*
X11064357Y-15485143D01*
X11050071Y-15542286D01*
X11050071Y-15656571D01*
X11064357Y-15685143D01*
X11078643Y-15699429D01*
X11107214Y-15713714D01*
X11164357Y-15713714D01*
X11192928Y-15699429D01*
X11207214Y-15685143D01*
X11221500Y-15656571D01*
X11221500Y-15585143D01*
X11207214Y-15556571D01*
X11192928Y-15542286D01*
X11164357Y-15528000D01*
X11107214Y-15528000D01*
X11078643Y-15542286D01*
X11064357Y-15556571D01*
X11050071Y-15585143D01*
X11335786Y-15413714D02*
X11335786Y-15470857D01*
X11450071Y-15413714D02*
X11450071Y-15470857D01*
X11892928Y-15828000D02*
X11878643Y-15813714D01*
X11850071Y-15770857D01*
X11835786Y-15742286D01*
X11821500Y-15699429D01*
X11807214Y-15628000D01*
X11807214Y-15570857D01*
X11821500Y-15499429D01*
X11835786Y-15456571D01*
X11850071Y-15428000D01*
X11878643Y-15385143D01*
X11892928Y-15370857D01*
X12050071Y-15542286D02*
X12021500Y-15528000D01*
X12007214Y-15513714D01*
X11992928Y-15485143D01*
X11992928Y-15470857D01*
X12007214Y-15442286D01*
X12021500Y-15428000D01*
X12050071Y-15413714D01*
X12107214Y-15413714D01*
X12135786Y-15428000D01*
X12150071Y-15442286D01*
X12164357Y-15470857D01*
X12164357Y-15485143D01*
X12150071Y-15513714D01*
X12135786Y-15528000D01*
X12107214Y-15542286D01*
X12050071Y-15542286D01*
X12021500Y-15556571D01*
X12007214Y-15570857D01*
X11992928Y-15599429D01*
X11992928Y-15656571D01*
X12007214Y-15685143D01*
X12021500Y-15699429D01*
X12050071Y-15713714D01*
X12107214Y-15713714D01*
X12135786Y-15699429D01*
X12150071Y-15685143D01*
X12164357Y-15656571D01*
X12164357Y-15599429D01*
X12150071Y-15570857D01*
X12135786Y-15556571D01*
X12107214Y-15542286D01*
X12521500Y-15713714D02*
X12521500Y-15413714D01*
X12650071Y-15713714D02*
X12650071Y-15556571D01*
X12635786Y-15528000D01*
X12607214Y-15513714D01*
X12564357Y-15513714D01*
X12535786Y-15528000D01*
X12521500Y-15542286D01*
X12835786Y-15713714D02*
X12807214Y-15699429D01*
X12792928Y-15685143D01*
X12778643Y-15656571D01*
X12778643Y-15570857D01*
X12792928Y-15542286D01*
X12807214Y-15528000D01*
X12835786Y-15513714D01*
X12878643Y-15513714D01*
X12907214Y-15528000D01*
X12921500Y-15542286D01*
X12935786Y-15570857D01*
X12935786Y-15656571D01*
X12921500Y-15685143D01*
X12907214Y-15699429D01*
X12878643Y-15713714D01*
X12835786Y-15713714D01*
X13107214Y-15713714D02*
X13078643Y-15699429D01*
X13064357Y-15670857D01*
X13064357Y-15413714D01*
X13335786Y-15699429D02*
X13307214Y-15713714D01*
X13250071Y-15713714D01*
X13221500Y-15699429D01*
X13207214Y-15670857D01*
X13207214Y-15556571D01*
X13221500Y-15528000D01*
X13250071Y-15513714D01*
X13307214Y-15513714D01*
X13335786Y-15528000D01*
X13350071Y-15556571D01*
X13350071Y-15585143D01*
X13207214Y-15613714D01*
X13464357Y-15699429D02*
X13492928Y-15713714D01*
X13550071Y-15713714D01*
X13578643Y-15699429D01*
X13592928Y-15670857D01*
X13592928Y-15656571D01*
X13578643Y-15628000D01*
X13550071Y-15613714D01*
X13507214Y-15613714D01*
X13478643Y-15599429D01*
X13464357Y-15570857D01*
X13464357Y-15556571D01*
X13478643Y-15528000D01*
X13507214Y-15513714D01*
X13550071Y-15513714D01*
X13578643Y-15528000D01*
X13692928Y-15828000D02*
X13707214Y-15813714D01*
X13735786Y-15770857D01*
X13750071Y-15742286D01*
X13764357Y-15699429D01*
X13778643Y-15628000D01*
X13778643Y-15570857D01*
X13764357Y-15499429D01*
X13750071Y-15456571D01*
X13735786Y-15428000D01*
X13707214Y-15385143D01*
X13692928Y-15370857D01*
X14235786Y-15828000D02*
X14221500Y-15813714D01*
X14192928Y-15770857D01*
X14178643Y-15742286D01*
X14164357Y-15699429D01*
X14150071Y-15628000D01*
X14150071Y-15570857D01*
X14164357Y-15499429D01*
X14178643Y-15456571D01*
X14192928Y-15428000D01*
X14221500Y-15385143D01*
X14235786Y-15370857D01*
X14350071Y-15513714D02*
X14350071Y-15713714D01*
X14350071Y-15542286D02*
X14364357Y-15528000D01*
X14392928Y-15513714D01*
X14435786Y-15513714D01*
X14464357Y-15528000D01*
X14478643Y-15556571D01*
X14478643Y-15713714D01*
X14664357Y-15713714D02*
X14635786Y-15699429D01*
X14621500Y-15685143D01*
X14607214Y-15656571D01*
X14607214Y-15570857D01*
X14621500Y-15542286D01*
X14635786Y-15528000D01*
X14664357Y-15513714D01*
X14707214Y-15513714D01*
X14735786Y-15528000D01*
X14750071Y-15542286D01*
X14764357Y-15570857D01*
X14764357Y-15656571D01*
X14750071Y-15685143D01*
X14735786Y-15699429D01*
X14707214Y-15713714D01*
X14664357Y-15713714D01*
X14850071Y-15513714D02*
X14964357Y-15513714D01*
X14892928Y-15413714D02*
X14892928Y-15670857D01*
X14907214Y-15699429D01*
X14935786Y-15713714D01*
X14964357Y-15713714D01*
X15292928Y-15513714D02*
X15292928Y-15813714D01*
X15292928Y-15528000D02*
X15321500Y-15513714D01*
X15378643Y-15513714D01*
X15407214Y-15528000D01*
X15421500Y-15542286D01*
X15435786Y-15570857D01*
X15435786Y-15656571D01*
X15421500Y-15685143D01*
X15407214Y-15699429D01*
X15378643Y-15713714D01*
X15321500Y-15713714D01*
X15292928Y-15699429D01*
X15607214Y-15713714D02*
X15578643Y-15699429D01*
X15564357Y-15670857D01*
X15564357Y-15413714D01*
X15850071Y-15713714D02*
X15850071Y-15556571D01*
X15835786Y-15528000D01*
X15807214Y-15513714D01*
X15750071Y-15513714D01*
X15721500Y-15528000D01*
X15850071Y-15699429D02*
X15821500Y-15713714D01*
X15750071Y-15713714D01*
X15721500Y-15699429D01*
X15707214Y-15670857D01*
X15707214Y-15642286D01*
X15721500Y-15613714D01*
X15750071Y-15599429D01*
X15821500Y-15599429D01*
X15850071Y-15585143D01*
X15950071Y-15513714D02*
X16064357Y-15513714D01*
X15992928Y-15413714D02*
X15992928Y-15670857D01*
X16007214Y-15699429D01*
X16035786Y-15713714D01*
X16064357Y-15713714D01*
X16278643Y-15699429D02*
X16250071Y-15713714D01*
X16192928Y-15713714D01*
X16164357Y-15699429D01*
X16150071Y-15670857D01*
X16150071Y-15556571D01*
X16164357Y-15528000D01*
X16192928Y-15513714D01*
X16250071Y-15513714D01*
X16278643Y-15528000D01*
X16292928Y-15556571D01*
X16292928Y-15585143D01*
X16150071Y-15613714D01*
X16550071Y-15713714D02*
X16550071Y-15413714D01*
X16550071Y-15699429D02*
X16521500Y-15713714D01*
X16464357Y-15713714D01*
X16435786Y-15699429D01*
X16421500Y-15685143D01*
X16407214Y-15656571D01*
X16407214Y-15570857D01*
X16421500Y-15542286D01*
X16435786Y-15528000D01*
X16464357Y-15513714D01*
X16521500Y-15513714D01*
X16550071Y-15528000D01*
X16664357Y-15828000D02*
X16678643Y-15813714D01*
X16707214Y-15770857D01*
X16721500Y-15742286D01*
X16735786Y-15699429D01*
X16750071Y-15628000D01*
X16750071Y-15570857D01*
X16735786Y-15499429D01*
X16721500Y-15456571D01*
X16707214Y-15428000D01*
X16678643Y-15385143D01*
X16664357Y-15370857D01*
M02*
