%FSLAX45Y45*%
G04 Gerber Fmt 4.5, Leading zero omitted, Abs format (unit mm)*
G04 Created by KiCad (PCBNEW 5.1.9+dfsg1-1~bpo10+1) date 2021-11-03 11:33:02*
%MOMM*%
%LPD*%
G01*
G04 APERTURE LIST*
%TA.AperFunction,Profile*%
%ADD10C,0.050000*%
%TD*%
%ADD11C,0.200000*%
%ADD12C,0.300000*%
G04 APERTURE END LIST*
D10*
X9209000Y-13427500D02*
X7209000Y-11427500D01*
X19759000Y-13427500D02*
X9209000Y-13427500D01*
X21759000Y-11427500D02*
X19759000Y-13427500D01*
X21759000Y-5167500D02*
X21759000Y-11427500D01*
X19759000Y-3167500D02*
X21759000Y-5167500D01*
X9209000Y-3167500D02*
X19759000Y-3167500D01*
X7209000Y-5167500D02*
X9209000Y-3167500D01*
X7209000Y-11427500D02*
X7209000Y-5167500D01*
D11*
X9161000Y-5978500D02*
X9181000Y-5998500D01*
X9181000Y-5978500D02*
X9161000Y-5998500D01*
X9176000Y-10092500D02*
X9196000Y-10112500D01*
X9196000Y-10092500D02*
X9176000Y-10112500D01*
X9272000Y-7351500D02*
X9292000Y-7371500D01*
X9292000Y-7351500D02*
X9272000Y-7371500D01*
X9278000Y-8718500D02*
X9298000Y-8738500D01*
X9298000Y-8718500D02*
X9278000Y-8738500D01*
X9312000Y-4841500D02*
X9332000Y-4861500D01*
X9332000Y-4841500D02*
X9312000Y-4861500D01*
X9369025Y-5987156D02*
X9389025Y-6007156D01*
X9389025Y-5987156D02*
X9369025Y-6007156D01*
X9469000Y-7352500D02*
X9489000Y-7372500D01*
X9489000Y-7352500D02*
X9469000Y-7372500D01*
X9470000Y-10091500D02*
X9490000Y-10111500D01*
X9490000Y-10091500D02*
X9470000Y-10111500D01*
X9471000Y-8722500D02*
X9491000Y-8742500D01*
X9491000Y-8722500D02*
X9471000Y-8742500D01*
X9519000Y-9690500D02*
X9539000Y-9710500D01*
X9539000Y-9690500D02*
X9519000Y-9710500D01*
X9524000Y-8044500D02*
X9544000Y-8064500D01*
X9544000Y-8044500D02*
X9524000Y-8064500D01*
X9544000Y-6470500D02*
X9564000Y-6490500D01*
X9564000Y-6470500D02*
X9544000Y-6490500D01*
X10043000Y-5430500D02*
X10063000Y-5450500D01*
X10063000Y-5430500D02*
X10043000Y-5450500D01*
X10402000Y-5177500D02*
X10422000Y-5197500D01*
X10422000Y-5177500D02*
X10402000Y-5197500D01*
X10554000Y-4163500D02*
X10574000Y-4183500D01*
X10574000Y-4163500D02*
X10554000Y-4183500D01*
X10581000Y-3615500D02*
X10601000Y-3635500D01*
X10601000Y-3615500D02*
X10581000Y-3635500D01*
X10775000Y-12290500D02*
X10795000Y-12310500D01*
X10795000Y-12290500D02*
X10775000Y-12310500D01*
X10858000Y-5176995D02*
X10878000Y-5196995D01*
X10878000Y-5176995D02*
X10858000Y-5196995D01*
X10859000Y-5475500D02*
X10879000Y-5495500D01*
X10879000Y-5475500D02*
X10859000Y-5495500D01*
X10954000Y-10402500D02*
X10974000Y-10422500D01*
X10974000Y-10402500D02*
X10954000Y-10422500D01*
X10963000Y-6286500D02*
X10983000Y-6306500D01*
X10983000Y-6286500D02*
X10963000Y-6306500D01*
X10966000Y-7649500D02*
X10986000Y-7669500D01*
X10986000Y-7649500D02*
X10966000Y-7669500D01*
X10981000Y-3893500D02*
X11001000Y-3913500D01*
X11001000Y-3893500D02*
X10981000Y-3913500D01*
X10983000Y-12553500D02*
X11003000Y-12573500D01*
X11003000Y-12553500D02*
X10983000Y-12573500D01*
X11022000Y-9066500D02*
X11042000Y-9086500D01*
X11042000Y-9066500D02*
X11022000Y-9086500D01*
X11061000Y-4980500D02*
X11081000Y-5000500D01*
X11081000Y-4980500D02*
X11061000Y-5000500D01*
X11377000Y-12965500D02*
X11397000Y-12985500D01*
X11397000Y-12965500D02*
X11377000Y-12985500D01*
X11539740Y-5111088D02*
X11559740Y-5131088D01*
X11559740Y-5111088D02*
X11539740Y-5131088D01*
X11544554Y-5475201D02*
X11564554Y-5495201D01*
X11564554Y-5475201D02*
X11544554Y-5495201D01*
X11577000Y-12960500D02*
X11597000Y-12980500D01*
X11597000Y-12960500D02*
X11577000Y-12980500D01*
X11604000Y-3594500D02*
X11624000Y-3614500D01*
X11624000Y-3594500D02*
X11604000Y-3614500D01*
X11638068Y-5425397D02*
X11658068Y-5445397D01*
X11658068Y-5425397D02*
X11638068Y-5445397D01*
X11639162Y-5111088D02*
X11659162Y-5131088D01*
X11659162Y-5111088D02*
X11639162Y-5131088D01*
X11641000Y-12222500D02*
X11661000Y-12242500D01*
X11661000Y-12222500D02*
X11641000Y-12242500D01*
X11683000Y-11827500D02*
X11703000Y-11847500D01*
X11703000Y-11827500D02*
X11683000Y-11847500D01*
X11696000Y-3663500D02*
X11716000Y-3683500D01*
X11716000Y-3663500D02*
X11696000Y-3683500D01*
X11884000Y-12476500D02*
X11904000Y-12496500D01*
X11904000Y-12476500D02*
X11884000Y-12496500D01*
X11890000Y-12989500D02*
X11910000Y-13009500D01*
X11910000Y-12989500D02*
X11890000Y-13009500D01*
X12002000Y-12130500D02*
X12022000Y-12150500D01*
X12022000Y-12130500D02*
X12002000Y-12150500D01*
X12264000Y-11299500D02*
X12284000Y-11319500D01*
X12284000Y-11299500D02*
X12264000Y-11319500D01*
X12347000Y-3355500D02*
X12367000Y-3375500D01*
X12367000Y-3355500D02*
X12347000Y-3375500D01*
X12562000Y-3518500D02*
X12582000Y-3538500D01*
X12582000Y-3518500D02*
X12562000Y-3538500D01*
X12562000Y-4266500D02*
X12582000Y-4286500D01*
X12582000Y-4266500D02*
X12562000Y-4286500D01*
X12569000Y-6304500D02*
X12589000Y-6324500D01*
X12589000Y-6304500D02*
X12569000Y-6324500D01*
X12607000Y-9054500D02*
X12627000Y-9074500D01*
X12627000Y-9054500D02*
X12607000Y-9074500D01*
X12607000Y-10402500D02*
X12627000Y-10422500D01*
X12627000Y-10402500D02*
X12607000Y-10422500D01*
X12611000Y-7652500D02*
X12631000Y-7672500D01*
X12631000Y-7652500D02*
X12611000Y-7672500D01*
X12835000Y-11323500D02*
X12855000Y-11343500D01*
X12855000Y-11323500D02*
X12835000Y-11343500D01*
X12835000Y-11453500D02*
X12855000Y-11473500D01*
X12855000Y-11453500D02*
X12835000Y-11473500D01*
X13082000Y-3842500D02*
X13102000Y-3862500D01*
X13102000Y-3842500D02*
X13082000Y-3862500D01*
X13109000Y-12728500D02*
X13129000Y-12748500D01*
X13129000Y-12728500D02*
X13109000Y-12748500D01*
X13141000Y-11303500D02*
X13161000Y-11323500D01*
X13161000Y-11303500D02*
X13141000Y-11323500D01*
X13186000Y-12371500D02*
X13206000Y-12391500D01*
X13206000Y-12371500D02*
X13186000Y-12391500D01*
X13240000Y-12768500D02*
X13260000Y-12788500D01*
X13260000Y-12768500D02*
X13240000Y-12788500D01*
X13252000Y-12682500D02*
X13272000Y-12702500D01*
X13272000Y-12682500D02*
X13252000Y-12702500D01*
X13499000Y-11425201D02*
X13519000Y-11445201D01*
X13519000Y-11425201D02*
X13499000Y-11445201D01*
X13513000Y-12374500D02*
X13533000Y-12394500D01*
X13533000Y-12374500D02*
X13513000Y-12394500D01*
X13514000Y-12609500D02*
X13534000Y-12629500D01*
X13534000Y-12609500D02*
X13514000Y-12629500D01*
X13619000Y-12375500D02*
X13639000Y-12395500D01*
X13639000Y-12375500D02*
X13619000Y-12395500D01*
X13631000Y-11361500D02*
X13651000Y-11381500D01*
X13651000Y-11361500D02*
X13631000Y-11381500D01*
X13805000Y-11985500D02*
X13825000Y-12005500D01*
X13825000Y-11985500D02*
X13805000Y-12005500D01*
X13826000Y-12358500D02*
X13846000Y-12378500D01*
X13846000Y-12358500D02*
X13826000Y-12378500D01*
X13859000Y-11796500D02*
X13879000Y-11816500D01*
X13879000Y-11796500D02*
X13859000Y-11816500D01*
X13865000Y-11532500D02*
X13885000Y-11552500D01*
X13885000Y-11532500D02*
X13865000Y-11552500D01*
X13997000Y-11360500D02*
X14017000Y-11380500D01*
X14017000Y-11360500D02*
X13997000Y-11380500D01*
X14020000Y-12620500D02*
X14040000Y-12640500D01*
X14040000Y-12620500D02*
X14020000Y-12640500D01*
X14024000Y-12685500D02*
X14044000Y-12705500D01*
X14044000Y-12685500D02*
X14024000Y-12705500D01*
X14037000Y-12163500D02*
X14057000Y-12183500D01*
X14057000Y-12163500D02*
X14037000Y-12183500D01*
X14205000Y-6302500D02*
X14225000Y-6322500D01*
X14225000Y-6302500D02*
X14205000Y-6322500D01*
X14206000Y-7678500D02*
X14226000Y-7698500D01*
X14226000Y-7678500D02*
X14206000Y-7698500D01*
X14208000Y-9054500D02*
X14228000Y-9074500D01*
X14228000Y-9054500D02*
X14208000Y-9074500D01*
X14215000Y-10406500D02*
X14235000Y-10426500D01*
X14235000Y-10406500D02*
X14215000Y-10426500D01*
X14906000Y-5131087D02*
X14926000Y-5151087D01*
X14926000Y-5131087D02*
X14906000Y-5151087D01*
X14906000Y-5557500D02*
X14926000Y-5577500D01*
X14926000Y-5557500D02*
X14906000Y-5577500D01*
X15104000Y-11261398D02*
X15124000Y-11281398D01*
X15124000Y-11261398D02*
X15104000Y-11281398D01*
X15105000Y-11912500D02*
X15125000Y-11932500D01*
X15125000Y-11912500D02*
X15105000Y-11932500D01*
X15303000Y-5659500D02*
X15323000Y-5679500D01*
X15323000Y-5659500D02*
X15303000Y-5679500D01*
X15337000Y-5390500D02*
X15357000Y-5410500D01*
X15357000Y-5390500D02*
X15337000Y-5410500D01*
X15393000Y-5584500D02*
X15413000Y-5604500D01*
X15413000Y-5584500D02*
X15393000Y-5604500D01*
X15394000Y-5389500D02*
X15414000Y-5409500D01*
X15414000Y-5389500D02*
X15394000Y-5409500D01*
X15398000Y-4397500D02*
X15418000Y-4417500D01*
X15418000Y-4397500D02*
X15398000Y-4417500D01*
X15426088Y-4795800D02*
X15446088Y-4815800D01*
X15446088Y-4795800D02*
X15426088Y-4815800D01*
X15454000Y-5384500D02*
X15474000Y-5404500D01*
X15474000Y-5384500D02*
X15454000Y-5404500D01*
X15494000Y-5052500D02*
X15514000Y-5072500D01*
X15514000Y-5052500D02*
X15494000Y-5072500D01*
X15664701Y-4258500D02*
X15684701Y-4278500D01*
X15684701Y-4258500D02*
X15664701Y-4278500D01*
X15777000Y-4518500D02*
X15797000Y-4538500D01*
X15797000Y-4518500D02*
X15777000Y-4538500D01*
X15792000Y-4398500D02*
X15812000Y-4418500D01*
X15812000Y-4398500D02*
X15792000Y-4418500D01*
X15792000Y-4618500D02*
X15812000Y-4638500D01*
X15812000Y-4618500D02*
X15792000Y-4638500D01*
X15792000Y-4718500D02*
X15812000Y-4738500D01*
X15812000Y-4718500D02*
X15792000Y-4738500D01*
X15801000Y-7648500D02*
X15821000Y-7668500D01*
X15821000Y-7648500D02*
X15801000Y-7668500D01*
X15802000Y-5208500D02*
X15822000Y-5228500D01*
X15822000Y-5208500D02*
X15802000Y-5228500D01*
X15806000Y-6302500D02*
X15826000Y-6322500D01*
X15826000Y-6302500D02*
X15806000Y-6322500D01*
X15809000Y-9051500D02*
X15829000Y-9071500D01*
X15829000Y-9051500D02*
X15809000Y-9071500D01*
X15825000Y-10409500D02*
X15845000Y-10429500D01*
X15845000Y-10409500D02*
X15825000Y-10429500D01*
X15862000Y-4278500D02*
X15882000Y-4298500D01*
X15882000Y-4278500D02*
X15862000Y-4298500D01*
X15925000Y-11749500D02*
X15945000Y-11769500D01*
X15945000Y-11749500D02*
X15925000Y-11769500D01*
X15932000Y-5678500D02*
X15952000Y-5698500D01*
X15952000Y-5678500D02*
X15932000Y-5698500D01*
X15962000Y-4278500D02*
X15982000Y-4298500D01*
X15982000Y-4278500D02*
X15962000Y-4298500D01*
X15962000Y-4358500D02*
X15982000Y-4378500D01*
X15982000Y-4358500D02*
X15962000Y-4378500D01*
X15992000Y-5581902D02*
X16012000Y-5601902D01*
X16012000Y-5581902D02*
X15992000Y-5601902D01*
X15995049Y-4478490D02*
X16015049Y-4498490D01*
X16015049Y-4478490D02*
X15995049Y-4498490D01*
X16019000Y-11805500D02*
X16039000Y-11825500D01*
X16039000Y-11805500D02*
X16019000Y-11825500D01*
X16052000Y-3718500D02*
X16072000Y-3738500D01*
X16072000Y-3718500D02*
X16052000Y-3738500D01*
X16137000Y-4823500D02*
X16157000Y-4843500D01*
X16157000Y-4823500D02*
X16137000Y-4843500D01*
X16189000Y-11814500D02*
X16209000Y-11834500D01*
X16209000Y-11814500D02*
X16189000Y-11834500D01*
X16252000Y-5938500D02*
X16272000Y-5958500D01*
X16272000Y-5938500D02*
X16252000Y-5958500D01*
X16272000Y-5328500D02*
X16292000Y-5348500D01*
X16292000Y-5328500D02*
X16272000Y-5348500D01*
X16282000Y-4128500D02*
X16302000Y-4148500D01*
X16302000Y-4128500D02*
X16282000Y-4148500D01*
X16302000Y-4388500D02*
X16322000Y-4408500D01*
X16322000Y-4388500D02*
X16302000Y-4408500D01*
X16348299Y-4778500D02*
X16368299Y-4798500D01*
X16368299Y-4778500D02*
X16348299Y-4798500D01*
X16362000Y-5828500D02*
X16382000Y-5848500D01*
X16382000Y-5828500D02*
X16362000Y-5848500D01*
X16402000Y-4388500D02*
X16422000Y-4408500D01*
X16422000Y-4388500D02*
X16402000Y-4408500D01*
X16412000Y-5748500D02*
X16432000Y-5768500D01*
X16432000Y-5748500D02*
X16412000Y-5768500D01*
X16502000Y-5748500D02*
X16522000Y-5768500D01*
X16522000Y-5748500D02*
X16502000Y-5768500D01*
X16519500Y-4010598D02*
X16539500Y-4030598D01*
X16539500Y-4010598D02*
X16519500Y-4030598D01*
X16599299Y-4903367D02*
X16619299Y-4923367D01*
X16619299Y-4903367D02*
X16599299Y-4923367D01*
X16602000Y-4808500D02*
X16622000Y-4828500D01*
X16622000Y-4808500D02*
X16602000Y-4828500D01*
X16615000Y-5681500D02*
X16635000Y-5701500D01*
X16635000Y-5681500D02*
X16615000Y-5701500D01*
X16698694Y-5591806D02*
X16718694Y-5611806D01*
X16718694Y-5591806D02*
X16698694Y-5611806D01*
X16712000Y-4378500D02*
X16732000Y-4398500D01*
X16732000Y-4378500D02*
X16712000Y-4398500D01*
X16712000Y-4198500D02*
X16732000Y-4218500D01*
X16732000Y-4198500D02*
X16712000Y-4218500D01*
X16766000Y-3816500D02*
X16786000Y-3836500D01*
X16786000Y-3816500D02*
X16766000Y-3836500D01*
X16867000Y-3817500D02*
X16887000Y-3837500D01*
X16887000Y-3817500D02*
X16867000Y-3837500D01*
X16872000Y-4448500D02*
X16892000Y-4468500D01*
X16892000Y-4448500D02*
X16872000Y-4468500D01*
X16912000Y-4198500D02*
X16932000Y-4218500D01*
X16932000Y-4198500D02*
X16912000Y-4218500D01*
X16942000Y-4648500D02*
X16962000Y-4668500D01*
X16962000Y-4648500D02*
X16942000Y-4668500D01*
X16947753Y-4835799D02*
X16967753Y-4855799D01*
X16967753Y-4835799D02*
X16947753Y-4855799D01*
X16998701Y-5153201D02*
X17018701Y-5173201D01*
X17018701Y-5153201D02*
X16998701Y-5173201D01*
X17032000Y-4048500D02*
X17052000Y-4068500D01*
X17052000Y-4048500D02*
X17032000Y-4068500D01*
X17066000Y-5586500D02*
X17086000Y-5606500D01*
X17086000Y-5586500D02*
X17066000Y-5606500D01*
X17152000Y-4288500D02*
X17172000Y-4308500D01*
X17172000Y-4288500D02*
X17152000Y-4308500D01*
X17162000Y-4018500D02*
X17182000Y-4038500D01*
X17182000Y-4018500D02*
X17162000Y-4038500D01*
X17210000Y-4529500D02*
X17230000Y-4549500D01*
X17230000Y-4529500D02*
X17210000Y-4549500D01*
X17227990Y-5045000D02*
X17247990Y-5065000D01*
X17247990Y-5045000D02*
X17227990Y-5065000D01*
X17312000Y-4098500D02*
X17332000Y-4118500D01*
X17332000Y-4098500D02*
X17312000Y-4118500D01*
X17328740Y-5043979D02*
X17348740Y-5063979D01*
X17348740Y-5043979D02*
X17328740Y-5063979D01*
X17368000Y-4432500D02*
X17388000Y-4452500D01*
X17388000Y-4432500D02*
X17368000Y-4452500D01*
X17380299Y-5054892D02*
X17400299Y-5074892D01*
X17400299Y-5054892D02*
X17380299Y-5074892D01*
X17406000Y-6300500D02*
X17426000Y-6320500D01*
X17426000Y-6300500D02*
X17406000Y-6320500D01*
X17409000Y-7655500D02*
X17429000Y-7675500D01*
X17429000Y-7655500D02*
X17409000Y-7675500D01*
X17410000Y-9050500D02*
X17430000Y-9070500D01*
X17430000Y-9050500D02*
X17410000Y-9070500D01*
X17423000Y-4960500D02*
X17443000Y-4980500D01*
X17443000Y-4960500D02*
X17423000Y-4980500D01*
X17472000Y-10400500D02*
X17492000Y-10420500D01*
X17492000Y-10400500D02*
X17472000Y-10420500D01*
X17531000Y-4981500D02*
X17551000Y-5001500D01*
X17551000Y-4981500D02*
X17531000Y-5001500D01*
X17690000Y-4821500D02*
X17710000Y-4841500D01*
X17710000Y-4821500D02*
X17690000Y-4841500D01*
X17771000Y-3867500D02*
X17791000Y-3887500D01*
X17791000Y-3867500D02*
X17771000Y-3887500D01*
X17813000Y-4729500D02*
X17833000Y-4749500D01*
X17833000Y-4729500D02*
X17813000Y-4749500D01*
X17840000Y-4822500D02*
X17860000Y-4842500D01*
X17860000Y-4822500D02*
X17840000Y-4842500D01*
X17845000Y-5065500D02*
X17865000Y-5085500D01*
X17865000Y-5065500D02*
X17845000Y-5085500D01*
X17911000Y-3867500D02*
X17931000Y-3887500D01*
X17931000Y-3867500D02*
X17911000Y-3887500D01*
X18007000Y-4874500D02*
X18027000Y-4894500D01*
X18027000Y-4874500D02*
X18007000Y-4894500D01*
X18080000Y-3921500D02*
X18100000Y-3941500D01*
X18100000Y-3921500D02*
X18080000Y-3941500D01*
X18100000Y-4726500D02*
X18120000Y-4746500D01*
X18120000Y-4726500D02*
X18100000Y-4746500D01*
X18333623Y-5131488D02*
X18353623Y-5151488D01*
X18353623Y-5131488D02*
X18333623Y-5151488D01*
X18355170Y-5383035D02*
X18375170Y-5403035D01*
X18375170Y-5383035D02*
X18355170Y-5403035D01*
X18363946Y-5023755D02*
X18383946Y-5043755D01*
X18383946Y-5023755D02*
X18363946Y-5043755D01*
X18383910Y-5338860D02*
X18403910Y-5358860D01*
X18403910Y-5338860D02*
X18383910Y-5358860D01*
X18387000Y-5779500D02*
X18407000Y-5799500D01*
X18407000Y-5779500D02*
X18387000Y-5799500D01*
X18406516Y-5461404D02*
X18426516Y-5481404D01*
X18426516Y-5461404D02*
X18406516Y-5481404D01*
X18415021Y-5036746D02*
X18435021Y-5056746D01*
X18435021Y-5036746D02*
X18415021Y-5056746D01*
X18415740Y-5296857D02*
X18435740Y-5316857D01*
X18435740Y-5296857D02*
X18415740Y-5316857D01*
X18582000Y-5117500D02*
X18602000Y-5137500D01*
X18602000Y-5117500D02*
X18582000Y-5137500D01*
X18583402Y-5203363D02*
X18603402Y-5223363D01*
X18603402Y-5203363D02*
X18583402Y-5223363D01*
X18875000Y-5406500D02*
X18895000Y-5426500D01*
X18895000Y-5406500D02*
X18875000Y-5426500D01*
X18901000Y-5494500D02*
X18921000Y-5514500D01*
X18921000Y-5494500D02*
X18901000Y-5514500D01*
X18935263Y-5545294D02*
X18955263Y-5565294D01*
X18955263Y-5545294D02*
X18935263Y-5565294D01*
X18990000Y-5343500D02*
X19010000Y-5363500D01*
X19010000Y-5343500D02*
X18990000Y-5363500D01*
X19005000Y-6287500D02*
X19025000Y-6307500D01*
X19025000Y-6287500D02*
X19005000Y-6307500D01*
X19009000Y-9053500D02*
X19029000Y-9073500D01*
X19029000Y-9053500D02*
X19009000Y-9073500D01*
X19013000Y-7654500D02*
X19033000Y-7674500D01*
X19033000Y-7654500D02*
X19013000Y-7674500D01*
X19019000Y-10455500D02*
X19039000Y-10475500D01*
X19039000Y-10455500D02*
X19019000Y-10475500D01*
X19050000Y-5632500D02*
X19070000Y-5652500D01*
X19070000Y-5632500D02*
X19050000Y-5652500D01*
X19067000Y-5723500D02*
X19087000Y-5743500D01*
X19087000Y-5723500D02*
X19067000Y-5743500D01*
X19073817Y-5808683D02*
X19093817Y-5828683D01*
X19093817Y-5808683D02*
X19073817Y-5828683D01*
X19093194Y-5874306D02*
X19113194Y-5894306D01*
X19113194Y-5874306D02*
X19093194Y-5894306D01*
X19169000Y-5951500D02*
X19189000Y-5971500D01*
X19189000Y-5951500D02*
X19169000Y-5971500D01*
X19201000Y-6024500D02*
X19221000Y-6044500D01*
X19221000Y-6024500D02*
X19201000Y-6044500D01*
X19551000Y-10415500D02*
X19571000Y-10435500D01*
X19571000Y-10415500D02*
X19551000Y-10435500D01*
X20004000Y-10394500D02*
X20024000Y-10414500D01*
X20024000Y-10394500D02*
X20004000Y-10414500D01*
X20316000Y-10398500D02*
X20336000Y-10418500D01*
X20336000Y-10398500D02*
X20316000Y-10418500D01*
X20757000Y-10185500D02*
X20777000Y-10205500D01*
X20777000Y-10185500D02*
X20757000Y-10205500D01*
X21272000Y-9249500D02*
X21292000Y-9269500D01*
X21292000Y-9249500D02*
X21272000Y-9269500D01*
X7644000Y-6492500D02*
G75*
G03*
X7644000Y-6492500I-15000J0D01*
G01*
X7645000Y-9230500D02*
G75*
G03*
X7645000Y-9230500I-15000J0D01*
G01*
X7647000Y-10604500D02*
G75*
G03*
X7647000Y-10604500I-15000J0D01*
G01*
X7649000Y-7862500D02*
G75*
G03*
X7649000Y-7862500I-15000J0D01*
G01*
X9077000Y-7864500D02*
G75*
G03*
X9077000Y-7864500I-15000J0D01*
G01*
X9078000Y-10601500D02*
G75*
G03*
X9078000Y-10601500I-15000J0D01*
G01*
X9079000Y-6491500D02*
G75*
G03*
X9079000Y-6491500I-15000J0D01*
G01*
X9080000Y-9231500D02*
G75*
G03*
X9080000Y-9231500I-15000J0D01*
G01*
X10132000Y-6079500D02*
G75*
G03*
X10132000Y-6079500I-15000J0D01*
G01*
X10252000Y-7339500D02*
G75*
G03*
X10252000Y-7339500I-15000J0D01*
G01*
X10256000Y-8713500D02*
G75*
G03*
X10256000Y-8713500I-15000J0D01*
G01*
X10257000Y-10098500D02*
G75*
G03*
X10257000Y-10098500I-15000J0D01*
G01*
X10573000Y-12052500D02*
G75*
G03*
X10573000Y-12052500I-15000J0D01*
G01*
X10589000Y-12747500D02*
G75*
G03*
X10589000Y-12747500I-15000J0D01*
G01*
X10734000Y-12049500D02*
G75*
G03*
X10734000Y-12049500I-15000J0D01*
G01*
X10984701Y-12732501D02*
G75*
G03*
X10984701Y-12732501I-15000J0D01*
G01*
X11636000Y-12406500D02*
G75*
G03*
X11636000Y-12406500I-15000J0D01*
G01*
X11636000Y-12461500D02*
G75*
G03*
X11636000Y-12461500I-15000J0D01*
G01*
X11636000Y-12516500D02*
G75*
G03*
X11636000Y-12516500I-15000J0D01*
G01*
X11691000Y-12406500D02*
G75*
G03*
X11691000Y-12406500I-15000J0D01*
G01*
X11691000Y-12461500D02*
G75*
G03*
X11691000Y-12461500I-15000J0D01*
G01*
X11691000Y-12516500D02*
G75*
G03*
X11691000Y-12516500I-15000J0D01*
G01*
X11745000Y-10191500D02*
G75*
G03*
X11745000Y-10191500I-15000J0D01*
G01*
X11746000Y-12406500D02*
G75*
G03*
X11746000Y-12406500I-15000J0D01*
G01*
X11746000Y-12461500D02*
G75*
G03*
X11746000Y-12461500I-15000J0D01*
G01*
X11746000Y-12516500D02*
G75*
G03*
X11746000Y-12516500I-15000J0D01*
G01*
X13338000Y-8820500D02*
G75*
G03*
X13338000Y-8820500I-15000J0D01*
G01*
X13342000Y-10192500D02*
G75*
G03*
X13342000Y-10192500I-15000J0D01*
G01*
X13346000Y-7451500D02*
G75*
G03*
X13346000Y-7451500I-15000J0D01*
G01*
X13347000Y-6076500D02*
G75*
G03*
X13347000Y-6076500I-15000J0D01*
G01*
X14946000Y-7457500D02*
G75*
G03*
X14946000Y-7457500I-15000J0D01*
G01*
X14952000Y-10195500D02*
G75*
G03*
X14952000Y-10195500I-15000J0D01*
G01*
X14956000Y-8813500D02*
G75*
G03*
X14956000Y-8813500I-15000J0D01*
G01*
X14957000Y-6086500D02*
G75*
G03*
X14957000Y-6086500I-15000J0D01*
G01*
X16546000Y-7448500D02*
G75*
G03*
X16546000Y-7448500I-15000J0D01*
G01*
X16547000Y-8824500D02*
G75*
G03*
X16547000Y-8824500I-15000J0D01*
G01*
X16559000Y-6087500D02*
G75*
G03*
X16559000Y-6087500I-15000J0D01*
G01*
X16561000Y-10180500D02*
G75*
G03*
X16561000Y-10180500I-15000J0D01*
G01*
X18139000Y-10203500D02*
G75*
G03*
X18139000Y-10203500I-15000J0D01*
G01*
X18143000Y-7448500D02*
G75*
G03*
X18143000Y-7448500I-15000J0D01*
G01*
X18144000Y-8823500D02*
G75*
G03*
X18144000Y-8823500I-15000J0D01*
G01*
X18152000Y-6074500D02*
G75*
G03*
X18152000Y-6074500I-15000J0D01*
G01*
X21185000Y-5435500D02*
G75*
G03*
X21185000Y-5435500I-15000J0D01*
G01*
X21293000Y-5436500D02*
G75*
G03*
X21293000Y-5436500I-15000J0D01*
G01*
X16253500Y-4923500D02*
X16253500Y-4958500D01*
X16236000Y-4941000D02*
X16271000Y-4941000D01*
X16253500Y-5051000D02*
X16253500Y-5086000D01*
X16236000Y-5068500D02*
X16271000Y-5068500D01*
X16253500Y-5178500D02*
X16253500Y-5213500D01*
X16236000Y-5196000D02*
X16271000Y-5196000D01*
X16381000Y-4923500D02*
X16381000Y-4958500D01*
X16363500Y-4941000D02*
X16398500Y-4941000D01*
X16381000Y-5051000D02*
X16381000Y-5086000D01*
X16363500Y-5068500D02*
X16398500Y-5068500D01*
X16381000Y-5178500D02*
X16381000Y-5213500D01*
X16363500Y-5196000D02*
X16398500Y-5196000D01*
X16508500Y-4923500D02*
X16508500Y-4958500D01*
X16491000Y-4941000D02*
X16526000Y-4941000D01*
X16508500Y-5051000D02*
X16508500Y-5086000D01*
X16491000Y-5068500D02*
X16526000Y-5068500D01*
X16508500Y-5178500D02*
X16508500Y-5213500D01*
X16491000Y-5196000D02*
X16526000Y-5196000D01*
X20044142Y-6560642D02*
X20044142Y-6532358D01*
X20015858Y-6532358D01*
X20015858Y-6560642D01*
X20044142Y-6560642D01*
X20047142Y-6203642D02*
X20047142Y-6175358D01*
X20018858Y-6175358D01*
X20018858Y-6203642D01*
X20047142Y-6203642D01*
X20050142Y-5885642D02*
X20050142Y-5857358D01*
X20021858Y-5857358D01*
X20021858Y-5885642D01*
X20050142Y-5885642D01*
X20402142Y-6560642D02*
X20402142Y-6532358D01*
X20373858Y-6532358D01*
X20373858Y-6560642D01*
X20402142Y-6560642D01*
X20403142Y-6209142D02*
X20403142Y-6180858D01*
X20374858Y-6180858D01*
X20374858Y-6209142D01*
X20403142Y-6209142D01*
X20405142Y-5888642D02*
X20405142Y-5860358D01*
X20376858Y-5860358D01*
X20376858Y-5888642D01*
X20405142Y-5888642D01*
X20788142Y-6206642D02*
X20788142Y-6178358D01*
X20759858Y-6178358D01*
X20759858Y-6206642D01*
X20788142Y-6206642D01*
X20791142Y-5885642D02*
X20791142Y-5857358D01*
X20762858Y-5857358D01*
X20762858Y-5885642D01*
X20791142Y-5885642D01*
X20819142Y-6555642D02*
X20819142Y-6527358D01*
X20790858Y-6527358D01*
X20790858Y-6555642D01*
X20819142Y-6555642D01*
X21020142Y-7449642D02*
X21020142Y-7421358D01*
X20991858Y-7421358D01*
X20991858Y-7449642D01*
X21020142Y-7449642D01*
X21055142Y-5547642D02*
X21055142Y-5519358D01*
X21026858Y-5519358D01*
X21026858Y-5547642D01*
X21055142Y-5547642D01*
X16420000Y-3458500D02*
X16450000Y-3428500D01*
X16420000Y-3398500D01*
X16390000Y-3428500D01*
X16420000Y-3458500D01*
X16440000Y-3458500D02*
X16440000Y-3398500D01*
X16400000Y-3458500D02*
X16400000Y-3398500D01*
X16440000Y-3398500D02*
G75*
G03*
X16400000Y-3398500I-20000J0D01*
G01*
X16400000Y-3458500D02*
G75*
G03*
X16440000Y-3458500I20000J0D01*
G01*
X16420000Y-3876500D02*
X16450000Y-3846500D01*
X16420000Y-3816500D01*
X16390000Y-3846500D01*
X16420000Y-3876500D01*
X16440000Y-3901500D02*
X16440000Y-3791500D01*
X16400000Y-3901500D02*
X16400000Y-3791500D01*
X16440000Y-3791500D02*
G75*
G03*
X16400000Y-3791500I-20000J0D01*
G01*
X16400000Y-3901500D02*
G75*
G03*
X16440000Y-3901500I20000J0D01*
G01*
X17284000Y-3458500D02*
X17314000Y-3428500D01*
X17284000Y-3398500D01*
X17254000Y-3428500D01*
X17284000Y-3458500D01*
X17304000Y-3458500D02*
X17304000Y-3398500D01*
X17264000Y-3458500D02*
X17264000Y-3398500D01*
X17304000Y-3398500D02*
G75*
G03*
X17264000Y-3398500I-20000J0D01*
G01*
X17264000Y-3458500D02*
G75*
G03*
X17304000Y-3458500I20000J0D01*
G01*
X17284000Y-3876500D02*
X17314000Y-3846500D01*
X17284000Y-3816500D01*
X17254000Y-3846500D01*
X17284000Y-3876500D01*
X17304000Y-3901500D02*
X17304000Y-3791500D01*
X17264000Y-3901500D02*
X17264000Y-3791500D01*
X17304000Y-3791500D02*
G75*
G03*
X17264000Y-3791500I-20000J0D01*
G01*
X17264000Y-3901500D02*
G75*
G03*
X17304000Y-3901500I20000J0D01*
G01*
X17342000Y-5361500D02*
X17442000Y-5461500D01*
X17442000Y-5361500D02*
X17342000Y-5461500D01*
X17442000Y-5411500D02*
G75*
G03*
X17442000Y-5411500I-50000J0D01*
G01*
X17596000Y-5361500D02*
X17696000Y-5461500D01*
X17696000Y-5361500D02*
X17596000Y-5461500D01*
X17696000Y-5411500D02*
G75*
G03*
X17696000Y-5411500I-50000J0D01*
G01*
X17850000Y-5361500D02*
X17950000Y-5461500D01*
X17950000Y-5361500D02*
X17850000Y-5461500D01*
X17950000Y-5411500D02*
G75*
G03*
X17950000Y-5411500I-50000J0D01*
G01*
X18544000Y-4237500D02*
X18644000Y-4337500D01*
X18644000Y-4237500D02*
X18544000Y-4337500D01*
X18644000Y-4287500D02*
G75*
G03*
X18644000Y-4287500I-50000J0D01*
G01*
X18554000Y-4187500D02*
X18554000Y-4387500D01*
X18634000Y-4187500D02*
X18634000Y-4387500D01*
X18554000Y-4387500D02*
G75*
G03*
X18634000Y-4387500I40000J0D01*
G01*
X18634000Y-4187500D02*
G75*
G03*
X18554000Y-4187500I-40000J0D01*
G01*
X19014000Y-3937500D02*
X19114000Y-4037500D01*
X19114000Y-3937500D02*
X19014000Y-4037500D01*
X19114000Y-3987500D02*
G75*
G03*
X19114000Y-3987500I-50000J0D01*
G01*
X19164000Y-3947500D02*
X18964000Y-3947500D01*
X19164000Y-4027500D02*
X18964000Y-4027500D01*
X18964000Y-3947500D02*
G75*
G03*
X18964000Y-4027500I0J-40000D01*
G01*
X19164000Y-4027500D02*
G75*
G03*
X19164000Y-3947500I0J40000D01*
G01*
X19014000Y-4537500D02*
X19114000Y-4637500D01*
X19114000Y-4537500D02*
X19014000Y-4637500D01*
X19114000Y-4587500D02*
G75*
G03*
X19114000Y-4587500I-50000J0D01*
G01*
X19164000Y-4547500D02*
X18964000Y-4547500D01*
X19164000Y-4627500D02*
X18964000Y-4627500D01*
X18964000Y-4547500D02*
G75*
G03*
X18964000Y-4627500I0J-40000D01*
G01*
X19164000Y-4627500D02*
G75*
G03*
X19164000Y-4547500I0J40000D01*
G01*
X20459000Y-7547500D02*
X20559000Y-7647500D01*
X20559000Y-7547500D02*
X20459000Y-7647500D01*
X20559000Y-7597500D02*
G75*
G03*
X20559000Y-7597500I-50000J0D01*
G01*
X20459000Y-8997500D02*
X20559000Y-9097500D01*
X20559000Y-8997500D02*
X20459000Y-9097500D01*
X20559000Y-9047500D02*
G75*
G03*
X20559000Y-9047500I-50000J0D01*
G01*
X20709000Y-8997500D02*
X20809000Y-9097500D01*
X20809000Y-8997500D02*
X20709000Y-9097500D01*
X20809000Y-9047500D02*
G75*
G03*
X20809000Y-9047500I-50000J0D01*
G01*
X20959000Y-7547500D02*
X21059000Y-7647500D01*
X21059000Y-7547500D02*
X20959000Y-7647500D01*
X21059000Y-7597500D02*
G75*
G03*
X21059000Y-7597500I-50000J0D01*
G01*
X20959000Y-8997500D02*
X21059000Y-9097500D01*
X21059000Y-8997500D02*
X20959000Y-9097500D01*
X21059000Y-9047500D02*
G75*
G03*
X21059000Y-9047500I-50000J0D01*
G01*
X20089000Y-8187500D02*
X20309000Y-8407500D01*
X20309000Y-8187500D02*
X20089000Y-8407500D01*
X20199000Y-8187500D02*
X20199000Y-8407500D01*
X20089000Y-8297500D02*
X20309000Y-8297500D01*
X21209000Y-8187500D02*
X21429000Y-8407500D01*
X21429000Y-8187500D02*
X21209000Y-8407500D01*
X21319000Y-8187500D02*
X21319000Y-8407500D01*
X21209000Y-8297500D02*
X21429000Y-8297500D01*
D12*
X7492928Y-13895714D02*
X7492928Y-13595714D01*
X7564357Y-13595714D01*
X7607214Y-13610000D01*
X7635786Y-13638571D01*
X7650071Y-13667143D01*
X7664357Y-13724286D01*
X7664357Y-13767143D01*
X7650071Y-13824286D01*
X7635786Y-13852857D01*
X7607214Y-13881429D01*
X7564357Y-13895714D01*
X7492928Y-13895714D01*
X7792928Y-13895714D02*
X7792928Y-13695714D01*
X7792928Y-13752857D02*
X7807214Y-13724286D01*
X7821500Y-13710000D01*
X7850071Y-13695714D01*
X7878643Y-13695714D01*
X7978643Y-13895714D02*
X7978643Y-13695714D01*
X7978643Y-13595714D02*
X7964357Y-13610000D01*
X7978643Y-13624286D01*
X7992928Y-13610000D01*
X7978643Y-13595714D01*
X7978643Y-13624286D01*
X8164357Y-13895714D02*
X8135786Y-13881429D01*
X8121500Y-13852857D01*
X8121500Y-13595714D01*
X8321500Y-13895714D02*
X8292928Y-13881429D01*
X8278643Y-13852857D01*
X8278643Y-13595714D01*
X8664357Y-13895714D02*
X8664357Y-13595714D01*
X8764357Y-13810000D01*
X8864357Y-13595714D01*
X8864357Y-13895714D01*
X9135786Y-13895714D02*
X9135786Y-13738571D01*
X9121500Y-13710000D01*
X9092928Y-13695714D01*
X9035786Y-13695714D01*
X9007214Y-13710000D01*
X9135786Y-13881429D02*
X9107214Y-13895714D01*
X9035786Y-13895714D01*
X9007214Y-13881429D01*
X8992928Y-13852857D01*
X8992928Y-13824286D01*
X9007214Y-13795714D01*
X9035786Y-13781429D01*
X9107214Y-13781429D01*
X9135786Y-13767143D01*
X9278643Y-13695714D02*
X9278643Y-13995714D01*
X9278643Y-13710000D02*
X9307214Y-13695714D01*
X9364357Y-13695714D01*
X9392928Y-13710000D01*
X9407214Y-13724286D01*
X9421500Y-13752857D01*
X9421500Y-13838571D01*
X9407214Y-13867143D01*
X9392928Y-13881429D01*
X9364357Y-13895714D01*
X9307214Y-13895714D01*
X9278643Y-13881429D01*
X9550071Y-13867143D02*
X9564357Y-13881429D01*
X9550071Y-13895714D01*
X9535786Y-13881429D01*
X9550071Y-13867143D01*
X9550071Y-13895714D01*
X9550071Y-13710000D02*
X9564357Y-13724286D01*
X9550071Y-13738571D01*
X9535786Y-13724286D01*
X9550071Y-13710000D01*
X9550071Y-13738571D01*
X7186500Y-14380000D02*
X7206500Y-14400000D01*
X7206500Y-14380000D02*
X7186500Y-14400000D01*
X7550071Y-14225714D02*
X7578643Y-14225714D01*
X7607214Y-14240000D01*
X7621500Y-14254286D01*
X7635786Y-14282857D01*
X7650071Y-14340000D01*
X7650071Y-14411429D01*
X7635786Y-14468571D01*
X7621500Y-14497143D01*
X7607214Y-14511429D01*
X7578643Y-14525714D01*
X7550071Y-14525714D01*
X7521500Y-14511429D01*
X7507214Y-14497143D01*
X7492928Y-14468571D01*
X7478643Y-14411429D01*
X7478643Y-14340000D01*
X7492928Y-14282857D01*
X7507214Y-14254286D01*
X7521500Y-14240000D01*
X7550071Y-14225714D01*
X7778643Y-14497143D02*
X7792928Y-14511429D01*
X7778643Y-14525714D01*
X7764357Y-14511429D01*
X7778643Y-14497143D01*
X7778643Y-14525714D01*
X7907214Y-14254286D02*
X7921500Y-14240000D01*
X7950071Y-14225714D01*
X8021500Y-14225714D01*
X8050071Y-14240000D01*
X8064357Y-14254286D01*
X8078643Y-14282857D01*
X8078643Y-14311429D01*
X8064357Y-14354286D01*
X7892928Y-14525714D01*
X8078643Y-14525714D01*
X8264357Y-14225714D02*
X8292928Y-14225714D01*
X8321500Y-14240000D01*
X8335786Y-14254286D01*
X8350071Y-14282857D01*
X8364357Y-14340000D01*
X8364357Y-14411429D01*
X8350071Y-14468571D01*
X8335786Y-14497143D01*
X8321500Y-14511429D01*
X8292928Y-14525714D01*
X8264357Y-14525714D01*
X8235786Y-14511429D01*
X8221500Y-14497143D01*
X8207214Y-14468571D01*
X8192928Y-14411429D01*
X8192928Y-14340000D01*
X8207214Y-14282857D01*
X8221500Y-14254286D01*
X8235786Y-14240000D01*
X8264357Y-14225714D01*
X8492928Y-14525714D02*
X8492928Y-14325714D01*
X8492928Y-14354286D02*
X8507214Y-14340000D01*
X8535786Y-14325714D01*
X8578643Y-14325714D01*
X8607214Y-14340000D01*
X8621500Y-14368571D01*
X8621500Y-14525714D01*
X8621500Y-14368571D02*
X8635786Y-14340000D01*
X8664357Y-14325714D01*
X8707214Y-14325714D01*
X8735786Y-14340000D01*
X8750071Y-14368571D01*
X8750071Y-14525714D01*
X8892928Y-14525714D02*
X8892928Y-14325714D01*
X8892928Y-14354286D02*
X8907214Y-14340000D01*
X8935786Y-14325714D01*
X8978643Y-14325714D01*
X9007214Y-14340000D01*
X9021500Y-14368571D01*
X9021500Y-14525714D01*
X9021500Y-14368571D02*
X9035786Y-14340000D01*
X9064357Y-14325714D01*
X9107214Y-14325714D01*
X9135786Y-14340000D01*
X9150071Y-14368571D01*
X9150071Y-14525714D01*
X9735786Y-14211429D02*
X9478643Y-14597143D01*
X10121500Y-14225714D02*
X10150071Y-14225714D01*
X10178643Y-14240000D01*
X10192928Y-14254286D01*
X10207214Y-14282857D01*
X10221500Y-14340000D01*
X10221500Y-14411429D01*
X10207214Y-14468571D01*
X10192928Y-14497143D01*
X10178643Y-14511429D01*
X10150071Y-14525714D01*
X10121500Y-14525714D01*
X10092928Y-14511429D01*
X10078643Y-14497143D01*
X10064357Y-14468571D01*
X10050071Y-14411429D01*
X10050071Y-14340000D01*
X10064357Y-14282857D01*
X10078643Y-14254286D01*
X10092928Y-14240000D01*
X10121500Y-14225714D01*
X10350071Y-14497143D02*
X10364357Y-14511429D01*
X10350071Y-14525714D01*
X10335786Y-14511429D01*
X10350071Y-14497143D01*
X10350071Y-14525714D01*
X10550071Y-14225714D02*
X10578643Y-14225714D01*
X10607214Y-14240000D01*
X10621500Y-14254286D01*
X10635786Y-14282857D01*
X10650071Y-14340000D01*
X10650071Y-14411429D01*
X10635786Y-14468571D01*
X10621500Y-14497143D01*
X10607214Y-14511429D01*
X10578643Y-14525714D01*
X10550071Y-14525714D01*
X10521500Y-14511429D01*
X10507214Y-14497143D01*
X10492928Y-14468571D01*
X10478643Y-14411429D01*
X10478643Y-14340000D01*
X10492928Y-14282857D01*
X10507214Y-14254286D01*
X10521500Y-14240000D01*
X10550071Y-14225714D01*
X10835786Y-14225714D02*
X10864357Y-14225714D01*
X10892928Y-14240000D01*
X10907214Y-14254286D01*
X10921500Y-14282857D01*
X10935786Y-14340000D01*
X10935786Y-14411429D01*
X10921500Y-14468571D01*
X10907214Y-14497143D01*
X10892928Y-14511429D01*
X10864357Y-14525714D01*
X10835786Y-14525714D01*
X10807214Y-14511429D01*
X10792928Y-14497143D01*
X10778643Y-14468571D01*
X10764357Y-14411429D01*
X10764357Y-14340000D01*
X10778643Y-14282857D01*
X10792928Y-14254286D01*
X10807214Y-14240000D01*
X10835786Y-14225714D01*
X11107214Y-14354286D02*
X11078643Y-14340000D01*
X11064357Y-14325714D01*
X11050071Y-14297143D01*
X11050071Y-14282857D01*
X11064357Y-14254286D01*
X11078643Y-14240000D01*
X11107214Y-14225714D01*
X11164357Y-14225714D01*
X11192928Y-14240000D01*
X11207214Y-14254286D01*
X11221500Y-14282857D01*
X11221500Y-14297143D01*
X11207214Y-14325714D01*
X11192928Y-14340000D01*
X11164357Y-14354286D01*
X11107214Y-14354286D01*
X11078643Y-14368571D01*
X11064357Y-14382857D01*
X11050071Y-14411429D01*
X11050071Y-14468571D01*
X11064357Y-14497143D01*
X11078643Y-14511429D01*
X11107214Y-14525714D01*
X11164357Y-14525714D01*
X11192928Y-14511429D01*
X11207214Y-14497143D01*
X11221500Y-14468571D01*
X11221500Y-14411429D01*
X11207214Y-14382857D01*
X11192928Y-14368571D01*
X11164357Y-14354286D01*
X11335786Y-14225714D02*
X11335786Y-14282857D01*
X11450071Y-14225714D02*
X11450071Y-14282857D01*
X11892928Y-14640000D02*
X11878643Y-14625714D01*
X11850071Y-14582857D01*
X11835786Y-14554286D01*
X11821500Y-14511429D01*
X11807214Y-14440000D01*
X11807214Y-14382857D01*
X11821500Y-14311429D01*
X11835786Y-14268571D01*
X11850071Y-14240000D01*
X11878643Y-14197143D01*
X11892928Y-14182857D01*
X12164357Y-14525714D02*
X11992928Y-14525714D01*
X12078643Y-14525714D02*
X12078643Y-14225714D01*
X12050071Y-14268571D01*
X12021500Y-14297143D01*
X11992928Y-14311429D01*
X12335786Y-14354286D02*
X12307214Y-14340000D01*
X12292928Y-14325714D01*
X12278643Y-14297143D01*
X12278643Y-14282857D01*
X12292928Y-14254286D01*
X12307214Y-14240000D01*
X12335786Y-14225714D01*
X12392928Y-14225714D01*
X12421500Y-14240000D01*
X12435786Y-14254286D01*
X12450071Y-14282857D01*
X12450071Y-14297143D01*
X12435786Y-14325714D01*
X12421500Y-14340000D01*
X12392928Y-14354286D01*
X12335786Y-14354286D01*
X12307214Y-14368571D01*
X12292928Y-14382857D01*
X12278643Y-14411429D01*
X12278643Y-14468571D01*
X12292928Y-14497143D01*
X12307214Y-14511429D01*
X12335786Y-14525714D01*
X12392928Y-14525714D01*
X12421500Y-14511429D01*
X12435786Y-14497143D01*
X12450071Y-14468571D01*
X12450071Y-14411429D01*
X12435786Y-14382857D01*
X12421500Y-14368571D01*
X12392928Y-14354286D01*
X12564357Y-14254286D02*
X12578643Y-14240000D01*
X12607214Y-14225714D01*
X12678643Y-14225714D01*
X12707214Y-14240000D01*
X12721500Y-14254286D01*
X12735786Y-14282857D01*
X12735786Y-14311429D01*
X12721500Y-14354286D01*
X12550071Y-14525714D01*
X12735786Y-14525714D01*
X13092928Y-14525714D02*
X13092928Y-14225714D01*
X13221500Y-14525714D02*
X13221500Y-14368571D01*
X13207214Y-14340000D01*
X13178643Y-14325714D01*
X13135786Y-14325714D01*
X13107214Y-14340000D01*
X13092928Y-14354286D01*
X13407214Y-14525714D02*
X13378643Y-14511429D01*
X13364357Y-14497143D01*
X13350071Y-14468571D01*
X13350071Y-14382857D01*
X13364357Y-14354286D01*
X13378643Y-14340000D01*
X13407214Y-14325714D01*
X13450071Y-14325714D01*
X13478643Y-14340000D01*
X13492928Y-14354286D01*
X13507214Y-14382857D01*
X13507214Y-14468571D01*
X13492928Y-14497143D01*
X13478643Y-14511429D01*
X13450071Y-14525714D01*
X13407214Y-14525714D01*
X13678643Y-14525714D02*
X13650071Y-14511429D01*
X13635786Y-14482857D01*
X13635786Y-14225714D01*
X13907214Y-14511429D02*
X13878643Y-14525714D01*
X13821500Y-14525714D01*
X13792928Y-14511429D01*
X13778643Y-14482857D01*
X13778643Y-14368571D01*
X13792928Y-14340000D01*
X13821500Y-14325714D01*
X13878643Y-14325714D01*
X13907214Y-14340000D01*
X13921500Y-14368571D01*
X13921500Y-14397143D01*
X13778643Y-14425714D01*
X14035786Y-14511429D02*
X14064357Y-14525714D01*
X14121500Y-14525714D01*
X14150071Y-14511429D01*
X14164357Y-14482857D01*
X14164357Y-14468571D01*
X14150071Y-14440000D01*
X14121500Y-14425714D01*
X14078643Y-14425714D01*
X14050071Y-14411429D01*
X14035786Y-14382857D01*
X14035786Y-14368571D01*
X14050071Y-14340000D01*
X14078643Y-14325714D01*
X14121500Y-14325714D01*
X14150071Y-14340000D01*
X14264357Y-14640000D02*
X14278643Y-14625714D01*
X14307214Y-14582857D01*
X14321500Y-14554286D01*
X14335786Y-14511429D01*
X14350071Y-14440000D01*
X14350071Y-14382857D01*
X14335786Y-14311429D01*
X14321500Y-14268571D01*
X14307214Y-14240000D01*
X14278643Y-14197143D01*
X14264357Y-14182857D01*
X7206500Y-14786000D02*
G75*
G03*
X7206500Y-14786000I-15000J0D01*
G01*
X7550071Y-14621714D02*
X7578643Y-14621714D01*
X7607214Y-14636000D01*
X7621500Y-14650286D01*
X7635786Y-14678857D01*
X7650071Y-14736000D01*
X7650071Y-14807429D01*
X7635786Y-14864571D01*
X7621500Y-14893143D01*
X7607214Y-14907429D01*
X7578643Y-14921714D01*
X7550071Y-14921714D01*
X7521500Y-14907429D01*
X7507214Y-14893143D01*
X7492928Y-14864571D01*
X7478643Y-14807429D01*
X7478643Y-14736000D01*
X7492928Y-14678857D01*
X7507214Y-14650286D01*
X7521500Y-14636000D01*
X7550071Y-14621714D01*
X7778643Y-14893143D02*
X7792928Y-14907429D01*
X7778643Y-14921714D01*
X7764357Y-14907429D01*
X7778643Y-14893143D01*
X7778643Y-14921714D01*
X7892928Y-14621714D02*
X8078643Y-14621714D01*
X7978643Y-14736000D01*
X8021500Y-14736000D01*
X8050071Y-14750286D01*
X8064357Y-14764571D01*
X8078643Y-14793143D01*
X8078643Y-14864571D01*
X8064357Y-14893143D01*
X8050071Y-14907429D01*
X8021500Y-14921714D01*
X7935786Y-14921714D01*
X7907214Y-14907429D01*
X7892928Y-14893143D01*
X8264357Y-14621714D02*
X8292928Y-14621714D01*
X8321500Y-14636000D01*
X8335786Y-14650286D01*
X8350071Y-14678857D01*
X8364357Y-14736000D01*
X8364357Y-14807429D01*
X8350071Y-14864571D01*
X8335786Y-14893143D01*
X8321500Y-14907429D01*
X8292928Y-14921714D01*
X8264357Y-14921714D01*
X8235786Y-14907429D01*
X8221500Y-14893143D01*
X8207214Y-14864571D01*
X8192928Y-14807429D01*
X8192928Y-14736000D01*
X8207214Y-14678857D01*
X8221500Y-14650286D01*
X8235786Y-14636000D01*
X8264357Y-14621714D01*
X8492928Y-14921714D02*
X8492928Y-14721714D01*
X8492928Y-14750286D02*
X8507214Y-14736000D01*
X8535786Y-14721714D01*
X8578643Y-14721714D01*
X8607214Y-14736000D01*
X8621500Y-14764571D01*
X8621500Y-14921714D01*
X8621500Y-14764571D02*
X8635786Y-14736000D01*
X8664357Y-14721714D01*
X8707214Y-14721714D01*
X8735786Y-14736000D01*
X8750071Y-14764571D01*
X8750071Y-14921714D01*
X8892928Y-14921714D02*
X8892928Y-14721714D01*
X8892928Y-14750286D02*
X8907214Y-14736000D01*
X8935786Y-14721714D01*
X8978643Y-14721714D01*
X9007214Y-14736000D01*
X9021500Y-14764571D01*
X9021500Y-14921714D01*
X9021500Y-14764571D02*
X9035786Y-14736000D01*
X9064357Y-14721714D01*
X9107214Y-14721714D01*
X9135786Y-14736000D01*
X9150071Y-14764571D01*
X9150071Y-14921714D01*
X9735786Y-14607429D02*
X9478643Y-14993143D01*
X10121500Y-14621714D02*
X10150071Y-14621714D01*
X10178643Y-14636000D01*
X10192928Y-14650286D01*
X10207214Y-14678857D01*
X10221500Y-14736000D01*
X10221500Y-14807429D01*
X10207214Y-14864571D01*
X10192928Y-14893143D01*
X10178643Y-14907429D01*
X10150071Y-14921714D01*
X10121500Y-14921714D01*
X10092928Y-14907429D01*
X10078643Y-14893143D01*
X10064357Y-14864571D01*
X10050071Y-14807429D01*
X10050071Y-14736000D01*
X10064357Y-14678857D01*
X10078643Y-14650286D01*
X10092928Y-14636000D01*
X10121500Y-14621714D01*
X10350071Y-14893143D02*
X10364357Y-14907429D01*
X10350071Y-14921714D01*
X10335786Y-14907429D01*
X10350071Y-14893143D01*
X10350071Y-14921714D01*
X10550071Y-14621714D02*
X10578643Y-14621714D01*
X10607214Y-14636000D01*
X10621500Y-14650286D01*
X10635786Y-14678857D01*
X10650071Y-14736000D01*
X10650071Y-14807429D01*
X10635786Y-14864571D01*
X10621500Y-14893143D01*
X10607214Y-14907429D01*
X10578643Y-14921714D01*
X10550071Y-14921714D01*
X10521500Y-14907429D01*
X10507214Y-14893143D01*
X10492928Y-14864571D01*
X10478643Y-14807429D01*
X10478643Y-14736000D01*
X10492928Y-14678857D01*
X10507214Y-14650286D01*
X10521500Y-14636000D01*
X10550071Y-14621714D01*
X10935786Y-14921714D02*
X10764357Y-14921714D01*
X10850071Y-14921714D02*
X10850071Y-14621714D01*
X10821500Y-14664571D01*
X10792928Y-14693143D01*
X10764357Y-14707429D01*
X11050071Y-14650286D02*
X11064357Y-14636000D01*
X11092928Y-14621714D01*
X11164357Y-14621714D01*
X11192928Y-14636000D01*
X11207214Y-14650286D01*
X11221500Y-14678857D01*
X11221500Y-14707429D01*
X11207214Y-14750286D01*
X11035786Y-14921714D01*
X11221500Y-14921714D01*
X11335786Y-14621714D02*
X11335786Y-14678857D01*
X11450071Y-14621714D02*
X11450071Y-14678857D01*
X11892928Y-15036000D02*
X11878643Y-15021714D01*
X11850071Y-14978857D01*
X11835786Y-14950286D01*
X11821500Y-14907429D01*
X11807214Y-14836000D01*
X11807214Y-14778857D01*
X11821500Y-14707429D01*
X11835786Y-14664571D01*
X11850071Y-14636000D01*
X11878643Y-14593143D01*
X11892928Y-14578857D01*
X12135786Y-14721714D02*
X12135786Y-14921714D01*
X12064357Y-14607429D02*
X11992928Y-14821714D01*
X12178643Y-14821714D01*
X12421500Y-14721714D02*
X12421500Y-14921714D01*
X12350071Y-14607429D02*
X12278643Y-14821714D01*
X12464357Y-14821714D01*
X12807214Y-14921714D02*
X12807214Y-14621714D01*
X12935786Y-14921714D02*
X12935786Y-14764571D01*
X12921500Y-14736000D01*
X12892928Y-14721714D01*
X12850071Y-14721714D01*
X12821500Y-14736000D01*
X12807214Y-14750286D01*
X13121500Y-14921714D02*
X13092928Y-14907429D01*
X13078643Y-14893143D01*
X13064357Y-14864571D01*
X13064357Y-14778857D01*
X13078643Y-14750286D01*
X13092928Y-14736000D01*
X13121500Y-14721714D01*
X13164357Y-14721714D01*
X13192928Y-14736000D01*
X13207214Y-14750286D01*
X13221500Y-14778857D01*
X13221500Y-14864571D01*
X13207214Y-14893143D01*
X13192928Y-14907429D01*
X13164357Y-14921714D01*
X13121500Y-14921714D01*
X13392928Y-14921714D02*
X13364357Y-14907429D01*
X13350071Y-14878857D01*
X13350071Y-14621714D01*
X13621500Y-14907429D02*
X13592928Y-14921714D01*
X13535786Y-14921714D01*
X13507214Y-14907429D01*
X13492928Y-14878857D01*
X13492928Y-14764571D01*
X13507214Y-14736000D01*
X13535786Y-14721714D01*
X13592928Y-14721714D01*
X13621500Y-14736000D01*
X13635786Y-14764571D01*
X13635786Y-14793143D01*
X13492928Y-14821714D01*
X13750071Y-14907429D02*
X13778643Y-14921714D01*
X13835786Y-14921714D01*
X13864357Y-14907429D01*
X13878643Y-14878857D01*
X13878643Y-14864571D01*
X13864357Y-14836000D01*
X13835786Y-14821714D01*
X13792928Y-14821714D01*
X13764357Y-14807429D01*
X13750071Y-14778857D01*
X13750071Y-14764571D01*
X13764357Y-14736000D01*
X13792928Y-14721714D01*
X13835786Y-14721714D01*
X13864357Y-14736000D01*
X13978643Y-15036000D02*
X13992928Y-15021714D01*
X14021500Y-14978857D01*
X14035786Y-14950286D01*
X14050071Y-14907429D01*
X14064357Y-14836000D01*
X14064357Y-14778857D01*
X14050071Y-14707429D01*
X14035786Y-14664571D01*
X14021500Y-14636000D01*
X13992928Y-14593143D01*
X13978643Y-14578857D01*
X7189000Y-15164500D02*
X7189000Y-15199500D01*
X7171500Y-15182000D02*
X7206500Y-15182000D01*
X7550071Y-15017714D02*
X7578643Y-15017714D01*
X7607214Y-15032000D01*
X7621500Y-15046286D01*
X7635786Y-15074857D01*
X7650071Y-15132000D01*
X7650071Y-15203429D01*
X7635786Y-15260571D01*
X7621500Y-15289143D01*
X7607214Y-15303429D01*
X7578643Y-15317714D01*
X7550071Y-15317714D01*
X7521500Y-15303429D01*
X7507214Y-15289143D01*
X7492928Y-15260571D01*
X7478643Y-15203429D01*
X7478643Y-15132000D01*
X7492928Y-15074857D01*
X7507214Y-15046286D01*
X7521500Y-15032000D01*
X7550071Y-15017714D01*
X7778643Y-15289143D02*
X7792928Y-15303429D01*
X7778643Y-15317714D01*
X7764357Y-15303429D01*
X7778643Y-15289143D01*
X7778643Y-15317714D01*
X7892928Y-15017714D02*
X8078643Y-15017714D01*
X7978643Y-15132000D01*
X8021500Y-15132000D01*
X8050071Y-15146286D01*
X8064357Y-15160571D01*
X8078643Y-15189143D01*
X8078643Y-15260571D01*
X8064357Y-15289143D01*
X8050071Y-15303429D01*
X8021500Y-15317714D01*
X7935786Y-15317714D01*
X7907214Y-15303429D01*
X7892928Y-15289143D01*
X8350071Y-15017714D02*
X8207214Y-15017714D01*
X8192928Y-15160571D01*
X8207214Y-15146286D01*
X8235786Y-15132000D01*
X8307214Y-15132000D01*
X8335786Y-15146286D01*
X8350071Y-15160571D01*
X8364357Y-15189143D01*
X8364357Y-15260571D01*
X8350071Y-15289143D01*
X8335786Y-15303429D01*
X8307214Y-15317714D01*
X8235786Y-15317714D01*
X8207214Y-15303429D01*
X8192928Y-15289143D01*
X8492928Y-15317714D02*
X8492928Y-15117714D01*
X8492928Y-15146286D02*
X8507214Y-15132000D01*
X8535786Y-15117714D01*
X8578643Y-15117714D01*
X8607214Y-15132000D01*
X8621500Y-15160571D01*
X8621500Y-15317714D01*
X8621500Y-15160571D02*
X8635786Y-15132000D01*
X8664357Y-15117714D01*
X8707214Y-15117714D01*
X8735786Y-15132000D01*
X8750071Y-15160571D01*
X8750071Y-15317714D01*
X8892928Y-15317714D02*
X8892928Y-15117714D01*
X8892928Y-15146286D02*
X8907214Y-15132000D01*
X8935786Y-15117714D01*
X8978643Y-15117714D01*
X9007214Y-15132000D01*
X9021500Y-15160571D01*
X9021500Y-15317714D01*
X9021500Y-15160571D02*
X9035786Y-15132000D01*
X9064357Y-15117714D01*
X9107214Y-15117714D01*
X9135786Y-15132000D01*
X9150071Y-15160571D01*
X9150071Y-15317714D01*
X9735786Y-15003429D02*
X9478643Y-15389143D01*
X10121500Y-15017714D02*
X10150071Y-15017714D01*
X10178643Y-15032000D01*
X10192928Y-15046286D01*
X10207214Y-15074857D01*
X10221500Y-15132000D01*
X10221500Y-15203429D01*
X10207214Y-15260571D01*
X10192928Y-15289143D01*
X10178643Y-15303429D01*
X10150071Y-15317714D01*
X10121500Y-15317714D01*
X10092928Y-15303429D01*
X10078643Y-15289143D01*
X10064357Y-15260571D01*
X10050071Y-15203429D01*
X10050071Y-15132000D01*
X10064357Y-15074857D01*
X10078643Y-15046286D01*
X10092928Y-15032000D01*
X10121500Y-15017714D01*
X10350071Y-15289143D02*
X10364357Y-15303429D01*
X10350071Y-15317714D01*
X10335786Y-15303429D01*
X10350071Y-15289143D01*
X10350071Y-15317714D01*
X10550071Y-15017714D02*
X10578643Y-15017714D01*
X10607214Y-15032000D01*
X10621500Y-15046286D01*
X10635786Y-15074857D01*
X10650071Y-15132000D01*
X10650071Y-15203429D01*
X10635786Y-15260571D01*
X10621500Y-15289143D01*
X10607214Y-15303429D01*
X10578643Y-15317714D01*
X10550071Y-15317714D01*
X10521500Y-15303429D01*
X10507214Y-15289143D01*
X10492928Y-15260571D01*
X10478643Y-15203429D01*
X10478643Y-15132000D01*
X10492928Y-15074857D01*
X10507214Y-15046286D01*
X10521500Y-15032000D01*
X10550071Y-15017714D01*
X10935786Y-15317714D02*
X10764357Y-15317714D01*
X10850071Y-15317714D02*
X10850071Y-15017714D01*
X10821500Y-15060571D01*
X10792928Y-15089143D01*
X10764357Y-15103429D01*
X11192928Y-15117714D02*
X11192928Y-15317714D01*
X11121500Y-15003429D02*
X11050071Y-15217714D01*
X11235786Y-15217714D01*
X11335786Y-15017714D02*
X11335786Y-15074857D01*
X11450071Y-15017714D02*
X11450071Y-15074857D01*
X11892928Y-15432000D02*
X11878643Y-15417714D01*
X11850071Y-15374857D01*
X11835786Y-15346286D01*
X11821500Y-15303429D01*
X11807214Y-15232000D01*
X11807214Y-15174857D01*
X11821500Y-15103429D01*
X11835786Y-15060571D01*
X11850071Y-15032000D01*
X11878643Y-14989143D01*
X11892928Y-14974857D01*
X12021500Y-15317714D02*
X12078643Y-15317714D01*
X12107214Y-15303429D01*
X12121500Y-15289143D01*
X12150071Y-15246286D01*
X12164357Y-15189143D01*
X12164357Y-15074857D01*
X12150071Y-15046286D01*
X12135786Y-15032000D01*
X12107214Y-15017714D01*
X12050071Y-15017714D01*
X12021500Y-15032000D01*
X12007214Y-15046286D01*
X11992928Y-15074857D01*
X11992928Y-15146286D01*
X12007214Y-15174857D01*
X12021500Y-15189143D01*
X12050071Y-15203429D01*
X12107214Y-15203429D01*
X12135786Y-15189143D01*
X12150071Y-15174857D01*
X12164357Y-15146286D01*
X12521500Y-15317714D02*
X12521500Y-15017714D01*
X12650071Y-15317714D02*
X12650071Y-15160571D01*
X12635786Y-15132000D01*
X12607214Y-15117714D01*
X12564357Y-15117714D01*
X12535786Y-15132000D01*
X12521500Y-15146286D01*
X12835786Y-15317714D02*
X12807214Y-15303429D01*
X12792928Y-15289143D01*
X12778643Y-15260571D01*
X12778643Y-15174857D01*
X12792928Y-15146286D01*
X12807214Y-15132000D01*
X12835786Y-15117714D01*
X12878643Y-15117714D01*
X12907214Y-15132000D01*
X12921500Y-15146286D01*
X12935786Y-15174857D01*
X12935786Y-15260571D01*
X12921500Y-15289143D01*
X12907214Y-15303429D01*
X12878643Y-15317714D01*
X12835786Y-15317714D01*
X13107214Y-15317714D02*
X13078643Y-15303429D01*
X13064357Y-15274857D01*
X13064357Y-15017714D01*
X13335786Y-15303429D02*
X13307214Y-15317714D01*
X13250071Y-15317714D01*
X13221500Y-15303429D01*
X13207214Y-15274857D01*
X13207214Y-15160571D01*
X13221500Y-15132000D01*
X13250071Y-15117714D01*
X13307214Y-15117714D01*
X13335786Y-15132000D01*
X13350071Y-15160571D01*
X13350071Y-15189143D01*
X13207214Y-15217714D01*
X13464357Y-15303429D02*
X13492928Y-15317714D01*
X13550071Y-15317714D01*
X13578643Y-15303429D01*
X13592928Y-15274857D01*
X13592928Y-15260571D01*
X13578643Y-15232000D01*
X13550071Y-15217714D01*
X13507214Y-15217714D01*
X13478643Y-15203429D01*
X13464357Y-15174857D01*
X13464357Y-15160571D01*
X13478643Y-15132000D01*
X13507214Y-15117714D01*
X13550071Y-15117714D01*
X13578643Y-15132000D01*
X13692928Y-15432000D02*
X13707214Y-15417714D01*
X13735786Y-15374857D01*
X13750071Y-15346286D01*
X13764357Y-15303429D01*
X13778643Y-15232000D01*
X13778643Y-15174857D01*
X13764357Y-15103429D01*
X13750071Y-15060571D01*
X13735786Y-15032000D01*
X13707214Y-14989143D01*
X13692928Y-14974857D01*
X7200642Y-15592142D02*
X7200642Y-15563858D01*
X7172358Y-15563858D01*
X7172358Y-15592142D01*
X7200642Y-15592142D01*
X7550071Y-15413714D02*
X7578643Y-15413714D01*
X7607214Y-15428000D01*
X7621500Y-15442286D01*
X7635786Y-15470857D01*
X7650071Y-15528000D01*
X7650071Y-15599429D01*
X7635786Y-15656571D01*
X7621500Y-15685143D01*
X7607214Y-15699429D01*
X7578643Y-15713714D01*
X7550071Y-15713714D01*
X7521500Y-15699429D01*
X7507214Y-15685143D01*
X7492928Y-15656571D01*
X7478643Y-15599429D01*
X7478643Y-15528000D01*
X7492928Y-15470857D01*
X7507214Y-15442286D01*
X7521500Y-15428000D01*
X7550071Y-15413714D01*
X7778643Y-15685143D02*
X7792928Y-15699429D01*
X7778643Y-15713714D01*
X7764357Y-15699429D01*
X7778643Y-15685143D01*
X7778643Y-15713714D01*
X8050071Y-15513714D02*
X8050071Y-15713714D01*
X7978643Y-15399429D02*
X7907214Y-15613714D01*
X8092928Y-15613714D01*
X8264357Y-15413714D02*
X8292928Y-15413714D01*
X8321500Y-15428000D01*
X8335786Y-15442286D01*
X8350071Y-15470857D01*
X8364357Y-15528000D01*
X8364357Y-15599429D01*
X8350071Y-15656571D01*
X8335786Y-15685143D01*
X8321500Y-15699429D01*
X8292928Y-15713714D01*
X8264357Y-15713714D01*
X8235786Y-15699429D01*
X8221500Y-15685143D01*
X8207214Y-15656571D01*
X8192928Y-15599429D01*
X8192928Y-15528000D01*
X8207214Y-15470857D01*
X8221500Y-15442286D01*
X8235786Y-15428000D01*
X8264357Y-15413714D01*
X8492928Y-15713714D02*
X8492928Y-15513714D01*
X8492928Y-15542286D02*
X8507214Y-15528000D01*
X8535786Y-15513714D01*
X8578643Y-15513714D01*
X8607214Y-15528000D01*
X8621500Y-15556571D01*
X8621500Y-15713714D01*
X8621500Y-15556571D02*
X8635786Y-15528000D01*
X8664357Y-15513714D01*
X8707214Y-15513714D01*
X8735786Y-15528000D01*
X8750071Y-15556571D01*
X8750071Y-15713714D01*
X8892928Y-15713714D02*
X8892928Y-15513714D01*
X8892928Y-15542286D02*
X8907214Y-15528000D01*
X8935786Y-15513714D01*
X8978643Y-15513714D01*
X9007214Y-15528000D01*
X9021500Y-15556571D01*
X9021500Y-15713714D01*
X9021500Y-15556571D02*
X9035786Y-15528000D01*
X9064357Y-15513714D01*
X9107214Y-15513714D01*
X9135786Y-15528000D01*
X9150071Y-15556571D01*
X9150071Y-15713714D01*
X9735786Y-15399429D02*
X9478643Y-15785143D01*
X10121500Y-15413714D02*
X10150071Y-15413714D01*
X10178643Y-15428000D01*
X10192928Y-15442286D01*
X10207214Y-15470857D01*
X10221500Y-15528000D01*
X10221500Y-15599429D01*
X10207214Y-15656571D01*
X10192928Y-15685143D01*
X10178643Y-15699429D01*
X10150071Y-15713714D01*
X10121500Y-15713714D01*
X10092928Y-15699429D01*
X10078643Y-15685143D01*
X10064357Y-15656571D01*
X10050071Y-15599429D01*
X10050071Y-15528000D01*
X10064357Y-15470857D01*
X10078643Y-15442286D01*
X10092928Y-15428000D01*
X10121500Y-15413714D01*
X10350071Y-15685143D02*
X10364357Y-15699429D01*
X10350071Y-15713714D01*
X10335786Y-15699429D01*
X10350071Y-15685143D01*
X10350071Y-15713714D01*
X10550071Y-15413714D02*
X10578643Y-15413714D01*
X10607214Y-15428000D01*
X10621500Y-15442286D01*
X10635786Y-15470857D01*
X10650071Y-15528000D01*
X10650071Y-15599429D01*
X10635786Y-15656571D01*
X10621500Y-15685143D01*
X10607214Y-15699429D01*
X10578643Y-15713714D01*
X10550071Y-15713714D01*
X10521500Y-15699429D01*
X10507214Y-15685143D01*
X10492928Y-15656571D01*
X10478643Y-15599429D01*
X10478643Y-15528000D01*
X10492928Y-15470857D01*
X10507214Y-15442286D01*
X10521500Y-15428000D01*
X10550071Y-15413714D01*
X10935786Y-15713714D02*
X10764357Y-15713714D01*
X10850071Y-15713714D02*
X10850071Y-15413714D01*
X10821500Y-15456571D01*
X10792928Y-15485143D01*
X10764357Y-15499429D01*
X11192928Y-15413714D02*
X11135786Y-15413714D01*
X11107214Y-15428000D01*
X11092928Y-15442286D01*
X11064357Y-15485143D01*
X11050071Y-15542286D01*
X11050071Y-15656571D01*
X11064357Y-15685143D01*
X11078643Y-15699429D01*
X11107214Y-15713714D01*
X11164357Y-15713714D01*
X11192928Y-15699429D01*
X11207214Y-15685143D01*
X11221500Y-15656571D01*
X11221500Y-15585143D01*
X11207214Y-15556571D01*
X11192928Y-15542286D01*
X11164357Y-15528000D01*
X11107214Y-15528000D01*
X11078643Y-15542286D01*
X11064357Y-15556571D01*
X11050071Y-15585143D01*
X11335786Y-15413714D02*
X11335786Y-15470857D01*
X11450071Y-15413714D02*
X11450071Y-15470857D01*
X11892928Y-15828000D02*
X11878643Y-15813714D01*
X11850071Y-15770857D01*
X11835786Y-15742286D01*
X11821500Y-15699429D01*
X11807214Y-15628000D01*
X11807214Y-15570857D01*
X11821500Y-15499429D01*
X11835786Y-15456571D01*
X11850071Y-15428000D01*
X11878643Y-15385143D01*
X11892928Y-15370857D01*
X12164357Y-15713714D02*
X11992928Y-15713714D01*
X12078643Y-15713714D02*
X12078643Y-15413714D01*
X12050071Y-15456571D01*
X12021500Y-15485143D01*
X11992928Y-15499429D01*
X12450071Y-15713714D02*
X12278643Y-15713714D01*
X12364357Y-15713714D02*
X12364357Y-15413714D01*
X12335786Y-15456571D01*
X12307214Y-15485143D01*
X12278643Y-15499429D01*
X12807214Y-15713714D02*
X12807214Y-15413714D01*
X12935786Y-15713714D02*
X12935786Y-15556571D01*
X12921500Y-15528000D01*
X12892928Y-15513714D01*
X12850071Y-15513714D01*
X12821500Y-15528000D01*
X12807214Y-15542286D01*
X13121500Y-15713714D02*
X13092928Y-15699429D01*
X13078643Y-15685143D01*
X13064357Y-15656571D01*
X13064357Y-15570857D01*
X13078643Y-15542286D01*
X13092928Y-15528000D01*
X13121500Y-15513714D01*
X13164357Y-15513714D01*
X13192928Y-15528000D01*
X13207214Y-15542286D01*
X13221500Y-15570857D01*
X13221500Y-15656571D01*
X13207214Y-15685143D01*
X13192928Y-15699429D01*
X13164357Y-15713714D01*
X13121500Y-15713714D01*
X13392928Y-15713714D02*
X13364357Y-15699429D01*
X13350071Y-15670857D01*
X13350071Y-15413714D01*
X13621500Y-15699429D02*
X13592928Y-15713714D01*
X13535786Y-15713714D01*
X13507214Y-15699429D01*
X13492928Y-15670857D01*
X13492928Y-15556571D01*
X13507214Y-15528000D01*
X13535786Y-15513714D01*
X13592928Y-15513714D01*
X13621500Y-15528000D01*
X13635786Y-15556571D01*
X13635786Y-15585143D01*
X13492928Y-15613714D01*
X13750071Y-15699429D02*
X13778643Y-15713714D01*
X13835786Y-15713714D01*
X13864357Y-15699429D01*
X13878643Y-15670857D01*
X13878643Y-15656571D01*
X13864357Y-15628000D01*
X13835786Y-15613714D01*
X13792928Y-15613714D01*
X13764357Y-15599429D01*
X13750071Y-15570857D01*
X13750071Y-15556571D01*
X13764357Y-15528000D01*
X13792928Y-15513714D01*
X13835786Y-15513714D01*
X13864357Y-15528000D01*
X13978643Y-15828000D02*
X13992928Y-15813714D01*
X14021500Y-15770857D01*
X14035786Y-15742286D01*
X14050071Y-15699429D01*
X14064357Y-15628000D01*
X14064357Y-15570857D01*
X14050071Y-15499429D01*
X14035786Y-15456571D01*
X14021500Y-15428000D01*
X13992928Y-15385143D01*
X13978643Y-15370857D01*
X7176500Y-16004000D02*
X7206500Y-15974000D01*
X7176500Y-15944000D01*
X7146500Y-15974000D01*
X7176500Y-16004000D01*
X7550071Y-15809714D02*
X7578643Y-15809714D01*
X7607214Y-15824000D01*
X7621500Y-15838286D01*
X7635786Y-15866857D01*
X7650071Y-15924000D01*
X7650071Y-15995429D01*
X7635786Y-16052571D01*
X7621500Y-16081143D01*
X7607214Y-16095429D01*
X7578643Y-16109714D01*
X7550071Y-16109714D01*
X7521500Y-16095429D01*
X7507214Y-16081143D01*
X7492928Y-16052571D01*
X7478643Y-15995429D01*
X7478643Y-15924000D01*
X7492928Y-15866857D01*
X7507214Y-15838286D01*
X7521500Y-15824000D01*
X7550071Y-15809714D01*
X7778643Y-16081143D02*
X7792928Y-16095429D01*
X7778643Y-16109714D01*
X7764357Y-16095429D01*
X7778643Y-16081143D01*
X7778643Y-16109714D01*
X8050071Y-15809714D02*
X7992928Y-15809714D01*
X7964357Y-15824000D01*
X7950071Y-15838286D01*
X7921500Y-15881143D01*
X7907214Y-15938286D01*
X7907214Y-16052571D01*
X7921500Y-16081143D01*
X7935786Y-16095429D01*
X7964357Y-16109714D01*
X8021500Y-16109714D01*
X8050071Y-16095429D01*
X8064357Y-16081143D01*
X8078643Y-16052571D01*
X8078643Y-15981143D01*
X8064357Y-15952571D01*
X8050071Y-15938286D01*
X8021500Y-15924000D01*
X7964357Y-15924000D01*
X7935786Y-15938286D01*
X7921500Y-15952571D01*
X7907214Y-15981143D01*
X8264357Y-15809714D02*
X8292928Y-15809714D01*
X8321500Y-15824000D01*
X8335786Y-15838286D01*
X8350071Y-15866857D01*
X8364357Y-15924000D01*
X8364357Y-15995429D01*
X8350071Y-16052571D01*
X8335786Y-16081143D01*
X8321500Y-16095429D01*
X8292928Y-16109714D01*
X8264357Y-16109714D01*
X8235786Y-16095429D01*
X8221500Y-16081143D01*
X8207214Y-16052571D01*
X8192928Y-15995429D01*
X8192928Y-15924000D01*
X8207214Y-15866857D01*
X8221500Y-15838286D01*
X8235786Y-15824000D01*
X8264357Y-15809714D01*
X8492928Y-16109714D02*
X8492928Y-15909714D01*
X8492928Y-15938286D02*
X8507214Y-15924000D01*
X8535786Y-15909714D01*
X8578643Y-15909714D01*
X8607214Y-15924000D01*
X8621500Y-15952571D01*
X8621500Y-16109714D01*
X8621500Y-15952571D02*
X8635786Y-15924000D01*
X8664357Y-15909714D01*
X8707214Y-15909714D01*
X8735786Y-15924000D01*
X8750071Y-15952571D01*
X8750071Y-16109714D01*
X8892928Y-16109714D02*
X8892928Y-15909714D01*
X8892928Y-15938286D02*
X8907214Y-15924000D01*
X8935786Y-15909714D01*
X8978643Y-15909714D01*
X9007214Y-15924000D01*
X9021500Y-15952571D01*
X9021500Y-16109714D01*
X9021500Y-15952571D02*
X9035786Y-15924000D01*
X9064357Y-15909714D01*
X9107214Y-15909714D01*
X9135786Y-15924000D01*
X9150071Y-15952571D01*
X9150071Y-16109714D01*
X9735786Y-15795429D02*
X9478643Y-16181143D01*
X10121500Y-15809714D02*
X10150071Y-15809714D01*
X10178643Y-15824000D01*
X10192928Y-15838286D01*
X10207214Y-15866857D01*
X10221500Y-15924000D01*
X10221500Y-15995429D01*
X10207214Y-16052571D01*
X10192928Y-16081143D01*
X10178643Y-16095429D01*
X10150071Y-16109714D01*
X10121500Y-16109714D01*
X10092928Y-16095429D01*
X10078643Y-16081143D01*
X10064357Y-16052571D01*
X10050071Y-15995429D01*
X10050071Y-15924000D01*
X10064357Y-15866857D01*
X10078643Y-15838286D01*
X10092928Y-15824000D01*
X10121500Y-15809714D01*
X10350071Y-16081143D02*
X10364357Y-16095429D01*
X10350071Y-16109714D01*
X10335786Y-16095429D01*
X10350071Y-16081143D01*
X10350071Y-16109714D01*
X10550071Y-15809714D02*
X10578643Y-15809714D01*
X10607214Y-15824000D01*
X10621500Y-15838286D01*
X10635786Y-15866857D01*
X10650071Y-15924000D01*
X10650071Y-15995429D01*
X10635786Y-16052571D01*
X10621500Y-16081143D01*
X10607214Y-16095429D01*
X10578643Y-16109714D01*
X10550071Y-16109714D01*
X10521500Y-16095429D01*
X10507214Y-16081143D01*
X10492928Y-16052571D01*
X10478643Y-15995429D01*
X10478643Y-15924000D01*
X10492928Y-15866857D01*
X10507214Y-15838286D01*
X10521500Y-15824000D01*
X10550071Y-15809714D01*
X10764357Y-15838286D02*
X10778643Y-15824000D01*
X10807214Y-15809714D01*
X10878643Y-15809714D01*
X10907214Y-15824000D01*
X10921500Y-15838286D01*
X10935786Y-15866857D01*
X10935786Y-15895429D01*
X10921500Y-15938286D01*
X10750071Y-16109714D01*
X10935786Y-16109714D01*
X11192928Y-15909714D02*
X11192928Y-16109714D01*
X11121500Y-15795429D02*
X11050071Y-16009714D01*
X11235786Y-16009714D01*
X11335786Y-15809714D02*
X11335786Y-15866857D01*
X11450071Y-15809714D02*
X11450071Y-15866857D01*
X11892928Y-16224000D02*
X11878643Y-16209714D01*
X11850071Y-16166857D01*
X11835786Y-16138286D01*
X11821500Y-16095429D01*
X11807214Y-16024000D01*
X11807214Y-15966857D01*
X11821500Y-15895429D01*
X11835786Y-15852571D01*
X11850071Y-15824000D01*
X11878643Y-15781143D01*
X11892928Y-15766857D01*
X12064357Y-15809714D02*
X12092928Y-15809714D01*
X12121500Y-15824000D01*
X12135786Y-15838286D01*
X12150071Y-15866857D01*
X12164357Y-15924000D01*
X12164357Y-15995429D01*
X12150071Y-16052571D01*
X12135786Y-16081143D01*
X12121500Y-16095429D01*
X12092928Y-16109714D01*
X12064357Y-16109714D01*
X12035786Y-16095429D01*
X12021500Y-16081143D01*
X12007214Y-16052571D01*
X11992928Y-15995429D01*
X11992928Y-15924000D01*
X12007214Y-15866857D01*
X12021500Y-15838286D01*
X12035786Y-15824000D01*
X12064357Y-15809714D01*
X12521500Y-16109714D02*
X12521500Y-15809714D01*
X12650071Y-16109714D02*
X12650071Y-15952571D01*
X12635786Y-15924000D01*
X12607214Y-15909714D01*
X12564357Y-15909714D01*
X12535786Y-15924000D01*
X12521500Y-15938286D01*
X12835786Y-16109714D02*
X12807214Y-16095429D01*
X12792928Y-16081143D01*
X12778643Y-16052571D01*
X12778643Y-15966857D01*
X12792928Y-15938286D01*
X12807214Y-15924000D01*
X12835786Y-15909714D01*
X12878643Y-15909714D01*
X12907214Y-15924000D01*
X12921500Y-15938286D01*
X12935786Y-15966857D01*
X12935786Y-16052571D01*
X12921500Y-16081143D01*
X12907214Y-16095429D01*
X12878643Y-16109714D01*
X12835786Y-16109714D01*
X13107214Y-16109714D02*
X13078643Y-16095429D01*
X13064357Y-16066857D01*
X13064357Y-15809714D01*
X13335786Y-16095429D02*
X13307214Y-16109714D01*
X13250071Y-16109714D01*
X13221500Y-16095429D01*
X13207214Y-16066857D01*
X13207214Y-15952571D01*
X13221500Y-15924000D01*
X13250071Y-15909714D01*
X13307214Y-15909714D01*
X13335786Y-15924000D01*
X13350071Y-15952571D01*
X13350071Y-15981143D01*
X13207214Y-16009714D01*
X13464357Y-16095429D02*
X13492928Y-16109714D01*
X13550071Y-16109714D01*
X13578643Y-16095429D01*
X13592928Y-16066857D01*
X13592928Y-16052571D01*
X13578643Y-16024000D01*
X13550071Y-16009714D01*
X13507214Y-16009714D01*
X13478643Y-15995429D01*
X13464357Y-15966857D01*
X13464357Y-15952571D01*
X13478643Y-15924000D01*
X13507214Y-15909714D01*
X13550071Y-15909714D01*
X13578643Y-15924000D01*
X13950071Y-15995429D02*
X14178643Y-15995429D01*
X14064357Y-16109714D02*
X14064357Y-15881143D01*
X14678643Y-15909714D02*
X14678643Y-16109714D01*
X14607214Y-15795429D02*
X14535786Y-16009714D01*
X14721500Y-16009714D01*
X15050071Y-16095429D02*
X15078643Y-16109714D01*
X15135786Y-16109714D01*
X15164357Y-16095429D01*
X15178643Y-16066857D01*
X15178643Y-16052571D01*
X15164357Y-16024000D01*
X15135786Y-16009714D01*
X15092928Y-16009714D01*
X15064357Y-15995429D01*
X15050071Y-15966857D01*
X15050071Y-15952571D01*
X15064357Y-15924000D01*
X15092928Y-15909714D01*
X15135786Y-15909714D01*
X15164357Y-15924000D01*
X15350071Y-16109714D02*
X15321500Y-16095429D01*
X15307214Y-16066857D01*
X15307214Y-15809714D01*
X15507214Y-16109714D02*
X15478643Y-16095429D01*
X15464357Y-16081143D01*
X15450071Y-16052571D01*
X15450071Y-15966857D01*
X15464357Y-15938286D01*
X15478643Y-15924000D01*
X15507214Y-15909714D01*
X15550071Y-15909714D01*
X15578643Y-15924000D01*
X15592928Y-15938286D01*
X15607214Y-15966857D01*
X15607214Y-16052571D01*
X15592928Y-16081143D01*
X15578643Y-16095429D01*
X15550071Y-16109714D01*
X15507214Y-16109714D01*
X15692928Y-15909714D02*
X15807214Y-15909714D01*
X15735786Y-15809714D02*
X15735786Y-16066857D01*
X15750071Y-16095429D01*
X15778643Y-16109714D01*
X15807214Y-16109714D01*
X15892928Y-16095429D02*
X15921500Y-16109714D01*
X15978643Y-16109714D01*
X16007214Y-16095429D01*
X16021500Y-16066857D01*
X16021500Y-16052571D01*
X16007214Y-16024000D01*
X15978643Y-16009714D01*
X15935786Y-16009714D01*
X15907214Y-15995429D01*
X15892928Y-15966857D01*
X15892928Y-15952571D01*
X15907214Y-15924000D01*
X15935786Y-15909714D01*
X15978643Y-15909714D01*
X16007214Y-15924000D01*
X16121500Y-16224000D02*
X16135786Y-16209714D01*
X16164357Y-16166857D01*
X16178643Y-16138286D01*
X16192928Y-16095429D01*
X16207214Y-16024000D01*
X16207214Y-15966857D01*
X16192928Y-15895429D01*
X16178643Y-15852571D01*
X16164357Y-15824000D01*
X16135786Y-15781143D01*
X16121500Y-15766857D01*
X7106500Y-16320000D02*
X7206500Y-16420000D01*
X7206500Y-16320000D02*
X7106500Y-16420000D01*
X7206500Y-16370000D02*
G75*
G03*
X7206500Y-16370000I-50000J0D01*
G01*
X7650071Y-16505714D02*
X7478643Y-16505714D01*
X7564357Y-16505714D02*
X7564357Y-16205714D01*
X7535786Y-16248571D01*
X7507214Y-16277143D01*
X7478643Y-16291429D01*
X7778643Y-16477143D02*
X7792928Y-16491429D01*
X7778643Y-16505714D01*
X7764357Y-16491429D01*
X7778643Y-16477143D01*
X7778643Y-16505714D01*
X7978643Y-16205714D02*
X8007214Y-16205714D01*
X8035786Y-16220000D01*
X8050071Y-16234286D01*
X8064357Y-16262857D01*
X8078643Y-16320000D01*
X8078643Y-16391429D01*
X8064357Y-16448571D01*
X8050071Y-16477143D01*
X8035786Y-16491429D01*
X8007214Y-16505714D01*
X7978643Y-16505714D01*
X7950071Y-16491429D01*
X7935786Y-16477143D01*
X7921500Y-16448571D01*
X7907214Y-16391429D01*
X7907214Y-16320000D01*
X7921500Y-16262857D01*
X7935786Y-16234286D01*
X7950071Y-16220000D01*
X7978643Y-16205714D01*
X8264357Y-16205714D02*
X8292928Y-16205714D01*
X8321500Y-16220000D01*
X8335786Y-16234286D01*
X8350071Y-16262857D01*
X8364357Y-16320000D01*
X8364357Y-16391429D01*
X8350071Y-16448571D01*
X8335786Y-16477143D01*
X8321500Y-16491429D01*
X8292928Y-16505714D01*
X8264357Y-16505714D01*
X8235786Y-16491429D01*
X8221500Y-16477143D01*
X8207214Y-16448571D01*
X8192928Y-16391429D01*
X8192928Y-16320000D01*
X8207214Y-16262857D01*
X8221500Y-16234286D01*
X8235786Y-16220000D01*
X8264357Y-16205714D01*
X8492928Y-16505714D02*
X8492928Y-16305714D01*
X8492928Y-16334286D02*
X8507214Y-16320000D01*
X8535786Y-16305714D01*
X8578643Y-16305714D01*
X8607214Y-16320000D01*
X8621500Y-16348571D01*
X8621500Y-16505714D01*
X8621500Y-16348571D02*
X8635786Y-16320000D01*
X8664357Y-16305714D01*
X8707214Y-16305714D01*
X8735786Y-16320000D01*
X8750071Y-16348571D01*
X8750071Y-16505714D01*
X8892928Y-16505714D02*
X8892928Y-16305714D01*
X8892928Y-16334286D02*
X8907214Y-16320000D01*
X8935786Y-16305714D01*
X8978643Y-16305714D01*
X9007214Y-16320000D01*
X9021500Y-16348571D01*
X9021500Y-16505714D01*
X9021500Y-16348571D02*
X9035786Y-16320000D01*
X9064357Y-16305714D01*
X9107214Y-16305714D01*
X9135786Y-16320000D01*
X9150071Y-16348571D01*
X9150071Y-16505714D01*
X9735786Y-16191429D02*
X9478643Y-16577143D01*
X10121500Y-16205714D02*
X10150071Y-16205714D01*
X10178643Y-16220000D01*
X10192928Y-16234286D01*
X10207214Y-16262857D01*
X10221500Y-16320000D01*
X10221500Y-16391429D01*
X10207214Y-16448571D01*
X10192928Y-16477143D01*
X10178643Y-16491429D01*
X10150071Y-16505714D01*
X10121500Y-16505714D01*
X10092928Y-16491429D01*
X10078643Y-16477143D01*
X10064357Y-16448571D01*
X10050071Y-16391429D01*
X10050071Y-16320000D01*
X10064357Y-16262857D01*
X10078643Y-16234286D01*
X10092928Y-16220000D01*
X10121500Y-16205714D01*
X10350071Y-16477143D02*
X10364357Y-16491429D01*
X10350071Y-16505714D01*
X10335786Y-16491429D01*
X10350071Y-16477143D01*
X10350071Y-16505714D01*
X10550071Y-16205714D02*
X10578643Y-16205714D01*
X10607214Y-16220000D01*
X10621500Y-16234286D01*
X10635786Y-16262857D01*
X10650071Y-16320000D01*
X10650071Y-16391429D01*
X10635786Y-16448571D01*
X10621500Y-16477143D01*
X10607214Y-16491429D01*
X10578643Y-16505714D01*
X10550071Y-16505714D01*
X10521500Y-16491429D01*
X10507214Y-16477143D01*
X10492928Y-16448571D01*
X10478643Y-16391429D01*
X10478643Y-16320000D01*
X10492928Y-16262857D01*
X10507214Y-16234286D01*
X10521500Y-16220000D01*
X10550071Y-16205714D01*
X10750071Y-16205714D02*
X10935786Y-16205714D01*
X10835786Y-16320000D01*
X10878643Y-16320000D01*
X10907214Y-16334286D01*
X10921500Y-16348571D01*
X10935786Y-16377143D01*
X10935786Y-16448571D01*
X10921500Y-16477143D01*
X10907214Y-16491429D01*
X10878643Y-16505714D01*
X10792928Y-16505714D01*
X10764357Y-16491429D01*
X10750071Y-16477143D01*
X11078643Y-16505714D02*
X11135786Y-16505714D01*
X11164357Y-16491429D01*
X11178643Y-16477143D01*
X11207214Y-16434286D01*
X11221500Y-16377143D01*
X11221500Y-16262857D01*
X11207214Y-16234286D01*
X11192928Y-16220000D01*
X11164357Y-16205714D01*
X11107214Y-16205714D01*
X11078643Y-16220000D01*
X11064357Y-16234286D01*
X11050071Y-16262857D01*
X11050071Y-16334286D01*
X11064357Y-16362857D01*
X11078643Y-16377143D01*
X11107214Y-16391429D01*
X11164357Y-16391429D01*
X11192928Y-16377143D01*
X11207214Y-16362857D01*
X11221500Y-16334286D01*
X11335786Y-16205714D02*
X11335786Y-16262857D01*
X11450071Y-16205714D02*
X11450071Y-16262857D01*
X11892928Y-16620000D02*
X11878643Y-16605714D01*
X11850071Y-16562857D01*
X11835786Y-16534286D01*
X11821500Y-16491429D01*
X11807214Y-16420000D01*
X11807214Y-16362857D01*
X11821500Y-16291429D01*
X11835786Y-16248571D01*
X11850071Y-16220000D01*
X11878643Y-16177143D01*
X11892928Y-16162857D01*
X12050071Y-16334286D02*
X12021500Y-16320000D01*
X12007214Y-16305714D01*
X11992928Y-16277143D01*
X11992928Y-16262857D01*
X12007214Y-16234286D01*
X12021500Y-16220000D01*
X12050071Y-16205714D01*
X12107214Y-16205714D01*
X12135786Y-16220000D01*
X12150071Y-16234286D01*
X12164357Y-16262857D01*
X12164357Y-16277143D01*
X12150071Y-16305714D01*
X12135786Y-16320000D01*
X12107214Y-16334286D01*
X12050071Y-16334286D01*
X12021500Y-16348571D01*
X12007214Y-16362857D01*
X11992928Y-16391429D01*
X11992928Y-16448571D01*
X12007214Y-16477143D01*
X12021500Y-16491429D01*
X12050071Y-16505714D01*
X12107214Y-16505714D01*
X12135786Y-16491429D01*
X12150071Y-16477143D01*
X12164357Y-16448571D01*
X12164357Y-16391429D01*
X12150071Y-16362857D01*
X12135786Y-16348571D01*
X12107214Y-16334286D01*
X12521500Y-16505714D02*
X12521500Y-16205714D01*
X12650071Y-16505714D02*
X12650071Y-16348571D01*
X12635786Y-16320000D01*
X12607214Y-16305714D01*
X12564357Y-16305714D01*
X12535786Y-16320000D01*
X12521500Y-16334286D01*
X12835786Y-16505714D02*
X12807214Y-16491429D01*
X12792928Y-16477143D01*
X12778643Y-16448571D01*
X12778643Y-16362857D01*
X12792928Y-16334286D01*
X12807214Y-16320000D01*
X12835786Y-16305714D01*
X12878643Y-16305714D01*
X12907214Y-16320000D01*
X12921500Y-16334286D01*
X12935786Y-16362857D01*
X12935786Y-16448571D01*
X12921500Y-16477143D01*
X12907214Y-16491429D01*
X12878643Y-16505714D01*
X12835786Y-16505714D01*
X13107214Y-16505714D02*
X13078643Y-16491429D01*
X13064357Y-16462857D01*
X13064357Y-16205714D01*
X13335786Y-16491429D02*
X13307214Y-16505714D01*
X13250071Y-16505714D01*
X13221500Y-16491429D01*
X13207214Y-16462857D01*
X13207214Y-16348571D01*
X13221500Y-16320000D01*
X13250071Y-16305714D01*
X13307214Y-16305714D01*
X13335786Y-16320000D01*
X13350071Y-16348571D01*
X13350071Y-16377143D01*
X13207214Y-16405714D01*
X13464357Y-16491429D02*
X13492928Y-16505714D01*
X13550071Y-16505714D01*
X13578643Y-16491429D01*
X13592928Y-16462857D01*
X13592928Y-16448571D01*
X13578643Y-16420000D01*
X13550071Y-16405714D01*
X13507214Y-16405714D01*
X13478643Y-16391429D01*
X13464357Y-16362857D01*
X13464357Y-16348571D01*
X13478643Y-16320000D01*
X13507214Y-16305714D01*
X13550071Y-16305714D01*
X13578643Y-16320000D01*
X13950071Y-16391429D02*
X14178643Y-16391429D01*
X14064357Y-16505714D02*
X14064357Y-16277143D01*
X14521500Y-16205714D02*
X14707214Y-16205714D01*
X14607214Y-16320000D01*
X14650071Y-16320000D01*
X14678643Y-16334286D01*
X14692928Y-16348571D01*
X14707214Y-16377143D01*
X14707214Y-16448571D01*
X14692928Y-16477143D01*
X14678643Y-16491429D01*
X14650071Y-16505714D01*
X14564357Y-16505714D01*
X14535786Y-16491429D01*
X14521500Y-16477143D01*
X15050071Y-16491429D02*
X15078643Y-16505714D01*
X15135786Y-16505714D01*
X15164357Y-16491429D01*
X15178643Y-16462857D01*
X15178643Y-16448571D01*
X15164357Y-16420000D01*
X15135786Y-16405714D01*
X15092928Y-16405714D01*
X15064357Y-16391429D01*
X15050071Y-16362857D01*
X15050071Y-16348571D01*
X15064357Y-16320000D01*
X15092928Y-16305714D01*
X15135786Y-16305714D01*
X15164357Y-16320000D01*
X15350071Y-16505714D02*
X15321500Y-16491429D01*
X15307214Y-16462857D01*
X15307214Y-16205714D01*
X15507214Y-16505714D02*
X15478643Y-16491429D01*
X15464357Y-16477143D01*
X15450071Y-16448571D01*
X15450071Y-16362857D01*
X15464357Y-16334286D01*
X15478643Y-16320000D01*
X15507214Y-16305714D01*
X15550071Y-16305714D01*
X15578643Y-16320000D01*
X15592928Y-16334286D01*
X15607214Y-16362857D01*
X15607214Y-16448571D01*
X15592928Y-16477143D01*
X15578643Y-16491429D01*
X15550071Y-16505714D01*
X15507214Y-16505714D01*
X15692928Y-16305714D02*
X15807214Y-16305714D01*
X15735786Y-16205714D02*
X15735786Y-16462857D01*
X15750071Y-16491429D01*
X15778643Y-16505714D01*
X15807214Y-16505714D01*
X15892928Y-16491429D02*
X15921500Y-16505714D01*
X15978643Y-16505714D01*
X16007214Y-16491429D01*
X16021500Y-16462857D01*
X16021500Y-16448571D01*
X16007214Y-16420000D01*
X15978643Y-16405714D01*
X15935786Y-16405714D01*
X15907214Y-16391429D01*
X15892928Y-16362857D01*
X15892928Y-16348571D01*
X15907214Y-16320000D01*
X15935786Y-16305714D01*
X15978643Y-16305714D01*
X16007214Y-16320000D01*
X16121500Y-16620000D02*
X16135786Y-16605714D01*
X16164357Y-16562857D01*
X16178643Y-16534286D01*
X16192928Y-16491429D01*
X16207214Y-16420000D01*
X16207214Y-16362857D01*
X16192928Y-16291429D01*
X16178643Y-16248571D01*
X16164357Y-16220000D01*
X16135786Y-16177143D01*
X16121500Y-16162857D01*
X6986500Y-16656000D02*
X7206500Y-16876000D01*
X7206500Y-16656000D02*
X6986500Y-16876000D01*
X7096500Y-16656000D02*
X7096500Y-16876000D01*
X6986500Y-16766000D02*
X7206500Y-16766000D01*
X7478643Y-16630286D02*
X7492928Y-16616000D01*
X7521500Y-16601714D01*
X7592928Y-16601714D01*
X7621500Y-16616000D01*
X7635786Y-16630286D01*
X7650071Y-16658857D01*
X7650071Y-16687429D01*
X7635786Y-16730286D01*
X7464357Y-16901714D01*
X7650071Y-16901714D01*
X7778643Y-16873143D02*
X7792928Y-16887429D01*
X7778643Y-16901714D01*
X7764357Y-16887429D01*
X7778643Y-16873143D01*
X7778643Y-16901714D01*
X7907214Y-16630286D02*
X7921500Y-16616000D01*
X7950071Y-16601714D01*
X8021500Y-16601714D01*
X8050071Y-16616000D01*
X8064357Y-16630286D01*
X8078643Y-16658857D01*
X8078643Y-16687429D01*
X8064357Y-16730286D01*
X7892928Y-16901714D01*
X8078643Y-16901714D01*
X8264357Y-16601714D02*
X8292928Y-16601714D01*
X8321500Y-16616000D01*
X8335786Y-16630286D01*
X8350071Y-16658857D01*
X8364357Y-16716000D01*
X8364357Y-16787429D01*
X8350071Y-16844572D01*
X8335786Y-16873143D01*
X8321500Y-16887429D01*
X8292928Y-16901714D01*
X8264357Y-16901714D01*
X8235786Y-16887429D01*
X8221500Y-16873143D01*
X8207214Y-16844572D01*
X8192928Y-16787429D01*
X8192928Y-16716000D01*
X8207214Y-16658857D01*
X8221500Y-16630286D01*
X8235786Y-16616000D01*
X8264357Y-16601714D01*
X8492928Y-16901714D02*
X8492928Y-16701714D01*
X8492928Y-16730286D02*
X8507214Y-16716000D01*
X8535786Y-16701714D01*
X8578643Y-16701714D01*
X8607214Y-16716000D01*
X8621500Y-16744571D01*
X8621500Y-16901714D01*
X8621500Y-16744571D02*
X8635786Y-16716000D01*
X8664357Y-16701714D01*
X8707214Y-16701714D01*
X8735786Y-16716000D01*
X8750071Y-16744571D01*
X8750071Y-16901714D01*
X8892928Y-16901714D02*
X8892928Y-16701714D01*
X8892928Y-16730286D02*
X8907214Y-16716000D01*
X8935786Y-16701714D01*
X8978643Y-16701714D01*
X9007214Y-16716000D01*
X9021500Y-16744571D01*
X9021500Y-16901714D01*
X9021500Y-16744571D02*
X9035786Y-16716000D01*
X9064357Y-16701714D01*
X9107214Y-16701714D01*
X9135786Y-16716000D01*
X9150071Y-16744571D01*
X9150071Y-16901714D01*
X9735786Y-16587429D02*
X9478643Y-16973143D01*
X10121500Y-16601714D02*
X10150071Y-16601714D01*
X10178643Y-16616000D01*
X10192928Y-16630286D01*
X10207214Y-16658857D01*
X10221500Y-16716000D01*
X10221500Y-16787429D01*
X10207214Y-16844572D01*
X10192928Y-16873143D01*
X10178643Y-16887429D01*
X10150071Y-16901714D01*
X10121500Y-16901714D01*
X10092928Y-16887429D01*
X10078643Y-16873143D01*
X10064357Y-16844572D01*
X10050071Y-16787429D01*
X10050071Y-16716000D01*
X10064357Y-16658857D01*
X10078643Y-16630286D01*
X10092928Y-16616000D01*
X10121500Y-16601714D01*
X10350071Y-16873143D02*
X10364357Y-16887429D01*
X10350071Y-16901714D01*
X10335786Y-16887429D01*
X10350071Y-16873143D01*
X10350071Y-16901714D01*
X10550071Y-16601714D02*
X10578643Y-16601714D01*
X10607214Y-16616000D01*
X10621500Y-16630286D01*
X10635786Y-16658857D01*
X10650071Y-16716000D01*
X10650071Y-16787429D01*
X10635786Y-16844572D01*
X10621500Y-16873143D01*
X10607214Y-16887429D01*
X10578643Y-16901714D01*
X10550071Y-16901714D01*
X10521500Y-16887429D01*
X10507214Y-16873143D01*
X10492928Y-16844572D01*
X10478643Y-16787429D01*
X10478643Y-16716000D01*
X10492928Y-16658857D01*
X10507214Y-16630286D01*
X10521500Y-16616000D01*
X10550071Y-16601714D01*
X10821500Y-16730286D02*
X10792928Y-16716000D01*
X10778643Y-16701714D01*
X10764357Y-16673143D01*
X10764357Y-16658857D01*
X10778643Y-16630286D01*
X10792928Y-16616000D01*
X10821500Y-16601714D01*
X10878643Y-16601714D01*
X10907214Y-16616000D01*
X10921500Y-16630286D01*
X10935786Y-16658857D01*
X10935786Y-16673143D01*
X10921500Y-16701714D01*
X10907214Y-16716000D01*
X10878643Y-16730286D01*
X10821500Y-16730286D01*
X10792928Y-16744571D01*
X10778643Y-16758857D01*
X10764357Y-16787429D01*
X10764357Y-16844572D01*
X10778643Y-16873143D01*
X10792928Y-16887429D01*
X10821500Y-16901714D01*
X10878643Y-16901714D01*
X10907214Y-16887429D01*
X10921500Y-16873143D01*
X10935786Y-16844572D01*
X10935786Y-16787429D01*
X10921500Y-16758857D01*
X10907214Y-16744571D01*
X10878643Y-16730286D01*
X11035786Y-16601714D02*
X11235786Y-16601714D01*
X11107214Y-16901714D01*
X11335786Y-16601714D02*
X11335786Y-16658857D01*
X11450071Y-16601714D02*
X11450071Y-16658857D01*
X11892928Y-17016000D02*
X11878643Y-17001714D01*
X11850071Y-16958857D01*
X11835786Y-16930286D01*
X11821500Y-16887429D01*
X11807214Y-16816000D01*
X11807214Y-16758857D01*
X11821500Y-16687429D01*
X11835786Y-16644571D01*
X11850071Y-16616000D01*
X11878643Y-16573143D01*
X11892928Y-16558857D01*
X11992928Y-16630286D02*
X12007214Y-16616000D01*
X12035786Y-16601714D01*
X12107214Y-16601714D01*
X12135786Y-16616000D01*
X12150071Y-16630286D01*
X12164357Y-16658857D01*
X12164357Y-16687429D01*
X12150071Y-16730286D01*
X11978643Y-16901714D01*
X12164357Y-16901714D01*
X12521500Y-16901714D02*
X12521500Y-16601714D01*
X12650071Y-16901714D02*
X12650071Y-16744571D01*
X12635786Y-16716000D01*
X12607214Y-16701714D01*
X12564357Y-16701714D01*
X12535786Y-16716000D01*
X12521500Y-16730286D01*
X12835786Y-16901714D02*
X12807214Y-16887429D01*
X12792928Y-16873143D01*
X12778643Y-16844572D01*
X12778643Y-16758857D01*
X12792928Y-16730286D01*
X12807214Y-16716000D01*
X12835786Y-16701714D01*
X12878643Y-16701714D01*
X12907214Y-16716000D01*
X12921500Y-16730286D01*
X12935786Y-16758857D01*
X12935786Y-16844572D01*
X12921500Y-16873143D01*
X12907214Y-16887429D01*
X12878643Y-16901714D01*
X12835786Y-16901714D01*
X13107214Y-16901714D02*
X13078643Y-16887429D01*
X13064357Y-16858857D01*
X13064357Y-16601714D01*
X13335786Y-16887429D02*
X13307214Y-16901714D01*
X13250071Y-16901714D01*
X13221500Y-16887429D01*
X13207214Y-16858857D01*
X13207214Y-16744571D01*
X13221500Y-16716000D01*
X13250071Y-16701714D01*
X13307214Y-16701714D01*
X13335786Y-16716000D01*
X13350071Y-16744571D01*
X13350071Y-16773143D01*
X13207214Y-16801714D01*
X13464357Y-16887429D02*
X13492928Y-16901714D01*
X13550071Y-16901714D01*
X13578643Y-16887429D01*
X13592928Y-16858857D01*
X13592928Y-16844572D01*
X13578643Y-16816000D01*
X13550071Y-16801714D01*
X13507214Y-16801714D01*
X13478643Y-16787429D01*
X13464357Y-16758857D01*
X13464357Y-16744571D01*
X13478643Y-16716000D01*
X13507214Y-16701714D01*
X13550071Y-16701714D01*
X13578643Y-16716000D01*
X13692928Y-17016000D02*
X13707214Y-17001714D01*
X13735786Y-16958857D01*
X13750071Y-16930286D01*
X13764357Y-16887429D01*
X13778643Y-16816000D01*
X13778643Y-16758857D01*
X13764357Y-16687429D01*
X13750071Y-16644571D01*
X13735786Y-16616000D01*
X13707214Y-16573143D01*
X13692928Y-16558857D01*
M02*
