M48
; DRILL file {KiCad 5.1.9+dfsg1-1~bpo10+1} date Wed Nov  3 11:33:00 2021
; FORMAT={-:-/ absolute / metric / decimal}
; #@! TF.CreationDate,2021-11-03T11:33:00+01:00
; #@! TF.GenerationSoftware,Kicad,Pcbnew,5.1.9+dfsg1-1~bpo10+1
; #@! TF.FileFunction,Plated,1,2,PTH
FMAT,2
METRIC
T1C0.200
T2C0.300
T3C0.350
T4C0.400
T5C0.600
T6C1.000
T7C2.200
%
G90
G05
T1
X91.71Y-59.885
X91.86Y-101.025
X92.82Y-73.615
X92.88Y-87.285
X93.22Y-48.515
X93.79Y-59.972
X94.79Y-73.625
X94.8Y-101.015
X94.81Y-87.325
X95.29Y-97.005
X95.34Y-80.545
X95.54Y-64.805
X100.53Y-54.405
X104.12Y-51.875
X105.64Y-41.735
X105.91Y-36.255
X107.85Y-123.005
X108.68Y-51.87
X108.69Y-54.855
X109.64Y-104.125
X109.73Y-62.965
X109.76Y-76.595
X109.91Y-39.035
X109.93Y-125.635
X110.32Y-90.765
X110.71Y-49.905
X113.87Y-129.755
X115.497Y-51.211
X115.546Y-54.852
X115.87Y-129.705
X116.14Y-36.045
X116.481Y-54.354
X116.492Y-51.211
X116.51Y-122.325
X116.93Y-118.375
X117.06Y-36.735
X118.94Y-124.865
X119.0Y-129.995
X120.12Y-121.405
X122.74Y-113.095
X123.57Y-33.655
X125.72Y-35.285
X125.72Y-42.765
X125.79Y-63.145
X126.17Y-90.645
X126.17Y-104.125
X126.21Y-76.625
X128.45Y-113.335
X128.45Y-114.635
X130.92Y-38.525
X131.19Y-127.385
X131.51Y-113.135
X131.96Y-123.815
X132.5Y-127.785
X132.62Y-126.925
X135.09Y-114.352
X135.23Y-123.845
X135.24Y-126.195
X136.29Y-123.855
X136.41Y-113.715
X138.15Y-119.955
X138.36Y-123.685
X138.69Y-118.065
X138.75Y-115.425
X140.07Y-113.705
X140.3Y-126.305
X140.34Y-126.955
X140.47Y-121.735
X142.15Y-63.125
X142.16Y-76.885
X142.18Y-90.645
X142.25Y-104.165
X149.16Y-51.411
X149.16Y-55.675
X151.14Y-112.714
X151.15Y-119.225
X153.13Y-56.695
X153.47Y-54.005
X154.03Y-55.945
X154.04Y-53.995
X154.08Y-44.075
X154.361Y-48.058
X154.64Y-53.945
X155.04Y-50.625
X156.747Y-42.685
X157.87Y-45.285
X158.02Y-44.085
X158.02Y-46.285
X158.02Y-47.285
X158.11Y-76.585
X158.12Y-52.185
X158.16Y-63.125
X158.19Y-90.615
X158.35Y-104.195
X158.72Y-42.885
X159.35Y-117.595
X159.42Y-56.885
X159.72Y-42.885
X159.72Y-43.685
X160.02Y-55.919
X160.05Y-44.885
X160.29Y-118.155
X160.62Y-37.285
X161.47Y-48.335
X161.99Y-118.245
X162.62Y-59.485
X162.82Y-53.385
X162.92Y-41.385
X163.12Y-43.985
X163.583Y-47.885
X163.72Y-58.385
X164.12Y-43.985
X164.22Y-57.585
X165.12Y-57.585
X165.295Y-40.206
X166.093Y-49.134
X166.12Y-48.185
X166.25Y-56.915
X167.087Y-56.018
X167.22Y-43.885
X167.22Y-42.085
X167.76Y-38.265
X168.77Y-38.275
X168.82Y-44.585
X169.22Y-42.085
X169.52Y-46.585
X169.578Y-48.458
X170.087Y-51.632
X170.42Y-40.585
X170.76Y-55.965
X171.62Y-42.985
X171.72Y-40.285
X172.2Y-45.395
X172.38Y-50.55
X173.22Y-41.085
X173.387Y-50.54
X173.78Y-44.425
X173.903Y-50.649
X174.16Y-63.105
X174.19Y-76.655
X174.2Y-90.605
X174.33Y-49.705
X174.82Y-104.105
X175.41Y-49.915
X177.0Y-48.315
X177.81Y-38.775
X178.23Y-47.395
X178.5Y-48.325
X178.55Y-50.755
X179.21Y-38.775
X180.17Y-48.845
X180.9Y-39.315
X181.1Y-47.365
X183.436Y-51.415
X183.652Y-53.93
X183.739Y-50.338
X183.939Y-53.489
X183.97Y-57.895
X184.165Y-54.714
X184.25Y-50.467
X184.257Y-53.069
X185.92Y-51.275
X185.934Y-52.134
X188.85Y-54.165
X189.11Y-55.045
X189.453Y-55.553
X190.0Y-53.535
X190.15Y-62.975
X190.19Y-90.635
X190.23Y-76.645
X190.29Y-104.655
X190.6Y-56.425
X190.77Y-57.335
X190.838Y-58.187
X191.032Y-58.843
X191.79Y-59.615
X192.11Y-60.345
X195.61Y-104.255
X200.14Y-104.045
X203.26Y-104.085
X207.67Y-101.955
X212.82Y-92.595
T2
X76.29Y-64.925
X76.3Y-92.305
X76.32Y-106.045
X76.34Y-78.625
X90.62Y-78.645
X90.63Y-106.015
X90.64Y-64.915
X90.65Y-92.315
X101.17Y-60.795
X102.37Y-73.395
X102.41Y-87.135
X102.42Y-100.985
X105.58Y-120.525
X105.74Y-127.475
X107.19Y-120.495
X109.697Y-127.325
X116.21Y-124.065
X116.21Y-124.615
X116.21Y-125.165
X116.76Y-124.065
X116.76Y-124.615
X116.76Y-125.165
X117.3Y-101.915
X117.31Y-124.065
X117.31Y-124.615
X117.31Y-125.165
X133.23Y-88.205
X133.27Y-101.925
X133.31Y-74.515
X133.32Y-60.765
X149.31Y-74.575
X149.37Y-101.955
X149.41Y-88.135
X149.42Y-60.865
X165.31Y-74.485
X165.32Y-88.245
X165.44Y-60.875
X165.46Y-101.805
X181.24Y-102.035
X181.28Y-74.485
X181.29Y-88.235
X181.37Y-60.745
X211.7Y-54.355
X212.78Y-54.365
T3
X162.535Y-49.41
X162.535Y-50.685
X162.535Y-51.96
X163.81Y-49.41
X163.81Y-50.685
X163.81Y-51.96
X165.085Y-49.41
X165.085Y-50.685
X165.085Y-51.96
T4
X200.3Y-65.465
X200.33Y-61.895
X200.36Y-58.715
X203.88Y-65.465
X203.89Y-61.95
X203.91Y-58.745
X207.74Y-61.925
X207.77Y-58.715
X208.05Y-65.415
X210.06Y-74.355
X210.41Y-55.335
T6
X173.92Y-54.115
X176.46Y-54.115
X179.0Y-54.115
X205.09Y-75.975
X205.09Y-90.475
X207.59Y-90.475
X210.09Y-75.975
X210.09Y-90.475
T7
X201.99Y-82.975
X213.19Y-82.975
T5
X164.2Y-34.585G85X164.2Y-33.985
G05
X164.2Y-39.015G85X164.2Y-37.915
G05
X172.84Y-34.585G85X172.84Y-33.985
G05
X172.84Y-39.015G85X172.84Y-37.915
G05
T6
X185.94Y-41.875G85X185.94Y-43.875
G05
X191.64Y-39.875G85X189.64Y-39.875
G05
X191.64Y-45.875G85X189.64Y-45.875
G05
T0
M30
