G04 #@! TF.GenerationSoftware,KiCad,Pcbnew,5.1.9+dfsg1-1~bpo10+1*
G04 #@! TF.CreationDate,2021-11-03T11:33:49+01:00*
G04 #@! TF.ProjectId,SynthoGame,53796e74-686f-4476-916d-652e6b696361,REV1*
G04 #@! TF.SameCoordinates,Original*
G04 #@! TF.FileFunction,Soldermask,Bot*
G04 #@! TF.FilePolarity,Negative*
%FSLAX46Y46*%
G04 Gerber Fmt 4.6, Leading zero omitted, Abs format (unit mm)*
G04 Created by KiCad (PCBNEW 5.1.9+dfsg1-1~bpo10+1) date 2021-11-03 11:33:49*
%MOMM*%
%LPD*%
G01*
G04 APERTURE LIST*
%ADD10C,1.000000*%
%ADD11C,0.650000*%
%ADD12O,1.000000X2.100000*%
%ADD13O,1.000000X1.600000*%
%ADD14O,1.700000X1.700000*%
%ADD15C,1.700000*%
%ADD16R,3.500000X3.500000*%
%ADD17C,2.000000*%
%ADD18C,2.800000*%
%ADD19R,2.000000X2.000000*%
%ADD20C,2.700000*%
G04 APERTURE END LIST*
D10*
X158020000Y-44085000D03*
D11*
X165630000Y-37935000D03*
X171410000Y-37935000D03*
D12*
X172840000Y-38465000D03*
X164200000Y-38465000D03*
D13*
X172840000Y-34285000D03*
X164200000Y-34285000D03*
G36*
G01*
X161075000Y-48512500D02*
X161075000Y-48137500D01*
G75*
G02*
X161262500Y-47950000I187500J0D01*
G01*
X161637500Y-47950000D01*
G75*
G02*
X161825000Y-48137500I0J-187500D01*
G01*
X161825000Y-48512500D01*
G75*
G02*
X161637500Y-48700000I-187500J0D01*
G01*
X161262500Y-48700000D01*
G75*
G02*
X161075000Y-48512500I0J187500D01*
G01*
G37*
G36*
G01*
X165785000Y-48522500D02*
X165785000Y-48147500D01*
G75*
G02*
X165972500Y-47960000I187500J0D01*
G01*
X166347500Y-47960000D01*
G75*
G02*
X166535000Y-48147500I0J-187500D01*
G01*
X166535000Y-48522500D01*
G75*
G02*
X166347500Y-48710000I-187500J0D01*
G01*
X165972500Y-48710000D01*
G75*
G02*
X165785000Y-48522500I0J187500D01*
G01*
G37*
D14*
X179000000Y-54115000D03*
G36*
G01*
X176035000Y-53265000D02*
X176885000Y-53265000D01*
G75*
G02*
X177310000Y-53690000I0J-425000D01*
G01*
X177310000Y-54540000D01*
G75*
G02*
X176885000Y-54965000I-425000J0D01*
G01*
X176035000Y-54965000D01*
G75*
G02*
X175610000Y-54540000I0J425000D01*
G01*
X175610000Y-53690000D01*
G75*
G02*
X176035000Y-53265000I425000J0D01*
G01*
G37*
X173920000Y-54115000D03*
D10*
X162620000Y-39485000D03*
X170420000Y-40585000D03*
X173220000Y-41085000D03*
D15*
X97430000Y-121375000D03*
X97430000Y-128375000D03*
X97590000Y-37625000D03*
X97590000Y-44625000D03*
X125340000Y-37625000D03*
X125340000Y-44625000D03*
X139590000Y-44625000D03*
X139590000Y-37625000D03*
D16*
X190640000Y-45875000D03*
G36*
G01*
X189640000Y-38375000D02*
X191640000Y-38375000D01*
G75*
G02*
X192390000Y-39125000I0J-750000D01*
G01*
X192390000Y-40625000D01*
G75*
G02*
X191640000Y-41375000I-750000J0D01*
G01*
X189640000Y-41375000D01*
G75*
G02*
X188890000Y-40625000I0J750000D01*
G01*
X188890000Y-39125000D01*
G75*
G02*
X189640000Y-38375000I750000J0D01*
G01*
G37*
G36*
G01*
X185065000Y-41125000D02*
X186815000Y-41125000D01*
G75*
G02*
X187690000Y-42000000I0J-875000D01*
G01*
X187690000Y-43750000D01*
G75*
G02*
X186815000Y-44625000I-875000J0D01*
G01*
X185065000Y-44625000D01*
G75*
G02*
X184190000Y-43750000I0J875000D01*
G01*
X184190000Y-42000000D01*
G75*
G02*
X185065000Y-41125000I875000J0D01*
G01*
G37*
D17*
X82090000Y-66925000D03*
X82090000Y-57925000D03*
X82090000Y-71625000D03*
X82090000Y-80625000D03*
X82090000Y-94325000D03*
X82090000Y-85325000D03*
X82090000Y-99025000D03*
X82090000Y-108025000D03*
X210090000Y-75975000D03*
X205090000Y-75975000D03*
D18*
X213190000Y-82975000D03*
X201990000Y-82975000D03*
D17*
X210090000Y-90475000D03*
X207590000Y-90475000D03*
D19*
X205090000Y-90475000D03*
D20*
X85690000Y-45325000D03*
X203990000Y-45325000D03*
X85690000Y-120725000D03*
X203990000Y-120725000D03*
X95790000Y-54525000D03*
X193890000Y-54525000D03*
X95790000Y-111425000D03*
X193890000Y-111425000D03*
M02*
