G04 #@! TF.GenerationSoftware,KiCad,Pcbnew,5.1.9+dfsg1-1~bpo10+1*
G04 #@! TF.CreationDate,2021-11-03T11:33:49+01:00*
G04 #@! TF.ProjectId,SynthoGame,53796e74-686f-4476-916d-652e6b696361,REV1*
G04 #@! TF.SameCoordinates,Original*
G04 #@! TF.FileFunction,Paste,Top*
G04 #@! TF.FilePolarity,Positive*
%FSLAX46Y46*%
G04 Gerber Fmt 4.6, Leading zero omitted, Abs format (unit mm)*
G04 Created by KiCad (PCBNEW 5.1.9+dfsg1-1~bpo10+1) date 2021-11-03 11:33:49*
%MOMM*%
%LPD*%
G01*
G04 APERTURE LIST*
%ADD10R,0.300000X1.300000*%
%ADD11R,1.800000X2.200000*%
%ADD12R,0.600000X1.450000*%
%ADD13R,0.300000X1.450000*%
%ADD14R,1.200000X0.900000*%
%ADD15R,1.400000X1.200000*%
%ADD16R,0.650000X1.060000*%
%ADD17R,0.600000X0.700000*%
%ADD18R,2.546000X1.746000*%
%ADD19R,2.546000X1.946000*%
%ADD20R,2.546000X2.546000*%
%ADD21R,1.500000X1.000000*%
%ADD22R,0.450000X0.600000*%
%ADD23R,0.800000X1.300000*%
%ADD24R,1.060000X0.650000*%
%ADD25R,1.100000X4.600000*%
%ADD26R,5.250000X4.550000*%
%ADD27R,1.000000X3.000000*%
%ADD28R,2.000000X1.500000*%
G04 APERTURE END LIST*
D10*
X104640000Y-40725000D03*
X105140000Y-40725000D03*
X105640000Y-40725000D03*
X106140000Y-40725000D03*
X106640000Y-40725000D03*
X107140000Y-40725000D03*
D11*
X102740000Y-43975000D03*
X109040000Y-43975000D03*
G36*
G01*
X162630283Y-50339717D02*
X162630283Y-49755283D01*
G75*
G02*
X162880283Y-49505283I250000J0D01*
G01*
X163464717Y-49505283D01*
G75*
G02*
X163714717Y-49755283I0J-250000D01*
G01*
X163714717Y-50339717D01*
G75*
G02*
X163464717Y-50589717I-250000J0D01*
G01*
X162880283Y-50589717D01*
G75*
G02*
X162630283Y-50339717I0J250000D01*
G01*
G37*
G36*
G01*
X162630283Y-51614717D02*
X162630283Y-51030283D01*
G75*
G02*
X162880283Y-50780283I250000J0D01*
G01*
X163464717Y-50780283D01*
G75*
G02*
X163714717Y-51030283I0J-250000D01*
G01*
X163714717Y-51614717D01*
G75*
G02*
X163464717Y-51864717I-250000J0D01*
G01*
X162880283Y-51864717D01*
G75*
G02*
X162630283Y-51614717I0J250000D01*
G01*
G37*
G36*
G01*
X163905283Y-50339717D02*
X163905283Y-49755283D01*
G75*
G02*
X164155283Y-49505283I250000J0D01*
G01*
X164739717Y-49505283D01*
G75*
G02*
X164989717Y-49755283I0J-250000D01*
G01*
X164989717Y-50339717D01*
G75*
G02*
X164739717Y-50589717I-250000J0D01*
G01*
X164155283Y-50589717D01*
G75*
G02*
X163905283Y-50339717I0J250000D01*
G01*
G37*
G36*
G01*
X163905283Y-51614717D02*
X163905283Y-51030283D01*
G75*
G02*
X164155283Y-50780283I250000J0D01*
G01*
X164739717Y-50780283D01*
G75*
G02*
X164989717Y-51030283I0J-250000D01*
G01*
X164989717Y-51614717D01*
G75*
G02*
X164739717Y-51864717I-250000J0D01*
G01*
X164155283Y-51864717D01*
G75*
G02*
X163905283Y-51614717I0J250000D01*
G01*
G37*
G36*
G01*
X159935000Y-48135000D02*
X159935000Y-48035000D01*
G75*
G02*
X159985000Y-47985000I50000J0D01*
G01*
X160760000Y-47985000D01*
G75*
G02*
X160810000Y-48035000I0J-50000D01*
G01*
X160810000Y-48135000D01*
G75*
G02*
X160760000Y-48185000I-50000J0D01*
G01*
X159985000Y-48185000D01*
G75*
G02*
X159935000Y-48135000I0J50000D01*
G01*
G37*
G36*
G01*
X159935000Y-48535000D02*
X159935000Y-48435000D01*
G75*
G02*
X159985000Y-48385000I50000J0D01*
G01*
X160760000Y-48385000D01*
G75*
G02*
X160810000Y-48435000I0J-50000D01*
G01*
X160810000Y-48535000D01*
G75*
G02*
X160760000Y-48585000I-50000J0D01*
G01*
X159985000Y-48585000D01*
G75*
G02*
X159935000Y-48535000I0J50000D01*
G01*
G37*
G36*
G01*
X159935000Y-48935000D02*
X159935000Y-48835000D01*
G75*
G02*
X159985000Y-48785000I50000J0D01*
G01*
X160760000Y-48785000D01*
G75*
G02*
X160810000Y-48835000I0J-50000D01*
G01*
X160810000Y-48935000D01*
G75*
G02*
X160760000Y-48985000I-50000J0D01*
G01*
X159985000Y-48985000D01*
G75*
G02*
X159935000Y-48935000I0J50000D01*
G01*
G37*
G36*
G01*
X159935000Y-49335000D02*
X159935000Y-49235000D01*
G75*
G02*
X159985000Y-49185000I50000J0D01*
G01*
X160760000Y-49185000D01*
G75*
G02*
X160810000Y-49235000I0J-50000D01*
G01*
X160810000Y-49335000D01*
G75*
G02*
X160760000Y-49385000I-50000J0D01*
G01*
X159985000Y-49385000D01*
G75*
G02*
X159935000Y-49335000I0J50000D01*
G01*
G37*
G36*
G01*
X159935000Y-49735000D02*
X159935000Y-49635000D01*
G75*
G02*
X159985000Y-49585000I50000J0D01*
G01*
X160760000Y-49585000D01*
G75*
G02*
X160810000Y-49635000I0J-50000D01*
G01*
X160810000Y-49735000D01*
G75*
G02*
X160760000Y-49785000I-50000J0D01*
G01*
X159985000Y-49785000D01*
G75*
G02*
X159935000Y-49735000I0J50000D01*
G01*
G37*
G36*
G01*
X159935000Y-50135000D02*
X159935000Y-50035000D01*
G75*
G02*
X159985000Y-49985000I50000J0D01*
G01*
X160760000Y-49985000D01*
G75*
G02*
X160810000Y-50035000I0J-50000D01*
G01*
X160810000Y-50135000D01*
G75*
G02*
X160760000Y-50185000I-50000J0D01*
G01*
X159985000Y-50185000D01*
G75*
G02*
X159935000Y-50135000I0J50000D01*
G01*
G37*
G36*
G01*
X159935000Y-50535000D02*
X159935000Y-50435000D01*
G75*
G02*
X159985000Y-50385000I50000J0D01*
G01*
X160760000Y-50385000D01*
G75*
G02*
X160810000Y-50435000I0J-50000D01*
G01*
X160810000Y-50535000D01*
G75*
G02*
X160760000Y-50585000I-50000J0D01*
G01*
X159985000Y-50585000D01*
G75*
G02*
X159935000Y-50535000I0J50000D01*
G01*
G37*
G36*
G01*
X159935000Y-50935000D02*
X159935000Y-50835000D01*
G75*
G02*
X159985000Y-50785000I50000J0D01*
G01*
X160760000Y-50785000D01*
G75*
G02*
X160810000Y-50835000I0J-50000D01*
G01*
X160810000Y-50935000D01*
G75*
G02*
X160760000Y-50985000I-50000J0D01*
G01*
X159985000Y-50985000D01*
G75*
G02*
X159935000Y-50935000I0J50000D01*
G01*
G37*
G36*
G01*
X159935000Y-51335000D02*
X159935000Y-51235000D01*
G75*
G02*
X159985000Y-51185000I50000J0D01*
G01*
X160760000Y-51185000D01*
G75*
G02*
X160810000Y-51235000I0J-50000D01*
G01*
X160810000Y-51335000D01*
G75*
G02*
X160760000Y-51385000I-50000J0D01*
G01*
X159985000Y-51385000D01*
G75*
G02*
X159935000Y-51335000I0J50000D01*
G01*
G37*
G36*
G01*
X159935000Y-51735000D02*
X159935000Y-51635000D01*
G75*
G02*
X159985000Y-51585000I50000J0D01*
G01*
X160760000Y-51585000D01*
G75*
G02*
X160810000Y-51635000I0J-50000D01*
G01*
X160810000Y-51735000D01*
G75*
G02*
X160760000Y-51785000I-50000J0D01*
G01*
X159985000Y-51785000D01*
G75*
G02*
X159935000Y-51735000I0J50000D01*
G01*
G37*
G36*
G01*
X159935000Y-52135000D02*
X159935000Y-52035000D01*
G75*
G02*
X159985000Y-51985000I50000J0D01*
G01*
X160760000Y-51985000D01*
G75*
G02*
X160810000Y-52035000I0J-50000D01*
G01*
X160810000Y-52135000D01*
G75*
G02*
X160760000Y-52185000I-50000J0D01*
G01*
X159985000Y-52185000D01*
G75*
G02*
X159935000Y-52135000I0J50000D01*
G01*
G37*
G36*
G01*
X159935000Y-52535000D02*
X159935000Y-52435000D01*
G75*
G02*
X159985000Y-52385000I50000J0D01*
G01*
X160760000Y-52385000D01*
G75*
G02*
X160810000Y-52435000I0J-50000D01*
G01*
X160810000Y-52535000D01*
G75*
G02*
X160760000Y-52585000I-50000J0D01*
G01*
X159985000Y-52585000D01*
G75*
G02*
X159935000Y-52535000I0J50000D01*
G01*
G37*
G36*
G01*
X159935000Y-52935000D02*
X159935000Y-52835000D01*
G75*
G02*
X159985000Y-52785000I50000J0D01*
G01*
X160760000Y-52785000D01*
G75*
G02*
X160810000Y-52835000I0J-50000D01*
G01*
X160810000Y-52935000D01*
G75*
G02*
X160760000Y-52985000I-50000J0D01*
G01*
X159985000Y-52985000D01*
G75*
G02*
X159935000Y-52935000I0J50000D01*
G01*
G37*
G36*
G01*
X159935000Y-53335000D02*
X159935000Y-53235000D01*
G75*
G02*
X159985000Y-53185000I50000J0D01*
G01*
X160760000Y-53185000D01*
G75*
G02*
X160810000Y-53235000I0J-50000D01*
G01*
X160810000Y-53335000D01*
G75*
G02*
X160760000Y-53385000I-50000J0D01*
G01*
X159985000Y-53385000D01*
G75*
G02*
X159935000Y-53335000I0J50000D01*
G01*
G37*
G36*
G01*
X161110000Y-54510000D02*
X161110000Y-53735000D01*
G75*
G02*
X161160000Y-53685000I50000J0D01*
G01*
X161260000Y-53685000D01*
G75*
G02*
X161310000Y-53735000I0J-50000D01*
G01*
X161310000Y-54510000D01*
G75*
G02*
X161260000Y-54560000I-50000J0D01*
G01*
X161160000Y-54560000D01*
G75*
G02*
X161110000Y-54510000I0J50000D01*
G01*
G37*
G36*
G01*
X161510000Y-54510000D02*
X161510000Y-53735000D01*
G75*
G02*
X161560000Y-53685000I50000J0D01*
G01*
X161660000Y-53685000D01*
G75*
G02*
X161710000Y-53735000I0J-50000D01*
G01*
X161710000Y-54510000D01*
G75*
G02*
X161660000Y-54560000I-50000J0D01*
G01*
X161560000Y-54560000D01*
G75*
G02*
X161510000Y-54510000I0J50000D01*
G01*
G37*
G36*
G01*
X161910000Y-54510000D02*
X161910000Y-53735000D01*
G75*
G02*
X161960000Y-53685000I50000J0D01*
G01*
X162060000Y-53685000D01*
G75*
G02*
X162110000Y-53735000I0J-50000D01*
G01*
X162110000Y-54510000D01*
G75*
G02*
X162060000Y-54560000I-50000J0D01*
G01*
X161960000Y-54560000D01*
G75*
G02*
X161910000Y-54510000I0J50000D01*
G01*
G37*
G36*
G01*
X162310000Y-54510000D02*
X162310000Y-53735000D01*
G75*
G02*
X162360000Y-53685000I50000J0D01*
G01*
X162460000Y-53685000D01*
G75*
G02*
X162510000Y-53735000I0J-50000D01*
G01*
X162510000Y-54510000D01*
G75*
G02*
X162460000Y-54560000I-50000J0D01*
G01*
X162360000Y-54560000D01*
G75*
G02*
X162310000Y-54510000I0J50000D01*
G01*
G37*
G36*
G01*
X162710000Y-54510000D02*
X162710000Y-53735000D01*
G75*
G02*
X162760000Y-53685000I50000J0D01*
G01*
X162860000Y-53685000D01*
G75*
G02*
X162910000Y-53735000I0J-50000D01*
G01*
X162910000Y-54510000D01*
G75*
G02*
X162860000Y-54560000I-50000J0D01*
G01*
X162760000Y-54560000D01*
G75*
G02*
X162710000Y-54510000I0J50000D01*
G01*
G37*
G36*
G01*
X163110000Y-54510000D02*
X163110000Y-53735000D01*
G75*
G02*
X163160000Y-53685000I50000J0D01*
G01*
X163260000Y-53685000D01*
G75*
G02*
X163310000Y-53735000I0J-50000D01*
G01*
X163310000Y-54510000D01*
G75*
G02*
X163260000Y-54560000I-50000J0D01*
G01*
X163160000Y-54560000D01*
G75*
G02*
X163110000Y-54510000I0J50000D01*
G01*
G37*
G36*
G01*
X163510000Y-54510000D02*
X163510000Y-53735000D01*
G75*
G02*
X163560000Y-53685000I50000J0D01*
G01*
X163660000Y-53685000D01*
G75*
G02*
X163710000Y-53735000I0J-50000D01*
G01*
X163710000Y-54510000D01*
G75*
G02*
X163660000Y-54560000I-50000J0D01*
G01*
X163560000Y-54560000D01*
G75*
G02*
X163510000Y-54510000I0J50000D01*
G01*
G37*
G36*
G01*
X163910000Y-54510000D02*
X163910000Y-53735000D01*
G75*
G02*
X163960000Y-53685000I50000J0D01*
G01*
X164060000Y-53685000D01*
G75*
G02*
X164110000Y-53735000I0J-50000D01*
G01*
X164110000Y-54510000D01*
G75*
G02*
X164060000Y-54560000I-50000J0D01*
G01*
X163960000Y-54560000D01*
G75*
G02*
X163910000Y-54510000I0J50000D01*
G01*
G37*
G36*
G01*
X164310000Y-54510000D02*
X164310000Y-53735000D01*
G75*
G02*
X164360000Y-53685000I50000J0D01*
G01*
X164460000Y-53685000D01*
G75*
G02*
X164510000Y-53735000I0J-50000D01*
G01*
X164510000Y-54510000D01*
G75*
G02*
X164460000Y-54560000I-50000J0D01*
G01*
X164360000Y-54560000D01*
G75*
G02*
X164310000Y-54510000I0J50000D01*
G01*
G37*
G36*
G01*
X164710000Y-54510000D02*
X164710000Y-53735000D01*
G75*
G02*
X164760000Y-53685000I50000J0D01*
G01*
X164860000Y-53685000D01*
G75*
G02*
X164910000Y-53735000I0J-50000D01*
G01*
X164910000Y-54510000D01*
G75*
G02*
X164860000Y-54560000I-50000J0D01*
G01*
X164760000Y-54560000D01*
G75*
G02*
X164710000Y-54510000I0J50000D01*
G01*
G37*
G36*
G01*
X165110000Y-54510000D02*
X165110000Y-53735000D01*
G75*
G02*
X165160000Y-53685000I50000J0D01*
G01*
X165260000Y-53685000D01*
G75*
G02*
X165310000Y-53735000I0J-50000D01*
G01*
X165310000Y-54510000D01*
G75*
G02*
X165260000Y-54560000I-50000J0D01*
G01*
X165160000Y-54560000D01*
G75*
G02*
X165110000Y-54510000I0J50000D01*
G01*
G37*
G36*
G01*
X165510000Y-54510000D02*
X165510000Y-53735000D01*
G75*
G02*
X165560000Y-53685000I50000J0D01*
G01*
X165660000Y-53685000D01*
G75*
G02*
X165710000Y-53735000I0J-50000D01*
G01*
X165710000Y-54510000D01*
G75*
G02*
X165660000Y-54560000I-50000J0D01*
G01*
X165560000Y-54560000D01*
G75*
G02*
X165510000Y-54510000I0J50000D01*
G01*
G37*
G36*
G01*
X165910000Y-54510000D02*
X165910000Y-53735000D01*
G75*
G02*
X165960000Y-53685000I50000J0D01*
G01*
X166060000Y-53685000D01*
G75*
G02*
X166110000Y-53735000I0J-50000D01*
G01*
X166110000Y-54510000D01*
G75*
G02*
X166060000Y-54560000I-50000J0D01*
G01*
X165960000Y-54560000D01*
G75*
G02*
X165910000Y-54510000I0J50000D01*
G01*
G37*
G36*
G01*
X166310000Y-54510000D02*
X166310000Y-53735000D01*
G75*
G02*
X166360000Y-53685000I50000J0D01*
G01*
X166460000Y-53685000D01*
G75*
G02*
X166510000Y-53735000I0J-50000D01*
G01*
X166510000Y-54510000D01*
G75*
G02*
X166460000Y-54560000I-50000J0D01*
G01*
X166360000Y-54560000D01*
G75*
G02*
X166310000Y-54510000I0J50000D01*
G01*
G37*
G36*
G01*
X166810000Y-53335000D02*
X166810000Y-53235000D01*
G75*
G02*
X166860000Y-53185000I50000J0D01*
G01*
X167635000Y-53185000D01*
G75*
G02*
X167685000Y-53235000I0J-50000D01*
G01*
X167685000Y-53335000D01*
G75*
G02*
X167635000Y-53385000I-50000J0D01*
G01*
X166860000Y-53385000D01*
G75*
G02*
X166810000Y-53335000I0J50000D01*
G01*
G37*
G36*
G01*
X166810000Y-52935000D02*
X166810000Y-52835000D01*
G75*
G02*
X166860000Y-52785000I50000J0D01*
G01*
X167635000Y-52785000D01*
G75*
G02*
X167685000Y-52835000I0J-50000D01*
G01*
X167685000Y-52935000D01*
G75*
G02*
X167635000Y-52985000I-50000J0D01*
G01*
X166860000Y-52985000D01*
G75*
G02*
X166810000Y-52935000I0J50000D01*
G01*
G37*
G36*
G01*
X166810000Y-52535000D02*
X166810000Y-52435000D01*
G75*
G02*
X166860000Y-52385000I50000J0D01*
G01*
X167635000Y-52385000D01*
G75*
G02*
X167685000Y-52435000I0J-50000D01*
G01*
X167685000Y-52535000D01*
G75*
G02*
X167635000Y-52585000I-50000J0D01*
G01*
X166860000Y-52585000D01*
G75*
G02*
X166810000Y-52535000I0J50000D01*
G01*
G37*
G36*
G01*
X166810000Y-52135000D02*
X166810000Y-52035000D01*
G75*
G02*
X166860000Y-51985000I50000J0D01*
G01*
X167635000Y-51985000D01*
G75*
G02*
X167685000Y-52035000I0J-50000D01*
G01*
X167685000Y-52135000D01*
G75*
G02*
X167635000Y-52185000I-50000J0D01*
G01*
X166860000Y-52185000D01*
G75*
G02*
X166810000Y-52135000I0J50000D01*
G01*
G37*
G36*
G01*
X166810000Y-51735000D02*
X166810000Y-51635000D01*
G75*
G02*
X166860000Y-51585000I50000J0D01*
G01*
X167635000Y-51585000D01*
G75*
G02*
X167685000Y-51635000I0J-50000D01*
G01*
X167685000Y-51735000D01*
G75*
G02*
X167635000Y-51785000I-50000J0D01*
G01*
X166860000Y-51785000D01*
G75*
G02*
X166810000Y-51735000I0J50000D01*
G01*
G37*
G36*
G01*
X166810000Y-51335000D02*
X166810000Y-51235000D01*
G75*
G02*
X166860000Y-51185000I50000J0D01*
G01*
X167635000Y-51185000D01*
G75*
G02*
X167685000Y-51235000I0J-50000D01*
G01*
X167685000Y-51335000D01*
G75*
G02*
X167635000Y-51385000I-50000J0D01*
G01*
X166860000Y-51385000D01*
G75*
G02*
X166810000Y-51335000I0J50000D01*
G01*
G37*
G36*
G01*
X166810000Y-50935000D02*
X166810000Y-50835000D01*
G75*
G02*
X166860000Y-50785000I50000J0D01*
G01*
X167635000Y-50785000D01*
G75*
G02*
X167685000Y-50835000I0J-50000D01*
G01*
X167685000Y-50935000D01*
G75*
G02*
X167635000Y-50985000I-50000J0D01*
G01*
X166860000Y-50985000D01*
G75*
G02*
X166810000Y-50935000I0J50000D01*
G01*
G37*
G36*
G01*
X166810000Y-50535000D02*
X166810000Y-50435000D01*
G75*
G02*
X166860000Y-50385000I50000J0D01*
G01*
X167635000Y-50385000D01*
G75*
G02*
X167685000Y-50435000I0J-50000D01*
G01*
X167685000Y-50535000D01*
G75*
G02*
X167635000Y-50585000I-50000J0D01*
G01*
X166860000Y-50585000D01*
G75*
G02*
X166810000Y-50535000I0J50000D01*
G01*
G37*
G36*
G01*
X166810000Y-50135000D02*
X166810000Y-50035000D01*
G75*
G02*
X166860000Y-49985000I50000J0D01*
G01*
X167635000Y-49985000D01*
G75*
G02*
X167685000Y-50035000I0J-50000D01*
G01*
X167685000Y-50135000D01*
G75*
G02*
X167635000Y-50185000I-50000J0D01*
G01*
X166860000Y-50185000D01*
G75*
G02*
X166810000Y-50135000I0J50000D01*
G01*
G37*
G36*
G01*
X166810000Y-49735000D02*
X166810000Y-49635000D01*
G75*
G02*
X166860000Y-49585000I50000J0D01*
G01*
X167635000Y-49585000D01*
G75*
G02*
X167685000Y-49635000I0J-50000D01*
G01*
X167685000Y-49735000D01*
G75*
G02*
X167635000Y-49785000I-50000J0D01*
G01*
X166860000Y-49785000D01*
G75*
G02*
X166810000Y-49735000I0J50000D01*
G01*
G37*
G36*
G01*
X166810000Y-49335000D02*
X166810000Y-49235000D01*
G75*
G02*
X166860000Y-49185000I50000J0D01*
G01*
X167635000Y-49185000D01*
G75*
G02*
X167685000Y-49235000I0J-50000D01*
G01*
X167685000Y-49335000D01*
G75*
G02*
X167635000Y-49385000I-50000J0D01*
G01*
X166860000Y-49385000D01*
G75*
G02*
X166810000Y-49335000I0J50000D01*
G01*
G37*
G36*
G01*
X166810000Y-48935000D02*
X166810000Y-48835000D01*
G75*
G02*
X166860000Y-48785000I50000J0D01*
G01*
X167635000Y-48785000D01*
G75*
G02*
X167685000Y-48835000I0J-50000D01*
G01*
X167685000Y-48935000D01*
G75*
G02*
X167635000Y-48985000I-50000J0D01*
G01*
X166860000Y-48985000D01*
G75*
G02*
X166810000Y-48935000I0J50000D01*
G01*
G37*
G36*
G01*
X166810000Y-48535000D02*
X166810000Y-48435000D01*
G75*
G02*
X166860000Y-48385000I50000J0D01*
G01*
X167635000Y-48385000D01*
G75*
G02*
X167685000Y-48435000I0J-50000D01*
G01*
X167685000Y-48535000D01*
G75*
G02*
X167635000Y-48585000I-50000J0D01*
G01*
X166860000Y-48585000D01*
G75*
G02*
X166810000Y-48535000I0J50000D01*
G01*
G37*
G36*
G01*
X166810000Y-48135000D02*
X166810000Y-48035000D01*
G75*
G02*
X166860000Y-47985000I50000J0D01*
G01*
X167635000Y-47985000D01*
G75*
G02*
X167685000Y-48035000I0J-50000D01*
G01*
X167685000Y-48135000D01*
G75*
G02*
X167635000Y-48185000I-50000J0D01*
G01*
X166860000Y-48185000D01*
G75*
G02*
X166810000Y-48135000I0J50000D01*
G01*
G37*
G36*
G01*
X166310000Y-47635000D02*
X166310000Y-46860000D01*
G75*
G02*
X166360000Y-46810000I50000J0D01*
G01*
X166460000Y-46810000D01*
G75*
G02*
X166510000Y-46860000I0J-50000D01*
G01*
X166510000Y-47635000D01*
G75*
G02*
X166460000Y-47685000I-50000J0D01*
G01*
X166360000Y-47685000D01*
G75*
G02*
X166310000Y-47635000I0J50000D01*
G01*
G37*
G36*
G01*
X165910000Y-47635000D02*
X165910000Y-46860000D01*
G75*
G02*
X165960000Y-46810000I50000J0D01*
G01*
X166060000Y-46810000D01*
G75*
G02*
X166110000Y-46860000I0J-50000D01*
G01*
X166110000Y-47635000D01*
G75*
G02*
X166060000Y-47685000I-50000J0D01*
G01*
X165960000Y-47685000D01*
G75*
G02*
X165910000Y-47635000I0J50000D01*
G01*
G37*
G36*
G01*
X165510000Y-47635000D02*
X165510000Y-46860000D01*
G75*
G02*
X165560000Y-46810000I50000J0D01*
G01*
X165660000Y-46810000D01*
G75*
G02*
X165710000Y-46860000I0J-50000D01*
G01*
X165710000Y-47635000D01*
G75*
G02*
X165660000Y-47685000I-50000J0D01*
G01*
X165560000Y-47685000D01*
G75*
G02*
X165510000Y-47635000I0J50000D01*
G01*
G37*
G36*
G01*
X165110000Y-47635000D02*
X165110000Y-46860000D01*
G75*
G02*
X165160000Y-46810000I50000J0D01*
G01*
X165260000Y-46810000D01*
G75*
G02*
X165310000Y-46860000I0J-50000D01*
G01*
X165310000Y-47635000D01*
G75*
G02*
X165260000Y-47685000I-50000J0D01*
G01*
X165160000Y-47685000D01*
G75*
G02*
X165110000Y-47635000I0J50000D01*
G01*
G37*
G36*
G01*
X164710000Y-47635000D02*
X164710000Y-46860000D01*
G75*
G02*
X164760000Y-46810000I50000J0D01*
G01*
X164860000Y-46810000D01*
G75*
G02*
X164910000Y-46860000I0J-50000D01*
G01*
X164910000Y-47635000D01*
G75*
G02*
X164860000Y-47685000I-50000J0D01*
G01*
X164760000Y-47685000D01*
G75*
G02*
X164710000Y-47635000I0J50000D01*
G01*
G37*
G36*
G01*
X164310000Y-47635000D02*
X164310000Y-46860000D01*
G75*
G02*
X164360000Y-46810000I50000J0D01*
G01*
X164460000Y-46810000D01*
G75*
G02*
X164510000Y-46860000I0J-50000D01*
G01*
X164510000Y-47635000D01*
G75*
G02*
X164460000Y-47685000I-50000J0D01*
G01*
X164360000Y-47685000D01*
G75*
G02*
X164310000Y-47635000I0J50000D01*
G01*
G37*
G36*
G01*
X163910000Y-47635000D02*
X163910000Y-46860000D01*
G75*
G02*
X163960000Y-46810000I50000J0D01*
G01*
X164060000Y-46810000D01*
G75*
G02*
X164110000Y-46860000I0J-50000D01*
G01*
X164110000Y-47635000D01*
G75*
G02*
X164060000Y-47685000I-50000J0D01*
G01*
X163960000Y-47685000D01*
G75*
G02*
X163910000Y-47635000I0J50000D01*
G01*
G37*
G36*
G01*
X163510000Y-47635000D02*
X163510000Y-46860000D01*
G75*
G02*
X163560000Y-46810000I50000J0D01*
G01*
X163660000Y-46810000D01*
G75*
G02*
X163710000Y-46860000I0J-50000D01*
G01*
X163710000Y-47635000D01*
G75*
G02*
X163660000Y-47685000I-50000J0D01*
G01*
X163560000Y-47685000D01*
G75*
G02*
X163510000Y-47635000I0J50000D01*
G01*
G37*
G36*
G01*
X163110000Y-47635000D02*
X163110000Y-46860000D01*
G75*
G02*
X163160000Y-46810000I50000J0D01*
G01*
X163260000Y-46810000D01*
G75*
G02*
X163310000Y-46860000I0J-50000D01*
G01*
X163310000Y-47635000D01*
G75*
G02*
X163260000Y-47685000I-50000J0D01*
G01*
X163160000Y-47685000D01*
G75*
G02*
X163110000Y-47635000I0J50000D01*
G01*
G37*
G36*
G01*
X162710000Y-47635000D02*
X162710000Y-46860000D01*
G75*
G02*
X162760000Y-46810000I50000J0D01*
G01*
X162860000Y-46810000D01*
G75*
G02*
X162910000Y-46860000I0J-50000D01*
G01*
X162910000Y-47635000D01*
G75*
G02*
X162860000Y-47685000I-50000J0D01*
G01*
X162760000Y-47685000D01*
G75*
G02*
X162710000Y-47635000I0J50000D01*
G01*
G37*
G36*
G01*
X162310000Y-47635000D02*
X162310000Y-46860000D01*
G75*
G02*
X162360000Y-46810000I50000J0D01*
G01*
X162460000Y-46810000D01*
G75*
G02*
X162510000Y-46860000I0J-50000D01*
G01*
X162510000Y-47635000D01*
G75*
G02*
X162460000Y-47685000I-50000J0D01*
G01*
X162360000Y-47685000D01*
G75*
G02*
X162310000Y-47635000I0J50000D01*
G01*
G37*
G36*
G01*
X161910000Y-47635000D02*
X161910000Y-46860000D01*
G75*
G02*
X161960000Y-46810000I50000J0D01*
G01*
X162060000Y-46810000D01*
G75*
G02*
X162110000Y-46860000I0J-50000D01*
G01*
X162110000Y-47635000D01*
G75*
G02*
X162060000Y-47685000I-50000J0D01*
G01*
X161960000Y-47685000D01*
G75*
G02*
X161910000Y-47635000I0J50000D01*
G01*
G37*
G36*
G01*
X161510000Y-47635000D02*
X161510000Y-46860000D01*
G75*
G02*
X161560000Y-46810000I50000J0D01*
G01*
X161660000Y-46810000D01*
G75*
G02*
X161710000Y-46860000I0J-50000D01*
G01*
X161710000Y-47635000D01*
G75*
G02*
X161660000Y-47685000I-50000J0D01*
G01*
X161560000Y-47685000D01*
G75*
G02*
X161510000Y-47635000I0J50000D01*
G01*
G37*
G36*
G01*
X161110000Y-47635000D02*
X161110000Y-46860000D01*
G75*
G02*
X161160000Y-46810000I50000J0D01*
G01*
X161260000Y-46810000D01*
G75*
G02*
X161310000Y-46860000I0J-50000D01*
G01*
X161310000Y-47635000D01*
G75*
G02*
X161260000Y-47685000I-50000J0D01*
G01*
X161160000Y-47685000D01*
G75*
G02*
X161110000Y-47635000I0J50000D01*
G01*
G37*
G36*
G01*
X158508060Y-44858860D02*
X158333060Y-44858860D01*
G75*
G02*
X158245560Y-44771360I0J87500D01*
G01*
X158245560Y-44421360D01*
G75*
G02*
X158333060Y-44333860I87500J0D01*
G01*
X158508060Y-44333860D01*
G75*
G02*
X158595560Y-44421360I0J-87500D01*
G01*
X158595560Y-44771360D01*
G75*
G02*
X158508060Y-44858860I-87500J0D01*
G01*
G37*
G36*
G01*
X159008060Y-44858860D02*
X158833060Y-44858860D01*
G75*
G02*
X158745560Y-44771360I0J87500D01*
G01*
X158745560Y-44421360D01*
G75*
G02*
X158833060Y-44333860I87500J0D01*
G01*
X159008060Y-44333860D01*
G75*
G02*
X159095560Y-44421360I0J-87500D01*
G01*
X159095560Y-44771360D01*
G75*
G02*
X159008060Y-44858860I-87500J0D01*
G01*
G37*
G36*
G01*
X159508060Y-44858860D02*
X159333060Y-44858860D01*
G75*
G02*
X159245560Y-44771360I0J87500D01*
G01*
X159245560Y-44421360D01*
G75*
G02*
X159333060Y-44333860I87500J0D01*
G01*
X159508060Y-44333860D01*
G75*
G02*
X159595560Y-44421360I0J-87500D01*
G01*
X159595560Y-44771360D01*
G75*
G02*
X159508060Y-44858860I-87500J0D01*
G01*
G37*
G36*
G01*
X160008060Y-44858860D02*
X159833060Y-44858860D01*
G75*
G02*
X159745560Y-44771360I0J87500D01*
G01*
X159745560Y-44421360D01*
G75*
G02*
X159833060Y-44333860I87500J0D01*
G01*
X160008060Y-44333860D01*
G75*
G02*
X160095560Y-44421360I0J-87500D01*
G01*
X160095560Y-44771360D01*
G75*
G02*
X160008060Y-44858860I-87500J0D01*
G01*
G37*
G36*
G01*
X160008060Y-42283860D02*
X159833060Y-42283860D01*
G75*
G02*
X159745560Y-42196360I0J87500D01*
G01*
X159745560Y-41846360D01*
G75*
G02*
X159833060Y-41758860I87500J0D01*
G01*
X160008060Y-41758860D01*
G75*
G02*
X160095560Y-41846360I0J-87500D01*
G01*
X160095560Y-42196360D01*
G75*
G02*
X160008060Y-42283860I-87500J0D01*
G01*
G37*
G36*
G01*
X159508060Y-42283860D02*
X159333060Y-42283860D01*
G75*
G02*
X159245560Y-42196360I0J87500D01*
G01*
X159245560Y-41846360D01*
G75*
G02*
X159333060Y-41758860I87500J0D01*
G01*
X159508060Y-41758860D01*
G75*
G02*
X159595560Y-41846360I0J-87500D01*
G01*
X159595560Y-42196360D01*
G75*
G02*
X159508060Y-42283860I-87500J0D01*
G01*
G37*
G36*
G01*
X159008060Y-42283860D02*
X158833060Y-42283860D01*
G75*
G02*
X158745560Y-42196360I0J87500D01*
G01*
X158745560Y-41846360D01*
G75*
G02*
X158833060Y-41758860I87500J0D01*
G01*
X159008060Y-41758860D01*
G75*
G02*
X159095560Y-41846360I0J-87500D01*
G01*
X159095560Y-42196360D01*
G75*
G02*
X159008060Y-42283860I-87500J0D01*
G01*
G37*
G36*
G01*
X158508060Y-42283860D02*
X158333060Y-42283860D01*
G75*
G02*
X158245560Y-42196360I0J87500D01*
G01*
X158245560Y-41846360D01*
G75*
G02*
X158333060Y-41758860I87500J0D01*
G01*
X158508060Y-41758860D01*
G75*
G02*
X158595560Y-41846360I0J-87500D01*
G01*
X158595560Y-42196360D01*
G75*
G02*
X158508060Y-42283860I-87500J0D01*
G01*
G37*
G36*
G01*
X158950560Y-43938860D02*
X158590560Y-43938860D01*
G75*
G02*
X158450560Y-43798860I0J140000D01*
G01*
X158450560Y-43518860D01*
G75*
G02*
X158590560Y-43378860I140000J0D01*
G01*
X158950560Y-43378860D01*
G75*
G02*
X159090560Y-43518860I0J-140000D01*
G01*
X159090560Y-43798860D01*
G75*
G02*
X158950560Y-43938860I-140000J0D01*
G01*
G37*
G36*
G01*
X159750560Y-43938860D02*
X159390560Y-43938860D01*
G75*
G02*
X159250560Y-43798860I0J140000D01*
G01*
X159250560Y-43518860D01*
G75*
G02*
X159390560Y-43378860I140000J0D01*
G01*
X159750560Y-43378860D01*
G75*
G02*
X159890560Y-43518860I0J-140000D01*
G01*
X159890560Y-43798860D01*
G75*
G02*
X159750560Y-43938860I-140000J0D01*
G01*
G37*
G36*
G01*
X158950560Y-43238860D02*
X158590560Y-43238860D01*
G75*
G02*
X158450560Y-43098860I0J140000D01*
G01*
X158450560Y-42818860D01*
G75*
G02*
X158590560Y-42678860I140000J0D01*
G01*
X158950560Y-42678860D01*
G75*
G02*
X159090560Y-42818860I0J-140000D01*
G01*
X159090560Y-43098860D01*
G75*
G02*
X158950560Y-43238860I-140000J0D01*
G01*
G37*
G36*
G01*
X159750560Y-43238860D02*
X159390560Y-43238860D01*
G75*
G02*
X159250560Y-43098860I0J140000D01*
G01*
X159250560Y-42818860D01*
G75*
G02*
X159390560Y-42678860I140000J0D01*
G01*
X159750560Y-42678860D01*
G75*
G02*
X159890560Y-42818860I0J-140000D01*
G01*
X159890560Y-43098860D01*
G75*
G02*
X159750560Y-43238860I-140000J0D01*
G01*
G37*
G36*
G01*
X163363750Y-42535000D02*
X163876250Y-42535000D01*
G75*
G02*
X164095000Y-42753750I0J-218750D01*
G01*
X164095000Y-43191250D01*
G75*
G02*
X163876250Y-43410000I-218750J0D01*
G01*
X163363750Y-43410000D01*
G75*
G02*
X163145000Y-43191250I0J218750D01*
G01*
X163145000Y-42753750D01*
G75*
G02*
X163363750Y-42535000I218750J0D01*
G01*
G37*
G36*
G01*
X163363750Y-40960000D02*
X163876250Y-40960000D01*
G75*
G02*
X164095000Y-41178750I0J-218750D01*
G01*
X164095000Y-41616250D01*
G75*
G02*
X163876250Y-41835000I-218750J0D01*
G01*
X163363750Y-41835000D01*
G75*
G02*
X163145000Y-41616250I0J218750D01*
G01*
X163145000Y-41178750D01*
G75*
G02*
X163363750Y-40960000I218750J0D01*
G01*
G37*
G36*
G01*
X171240000Y-50018750D02*
X171240000Y-50531250D01*
G75*
G02*
X171021250Y-50750000I-218750J0D01*
G01*
X170583750Y-50750000D01*
G75*
G02*
X170365000Y-50531250I0J218750D01*
G01*
X170365000Y-50018750D01*
G75*
G02*
X170583750Y-49800000I218750J0D01*
G01*
X171021250Y-49800000D01*
G75*
G02*
X171240000Y-50018750I0J-218750D01*
G01*
G37*
G36*
G01*
X172815000Y-50018750D02*
X172815000Y-50531250D01*
G75*
G02*
X172596250Y-50750000I-218750J0D01*
G01*
X172158750Y-50750000D01*
G75*
G02*
X171940000Y-50531250I0J218750D01*
G01*
X171940000Y-50018750D01*
G75*
G02*
X172158750Y-49800000I218750J0D01*
G01*
X172596250Y-49800000D01*
G75*
G02*
X172815000Y-50018750I0J-218750D01*
G01*
G37*
G36*
G01*
X156020000Y-39385000D02*
X156020000Y-37785000D01*
G75*
G02*
X156220000Y-37585000I200000J0D01*
G01*
X156620000Y-37585000D01*
G75*
G02*
X156820000Y-37785000I0J-200000D01*
G01*
X156820000Y-39385000D01*
G75*
G02*
X156620000Y-39585000I-200000J0D01*
G01*
X156220000Y-39585000D01*
G75*
G02*
X156020000Y-39385000I0J200000D01*
G01*
G37*
G36*
G01*
X160220000Y-39385000D02*
X160220000Y-37785000D01*
G75*
G02*
X160420000Y-37585000I200000J0D01*
G01*
X160820000Y-37585000D01*
G75*
G02*
X161020000Y-37785000I0J-200000D01*
G01*
X161020000Y-39385000D01*
G75*
G02*
X160820000Y-39585000I-200000J0D01*
G01*
X160420000Y-39585000D01*
G75*
G02*
X160220000Y-39385000I0J200000D01*
G01*
G37*
D12*
X165295000Y-39380000D03*
X171745000Y-39380000D03*
X166070000Y-39380000D03*
X170970000Y-39380000D03*
D13*
X170270000Y-39380000D03*
X166770000Y-39380000D03*
X169770000Y-39380000D03*
X167270000Y-39380000D03*
X169270000Y-39380000D03*
X167770000Y-39380000D03*
X168270000Y-39380000D03*
X168770000Y-39380000D03*
D14*
X175420000Y-41135000D03*
X175420000Y-37835000D03*
D15*
X159400000Y-59460000D03*
X161600000Y-59460000D03*
X161600000Y-57760000D03*
X159400000Y-57760000D03*
G36*
G01*
X172070000Y-40960000D02*
X172570000Y-40960000D01*
G75*
G02*
X172795000Y-41185000I0J-225000D01*
G01*
X172795000Y-41635000D01*
G75*
G02*
X172570000Y-41860000I-225000J0D01*
G01*
X172070000Y-41860000D01*
G75*
G02*
X171845000Y-41635000I0J225000D01*
G01*
X171845000Y-41185000D01*
G75*
G02*
X172070000Y-40960000I225000J0D01*
G01*
G37*
G36*
G01*
X172070000Y-42510000D02*
X172570000Y-42510000D01*
G75*
G02*
X172795000Y-42735000I0J-225000D01*
G01*
X172795000Y-43185000D01*
G75*
G02*
X172570000Y-43410000I-225000J0D01*
G01*
X172070000Y-43410000D01*
G75*
G02*
X171845000Y-43185000I0J225000D01*
G01*
X171845000Y-42735000D01*
G75*
G02*
X172070000Y-42510000I225000J0D01*
G01*
G37*
G36*
G01*
X153220000Y-39385000D02*
X153220000Y-37785000D01*
G75*
G02*
X153420000Y-37585000I200000J0D01*
G01*
X153820000Y-37585000D01*
G75*
G02*
X154020000Y-37785000I0J-200000D01*
G01*
X154020000Y-39385000D01*
G75*
G02*
X153820000Y-39585000I-200000J0D01*
G01*
X153420000Y-39585000D01*
G75*
G02*
X153220000Y-39385000I0J200000D01*
G01*
G37*
G36*
G01*
X149020000Y-39385000D02*
X149020000Y-37785000D01*
G75*
G02*
X149220000Y-37585000I200000J0D01*
G01*
X149620000Y-37585000D01*
G75*
G02*
X149820000Y-37785000I0J-200000D01*
G01*
X149820000Y-39385000D01*
G75*
G02*
X149620000Y-39585000I-200000J0D01*
G01*
X149220000Y-39585000D01*
G75*
G02*
X149020000Y-39385000I0J200000D01*
G01*
G37*
D16*
X177730000Y-45185000D03*
X176780000Y-45185000D03*
X175830000Y-45185000D03*
X175830000Y-47385000D03*
X177730000Y-47385000D03*
G36*
G01*
X132870000Y-121190000D02*
X132870000Y-120990000D01*
G75*
G02*
X132970000Y-120890000I100000J0D01*
G01*
X134245000Y-120890000D01*
G75*
G02*
X134345000Y-120990000I0J-100000D01*
G01*
X134345000Y-121190000D01*
G75*
G02*
X134245000Y-121290000I-100000J0D01*
G01*
X132970000Y-121290000D01*
G75*
G02*
X132870000Y-121190000I0J100000D01*
G01*
G37*
G36*
G01*
X132870000Y-121840000D02*
X132870000Y-121640000D01*
G75*
G02*
X132970000Y-121540000I100000J0D01*
G01*
X134245000Y-121540000D01*
G75*
G02*
X134345000Y-121640000I0J-100000D01*
G01*
X134345000Y-121840000D01*
G75*
G02*
X134245000Y-121940000I-100000J0D01*
G01*
X132970000Y-121940000D01*
G75*
G02*
X132870000Y-121840000I0J100000D01*
G01*
G37*
G36*
G01*
X132870000Y-122490000D02*
X132870000Y-122290000D01*
G75*
G02*
X132970000Y-122190000I100000J0D01*
G01*
X134245000Y-122190000D01*
G75*
G02*
X134345000Y-122290000I0J-100000D01*
G01*
X134345000Y-122490000D01*
G75*
G02*
X134245000Y-122590000I-100000J0D01*
G01*
X132970000Y-122590000D01*
G75*
G02*
X132870000Y-122490000I0J100000D01*
G01*
G37*
G36*
G01*
X132870000Y-123140000D02*
X132870000Y-122940000D01*
G75*
G02*
X132970000Y-122840000I100000J0D01*
G01*
X134245000Y-122840000D01*
G75*
G02*
X134345000Y-122940000I0J-100000D01*
G01*
X134345000Y-123140000D01*
G75*
G02*
X134245000Y-123240000I-100000J0D01*
G01*
X132970000Y-123240000D01*
G75*
G02*
X132870000Y-123140000I0J100000D01*
G01*
G37*
G36*
G01*
X132870000Y-123790000D02*
X132870000Y-123590000D01*
G75*
G02*
X132970000Y-123490000I100000J0D01*
G01*
X134245000Y-123490000D01*
G75*
G02*
X134345000Y-123590000I0J-100000D01*
G01*
X134345000Y-123790000D01*
G75*
G02*
X134245000Y-123890000I-100000J0D01*
G01*
X132970000Y-123890000D01*
G75*
G02*
X132870000Y-123790000I0J100000D01*
G01*
G37*
G36*
G01*
X132870000Y-124440000D02*
X132870000Y-124240000D01*
G75*
G02*
X132970000Y-124140000I100000J0D01*
G01*
X134245000Y-124140000D01*
G75*
G02*
X134345000Y-124240000I0J-100000D01*
G01*
X134345000Y-124440000D01*
G75*
G02*
X134245000Y-124540000I-100000J0D01*
G01*
X132970000Y-124540000D01*
G75*
G02*
X132870000Y-124440000I0J100000D01*
G01*
G37*
G36*
G01*
X132870000Y-125090000D02*
X132870000Y-124890000D01*
G75*
G02*
X132970000Y-124790000I100000J0D01*
G01*
X134245000Y-124790000D01*
G75*
G02*
X134345000Y-124890000I0J-100000D01*
G01*
X134345000Y-125090000D01*
G75*
G02*
X134245000Y-125190000I-100000J0D01*
G01*
X132970000Y-125190000D01*
G75*
G02*
X132870000Y-125090000I0J100000D01*
G01*
G37*
G36*
G01*
X132870000Y-125740000D02*
X132870000Y-125540000D01*
G75*
G02*
X132970000Y-125440000I100000J0D01*
G01*
X134245000Y-125440000D01*
G75*
G02*
X134345000Y-125540000I0J-100000D01*
G01*
X134345000Y-125740000D01*
G75*
G02*
X134245000Y-125840000I-100000J0D01*
G01*
X132970000Y-125840000D01*
G75*
G02*
X132870000Y-125740000I0J100000D01*
G01*
G37*
G36*
G01*
X132870000Y-126390000D02*
X132870000Y-126190000D01*
G75*
G02*
X132970000Y-126090000I100000J0D01*
G01*
X134245000Y-126090000D01*
G75*
G02*
X134345000Y-126190000I0J-100000D01*
G01*
X134345000Y-126390000D01*
G75*
G02*
X134245000Y-126490000I-100000J0D01*
G01*
X132970000Y-126490000D01*
G75*
G02*
X132870000Y-126390000I0J100000D01*
G01*
G37*
G36*
G01*
X132870000Y-127040000D02*
X132870000Y-126840000D01*
G75*
G02*
X132970000Y-126740000I100000J0D01*
G01*
X134245000Y-126740000D01*
G75*
G02*
X134345000Y-126840000I0J-100000D01*
G01*
X134345000Y-127040000D01*
G75*
G02*
X134245000Y-127140000I-100000J0D01*
G01*
X132970000Y-127140000D01*
G75*
G02*
X132870000Y-127040000I0J100000D01*
G01*
G37*
G36*
G01*
X138595000Y-127040000D02*
X138595000Y-126840000D01*
G75*
G02*
X138695000Y-126740000I100000J0D01*
G01*
X139970000Y-126740000D01*
G75*
G02*
X140070000Y-126840000I0J-100000D01*
G01*
X140070000Y-127040000D01*
G75*
G02*
X139970000Y-127140000I-100000J0D01*
G01*
X138695000Y-127140000D01*
G75*
G02*
X138595000Y-127040000I0J100000D01*
G01*
G37*
G36*
G01*
X138595000Y-126390000D02*
X138595000Y-126190000D01*
G75*
G02*
X138695000Y-126090000I100000J0D01*
G01*
X139970000Y-126090000D01*
G75*
G02*
X140070000Y-126190000I0J-100000D01*
G01*
X140070000Y-126390000D01*
G75*
G02*
X139970000Y-126490000I-100000J0D01*
G01*
X138695000Y-126490000D01*
G75*
G02*
X138595000Y-126390000I0J100000D01*
G01*
G37*
G36*
G01*
X138595000Y-125740000D02*
X138595000Y-125540000D01*
G75*
G02*
X138695000Y-125440000I100000J0D01*
G01*
X139970000Y-125440000D01*
G75*
G02*
X140070000Y-125540000I0J-100000D01*
G01*
X140070000Y-125740000D01*
G75*
G02*
X139970000Y-125840000I-100000J0D01*
G01*
X138695000Y-125840000D01*
G75*
G02*
X138595000Y-125740000I0J100000D01*
G01*
G37*
G36*
G01*
X138595000Y-125090000D02*
X138595000Y-124890000D01*
G75*
G02*
X138695000Y-124790000I100000J0D01*
G01*
X139970000Y-124790000D01*
G75*
G02*
X140070000Y-124890000I0J-100000D01*
G01*
X140070000Y-125090000D01*
G75*
G02*
X139970000Y-125190000I-100000J0D01*
G01*
X138695000Y-125190000D01*
G75*
G02*
X138595000Y-125090000I0J100000D01*
G01*
G37*
G36*
G01*
X138595000Y-124440000D02*
X138595000Y-124240000D01*
G75*
G02*
X138695000Y-124140000I100000J0D01*
G01*
X139970000Y-124140000D01*
G75*
G02*
X140070000Y-124240000I0J-100000D01*
G01*
X140070000Y-124440000D01*
G75*
G02*
X139970000Y-124540000I-100000J0D01*
G01*
X138695000Y-124540000D01*
G75*
G02*
X138595000Y-124440000I0J100000D01*
G01*
G37*
G36*
G01*
X138595000Y-123790000D02*
X138595000Y-123590000D01*
G75*
G02*
X138695000Y-123490000I100000J0D01*
G01*
X139970000Y-123490000D01*
G75*
G02*
X140070000Y-123590000I0J-100000D01*
G01*
X140070000Y-123790000D01*
G75*
G02*
X139970000Y-123890000I-100000J0D01*
G01*
X138695000Y-123890000D01*
G75*
G02*
X138595000Y-123790000I0J100000D01*
G01*
G37*
G36*
G01*
X138595000Y-123140000D02*
X138595000Y-122940000D01*
G75*
G02*
X138695000Y-122840000I100000J0D01*
G01*
X139970000Y-122840000D01*
G75*
G02*
X140070000Y-122940000I0J-100000D01*
G01*
X140070000Y-123140000D01*
G75*
G02*
X139970000Y-123240000I-100000J0D01*
G01*
X138695000Y-123240000D01*
G75*
G02*
X138595000Y-123140000I0J100000D01*
G01*
G37*
G36*
G01*
X138595000Y-122490000D02*
X138595000Y-122290000D01*
G75*
G02*
X138695000Y-122190000I100000J0D01*
G01*
X139970000Y-122190000D01*
G75*
G02*
X140070000Y-122290000I0J-100000D01*
G01*
X140070000Y-122490000D01*
G75*
G02*
X139970000Y-122590000I-100000J0D01*
G01*
X138695000Y-122590000D01*
G75*
G02*
X138595000Y-122490000I0J100000D01*
G01*
G37*
G36*
G01*
X138595000Y-121840000D02*
X138595000Y-121640000D01*
G75*
G02*
X138695000Y-121540000I100000J0D01*
G01*
X139970000Y-121540000D01*
G75*
G02*
X140070000Y-121640000I0J-100000D01*
G01*
X140070000Y-121840000D01*
G75*
G02*
X139970000Y-121940000I-100000J0D01*
G01*
X138695000Y-121940000D01*
G75*
G02*
X138595000Y-121840000I0J100000D01*
G01*
G37*
G36*
G01*
X138595000Y-121190000D02*
X138595000Y-120990000D01*
G75*
G02*
X138695000Y-120890000I100000J0D01*
G01*
X139970000Y-120890000D01*
G75*
G02*
X140070000Y-120990000I0J-100000D01*
G01*
X140070000Y-121190000D01*
G75*
G02*
X139970000Y-121290000I-100000J0D01*
G01*
X138695000Y-121290000D01*
G75*
G02*
X138595000Y-121190000I0J100000D01*
G01*
G37*
G36*
G01*
X141620000Y-126365001D02*
X141620000Y-125064999D01*
G75*
G02*
X141869999Y-124815000I249999J0D01*
G01*
X142520001Y-124815000D01*
G75*
G02*
X142770000Y-125064999I0J-249999D01*
G01*
X142770000Y-126365001D01*
G75*
G02*
X142520001Y-126615000I-249999J0D01*
G01*
X141869999Y-126615000D01*
G75*
G02*
X141620000Y-126365001I0J249999D01*
G01*
G37*
G36*
G01*
X144570000Y-126365001D02*
X144570000Y-125064999D01*
G75*
G02*
X144819999Y-124815000I249999J0D01*
G01*
X145470001Y-124815000D01*
G75*
G02*
X145720000Y-125064999I0J-249999D01*
G01*
X145720000Y-126365001D01*
G75*
G02*
X145470001Y-126615000I-249999J0D01*
G01*
X144819999Y-126615000D01*
G75*
G02*
X144570000Y-126365001I0J249999D01*
G01*
G37*
G36*
G01*
X135770000Y-131665001D02*
X135770000Y-130364999D01*
G75*
G02*
X136019999Y-130115000I249999J0D01*
G01*
X136670001Y-130115000D01*
G75*
G02*
X136920000Y-130364999I0J-249999D01*
G01*
X136920000Y-131665001D01*
G75*
G02*
X136670001Y-131915000I-249999J0D01*
G01*
X136019999Y-131915000D01*
G75*
G02*
X135770000Y-131665001I0J249999D01*
G01*
G37*
G36*
G01*
X132820000Y-131665001D02*
X132820000Y-130364999D01*
G75*
G02*
X133069999Y-130115000I249999J0D01*
G01*
X133720001Y-130115000D01*
G75*
G02*
X133970000Y-130364999I0J-249999D01*
G01*
X133970000Y-131665001D01*
G75*
G02*
X133720001Y-131915000I-249999J0D01*
G01*
X133069999Y-131915000D01*
G75*
G02*
X132820000Y-131665001I0J249999D01*
G01*
G37*
G36*
G01*
X132845000Y-129165000D02*
X132845000Y-128665000D01*
G75*
G02*
X133070000Y-128440000I225000J0D01*
G01*
X133520000Y-128440000D01*
G75*
G02*
X133745000Y-128665000I0J-225000D01*
G01*
X133745000Y-129165000D01*
G75*
G02*
X133520000Y-129390000I-225000J0D01*
G01*
X133070000Y-129390000D01*
G75*
G02*
X132845000Y-129165000I0J225000D01*
G01*
G37*
G36*
G01*
X134395000Y-129165000D02*
X134395000Y-128665000D01*
G75*
G02*
X134620000Y-128440000I225000J0D01*
G01*
X135070000Y-128440000D01*
G75*
G02*
X135295000Y-128665000I0J-225000D01*
G01*
X135295000Y-129165000D01*
G75*
G02*
X135070000Y-129390000I-225000J0D01*
G01*
X134620000Y-129390000D01*
G75*
G02*
X134395000Y-129165000I0J225000D01*
G01*
G37*
G36*
G01*
X141645000Y-123965000D02*
X141645000Y-123465000D01*
G75*
G02*
X141870000Y-123240000I225000J0D01*
G01*
X142320000Y-123240000D01*
G75*
G02*
X142545000Y-123465000I0J-225000D01*
G01*
X142545000Y-123965000D01*
G75*
G02*
X142320000Y-124190000I-225000J0D01*
G01*
X141870000Y-124190000D01*
G75*
G02*
X141645000Y-123965000I0J225000D01*
G01*
G37*
G36*
G01*
X143195000Y-123965000D02*
X143195000Y-123465000D01*
G75*
G02*
X143420000Y-123240000I225000J0D01*
G01*
X143870000Y-123240000D01*
G75*
G02*
X144095000Y-123465000I0J-225000D01*
G01*
X144095000Y-123965000D01*
G75*
G02*
X143870000Y-124190000I-225000J0D01*
G01*
X143420000Y-124190000D01*
G75*
G02*
X143195000Y-123965000I0J225000D01*
G01*
G37*
G36*
G01*
X131840000Y-117505001D02*
X131840000Y-116204999D01*
G75*
G02*
X132089999Y-115955000I249999J0D01*
G01*
X132740001Y-115955000D01*
G75*
G02*
X132990000Y-116204999I0J-249999D01*
G01*
X132990000Y-117505001D01*
G75*
G02*
X132740001Y-117755000I-249999J0D01*
G01*
X132089999Y-117755000D01*
G75*
G02*
X131840000Y-117505001I0J249999D01*
G01*
G37*
G36*
G01*
X134790000Y-117505001D02*
X134790000Y-116204999D01*
G75*
G02*
X135039999Y-115955000I249999J0D01*
G01*
X135690001Y-115955000D01*
G75*
G02*
X135940000Y-116204999I0J-249999D01*
G01*
X135940000Y-117505001D01*
G75*
G02*
X135690001Y-117755000I-249999J0D01*
G01*
X135039999Y-117755000D01*
G75*
G02*
X134790000Y-117505001I0J249999D01*
G01*
G37*
G36*
G01*
X141620000Y-122365001D02*
X141620000Y-121064999D01*
G75*
G02*
X141869999Y-120815000I249999J0D01*
G01*
X142520001Y-120815000D01*
G75*
G02*
X142770000Y-121064999I0J-249999D01*
G01*
X142770000Y-122365001D01*
G75*
G02*
X142520001Y-122615000I-249999J0D01*
G01*
X141869999Y-122615000D01*
G75*
G02*
X141620000Y-122365001I0J249999D01*
G01*
G37*
G36*
G01*
X144570000Y-122365001D02*
X144570000Y-121064999D01*
G75*
G02*
X144819999Y-120815000I249999J0D01*
G01*
X145470001Y-120815000D01*
G75*
G02*
X145720000Y-121064999I0J-249999D01*
G01*
X145720000Y-122365001D01*
G75*
G02*
X145470001Y-122615000I-249999J0D01*
G01*
X144819999Y-122615000D01*
G75*
G02*
X144570000Y-122365001I0J249999D01*
G01*
G37*
G36*
G01*
X133405000Y-119115000D02*
X133405000Y-118615000D01*
G75*
G02*
X133630000Y-118390000I225000J0D01*
G01*
X134080000Y-118390000D01*
G75*
G02*
X134305000Y-118615000I0J-225000D01*
G01*
X134305000Y-119115000D01*
G75*
G02*
X134080000Y-119340000I-225000J0D01*
G01*
X133630000Y-119340000D01*
G75*
G02*
X133405000Y-119115000I0J225000D01*
G01*
G37*
G36*
G01*
X131855000Y-119115000D02*
X131855000Y-118615000D01*
G75*
G02*
X132080000Y-118390000I225000J0D01*
G01*
X132530000Y-118390000D01*
G75*
G02*
X132755000Y-118615000I0J-225000D01*
G01*
X132755000Y-119115000D01*
G75*
G02*
X132530000Y-119340000I-225000J0D01*
G01*
X132080000Y-119340000D01*
G75*
G02*
X131855000Y-119115000I0J225000D01*
G01*
G37*
G36*
G01*
X139340000Y-116094999D02*
X139340000Y-117395001D01*
G75*
G02*
X139090001Y-117645000I-249999J0D01*
G01*
X138439999Y-117645000D01*
G75*
G02*
X138190000Y-117395001I0J249999D01*
G01*
X138190000Y-116094999D01*
G75*
G02*
X138439999Y-115845000I249999J0D01*
G01*
X139090001Y-115845000D01*
G75*
G02*
X139340000Y-116094999I0J-249999D01*
G01*
G37*
G36*
G01*
X142290000Y-116094999D02*
X142290000Y-117395001D01*
G75*
G02*
X142040001Y-117645000I-249999J0D01*
G01*
X141389999Y-117645000D01*
G75*
G02*
X141140000Y-117395001I0J249999D01*
G01*
X141140000Y-116094999D01*
G75*
G02*
X141389999Y-115845000I249999J0D01*
G01*
X142040001Y-115845000D01*
G75*
G02*
X142290000Y-116094999I0J-249999D01*
G01*
G37*
G36*
G01*
X140705000Y-118595000D02*
X140705000Y-119095000D01*
G75*
G02*
X140480000Y-119320000I-225000J0D01*
G01*
X140030000Y-119320000D01*
G75*
G02*
X139805000Y-119095000I0J225000D01*
G01*
X139805000Y-118595000D01*
G75*
G02*
X140030000Y-118370000I225000J0D01*
G01*
X140480000Y-118370000D01*
G75*
G02*
X140705000Y-118595000I0J-225000D01*
G01*
G37*
G36*
G01*
X139155000Y-118595000D02*
X139155000Y-119095000D01*
G75*
G02*
X138930000Y-119320000I-225000J0D01*
G01*
X138480000Y-119320000D01*
G75*
G02*
X138255000Y-119095000I0J225000D01*
G01*
X138255000Y-118595000D01*
G75*
G02*
X138480000Y-118370000I225000J0D01*
G01*
X138930000Y-118370000D01*
G75*
G02*
X139155000Y-118595000I0J-225000D01*
G01*
G37*
G36*
G01*
X131419999Y-130840000D02*
X130919999Y-130840000D01*
G75*
G02*
X130694999Y-130615000I0J225000D01*
G01*
X130694999Y-130165000D01*
G75*
G02*
X130919999Y-129940000I225000J0D01*
G01*
X131419999Y-129940000D01*
G75*
G02*
X131644999Y-130165000I0J-225000D01*
G01*
X131644999Y-130615000D01*
G75*
G02*
X131419999Y-130840000I-225000J0D01*
G01*
G37*
G36*
G01*
X131419999Y-129290000D02*
X130919999Y-129290000D01*
G75*
G02*
X130694999Y-129065000I0J225000D01*
G01*
X130694999Y-128615000D01*
G75*
G02*
X130919999Y-128390000I225000J0D01*
G01*
X131419999Y-128390000D01*
G75*
G02*
X131644999Y-128615000I0J-225000D01*
G01*
X131644999Y-129065000D01*
G75*
G02*
X131419999Y-129290000I-225000J0D01*
G01*
G37*
G36*
G01*
X111235000Y-123765000D02*
X111235000Y-124265000D01*
G75*
G02*
X111010000Y-124490000I-225000J0D01*
G01*
X110560000Y-124490000D01*
G75*
G02*
X110335000Y-124265000I0J225000D01*
G01*
X110335000Y-123765000D01*
G75*
G02*
X110560000Y-123540000I225000J0D01*
G01*
X111010000Y-123540000D01*
G75*
G02*
X111235000Y-123765000I0J-225000D01*
G01*
G37*
G36*
G01*
X112785000Y-123765000D02*
X112785000Y-124265000D01*
G75*
G02*
X112560000Y-124490000I-225000J0D01*
G01*
X112110000Y-124490000D01*
G75*
G02*
X111885000Y-124265000I0J225000D01*
G01*
X111885000Y-123765000D01*
G75*
G02*
X112110000Y-123540000I225000J0D01*
G01*
X112560000Y-123540000D01*
G75*
G02*
X112785000Y-123765000I0J-225000D01*
G01*
G37*
G36*
G01*
X112785000Y-125365000D02*
X112785000Y-125865000D01*
G75*
G02*
X112560000Y-126090000I-225000J0D01*
G01*
X112110000Y-126090000D01*
G75*
G02*
X111885000Y-125865000I0J225000D01*
G01*
X111885000Y-125365000D01*
G75*
G02*
X112110000Y-125140000I225000J0D01*
G01*
X112560000Y-125140000D01*
G75*
G02*
X112785000Y-125365000I0J-225000D01*
G01*
G37*
G36*
G01*
X111235000Y-125365000D02*
X111235000Y-125865000D01*
G75*
G02*
X111010000Y-126090000I-225000J0D01*
G01*
X110560000Y-126090000D01*
G75*
G02*
X110335000Y-125865000I0J225000D01*
G01*
X110335000Y-125365000D01*
G75*
G02*
X110560000Y-125140000I225000J0D01*
G01*
X111010000Y-125140000D01*
G75*
G02*
X111235000Y-125365000I0J-225000D01*
G01*
G37*
G36*
G01*
X129200000Y-129280000D02*
X128700000Y-129280000D01*
G75*
G02*
X128475000Y-129055000I0J225000D01*
G01*
X128475000Y-128605000D01*
G75*
G02*
X128700000Y-128380000I225000J0D01*
G01*
X129200000Y-128380000D01*
G75*
G02*
X129425000Y-128605000I0J-225000D01*
G01*
X129425000Y-129055000D01*
G75*
G02*
X129200000Y-129280000I-225000J0D01*
G01*
G37*
G36*
G01*
X129200000Y-130830000D02*
X128700000Y-130830000D01*
G75*
G02*
X128475000Y-130605000I0J225000D01*
G01*
X128475000Y-130155000D01*
G75*
G02*
X128700000Y-129930000I225000J0D01*
G01*
X129200000Y-129930000D01*
G75*
G02*
X129425000Y-130155000I0J-225000D01*
G01*
X129425000Y-130605000D01*
G75*
G02*
X129200000Y-130830000I-225000J0D01*
G01*
G37*
G36*
G01*
X116690000Y-120380000D02*
X117190000Y-120380000D01*
G75*
G02*
X117415000Y-120605000I0J-225000D01*
G01*
X117415000Y-121055000D01*
G75*
G02*
X117190000Y-121280000I-225000J0D01*
G01*
X116690000Y-121280000D01*
G75*
G02*
X116465000Y-121055000I0J225000D01*
G01*
X116465000Y-120605000D01*
G75*
G02*
X116690000Y-120380000I225000J0D01*
G01*
G37*
G36*
G01*
X116690000Y-118830000D02*
X117190000Y-118830000D01*
G75*
G02*
X117415000Y-119055000I0J-225000D01*
G01*
X117415000Y-119505000D01*
G75*
G02*
X117190000Y-119730000I-225000J0D01*
G01*
X116690000Y-119730000D01*
G75*
G02*
X116465000Y-119505000I0J225000D01*
G01*
X116465000Y-119055000D01*
G75*
G02*
X116690000Y-118830000I225000J0D01*
G01*
G37*
G36*
G01*
X117910000Y-127990000D02*
X118410000Y-127990000D01*
G75*
G02*
X118635000Y-128215000I0J-225000D01*
G01*
X118635000Y-128665000D01*
G75*
G02*
X118410000Y-128890000I-225000J0D01*
G01*
X117910000Y-128890000D01*
G75*
G02*
X117685000Y-128665000I0J225000D01*
G01*
X117685000Y-128215000D01*
G75*
G02*
X117910000Y-127990000I225000J0D01*
G01*
G37*
G36*
G01*
X117910000Y-129540000D02*
X118410000Y-129540000D01*
G75*
G02*
X118635000Y-129765000I0J-225000D01*
G01*
X118635000Y-130215000D01*
G75*
G02*
X118410000Y-130440000I-225000J0D01*
G01*
X117910000Y-130440000D01*
G75*
G02*
X117685000Y-130215000I0J225000D01*
G01*
X117685000Y-129765000D01*
G75*
G02*
X117910000Y-129540000I225000J0D01*
G01*
G37*
G36*
G01*
X120690000Y-120930000D02*
X121190000Y-120930000D01*
G75*
G02*
X121415000Y-121155000I0J-225000D01*
G01*
X121415000Y-121605000D01*
G75*
G02*
X121190000Y-121830000I-225000J0D01*
G01*
X120690000Y-121830000D01*
G75*
G02*
X120465000Y-121605000I0J225000D01*
G01*
X120465000Y-121155000D01*
G75*
G02*
X120690000Y-120930000I225000J0D01*
G01*
G37*
G36*
G01*
X120690000Y-122480000D02*
X121190000Y-122480000D01*
G75*
G02*
X121415000Y-122705000I0J-225000D01*
G01*
X121415000Y-123155000D01*
G75*
G02*
X121190000Y-123380000I-225000J0D01*
G01*
X120690000Y-123380000D01*
G75*
G02*
X120465000Y-123155000I0J225000D01*
G01*
X120465000Y-122705000D01*
G75*
G02*
X120690000Y-122480000I225000J0D01*
G01*
G37*
G36*
G01*
X120710000Y-125540000D02*
X121210000Y-125540000D01*
G75*
G02*
X121435000Y-125765000I0J-225000D01*
G01*
X121435000Y-126215000D01*
G75*
G02*
X121210000Y-126440000I-225000J0D01*
G01*
X120710000Y-126440000D01*
G75*
G02*
X120485000Y-126215000I0J225000D01*
G01*
X120485000Y-125765000D01*
G75*
G02*
X120710000Y-125540000I225000J0D01*
G01*
G37*
G36*
G01*
X120710000Y-123990000D02*
X121210000Y-123990000D01*
G75*
G02*
X121435000Y-124215000I0J-225000D01*
G01*
X121435000Y-124665000D01*
G75*
G02*
X121210000Y-124890000I-225000J0D01*
G01*
X120710000Y-124890000D01*
G75*
G02*
X120485000Y-124665000I0J225000D01*
G01*
X120485000Y-124215000D01*
G75*
G02*
X120710000Y-123990000I225000J0D01*
G01*
G37*
G36*
G01*
X176805000Y-49335000D02*
X176805000Y-48835000D01*
G75*
G02*
X177030000Y-48610000I225000J0D01*
G01*
X177480000Y-48610000D01*
G75*
G02*
X177705000Y-48835000I0J-225000D01*
G01*
X177705000Y-49335000D01*
G75*
G02*
X177480000Y-49560000I-225000J0D01*
G01*
X177030000Y-49560000D01*
G75*
G02*
X176805000Y-49335000I0J225000D01*
G01*
G37*
G36*
G01*
X175255000Y-49335000D02*
X175255000Y-48835000D01*
G75*
G02*
X175480000Y-48610000I225000J0D01*
G01*
X175930000Y-48610000D01*
G75*
G02*
X176155000Y-48835000I0J-225000D01*
G01*
X176155000Y-49335000D01*
G75*
G02*
X175930000Y-49560000I-225000J0D01*
G01*
X175480000Y-49560000D01*
G75*
G02*
X175255000Y-49335000I0J225000D01*
G01*
G37*
D17*
X141870000Y-129715000D03*
X143270000Y-129715000D03*
D18*
X93630000Y-130375000D03*
D19*
X93630000Y-127575000D03*
D20*
X96680000Y-115975000D03*
X101230000Y-120075000D03*
D19*
X101230000Y-129475000D03*
D18*
X101230000Y-132275000D03*
X93790000Y-33725000D03*
D19*
X93790000Y-36525000D03*
D20*
X93790000Y-45925000D03*
X98340000Y-50025000D03*
D19*
X101390000Y-38425000D03*
D18*
X101390000Y-35625000D03*
G36*
G01*
X115596250Y-121280000D02*
X115083750Y-121280000D01*
G75*
G02*
X114865000Y-121061250I0J218750D01*
G01*
X114865000Y-120623750D01*
G75*
G02*
X115083750Y-120405000I218750J0D01*
G01*
X115596250Y-120405000D01*
G75*
G02*
X115815000Y-120623750I0J-218750D01*
G01*
X115815000Y-121061250D01*
G75*
G02*
X115596250Y-121280000I-218750J0D01*
G01*
G37*
G36*
G01*
X115596250Y-119705000D02*
X115083750Y-119705000D01*
G75*
G02*
X114865000Y-119486250I0J218750D01*
G01*
X114865000Y-119048750D01*
G75*
G02*
X115083750Y-118830000I218750J0D01*
G01*
X115596250Y-118830000D01*
G75*
G02*
X115815000Y-119048750I0J-218750D01*
G01*
X115815000Y-119486250D01*
G75*
G02*
X115596250Y-119705000I-218750J0D01*
G01*
G37*
G36*
G01*
X115965000Y-124375000D02*
X115965000Y-124005000D01*
G75*
G02*
X116150000Y-123820000I185000J0D01*
G01*
X116520000Y-123820000D01*
G75*
G02*
X116705000Y-124005000I0J-185000D01*
G01*
X116705000Y-124375000D01*
G75*
G02*
X116520000Y-124560000I-185000J0D01*
G01*
X116150000Y-124560000D01*
G75*
G02*
X115965000Y-124375000I0J185000D01*
G01*
G37*
G36*
G01*
X115965000Y-125225000D02*
X115965000Y-124855000D01*
G75*
G02*
X116150000Y-124670000I185000J0D01*
G01*
X116520000Y-124670000D01*
G75*
G02*
X116705000Y-124855000I0J-185000D01*
G01*
X116705000Y-125225000D01*
G75*
G02*
X116520000Y-125410000I-185000J0D01*
G01*
X116150000Y-125410000D01*
G75*
G02*
X115965000Y-125225000I0J185000D01*
G01*
G37*
G36*
G01*
X116815000Y-124375000D02*
X116815000Y-124005000D01*
G75*
G02*
X117000000Y-123820000I185000J0D01*
G01*
X117370000Y-123820000D01*
G75*
G02*
X117555000Y-124005000I0J-185000D01*
G01*
X117555000Y-124375000D01*
G75*
G02*
X117370000Y-124560000I-185000J0D01*
G01*
X117000000Y-124560000D01*
G75*
G02*
X116815000Y-124375000I0J185000D01*
G01*
G37*
G36*
G01*
X116815000Y-125225000D02*
X116815000Y-124855000D01*
G75*
G02*
X117000000Y-124670000I185000J0D01*
G01*
X117370000Y-124670000D01*
G75*
G02*
X117555000Y-124855000I0J-185000D01*
G01*
X117555000Y-125225000D01*
G75*
G02*
X117370000Y-125410000I-185000J0D01*
G01*
X117000000Y-125410000D01*
G75*
G02*
X116815000Y-125225000I0J185000D01*
G01*
G37*
G36*
G01*
X114910000Y-123927500D02*
X114910000Y-123802500D01*
G75*
G02*
X114972500Y-123740000I62500J0D01*
G01*
X115647500Y-123740000D01*
G75*
G02*
X115710000Y-123802500I0J-62500D01*
G01*
X115710000Y-123927500D01*
G75*
G02*
X115647500Y-123990000I-62500J0D01*
G01*
X114972500Y-123990000D01*
G75*
G02*
X114910000Y-123927500I0J62500D01*
G01*
G37*
G36*
G01*
X114910000Y-124427500D02*
X114910000Y-124302500D01*
G75*
G02*
X114972500Y-124240000I62500J0D01*
G01*
X115647500Y-124240000D01*
G75*
G02*
X115710000Y-124302500I0J-62500D01*
G01*
X115710000Y-124427500D01*
G75*
G02*
X115647500Y-124490000I-62500J0D01*
G01*
X114972500Y-124490000D01*
G75*
G02*
X114910000Y-124427500I0J62500D01*
G01*
G37*
G36*
G01*
X114910000Y-124927500D02*
X114910000Y-124802500D01*
G75*
G02*
X114972500Y-124740000I62500J0D01*
G01*
X115647500Y-124740000D01*
G75*
G02*
X115710000Y-124802500I0J-62500D01*
G01*
X115710000Y-124927500D01*
G75*
G02*
X115647500Y-124990000I-62500J0D01*
G01*
X114972500Y-124990000D01*
G75*
G02*
X114910000Y-124927500I0J62500D01*
G01*
G37*
G36*
G01*
X114910000Y-125427500D02*
X114910000Y-125302500D01*
G75*
G02*
X114972500Y-125240000I62500J0D01*
G01*
X115647500Y-125240000D01*
G75*
G02*
X115710000Y-125302500I0J-62500D01*
G01*
X115710000Y-125427500D01*
G75*
G02*
X115647500Y-125490000I-62500J0D01*
G01*
X114972500Y-125490000D01*
G75*
G02*
X114910000Y-125427500I0J62500D01*
G01*
G37*
G36*
G01*
X115885000Y-126402500D02*
X115885000Y-125727500D01*
G75*
G02*
X115947500Y-125665000I62500J0D01*
G01*
X116072500Y-125665000D01*
G75*
G02*
X116135000Y-125727500I0J-62500D01*
G01*
X116135000Y-126402500D01*
G75*
G02*
X116072500Y-126465000I-62500J0D01*
G01*
X115947500Y-126465000D01*
G75*
G02*
X115885000Y-126402500I0J62500D01*
G01*
G37*
G36*
G01*
X116385000Y-126402500D02*
X116385000Y-125727500D01*
G75*
G02*
X116447500Y-125665000I62500J0D01*
G01*
X116572500Y-125665000D01*
G75*
G02*
X116635000Y-125727500I0J-62500D01*
G01*
X116635000Y-126402500D01*
G75*
G02*
X116572500Y-126465000I-62500J0D01*
G01*
X116447500Y-126465000D01*
G75*
G02*
X116385000Y-126402500I0J62500D01*
G01*
G37*
G36*
G01*
X116885000Y-126402500D02*
X116885000Y-125727500D01*
G75*
G02*
X116947500Y-125665000I62500J0D01*
G01*
X117072500Y-125665000D01*
G75*
G02*
X117135000Y-125727500I0J-62500D01*
G01*
X117135000Y-126402500D01*
G75*
G02*
X117072500Y-126465000I-62500J0D01*
G01*
X116947500Y-126465000D01*
G75*
G02*
X116885000Y-126402500I0J62500D01*
G01*
G37*
G36*
G01*
X117385000Y-126402500D02*
X117385000Y-125727500D01*
G75*
G02*
X117447500Y-125665000I62500J0D01*
G01*
X117572500Y-125665000D01*
G75*
G02*
X117635000Y-125727500I0J-62500D01*
G01*
X117635000Y-126402500D01*
G75*
G02*
X117572500Y-126465000I-62500J0D01*
G01*
X117447500Y-126465000D01*
G75*
G02*
X117385000Y-126402500I0J62500D01*
G01*
G37*
G36*
G01*
X117810000Y-125427500D02*
X117810000Y-125302500D01*
G75*
G02*
X117872500Y-125240000I62500J0D01*
G01*
X118547500Y-125240000D01*
G75*
G02*
X118610000Y-125302500I0J-62500D01*
G01*
X118610000Y-125427500D01*
G75*
G02*
X118547500Y-125490000I-62500J0D01*
G01*
X117872500Y-125490000D01*
G75*
G02*
X117810000Y-125427500I0J62500D01*
G01*
G37*
G36*
G01*
X117810000Y-124927500D02*
X117810000Y-124802500D01*
G75*
G02*
X117872500Y-124740000I62500J0D01*
G01*
X118547500Y-124740000D01*
G75*
G02*
X118610000Y-124802500I0J-62500D01*
G01*
X118610000Y-124927500D01*
G75*
G02*
X118547500Y-124990000I-62500J0D01*
G01*
X117872500Y-124990000D01*
G75*
G02*
X117810000Y-124927500I0J62500D01*
G01*
G37*
G36*
G01*
X117810000Y-124427500D02*
X117810000Y-124302500D01*
G75*
G02*
X117872500Y-124240000I62500J0D01*
G01*
X118547500Y-124240000D01*
G75*
G02*
X118610000Y-124302500I0J-62500D01*
G01*
X118610000Y-124427500D01*
G75*
G02*
X118547500Y-124490000I-62500J0D01*
G01*
X117872500Y-124490000D01*
G75*
G02*
X117810000Y-124427500I0J62500D01*
G01*
G37*
G36*
G01*
X117810000Y-123927500D02*
X117810000Y-123802500D01*
G75*
G02*
X117872500Y-123740000I62500J0D01*
G01*
X118547500Y-123740000D01*
G75*
G02*
X118610000Y-123802500I0J-62500D01*
G01*
X118610000Y-123927500D01*
G75*
G02*
X118547500Y-123990000I-62500J0D01*
G01*
X117872500Y-123990000D01*
G75*
G02*
X117810000Y-123927500I0J62500D01*
G01*
G37*
G36*
G01*
X117385000Y-123502500D02*
X117385000Y-122827500D01*
G75*
G02*
X117447500Y-122765000I62500J0D01*
G01*
X117572500Y-122765000D01*
G75*
G02*
X117635000Y-122827500I0J-62500D01*
G01*
X117635000Y-123502500D01*
G75*
G02*
X117572500Y-123565000I-62500J0D01*
G01*
X117447500Y-123565000D01*
G75*
G02*
X117385000Y-123502500I0J62500D01*
G01*
G37*
G36*
G01*
X116885000Y-123502500D02*
X116885000Y-122827500D01*
G75*
G02*
X116947500Y-122765000I62500J0D01*
G01*
X117072500Y-122765000D01*
G75*
G02*
X117135000Y-122827500I0J-62500D01*
G01*
X117135000Y-123502500D01*
G75*
G02*
X117072500Y-123565000I-62500J0D01*
G01*
X116947500Y-123565000D01*
G75*
G02*
X116885000Y-123502500I0J62500D01*
G01*
G37*
G36*
G01*
X116385000Y-123502500D02*
X116385000Y-122827500D01*
G75*
G02*
X116447500Y-122765000I62500J0D01*
G01*
X116572500Y-122765000D01*
G75*
G02*
X116635000Y-122827500I0J-62500D01*
G01*
X116635000Y-123502500D01*
G75*
G02*
X116572500Y-123565000I-62500J0D01*
G01*
X116447500Y-123565000D01*
G75*
G02*
X116385000Y-123502500I0J62500D01*
G01*
G37*
G36*
G01*
X115885000Y-123502500D02*
X115885000Y-122827500D01*
G75*
G02*
X115947500Y-122765000I62500J0D01*
G01*
X116072500Y-122765000D01*
G75*
G02*
X116135000Y-122827500I0J-62500D01*
G01*
X116135000Y-123502500D01*
G75*
G02*
X116072500Y-123565000I-62500J0D01*
G01*
X115947500Y-123565000D01*
G75*
G02*
X115885000Y-123502500I0J62500D01*
G01*
G37*
G36*
G01*
X160720000Y-56555000D02*
X160720000Y-56215000D01*
G75*
G02*
X160860000Y-56075000I140000J0D01*
G01*
X161140000Y-56075000D01*
G75*
G02*
X161280000Y-56215000I0J-140000D01*
G01*
X161280000Y-56555000D01*
G75*
G02*
X161140000Y-56695000I-140000J0D01*
G01*
X160860000Y-56695000D01*
G75*
G02*
X160720000Y-56555000I0J140000D01*
G01*
G37*
G36*
G01*
X159760000Y-56555000D02*
X159760000Y-56215000D01*
G75*
G02*
X159900000Y-56075000I140000J0D01*
G01*
X160180000Y-56075000D01*
G75*
G02*
X160320000Y-56215000I0J-140000D01*
G01*
X160320000Y-56555000D01*
G75*
G02*
X160180000Y-56695000I-140000J0D01*
G01*
X159900000Y-56695000D01*
G75*
G02*
X159760000Y-56555000I0J140000D01*
G01*
G37*
G36*
G01*
X163350000Y-58715000D02*
X163010000Y-58715000D01*
G75*
G02*
X162870000Y-58575000I0J140000D01*
G01*
X162870000Y-58295000D01*
G75*
G02*
X163010000Y-58155000I140000J0D01*
G01*
X163350000Y-58155000D01*
G75*
G02*
X163490000Y-58295000I0J-140000D01*
G01*
X163490000Y-58575000D01*
G75*
G02*
X163350000Y-58715000I-140000J0D01*
G01*
G37*
G36*
G01*
X163350000Y-57755000D02*
X163010000Y-57755000D01*
G75*
G02*
X162870000Y-57615000I0J140000D01*
G01*
X162870000Y-57335000D01*
G75*
G02*
X163010000Y-57195000I140000J0D01*
G01*
X163350000Y-57195000D01*
G75*
G02*
X163490000Y-57335000I0J-140000D01*
G01*
X163490000Y-57615000D01*
G75*
G02*
X163350000Y-57755000I-140000J0D01*
G01*
G37*
G36*
G01*
X157260000Y-42365000D02*
X157600000Y-42365000D01*
G75*
G02*
X157740000Y-42505000I0J-140000D01*
G01*
X157740000Y-42785000D01*
G75*
G02*
X157600000Y-42925000I-140000J0D01*
G01*
X157260000Y-42925000D01*
G75*
G02*
X157120000Y-42785000I0J140000D01*
G01*
X157120000Y-42505000D01*
G75*
G02*
X157260000Y-42365000I140000J0D01*
G01*
G37*
G36*
G01*
X157260000Y-41405000D02*
X157600000Y-41405000D01*
G75*
G02*
X157740000Y-41545000I0J-140000D01*
G01*
X157740000Y-41825000D01*
G75*
G02*
X157600000Y-41965000I-140000J0D01*
G01*
X157260000Y-41965000D01*
G75*
G02*
X157120000Y-41825000I0J140000D01*
G01*
X157120000Y-41545000D01*
G75*
G02*
X157260000Y-41405000I140000J0D01*
G01*
G37*
G36*
G01*
X164990000Y-55725000D02*
X165330000Y-55725000D01*
G75*
G02*
X165470000Y-55865000I0J-140000D01*
G01*
X165470000Y-56145000D01*
G75*
G02*
X165330000Y-56285000I-140000J0D01*
G01*
X164990000Y-56285000D01*
G75*
G02*
X164850000Y-56145000I0J140000D01*
G01*
X164850000Y-55865000D01*
G75*
G02*
X164990000Y-55725000I140000J0D01*
G01*
G37*
G36*
G01*
X164990000Y-56685000D02*
X165330000Y-56685000D01*
G75*
G02*
X165470000Y-56825000I0J-140000D01*
G01*
X165470000Y-57105000D01*
G75*
G02*
X165330000Y-57245000I-140000J0D01*
G01*
X164990000Y-57245000D01*
G75*
G02*
X164850000Y-57105000I0J140000D01*
G01*
X164850000Y-56825000D01*
G75*
G02*
X164990000Y-56685000I140000J0D01*
G01*
G37*
G36*
G01*
X163320000Y-44805000D02*
X162980000Y-44805000D01*
G75*
G02*
X162840000Y-44665000I0J140000D01*
G01*
X162840000Y-44385000D01*
G75*
G02*
X162980000Y-44245000I140000J0D01*
G01*
X163320000Y-44245000D01*
G75*
G02*
X163460000Y-44385000I0J-140000D01*
G01*
X163460000Y-44665000D01*
G75*
G02*
X163320000Y-44805000I-140000J0D01*
G01*
G37*
G36*
G01*
X163320000Y-45765000D02*
X162980000Y-45765000D01*
G75*
G02*
X162840000Y-45625000I0J140000D01*
G01*
X162840000Y-45345000D01*
G75*
G02*
X162980000Y-45205000I140000J0D01*
G01*
X163320000Y-45205000D01*
G75*
G02*
X163460000Y-45345000I0J-140000D01*
G01*
X163460000Y-45625000D01*
G75*
G02*
X163320000Y-45765000I-140000J0D01*
G01*
G37*
G36*
G01*
X167400000Y-45785000D02*
X167060000Y-45785000D01*
G75*
G02*
X166920000Y-45645000I0J140000D01*
G01*
X166920000Y-45365000D01*
G75*
G02*
X167060000Y-45225000I140000J0D01*
G01*
X167400000Y-45225000D01*
G75*
G02*
X167540000Y-45365000I0J-140000D01*
G01*
X167540000Y-45645000D01*
G75*
G02*
X167400000Y-45785000I-140000J0D01*
G01*
G37*
G36*
G01*
X167400000Y-44825000D02*
X167060000Y-44825000D01*
G75*
G02*
X166920000Y-44685000I0J140000D01*
G01*
X166920000Y-44405000D01*
G75*
G02*
X167060000Y-44265000I140000J0D01*
G01*
X167400000Y-44265000D01*
G75*
G02*
X167540000Y-44405000I0J-140000D01*
G01*
X167540000Y-44685000D01*
G75*
G02*
X167400000Y-44825000I-140000J0D01*
G01*
G37*
G36*
G01*
X168440000Y-45785000D02*
X168100000Y-45785000D01*
G75*
G02*
X167960000Y-45645000I0J140000D01*
G01*
X167960000Y-45365000D01*
G75*
G02*
X168100000Y-45225000I140000J0D01*
G01*
X168440000Y-45225000D01*
G75*
G02*
X168580000Y-45365000I0J-140000D01*
G01*
X168580000Y-45645000D01*
G75*
G02*
X168440000Y-45785000I-140000J0D01*
G01*
G37*
G36*
G01*
X168440000Y-44825000D02*
X168100000Y-44825000D01*
G75*
G02*
X167960000Y-44685000I0J140000D01*
G01*
X167960000Y-44405000D01*
G75*
G02*
X168100000Y-44265000I140000J0D01*
G01*
X168440000Y-44265000D01*
G75*
G02*
X168580000Y-44405000I0J-140000D01*
G01*
X168580000Y-44685000D01*
G75*
G02*
X168440000Y-44825000I-140000J0D01*
G01*
G37*
G36*
G01*
X158300000Y-47615000D02*
X158300000Y-47955000D01*
G75*
G02*
X158160000Y-48095000I-140000J0D01*
G01*
X157880000Y-48095000D01*
G75*
G02*
X157740000Y-47955000I0J140000D01*
G01*
X157740000Y-47615000D01*
G75*
G02*
X157880000Y-47475000I140000J0D01*
G01*
X158160000Y-47475000D01*
G75*
G02*
X158300000Y-47615000I0J-140000D01*
G01*
G37*
G36*
G01*
X159260000Y-47615000D02*
X159260000Y-47955000D01*
G75*
G02*
X159120000Y-48095000I-140000J0D01*
G01*
X158840000Y-48095000D01*
G75*
G02*
X158700000Y-47955000I0J140000D01*
G01*
X158700000Y-47615000D01*
G75*
G02*
X158840000Y-47475000I140000J0D01*
G01*
X159120000Y-47475000D01*
G75*
G02*
X159260000Y-47615000I0J-140000D01*
G01*
G37*
G36*
G01*
X164310000Y-45765000D02*
X163970000Y-45765000D01*
G75*
G02*
X163830000Y-45625000I0J140000D01*
G01*
X163830000Y-45345000D01*
G75*
G02*
X163970000Y-45205000I140000J0D01*
G01*
X164310000Y-45205000D01*
G75*
G02*
X164450000Y-45345000I0J-140000D01*
G01*
X164450000Y-45625000D01*
G75*
G02*
X164310000Y-45765000I-140000J0D01*
G01*
G37*
G36*
G01*
X164310000Y-44805000D02*
X163970000Y-44805000D01*
G75*
G02*
X163830000Y-44665000I0J140000D01*
G01*
X163830000Y-44385000D01*
G75*
G02*
X163970000Y-44245000I140000J0D01*
G01*
X164310000Y-44245000D01*
G75*
G02*
X164450000Y-44385000I0J-140000D01*
G01*
X164450000Y-44665000D01*
G75*
G02*
X164310000Y-44805000I-140000J0D01*
G01*
G37*
G36*
G01*
X168290000Y-51855000D02*
X168290000Y-51515000D01*
G75*
G02*
X168430000Y-51375000I140000J0D01*
G01*
X168710000Y-51375000D01*
G75*
G02*
X168850000Y-51515000I0J-140000D01*
G01*
X168850000Y-51855000D01*
G75*
G02*
X168710000Y-51995000I-140000J0D01*
G01*
X168430000Y-51995000D01*
G75*
G02*
X168290000Y-51855000I0J140000D01*
G01*
G37*
G36*
G01*
X169250000Y-51855000D02*
X169250000Y-51515000D01*
G75*
G02*
X169390000Y-51375000I140000J0D01*
G01*
X169670000Y-51375000D01*
G75*
G02*
X169810000Y-51515000I0J-140000D01*
G01*
X169810000Y-51855000D01*
G75*
G02*
X169670000Y-51995000I-140000J0D01*
G01*
X169390000Y-51995000D01*
G75*
G02*
X169250000Y-51855000I0J140000D01*
G01*
G37*
G36*
G01*
X164001000Y-55725400D02*
X164341000Y-55725400D01*
G75*
G02*
X164481000Y-55865400I0J-140000D01*
G01*
X164481000Y-56145400D01*
G75*
G02*
X164341000Y-56285400I-140000J0D01*
G01*
X164001000Y-56285400D01*
G75*
G02*
X163861000Y-56145400I0J140000D01*
G01*
X163861000Y-55865400D01*
G75*
G02*
X164001000Y-55725400I140000J0D01*
G01*
G37*
G36*
G01*
X164001000Y-56685400D02*
X164341000Y-56685400D01*
G75*
G02*
X164481000Y-56825400I0J-140000D01*
G01*
X164481000Y-57105400D01*
G75*
G02*
X164341000Y-57245400I-140000J0D01*
G01*
X164001000Y-57245400D01*
G75*
G02*
X163861000Y-57105400I0J140000D01*
G01*
X163861000Y-56825400D01*
G75*
G02*
X164001000Y-56685400I140000J0D01*
G01*
G37*
G36*
G01*
X158290000Y-46605000D02*
X158290000Y-46945000D01*
G75*
G02*
X158150000Y-47085000I-140000J0D01*
G01*
X157870000Y-47085000D01*
G75*
G02*
X157730000Y-46945000I0J140000D01*
G01*
X157730000Y-46605000D01*
G75*
G02*
X157870000Y-46465000I140000J0D01*
G01*
X158150000Y-46465000D01*
G75*
G02*
X158290000Y-46605000I0J-140000D01*
G01*
G37*
G36*
G01*
X159250000Y-46605000D02*
X159250000Y-46945000D01*
G75*
G02*
X159110000Y-47085000I-140000J0D01*
G01*
X158830000Y-47085000D01*
G75*
G02*
X158690000Y-46945000I0J140000D01*
G01*
X158690000Y-46605000D01*
G75*
G02*
X158830000Y-46465000I140000J0D01*
G01*
X159110000Y-46465000D01*
G75*
G02*
X159250000Y-46605000I0J-140000D01*
G01*
G37*
G36*
G01*
X169250000Y-48247000D02*
X169250000Y-47907000D01*
G75*
G02*
X169390000Y-47767000I140000J0D01*
G01*
X169670000Y-47767000D01*
G75*
G02*
X169810000Y-47907000I0J-140000D01*
G01*
X169810000Y-48247000D01*
G75*
G02*
X169670000Y-48387000I-140000J0D01*
G01*
X169390000Y-48387000D01*
G75*
G02*
X169250000Y-48247000I0J140000D01*
G01*
G37*
G36*
G01*
X168290000Y-48247000D02*
X168290000Y-47907000D01*
G75*
G02*
X168430000Y-47767000I140000J0D01*
G01*
X168710000Y-47767000D01*
G75*
G02*
X168850000Y-47907000I0J-140000D01*
G01*
X168850000Y-48247000D01*
G75*
G02*
X168710000Y-48387000I-140000J0D01*
G01*
X168430000Y-48387000D01*
G75*
G02*
X168290000Y-48247000I0J140000D01*
G01*
G37*
G36*
G01*
X168300000Y-47285000D02*
X168300000Y-46945000D01*
G75*
G02*
X168440000Y-46805000I140000J0D01*
G01*
X168720000Y-46805000D01*
G75*
G02*
X168860000Y-46945000I0J-140000D01*
G01*
X168860000Y-47285000D01*
G75*
G02*
X168720000Y-47425000I-140000J0D01*
G01*
X168440000Y-47425000D01*
G75*
G02*
X168300000Y-47285000I0J140000D01*
G01*
G37*
G36*
G01*
X169260000Y-47285000D02*
X169260000Y-46945000D01*
G75*
G02*
X169400000Y-46805000I140000J0D01*
G01*
X169680000Y-46805000D01*
G75*
G02*
X169820000Y-46945000I0J-140000D01*
G01*
X169820000Y-47285000D01*
G75*
G02*
X169680000Y-47425000I-140000J0D01*
G01*
X169400000Y-47425000D01*
G75*
G02*
X169260000Y-47285000I0J140000D01*
G01*
G37*
G36*
G01*
X158400000Y-51515000D02*
X158400000Y-51855000D01*
G75*
G02*
X158260000Y-51995000I-140000J0D01*
G01*
X157980000Y-51995000D01*
G75*
G02*
X157840000Y-51855000I0J140000D01*
G01*
X157840000Y-51515000D01*
G75*
G02*
X157980000Y-51375000I140000J0D01*
G01*
X158260000Y-51375000D01*
G75*
G02*
X158400000Y-51515000I0J-140000D01*
G01*
G37*
G36*
G01*
X159360000Y-51515000D02*
X159360000Y-51855000D01*
G75*
G02*
X159220000Y-51995000I-140000J0D01*
G01*
X158940000Y-51995000D01*
G75*
G02*
X158800000Y-51855000I0J140000D01*
G01*
X158800000Y-51515000D01*
G75*
G02*
X158940000Y-51375000I140000J0D01*
G01*
X159220000Y-51375000D01*
G75*
G02*
X159360000Y-51515000I0J-140000D01*
G01*
G37*
G36*
G01*
X175679999Y-50215000D02*
X175679999Y-50555000D01*
G75*
G02*
X175539999Y-50695000I-140000J0D01*
G01*
X175259999Y-50695000D01*
G75*
G02*
X175119999Y-50555000I0J140000D01*
G01*
X175119999Y-50215000D01*
G75*
G02*
X175259999Y-50075000I140000J0D01*
G01*
X175539999Y-50075000D01*
G75*
G02*
X175679999Y-50215000I0J-140000D01*
G01*
G37*
G36*
G01*
X176639999Y-50215000D02*
X176639999Y-50555000D01*
G75*
G02*
X176499999Y-50695000I-140000J0D01*
G01*
X176219999Y-50695000D01*
G75*
G02*
X176079999Y-50555000I0J140000D01*
G01*
X176079999Y-50215000D01*
G75*
G02*
X176219999Y-50075000I140000J0D01*
G01*
X176499999Y-50075000D01*
G75*
G02*
X176639999Y-50215000I0J-140000D01*
G01*
G37*
G36*
G01*
X130570000Y-121025000D02*
X130570000Y-121365000D01*
G75*
G02*
X130430000Y-121505000I-140000J0D01*
G01*
X130150000Y-121505000D01*
G75*
G02*
X130010000Y-121365000I0J140000D01*
G01*
X130010000Y-121025000D01*
G75*
G02*
X130150000Y-120885000I140000J0D01*
G01*
X130430000Y-120885000D01*
G75*
G02*
X130570000Y-121025000I0J-140000D01*
G01*
G37*
G36*
G01*
X131530000Y-121025000D02*
X131530000Y-121365000D01*
G75*
G02*
X131390000Y-121505000I-140000J0D01*
G01*
X131110000Y-121505000D01*
G75*
G02*
X130970000Y-121365000I0J140000D01*
G01*
X130970000Y-121025000D01*
G75*
G02*
X131110000Y-120885000I140000J0D01*
G01*
X131390000Y-120885000D01*
G75*
G02*
X131530000Y-121025000I0J-140000D01*
G01*
G37*
G36*
G01*
X130010000Y-122485000D02*
X130010000Y-122145000D01*
G75*
G02*
X130150000Y-122005000I140000J0D01*
G01*
X130430000Y-122005000D01*
G75*
G02*
X130570000Y-122145000I0J-140000D01*
G01*
X130570000Y-122485000D01*
G75*
G02*
X130430000Y-122625000I-140000J0D01*
G01*
X130150000Y-122625000D01*
G75*
G02*
X130010000Y-122485000I0J140000D01*
G01*
G37*
G36*
G01*
X130970000Y-122485000D02*
X130970000Y-122145000D01*
G75*
G02*
X131110000Y-122005000I140000J0D01*
G01*
X131390000Y-122005000D01*
G75*
G02*
X131530000Y-122145000I0J-140000D01*
G01*
X131530000Y-122485000D01*
G75*
G02*
X131390000Y-122625000I-140000J0D01*
G01*
X131110000Y-122625000D01*
G75*
G02*
X130970000Y-122485000I0J140000D01*
G01*
G37*
G36*
G01*
X130970000Y-126715000D02*
X130970000Y-126375000D01*
G75*
G02*
X131110000Y-126235000I140000J0D01*
G01*
X131390000Y-126235000D01*
G75*
G02*
X131530000Y-126375000I0J-140000D01*
G01*
X131530000Y-126715000D01*
G75*
G02*
X131390000Y-126855000I-140000J0D01*
G01*
X131110000Y-126855000D01*
G75*
G02*
X130970000Y-126715000I0J140000D01*
G01*
G37*
G36*
G01*
X130010000Y-126715000D02*
X130010000Y-126375000D01*
G75*
G02*
X130150000Y-126235000I140000J0D01*
G01*
X130430000Y-126235000D01*
G75*
G02*
X130570000Y-126375000I0J-140000D01*
G01*
X130570000Y-126715000D01*
G75*
G02*
X130430000Y-126855000I-140000J0D01*
G01*
X130150000Y-126855000D01*
G75*
G02*
X130010000Y-126715000I0J140000D01*
G01*
G37*
G36*
G01*
X130010000Y-123485000D02*
X130010000Y-123145000D01*
G75*
G02*
X130150000Y-123005000I140000J0D01*
G01*
X130430000Y-123005000D01*
G75*
G02*
X130570000Y-123145000I0J-140000D01*
G01*
X130570000Y-123485000D01*
G75*
G02*
X130430000Y-123625000I-140000J0D01*
G01*
X130150000Y-123625000D01*
G75*
G02*
X130010000Y-123485000I0J140000D01*
G01*
G37*
G36*
G01*
X130970000Y-123485000D02*
X130970000Y-123145000D01*
G75*
G02*
X131110000Y-123005000I140000J0D01*
G01*
X131390000Y-123005000D01*
G75*
G02*
X131530000Y-123145000I0J-140000D01*
G01*
X131530000Y-123485000D01*
G75*
G02*
X131390000Y-123625000I-140000J0D01*
G01*
X131110000Y-123625000D01*
G75*
G02*
X130970000Y-123485000I0J140000D01*
G01*
G37*
G36*
G01*
X109260000Y-63305000D02*
X108920000Y-63305000D01*
G75*
G02*
X108780000Y-63165000I0J140000D01*
G01*
X108780000Y-62885000D01*
G75*
G02*
X108920000Y-62745000I140000J0D01*
G01*
X109260000Y-62745000D01*
G75*
G02*
X109400000Y-62885000I0J-140000D01*
G01*
X109400000Y-63165000D01*
G75*
G02*
X109260000Y-63305000I-140000J0D01*
G01*
G37*
G36*
G01*
X109260000Y-64265000D02*
X108920000Y-64265000D01*
G75*
G02*
X108780000Y-64125000I0J140000D01*
G01*
X108780000Y-63845000D01*
G75*
G02*
X108920000Y-63705000I140000J0D01*
G01*
X109260000Y-63705000D01*
G75*
G02*
X109400000Y-63845000I0J-140000D01*
G01*
X109400000Y-64125000D01*
G75*
G02*
X109260000Y-64265000I-140000J0D01*
G01*
G37*
G36*
G01*
X125410000Y-64405000D02*
X125070000Y-64405000D01*
G75*
G02*
X124930000Y-64265000I0J140000D01*
G01*
X124930000Y-63985000D01*
G75*
G02*
X125070000Y-63845000I140000J0D01*
G01*
X125410000Y-63845000D01*
G75*
G02*
X125550000Y-63985000I0J-140000D01*
G01*
X125550000Y-64265000D01*
G75*
G02*
X125410000Y-64405000I-140000J0D01*
G01*
G37*
G36*
G01*
X125410000Y-63445000D02*
X125070000Y-63445000D01*
G75*
G02*
X124930000Y-63305000I0J140000D01*
G01*
X124930000Y-63025000D01*
G75*
G02*
X125070000Y-62885000I140000J0D01*
G01*
X125410000Y-62885000D01*
G75*
G02*
X125550000Y-63025000I0J-140000D01*
G01*
X125550000Y-63305000D01*
G75*
G02*
X125410000Y-63445000I-140000J0D01*
G01*
G37*
G36*
G01*
X141760000Y-64385000D02*
X141420000Y-64385000D01*
G75*
G02*
X141280000Y-64245000I0J140000D01*
G01*
X141280000Y-63965000D01*
G75*
G02*
X141420000Y-63825000I140000J0D01*
G01*
X141760000Y-63825000D01*
G75*
G02*
X141900000Y-63965000I0J-140000D01*
G01*
X141900000Y-64245000D01*
G75*
G02*
X141760000Y-64385000I-140000J0D01*
G01*
G37*
G36*
G01*
X141760000Y-63425000D02*
X141420000Y-63425000D01*
G75*
G02*
X141280000Y-63285000I0J140000D01*
G01*
X141280000Y-63005000D01*
G75*
G02*
X141420000Y-62865000I140000J0D01*
G01*
X141760000Y-62865000D01*
G75*
G02*
X141900000Y-63005000I0J-140000D01*
G01*
X141900000Y-63285000D01*
G75*
G02*
X141760000Y-63425000I-140000J0D01*
G01*
G37*
G36*
G01*
X157760000Y-63425000D02*
X157420000Y-63425000D01*
G75*
G02*
X157280000Y-63285000I0J140000D01*
G01*
X157280000Y-63005000D01*
G75*
G02*
X157420000Y-62865000I140000J0D01*
G01*
X157760000Y-62865000D01*
G75*
G02*
X157900000Y-63005000I0J-140000D01*
G01*
X157900000Y-63285000D01*
G75*
G02*
X157760000Y-63425000I-140000J0D01*
G01*
G37*
G36*
G01*
X157760000Y-64385000D02*
X157420000Y-64385000D01*
G75*
G02*
X157280000Y-64245000I0J140000D01*
G01*
X157280000Y-63965000D01*
G75*
G02*
X157420000Y-63825000I140000J0D01*
G01*
X157760000Y-63825000D01*
G75*
G02*
X157900000Y-63965000I0J-140000D01*
G01*
X157900000Y-64245000D01*
G75*
G02*
X157760000Y-64385000I-140000J0D01*
G01*
G37*
G36*
G01*
X173760000Y-64385000D02*
X173420000Y-64385000D01*
G75*
G02*
X173280000Y-64245000I0J140000D01*
G01*
X173280000Y-63965000D01*
G75*
G02*
X173420000Y-63825000I140000J0D01*
G01*
X173760000Y-63825000D01*
G75*
G02*
X173900000Y-63965000I0J-140000D01*
G01*
X173900000Y-64245000D01*
G75*
G02*
X173760000Y-64385000I-140000J0D01*
G01*
G37*
G36*
G01*
X173760000Y-63425000D02*
X173420000Y-63425000D01*
G75*
G02*
X173280000Y-63285000I0J140000D01*
G01*
X173280000Y-63005000D01*
G75*
G02*
X173420000Y-62865000I140000J0D01*
G01*
X173760000Y-62865000D01*
G75*
G02*
X173900000Y-63005000I0J-140000D01*
G01*
X173900000Y-63285000D01*
G75*
G02*
X173760000Y-63425000I-140000J0D01*
G01*
G37*
G36*
G01*
X189740000Y-63285000D02*
X189400000Y-63285000D01*
G75*
G02*
X189260000Y-63145000I0J140000D01*
G01*
X189260000Y-62865000D01*
G75*
G02*
X189400000Y-62725000I140000J0D01*
G01*
X189740000Y-62725000D01*
G75*
G02*
X189880000Y-62865000I0J-140000D01*
G01*
X189880000Y-63145000D01*
G75*
G02*
X189740000Y-63285000I-140000J0D01*
G01*
G37*
G36*
G01*
X189740000Y-64245000D02*
X189400000Y-64245000D01*
G75*
G02*
X189260000Y-64105000I0J140000D01*
G01*
X189260000Y-63825000D01*
G75*
G02*
X189400000Y-63685000I140000J0D01*
G01*
X189740000Y-63685000D01*
G75*
G02*
X189880000Y-63825000I0J-140000D01*
G01*
X189880000Y-64105000D01*
G75*
G02*
X189740000Y-64245000I-140000J0D01*
G01*
G37*
G36*
G01*
X109260000Y-76925000D02*
X108920000Y-76925000D01*
G75*
G02*
X108780000Y-76785000I0J140000D01*
G01*
X108780000Y-76505000D01*
G75*
G02*
X108920000Y-76365000I140000J0D01*
G01*
X109260000Y-76365000D01*
G75*
G02*
X109400000Y-76505000I0J-140000D01*
G01*
X109400000Y-76785000D01*
G75*
G02*
X109260000Y-76925000I-140000J0D01*
G01*
G37*
G36*
G01*
X109260000Y-77885000D02*
X108920000Y-77885000D01*
G75*
G02*
X108780000Y-77745000I0J140000D01*
G01*
X108780000Y-77465000D01*
G75*
G02*
X108920000Y-77325000I140000J0D01*
G01*
X109260000Y-77325000D01*
G75*
G02*
X109400000Y-77465000I0J-140000D01*
G01*
X109400000Y-77745000D01*
G75*
G02*
X109260000Y-77885000I-140000J0D01*
G01*
G37*
G36*
G01*
X125760000Y-77885000D02*
X125420000Y-77885000D01*
G75*
G02*
X125280000Y-77745000I0J140000D01*
G01*
X125280000Y-77465000D01*
G75*
G02*
X125420000Y-77325000I140000J0D01*
G01*
X125760000Y-77325000D01*
G75*
G02*
X125900000Y-77465000I0J-140000D01*
G01*
X125900000Y-77745000D01*
G75*
G02*
X125760000Y-77885000I-140000J0D01*
G01*
G37*
G36*
G01*
X125760000Y-76925000D02*
X125420000Y-76925000D01*
G75*
G02*
X125280000Y-76785000I0J140000D01*
G01*
X125280000Y-76505000D01*
G75*
G02*
X125420000Y-76365000I140000J0D01*
G01*
X125760000Y-76365000D01*
G75*
G02*
X125900000Y-76505000I0J-140000D01*
G01*
X125900000Y-76785000D01*
G75*
G02*
X125760000Y-76925000I-140000J0D01*
G01*
G37*
G36*
G01*
X141740000Y-77165000D02*
X141400000Y-77165000D01*
G75*
G02*
X141260000Y-77025000I0J140000D01*
G01*
X141260000Y-76745000D01*
G75*
G02*
X141400000Y-76605000I140000J0D01*
G01*
X141740000Y-76605000D01*
G75*
G02*
X141880000Y-76745000I0J-140000D01*
G01*
X141880000Y-77025000D01*
G75*
G02*
X141740000Y-77165000I-140000J0D01*
G01*
G37*
G36*
G01*
X141740000Y-78125000D02*
X141400000Y-78125000D01*
G75*
G02*
X141260000Y-77985000I0J140000D01*
G01*
X141260000Y-77705000D01*
G75*
G02*
X141400000Y-77565000I140000J0D01*
G01*
X141740000Y-77565000D01*
G75*
G02*
X141880000Y-77705000I0J-140000D01*
G01*
X141880000Y-77985000D01*
G75*
G02*
X141740000Y-78125000I-140000J0D01*
G01*
G37*
G36*
G01*
X125760000Y-105385000D02*
X125420000Y-105385000D01*
G75*
G02*
X125280000Y-105245000I0J140000D01*
G01*
X125280000Y-104965000D01*
G75*
G02*
X125420000Y-104825000I140000J0D01*
G01*
X125760000Y-104825000D01*
G75*
G02*
X125900000Y-104965000I0J-140000D01*
G01*
X125900000Y-105245000D01*
G75*
G02*
X125760000Y-105385000I-140000J0D01*
G01*
G37*
G36*
G01*
X125760000Y-104425000D02*
X125420000Y-104425000D01*
G75*
G02*
X125280000Y-104285000I0J140000D01*
G01*
X125280000Y-104005000D01*
G75*
G02*
X125420000Y-103865000I140000J0D01*
G01*
X125760000Y-103865000D01*
G75*
G02*
X125900000Y-104005000I0J-140000D01*
G01*
X125900000Y-104285000D01*
G75*
G02*
X125760000Y-104425000I-140000J0D01*
G01*
G37*
G36*
G01*
X173760000Y-77885000D02*
X173420000Y-77885000D01*
G75*
G02*
X173280000Y-77745000I0J140000D01*
G01*
X173280000Y-77465000D01*
G75*
G02*
X173420000Y-77325000I140000J0D01*
G01*
X173760000Y-77325000D01*
G75*
G02*
X173900000Y-77465000I0J-140000D01*
G01*
X173900000Y-77745000D01*
G75*
G02*
X173760000Y-77885000I-140000J0D01*
G01*
G37*
G36*
G01*
X173760000Y-76925000D02*
X173420000Y-76925000D01*
G75*
G02*
X173280000Y-76785000I0J140000D01*
G01*
X173280000Y-76505000D01*
G75*
G02*
X173420000Y-76365000I140000J0D01*
G01*
X173760000Y-76365000D01*
G75*
G02*
X173900000Y-76505000I0J-140000D01*
G01*
X173900000Y-76785000D01*
G75*
G02*
X173760000Y-76925000I-140000J0D01*
G01*
G37*
G36*
G01*
X189760000Y-76925000D02*
X189420000Y-76925000D01*
G75*
G02*
X189280000Y-76785000I0J140000D01*
G01*
X189280000Y-76505000D01*
G75*
G02*
X189420000Y-76365000I140000J0D01*
G01*
X189760000Y-76365000D01*
G75*
G02*
X189900000Y-76505000I0J-140000D01*
G01*
X189900000Y-76785000D01*
G75*
G02*
X189760000Y-76925000I-140000J0D01*
G01*
G37*
G36*
G01*
X189760000Y-77885000D02*
X189420000Y-77885000D01*
G75*
G02*
X189280000Y-77745000I0J140000D01*
G01*
X189280000Y-77465000D01*
G75*
G02*
X189420000Y-77325000I140000J0D01*
G01*
X189760000Y-77325000D01*
G75*
G02*
X189900000Y-77465000I0J-140000D01*
G01*
X189900000Y-77745000D01*
G75*
G02*
X189760000Y-77885000I-140000J0D01*
G01*
G37*
G36*
G01*
X109890000Y-92015000D02*
X109550000Y-92015000D01*
G75*
G02*
X109410000Y-91875000I0J140000D01*
G01*
X109410000Y-91595000D01*
G75*
G02*
X109550000Y-91455000I140000J0D01*
G01*
X109890000Y-91455000D01*
G75*
G02*
X110030000Y-91595000I0J-140000D01*
G01*
X110030000Y-91875000D01*
G75*
G02*
X109890000Y-92015000I-140000J0D01*
G01*
G37*
G36*
G01*
X109890000Y-91055000D02*
X109550000Y-91055000D01*
G75*
G02*
X109410000Y-90915000I0J140000D01*
G01*
X109410000Y-90635000D01*
G75*
G02*
X109550000Y-90495000I140000J0D01*
G01*
X109890000Y-90495000D01*
G75*
G02*
X110030000Y-90635000I0J-140000D01*
G01*
X110030000Y-90915000D01*
G75*
G02*
X109890000Y-91055000I-140000J0D01*
G01*
G37*
G36*
G01*
X125760000Y-90925000D02*
X125420000Y-90925000D01*
G75*
G02*
X125280000Y-90785000I0J140000D01*
G01*
X125280000Y-90505000D01*
G75*
G02*
X125420000Y-90365000I140000J0D01*
G01*
X125760000Y-90365000D01*
G75*
G02*
X125900000Y-90505000I0J-140000D01*
G01*
X125900000Y-90785000D01*
G75*
G02*
X125760000Y-90925000I-140000J0D01*
G01*
G37*
G36*
G01*
X125760000Y-91885000D02*
X125420000Y-91885000D01*
G75*
G02*
X125280000Y-91745000I0J140000D01*
G01*
X125280000Y-91465000D01*
G75*
G02*
X125420000Y-91325000I140000J0D01*
G01*
X125760000Y-91325000D01*
G75*
G02*
X125900000Y-91465000I0J-140000D01*
G01*
X125900000Y-91745000D01*
G75*
G02*
X125760000Y-91885000I-140000J0D01*
G01*
G37*
G36*
G01*
X141760000Y-90925000D02*
X141420000Y-90925000D01*
G75*
G02*
X141280000Y-90785000I0J140000D01*
G01*
X141280000Y-90505000D01*
G75*
G02*
X141420000Y-90365000I140000J0D01*
G01*
X141760000Y-90365000D01*
G75*
G02*
X141900000Y-90505000I0J-140000D01*
G01*
X141900000Y-90785000D01*
G75*
G02*
X141760000Y-90925000I-140000J0D01*
G01*
G37*
G36*
G01*
X141760000Y-91885000D02*
X141420000Y-91885000D01*
G75*
G02*
X141280000Y-91745000I0J140000D01*
G01*
X141280000Y-91465000D01*
G75*
G02*
X141420000Y-91325000I140000J0D01*
G01*
X141760000Y-91325000D01*
G75*
G02*
X141900000Y-91465000I0J-140000D01*
G01*
X141900000Y-91745000D01*
G75*
G02*
X141760000Y-91885000I-140000J0D01*
G01*
G37*
G36*
G01*
X157760000Y-90925000D02*
X157420000Y-90925000D01*
G75*
G02*
X157280000Y-90785000I0J140000D01*
G01*
X157280000Y-90505000D01*
G75*
G02*
X157420000Y-90365000I140000J0D01*
G01*
X157760000Y-90365000D01*
G75*
G02*
X157900000Y-90505000I0J-140000D01*
G01*
X157900000Y-90785000D01*
G75*
G02*
X157760000Y-90925000I-140000J0D01*
G01*
G37*
G36*
G01*
X157760000Y-91885000D02*
X157420000Y-91885000D01*
G75*
G02*
X157280000Y-91745000I0J140000D01*
G01*
X157280000Y-91465000D01*
G75*
G02*
X157420000Y-91325000I140000J0D01*
G01*
X157760000Y-91325000D01*
G75*
G02*
X157900000Y-91465000I0J-140000D01*
G01*
X157900000Y-91745000D01*
G75*
G02*
X157760000Y-91885000I-140000J0D01*
G01*
G37*
G36*
G01*
X173760000Y-91885000D02*
X173420000Y-91885000D01*
G75*
G02*
X173280000Y-91745000I0J140000D01*
G01*
X173280000Y-91465000D01*
G75*
G02*
X173420000Y-91325000I140000J0D01*
G01*
X173760000Y-91325000D01*
G75*
G02*
X173900000Y-91465000I0J-140000D01*
G01*
X173900000Y-91745000D01*
G75*
G02*
X173760000Y-91885000I-140000J0D01*
G01*
G37*
G36*
G01*
X173760000Y-90925000D02*
X173420000Y-90925000D01*
G75*
G02*
X173280000Y-90785000I0J140000D01*
G01*
X173280000Y-90505000D01*
G75*
G02*
X173420000Y-90365000I140000J0D01*
G01*
X173760000Y-90365000D01*
G75*
G02*
X173900000Y-90505000I0J-140000D01*
G01*
X173900000Y-90785000D01*
G75*
G02*
X173760000Y-90925000I-140000J0D01*
G01*
G37*
G36*
G01*
X189760000Y-91885000D02*
X189420000Y-91885000D01*
G75*
G02*
X189280000Y-91745000I0J140000D01*
G01*
X189280000Y-91465000D01*
G75*
G02*
X189420000Y-91325000I140000J0D01*
G01*
X189760000Y-91325000D01*
G75*
G02*
X189900000Y-91465000I0J-140000D01*
G01*
X189900000Y-91745000D01*
G75*
G02*
X189760000Y-91885000I-140000J0D01*
G01*
G37*
G36*
G01*
X189760000Y-90925000D02*
X189420000Y-90925000D01*
G75*
G02*
X189280000Y-90785000I0J140000D01*
G01*
X189280000Y-90505000D01*
G75*
G02*
X189420000Y-90365000I140000J0D01*
G01*
X189760000Y-90365000D01*
G75*
G02*
X189900000Y-90505000I0J-140000D01*
G01*
X189900000Y-90785000D01*
G75*
G02*
X189760000Y-90925000I-140000J0D01*
G01*
G37*
G36*
G01*
X109260000Y-104425000D02*
X108920000Y-104425000D01*
G75*
G02*
X108780000Y-104285000I0J140000D01*
G01*
X108780000Y-104005000D01*
G75*
G02*
X108920000Y-103865000I140000J0D01*
G01*
X109260000Y-103865000D01*
G75*
G02*
X109400000Y-104005000I0J-140000D01*
G01*
X109400000Y-104285000D01*
G75*
G02*
X109260000Y-104425000I-140000J0D01*
G01*
G37*
G36*
G01*
X109260000Y-105385000D02*
X108920000Y-105385000D01*
G75*
G02*
X108780000Y-105245000I0J140000D01*
G01*
X108780000Y-104965000D01*
G75*
G02*
X108920000Y-104825000I140000J0D01*
G01*
X109260000Y-104825000D01*
G75*
G02*
X109400000Y-104965000I0J-140000D01*
G01*
X109400000Y-105245000D01*
G75*
G02*
X109260000Y-105385000I-140000J0D01*
G01*
G37*
D21*
X107310000Y-63995000D03*
X107310000Y-60795000D03*
X102410000Y-63995000D03*
X102410000Y-60795000D03*
X187400000Y-63925000D03*
X187400000Y-60725000D03*
X182500000Y-63925000D03*
X182500000Y-60725000D03*
X171370000Y-77675000D03*
X171370000Y-74475000D03*
X166470000Y-77675000D03*
X166470000Y-74475000D03*
X150540000Y-88155000D03*
X150540000Y-91355000D03*
X155440000Y-88155000D03*
X155440000Y-91355000D03*
X118480000Y-60795000D03*
X118480000Y-63995000D03*
X123380000Y-60795000D03*
X123380000Y-63995000D03*
X107310000Y-77695000D03*
X107310000Y-74495000D03*
X102410000Y-77695000D03*
X102410000Y-74495000D03*
X187360000Y-77685000D03*
X187360000Y-74485000D03*
X182460000Y-77685000D03*
X182460000Y-74485000D03*
X166480000Y-88235000D03*
X166480000Y-91435000D03*
X171380000Y-88235000D03*
X171380000Y-91435000D03*
X134520000Y-60805000D03*
X134520000Y-64005000D03*
X139420000Y-60805000D03*
X139420000Y-64005000D03*
X118470000Y-74505000D03*
X118470000Y-77705000D03*
X123370000Y-74505000D03*
X123370000Y-77705000D03*
X107310000Y-91405000D03*
X107310000Y-88205000D03*
X102410000Y-91405000D03*
X102410000Y-88205000D03*
X187360000Y-91425000D03*
X187360000Y-88225000D03*
X182460000Y-91425000D03*
X182460000Y-88225000D03*
X155490000Y-64025000D03*
X155490000Y-60825000D03*
X150590000Y-64025000D03*
X150590000Y-60825000D03*
X139450000Y-77705000D03*
X139450000Y-74505000D03*
X134550000Y-77705000D03*
X134550000Y-74505000D03*
X118480000Y-88225000D03*
X118480000Y-91425000D03*
X123380000Y-88225000D03*
X123380000Y-91425000D03*
X102420000Y-101935000D03*
X102420000Y-105135000D03*
X107320000Y-101935000D03*
X107320000Y-105135000D03*
X166630000Y-60835000D03*
X166630000Y-64035000D03*
X171530000Y-60835000D03*
X171530000Y-64035000D03*
X150540000Y-74565000D03*
X150540000Y-77765000D03*
X155440000Y-74565000D03*
X155440000Y-77765000D03*
X139440000Y-91415000D03*
X139440000Y-88215000D03*
X134540000Y-91415000D03*
X134540000Y-88215000D03*
X118480000Y-101925000D03*
X118480000Y-105125000D03*
X123380000Y-101925000D03*
X123380000Y-105125000D03*
G36*
G01*
X157760000Y-77885000D02*
X157420000Y-77885000D01*
G75*
G02*
X157280000Y-77745000I0J140000D01*
G01*
X157280000Y-77465000D01*
G75*
G02*
X157420000Y-77325000I140000J0D01*
G01*
X157760000Y-77325000D01*
G75*
G02*
X157900000Y-77465000I0J-140000D01*
G01*
X157900000Y-77745000D01*
G75*
G02*
X157760000Y-77885000I-140000J0D01*
G01*
G37*
G36*
G01*
X157760000Y-76925000D02*
X157420000Y-76925000D01*
G75*
G02*
X157280000Y-76785000I0J140000D01*
G01*
X157280000Y-76505000D01*
G75*
G02*
X157420000Y-76365000I140000J0D01*
G01*
X157760000Y-76365000D01*
G75*
G02*
X157900000Y-76505000I0J-140000D01*
G01*
X157900000Y-76785000D01*
G75*
G02*
X157760000Y-76925000I-140000J0D01*
G01*
G37*
G36*
G01*
X115250000Y-35685000D02*
X115250000Y-35345000D01*
G75*
G02*
X115390000Y-35205000I140000J0D01*
G01*
X115670000Y-35205000D01*
G75*
G02*
X115810000Y-35345000I0J-140000D01*
G01*
X115810000Y-35685000D01*
G75*
G02*
X115670000Y-35825000I-140000J0D01*
G01*
X115390000Y-35825000D01*
G75*
G02*
X115250000Y-35685000I0J140000D01*
G01*
G37*
G36*
G01*
X116210000Y-35685000D02*
X116210000Y-35345000D01*
G75*
G02*
X116350000Y-35205000I140000J0D01*
G01*
X116630000Y-35205000D01*
G75*
G02*
X116770000Y-35345000I0J-140000D01*
G01*
X116770000Y-35685000D01*
G75*
G02*
X116630000Y-35825000I-140000J0D01*
G01*
X116350000Y-35825000D01*
G75*
G02*
X116210000Y-35685000I0J140000D01*
G01*
G37*
D22*
X112090000Y-46085000D03*
X112090000Y-43985000D03*
D18*
X121540000Y-33725000D03*
D19*
X121540000Y-36525000D03*
D20*
X121540000Y-45925000D03*
X126090000Y-50025000D03*
D19*
X129140000Y-38425000D03*
D18*
X129140000Y-35625000D03*
X143390000Y-35625000D03*
D19*
X143390000Y-38425000D03*
D20*
X140340000Y-50025000D03*
X135790000Y-45925000D03*
D19*
X135790000Y-36525000D03*
D18*
X135790000Y-33725000D03*
G36*
G01*
X170005000Y-41445000D02*
X169635000Y-41445000D01*
G75*
G02*
X169500000Y-41310000I0J135000D01*
G01*
X169500000Y-41040000D01*
G75*
G02*
X169635000Y-40905000I135000J0D01*
G01*
X170005000Y-40905000D01*
G75*
G02*
X170140000Y-41040000I0J-135000D01*
G01*
X170140000Y-41310000D01*
G75*
G02*
X170005000Y-41445000I-135000J0D01*
G01*
G37*
G36*
G01*
X170005000Y-42465000D02*
X169635000Y-42465000D01*
G75*
G02*
X169500000Y-42330000I0J135000D01*
G01*
X169500000Y-42060000D01*
G75*
G02*
X169635000Y-41925000I135000J0D01*
G01*
X170005000Y-41925000D01*
G75*
G02*
X170140000Y-42060000I0J-135000D01*
G01*
X170140000Y-42330000D01*
G75*
G02*
X170005000Y-42465000I-135000J0D01*
G01*
G37*
G36*
G01*
X166905000Y-42365000D02*
X166535000Y-42365000D01*
G75*
G02*
X166400000Y-42230000I0J135000D01*
G01*
X166400000Y-41960000D01*
G75*
G02*
X166535000Y-41825000I135000J0D01*
G01*
X166905000Y-41825000D01*
G75*
G02*
X167040000Y-41960000I0J-135000D01*
G01*
X167040000Y-42230000D01*
G75*
G02*
X166905000Y-42365000I-135000J0D01*
G01*
G37*
G36*
G01*
X166905000Y-41345000D02*
X166535000Y-41345000D01*
G75*
G02*
X166400000Y-41210000I0J135000D01*
G01*
X166400000Y-40940000D01*
G75*
G02*
X166535000Y-40805000I135000J0D01*
G01*
X166905000Y-40805000D01*
G75*
G02*
X167040000Y-40940000I0J-135000D01*
G01*
X167040000Y-41210000D01*
G75*
G02*
X166905000Y-41345000I-135000J0D01*
G01*
G37*
G36*
G01*
X156585000Y-44905000D02*
X156215000Y-44905000D01*
G75*
G02*
X156080000Y-44770000I0J135000D01*
G01*
X156080000Y-44500000D01*
G75*
G02*
X156215000Y-44365000I135000J0D01*
G01*
X156585000Y-44365000D01*
G75*
G02*
X156720000Y-44500000I0J-135000D01*
G01*
X156720000Y-44770000D01*
G75*
G02*
X156585000Y-44905000I-135000J0D01*
G01*
G37*
G36*
G01*
X156585000Y-43885000D02*
X156215000Y-43885000D01*
G75*
G02*
X156080000Y-43750000I0J135000D01*
G01*
X156080000Y-43480000D01*
G75*
G02*
X156215000Y-43345000I135000J0D01*
G01*
X156585000Y-43345000D01*
G75*
G02*
X156720000Y-43480000I0J-135000D01*
G01*
X156720000Y-43750000D01*
G75*
G02*
X156585000Y-43885000I-135000J0D01*
G01*
G37*
G36*
G01*
X157195000Y-44355000D02*
X157565000Y-44355000D01*
G75*
G02*
X157700000Y-44490000I0J-135000D01*
G01*
X157700000Y-44760000D01*
G75*
G02*
X157565000Y-44895000I-135000J0D01*
G01*
X157195000Y-44895000D01*
G75*
G02*
X157060000Y-44760000I0J135000D01*
G01*
X157060000Y-44490000D01*
G75*
G02*
X157195000Y-44355000I135000J0D01*
G01*
G37*
G36*
G01*
X157195000Y-43335000D02*
X157565000Y-43335000D01*
G75*
G02*
X157700000Y-43470000I0J-135000D01*
G01*
X157700000Y-43740000D01*
G75*
G02*
X157565000Y-43875000I-135000J0D01*
G01*
X157195000Y-43875000D01*
G75*
G02*
X157060000Y-43740000I0J135000D01*
G01*
X157060000Y-43470000D01*
G75*
G02*
X157195000Y-43335000I135000J0D01*
G01*
G37*
G36*
G01*
X171105000Y-42465000D02*
X170735000Y-42465000D01*
G75*
G02*
X170600000Y-42330000I0J135000D01*
G01*
X170600000Y-42060000D01*
G75*
G02*
X170735000Y-41925000I135000J0D01*
G01*
X171105000Y-41925000D01*
G75*
G02*
X171240000Y-42060000I0J-135000D01*
G01*
X171240000Y-42330000D01*
G75*
G02*
X171105000Y-42465000I-135000J0D01*
G01*
G37*
G36*
G01*
X171105000Y-41445000D02*
X170735000Y-41445000D01*
G75*
G02*
X170600000Y-41310000I0J135000D01*
G01*
X170600000Y-41040000D01*
G75*
G02*
X170735000Y-40905000I135000J0D01*
G01*
X171105000Y-40905000D01*
G75*
G02*
X171240000Y-41040000I0J-135000D01*
G01*
X171240000Y-41310000D01*
G75*
G02*
X171105000Y-41445000I-135000J0D01*
G01*
G37*
G36*
G01*
X162720000Y-56570000D02*
X162720000Y-56200000D01*
G75*
G02*
X162855000Y-56065000I135000J0D01*
G01*
X163125000Y-56065000D01*
G75*
G02*
X163260000Y-56200000I0J-135000D01*
G01*
X163260000Y-56570000D01*
G75*
G02*
X163125000Y-56705000I-135000J0D01*
G01*
X162855000Y-56705000D01*
G75*
G02*
X162720000Y-56570000I0J135000D01*
G01*
G37*
G36*
G01*
X161700000Y-56570000D02*
X161700000Y-56200000D01*
G75*
G02*
X161835000Y-56065000I135000J0D01*
G01*
X162105000Y-56065000D01*
G75*
G02*
X162240000Y-56200000I0J-135000D01*
G01*
X162240000Y-56570000D01*
G75*
G02*
X162105000Y-56705000I-135000J0D01*
G01*
X161835000Y-56705000D01*
G75*
G02*
X161700000Y-56570000I0J135000D01*
G01*
G37*
G36*
G01*
X164959760Y-44223960D02*
X165329760Y-44223960D01*
G75*
G02*
X165464760Y-44358960I0J-135000D01*
G01*
X165464760Y-44628960D01*
G75*
G02*
X165329760Y-44763960I-135000J0D01*
G01*
X164959760Y-44763960D01*
G75*
G02*
X164824760Y-44628960I0J135000D01*
G01*
X164824760Y-44358960D01*
G75*
G02*
X164959760Y-44223960I135000J0D01*
G01*
G37*
G36*
G01*
X164959760Y-45243960D02*
X165329760Y-45243960D01*
G75*
G02*
X165464760Y-45378960I0J-135000D01*
G01*
X165464760Y-45648960D01*
G75*
G02*
X165329760Y-45783960I-135000J0D01*
G01*
X164959760Y-45783960D01*
G75*
G02*
X164824760Y-45648960I0J135000D01*
G01*
X164824760Y-45378960D01*
G75*
G02*
X164959760Y-45243960I135000J0D01*
G01*
G37*
G36*
G01*
X165995000Y-45243960D02*
X166365000Y-45243960D01*
G75*
G02*
X166500000Y-45378960I0J-135000D01*
G01*
X166500000Y-45648960D01*
G75*
G02*
X166365000Y-45783960I-135000J0D01*
G01*
X165995000Y-45783960D01*
G75*
G02*
X165860000Y-45648960I0J135000D01*
G01*
X165860000Y-45378960D01*
G75*
G02*
X165995000Y-45243960I135000J0D01*
G01*
G37*
G36*
G01*
X165995000Y-44223960D02*
X166365000Y-44223960D01*
G75*
G02*
X166500000Y-44358960I0J-135000D01*
G01*
X166500000Y-44628960D01*
G75*
G02*
X166365000Y-44763960I-135000J0D01*
G01*
X165995000Y-44763960D01*
G75*
G02*
X165860000Y-44628960I0J135000D01*
G01*
X165860000Y-44358960D01*
G75*
G02*
X165995000Y-44223960I135000J0D01*
G01*
G37*
G36*
G01*
X170005000Y-45265000D02*
X169635000Y-45265000D01*
G75*
G02*
X169500000Y-45130000I0J135000D01*
G01*
X169500000Y-44860000D01*
G75*
G02*
X169635000Y-44725000I135000J0D01*
G01*
X170005000Y-44725000D01*
G75*
G02*
X170140000Y-44860000I0J-135000D01*
G01*
X170140000Y-45130000D01*
G75*
G02*
X170005000Y-45265000I-135000J0D01*
G01*
G37*
G36*
G01*
X170005000Y-44245000D02*
X169635000Y-44245000D01*
G75*
G02*
X169500000Y-44110000I0J135000D01*
G01*
X169500000Y-43840000D01*
G75*
G02*
X169635000Y-43705000I135000J0D01*
G01*
X170005000Y-43705000D01*
G75*
G02*
X170140000Y-43840000I0J-135000D01*
G01*
X170140000Y-44110000D01*
G75*
G02*
X170005000Y-44245000I-135000J0D01*
G01*
G37*
G36*
G01*
X171435000Y-45125000D02*
X171805000Y-45125000D01*
G75*
G02*
X171940000Y-45260000I0J-135000D01*
G01*
X171940000Y-45530000D01*
G75*
G02*
X171805000Y-45665000I-135000J0D01*
G01*
X171435000Y-45665000D01*
G75*
G02*
X171300000Y-45530000I0J135000D01*
G01*
X171300000Y-45260000D01*
G75*
G02*
X171435000Y-45125000I135000J0D01*
G01*
G37*
G36*
G01*
X171435000Y-44105000D02*
X171805000Y-44105000D01*
G75*
G02*
X171940000Y-44240000I0J-135000D01*
G01*
X171940000Y-44510000D01*
G75*
G02*
X171805000Y-44645000I-135000J0D01*
G01*
X171435000Y-44645000D01*
G75*
G02*
X171300000Y-44510000I0J135000D01*
G01*
X171300000Y-44240000D01*
G75*
G02*
X171435000Y-44105000I135000J0D01*
G01*
G37*
G36*
G01*
X169800000Y-50100000D02*
X169800000Y-50470000D01*
G75*
G02*
X169665000Y-50605000I-135000J0D01*
G01*
X169395000Y-50605000D01*
G75*
G02*
X169260000Y-50470000I0J135000D01*
G01*
X169260000Y-50100000D01*
G75*
G02*
X169395000Y-49965000I135000J0D01*
G01*
X169665000Y-49965000D01*
G75*
G02*
X169800000Y-50100000I0J-135000D01*
G01*
G37*
G36*
G01*
X168780000Y-50100000D02*
X168780000Y-50470000D01*
G75*
G02*
X168645000Y-50605000I-135000J0D01*
G01*
X168375000Y-50605000D01*
G75*
G02*
X168240000Y-50470000I0J135000D01*
G01*
X168240000Y-50100000D01*
G75*
G02*
X168375000Y-49965000I135000J0D01*
G01*
X168645000Y-49965000D01*
G75*
G02*
X168780000Y-50100000I0J-135000D01*
G01*
G37*
G36*
G01*
X162405000Y-42365000D02*
X162035000Y-42365000D01*
G75*
G02*
X161900000Y-42230000I0J135000D01*
G01*
X161900000Y-41960000D01*
G75*
G02*
X162035000Y-41825000I135000J0D01*
G01*
X162405000Y-41825000D01*
G75*
G02*
X162540000Y-41960000I0J-135000D01*
G01*
X162540000Y-42230000D01*
G75*
G02*
X162405000Y-42365000I-135000J0D01*
G01*
G37*
G36*
G01*
X162405000Y-41345000D02*
X162035000Y-41345000D01*
G75*
G02*
X161900000Y-41210000I0J135000D01*
G01*
X161900000Y-40940000D01*
G75*
G02*
X162035000Y-40805000I135000J0D01*
G01*
X162405000Y-40805000D01*
G75*
G02*
X162540000Y-40940000I0J-135000D01*
G01*
X162540000Y-41210000D01*
G75*
G02*
X162405000Y-41345000I-135000J0D01*
G01*
G37*
G36*
G01*
X142510000Y-128600000D02*
X142510000Y-128230000D01*
G75*
G02*
X142645000Y-128095000I135000J0D01*
G01*
X142915000Y-128095000D01*
G75*
G02*
X143050000Y-128230000I0J-135000D01*
G01*
X143050000Y-128600000D01*
G75*
G02*
X142915000Y-128735000I-135000J0D01*
G01*
X142645000Y-128735000D01*
G75*
G02*
X142510000Y-128600000I0J135000D01*
G01*
G37*
G36*
G01*
X141490000Y-128600000D02*
X141490000Y-128230000D01*
G75*
G02*
X141625000Y-128095000I135000J0D01*
G01*
X141895000Y-128095000D01*
G75*
G02*
X142030000Y-128230000I0J-135000D01*
G01*
X142030000Y-128600000D01*
G75*
G02*
X141895000Y-128735000I-135000J0D01*
G01*
X141625000Y-128735000D01*
G75*
G02*
X141490000Y-128600000I0J135000D01*
G01*
G37*
G36*
G01*
X141490000Y-127600000D02*
X141490000Y-127230000D01*
G75*
G02*
X141625000Y-127095000I135000J0D01*
G01*
X141895000Y-127095000D01*
G75*
G02*
X142030000Y-127230000I0J-135000D01*
G01*
X142030000Y-127600000D01*
G75*
G02*
X141895000Y-127735000I-135000J0D01*
G01*
X141625000Y-127735000D01*
G75*
G02*
X141490000Y-127600000I0J135000D01*
G01*
G37*
G36*
G01*
X142510000Y-127600000D02*
X142510000Y-127230000D01*
G75*
G02*
X142645000Y-127095000I135000J0D01*
G01*
X142915000Y-127095000D01*
G75*
G02*
X143050000Y-127230000I0J-135000D01*
G01*
X143050000Y-127600000D01*
G75*
G02*
X142915000Y-127735000I-135000J0D01*
G01*
X142645000Y-127735000D01*
G75*
G02*
X142510000Y-127600000I0J135000D01*
G01*
G37*
G36*
G01*
X131010000Y-124500000D02*
X131010000Y-124130000D01*
G75*
G02*
X131145000Y-123995000I135000J0D01*
G01*
X131415000Y-123995000D01*
G75*
G02*
X131550000Y-124130000I0J-135000D01*
G01*
X131550000Y-124500000D01*
G75*
G02*
X131415000Y-124635000I-135000J0D01*
G01*
X131145000Y-124635000D01*
G75*
G02*
X131010000Y-124500000I0J135000D01*
G01*
G37*
G36*
G01*
X129990000Y-124500000D02*
X129990000Y-124130000D01*
G75*
G02*
X130125000Y-123995000I135000J0D01*
G01*
X130395000Y-123995000D01*
G75*
G02*
X130530000Y-124130000I0J-135000D01*
G01*
X130530000Y-124500000D01*
G75*
G02*
X130395000Y-124635000I-135000J0D01*
G01*
X130125000Y-124635000D01*
G75*
G02*
X129990000Y-124500000I0J135000D01*
G01*
G37*
G36*
G01*
X129990000Y-125500000D02*
X129990000Y-125130000D01*
G75*
G02*
X130125000Y-124995000I135000J0D01*
G01*
X130395000Y-124995000D01*
G75*
G02*
X130530000Y-125130000I0J-135000D01*
G01*
X130530000Y-125500000D01*
G75*
G02*
X130395000Y-125635000I-135000J0D01*
G01*
X130125000Y-125635000D01*
G75*
G02*
X129990000Y-125500000I0J135000D01*
G01*
G37*
G36*
G01*
X131010000Y-125500000D02*
X131010000Y-125130000D01*
G75*
G02*
X131145000Y-124995000I135000J0D01*
G01*
X131415000Y-124995000D01*
G75*
G02*
X131550000Y-125130000I0J-135000D01*
G01*
X131550000Y-125500000D01*
G75*
G02*
X131415000Y-125635000I-135000J0D01*
G01*
X131145000Y-125635000D01*
G75*
G02*
X131010000Y-125500000I0J135000D01*
G01*
G37*
G36*
G01*
X118425000Y-120315000D02*
X118055000Y-120315000D01*
G75*
G02*
X117920000Y-120180000I0J135000D01*
G01*
X117920000Y-119910000D01*
G75*
G02*
X118055000Y-119775000I135000J0D01*
G01*
X118425000Y-119775000D01*
G75*
G02*
X118560000Y-119910000I0J-135000D01*
G01*
X118560000Y-120180000D01*
G75*
G02*
X118425000Y-120315000I-135000J0D01*
G01*
G37*
G36*
G01*
X118425000Y-121335000D02*
X118055000Y-121335000D01*
G75*
G02*
X117920000Y-121200000I0J135000D01*
G01*
X117920000Y-120930000D01*
G75*
G02*
X118055000Y-120795000I135000J0D01*
G01*
X118425000Y-120795000D01*
G75*
G02*
X118560000Y-120930000I0J-135000D01*
G01*
X118560000Y-121200000D01*
G75*
G02*
X118425000Y-121335000I-135000J0D01*
G01*
G37*
G36*
G01*
X116675000Y-128855000D02*
X117045000Y-128855000D01*
G75*
G02*
X117180000Y-128990000I0J-135000D01*
G01*
X117180000Y-129260000D01*
G75*
G02*
X117045000Y-129395000I-135000J0D01*
G01*
X116675000Y-129395000D01*
G75*
G02*
X116540000Y-129260000I0J135000D01*
G01*
X116540000Y-128990000D01*
G75*
G02*
X116675000Y-128855000I135000J0D01*
G01*
G37*
G36*
G01*
X116675000Y-127835000D02*
X117045000Y-127835000D01*
G75*
G02*
X117180000Y-127970000I0J-135000D01*
G01*
X117180000Y-128240000D01*
G75*
G02*
X117045000Y-128375000I-135000J0D01*
G01*
X116675000Y-128375000D01*
G75*
G02*
X116540000Y-128240000I0J135000D01*
G01*
X116540000Y-127970000D01*
G75*
G02*
X116675000Y-127835000I135000J0D01*
G01*
G37*
G36*
G01*
X116045000Y-129395000D02*
X115675000Y-129395000D01*
G75*
G02*
X115540000Y-129260000I0J135000D01*
G01*
X115540000Y-128990000D01*
G75*
G02*
X115675000Y-128855000I135000J0D01*
G01*
X116045000Y-128855000D01*
G75*
G02*
X116180000Y-128990000I0J-135000D01*
G01*
X116180000Y-129260000D01*
G75*
G02*
X116045000Y-129395000I-135000J0D01*
G01*
G37*
G36*
G01*
X116045000Y-128375000D02*
X115675000Y-128375000D01*
G75*
G02*
X115540000Y-128240000I0J135000D01*
G01*
X115540000Y-127970000D01*
G75*
G02*
X115675000Y-127835000I135000J0D01*
G01*
X116045000Y-127835000D01*
G75*
G02*
X116180000Y-127970000I0J-135000D01*
G01*
X116180000Y-128240000D01*
G75*
G02*
X116045000Y-128375000I-135000J0D01*
G01*
G37*
G36*
G01*
X114675000Y-127835000D02*
X115045000Y-127835000D01*
G75*
G02*
X115180000Y-127970000I0J-135000D01*
G01*
X115180000Y-128240000D01*
G75*
G02*
X115045000Y-128375000I-135000J0D01*
G01*
X114675000Y-128375000D01*
G75*
G02*
X114540000Y-128240000I0J135000D01*
G01*
X114540000Y-127970000D01*
G75*
G02*
X114675000Y-127835000I135000J0D01*
G01*
G37*
G36*
G01*
X114675000Y-128855000D02*
X115045000Y-128855000D01*
G75*
G02*
X115180000Y-128990000I0J-135000D01*
G01*
X115180000Y-129260000D01*
G75*
G02*
X115045000Y-129395000I-135000J0D01*
G01*
X114675000Y-129395000D01*
G75*
G02*
X114540000Y-129260000I0J135000D01*
G01*
X114540000Y-128990000D01*
G75*
G02*
X114675000Y-128855000I135000J0D01*
G01*
G37*
G36*
G01*
X114045000Y-128375000D02*
X113675000Y-128375000D01*
G75*
G02*
X113540000Y-128240000I0J135000D01*
G01*
X113540000Y-127970000D01*
G75*
G02*
X113675000Y-127835000I135000J0D01*
G01*
X114045000Y-127835000D01*
G75*
G02*
X114180000Y-127970000I0J-135000D01*
G01*
X114180000Y-128240000D01*
G75*
G02*
X114045000Y-128375000I-135000J0D01*
G01*
G37*
G36*
G01*
X114045000Y-129395000D02*
X113675000Y-129395000D01*
G75*
G02*
X113540000Y-129260000I0J135000D01*
G01*
X113540000Y-128990000D01*
G75*
G02*
X113675000Y-128855000I135000J0D01*
G01*
X114045000Y-128855000D01*
G75*
G02*
X114180000Y-128990000I0J-135000D01*
G01*
X114180000Y-129260000D01*
G75*
G02*
X114045000Y-129395000I-135000J0D01*
G01*
G37*
G36*
G01*
X113980000Y-49280000D02*
X113980000Y-48910000D01*
G75*
G02*
X114115000Y-48775000I135000J0D01*
G01*
X114385000Y-48775000D01*
G75*
G02*
X114520000Y-48910000I0J-135000D01*
G01*
X114520000Y-49280000D01*
G75*
G02*
X114385000Y-49415000I-135000J0D01*
G01*
X114115000Y-49415000D01*
G75*
G02*
X113980000Y-49280000I0J135000D01*
G01*
G37*
G36*
G01*
X112960000Y-49280000D02*
X112960000Y-48910000D01*
G75*
G02*
X113095000Y-48775000I135000J0D01*
G01*
X113365000Y-48775000D01*
G75*
G02*
X113500000Y-48910000I0J-135000D01*
G01*
X113500000Y-49280000D01*
G75*
G02*
X113365000Y-49415000I-135000J0D01*
G01*
X113095000Y-49415000D01*
G75*
G02*
X112960000Y-49280000I0J135000D01*
G01*
G37*
G36*
G01*
X116800000Y-34130000D02*
X116800000Y-34500000D01*
G75*
G02*
X116665000Y-34635000I-135000J0D01*
G01*
X116395000Y-34635000D01*
G75*
G02*
X116260000Y-34500000I0J135000D01*
G01*
X116260000Y-34130000D01*
G75*
G02*
X116395000Y-33995000I135000J0D01*
G01*
X116665000Y-33995000D01*
G75*
G02*
X116800000Y-34130000I0J-135000D01*
G01*
G37*
G36*
G01*
X115780000Y-34130000D02*
X115780000Y-34500000D01*
G75*
G02*
X115645000Y-34635000I-135000J0D01*
G01*
X115375000Y-34635000D01*
G75*
G02*
X115240000Y-34500000I0J135000D01*
G01*
X115240000Y-34130000D01*
G75*
G02*
X115375000Y-33995000I135000J0D01*
G01*
X115645000Y-33995000D01*
G75*
G02*
X115780000Y-34130000I0J-135000D01*
G01*
G37*
G36*
G01*
X114635000Y-35785000D02*
X114265000Y-35785000D01*
G75*
G02*
X114130000Y-35650000I0J135000D01*
G01*
X114130000Y-35380000D01*
G75*
G02*
X114265000Y-35245000I135000J0D01*
G01*
X114635000Y-35245000D01*
G75*
G02*
X114770000Y-35380000I0J-135000D01*
G01*
X114770000Y-35650000D01*
G75*
G02*
X114635000Y-35785000I-135000J0D01*
G01*
G37*
G36*
G01*
X114635000Y-34765000D02*
X114265000Y-34765000D01*
G75*
G02*
X114130000Y-34630000I0J135000D01*
G01*
X114130000Y-34360000D01*
G75*
G02*
X114265000Y-34225000I135000J0D01*
G01*
X114635000Y-34225000D01*
G75*
G02*
X114770000Y-34360000I0J-135000D01*
G01*
X114770000Y-34630000D01*
G75*
G02*
X114635000Y-34765000I-135000J0D01*
G01*
G37*
G36*
G01*
X117390000Y-49260000D02*
X117390000Y-48890000D01*
G75*
G02*
X117525000Y-48755000I135000J0D01*
G01*
X117795000Y-48755000D01*
G75*
G02*
X117930000Y-48890000I0J-135000D01*
G01*
X117930000Y-49260000D01*
G75*
G02*
X117795000Y-49395000I-135000J0D01*
G01*
X117525000Y-49395000D01*
G75*
G02*
X117390000Y-49260000I0J135000D01*
G01*
G37*
G36*
G01*
X116370000Y-49260000D02*
X116370000Y-48890000D01*
G75*
G02*
X116505000Y-48755000I135000J0D01*
G01*
X116775000Y-48755000D01*
G75*
G02*
X116910000Y-48890000I0J-135000D01*
G01*
X116910000Y-49260000D01*
G75*
G02*
X116775000Y-49395000I-135000J0D01*
G01*
X116505000Y-49395000D01*
G75*
G02*
X116370000Y-49260000I0J135000D01*
G01*
G37*
D23*
X114310000Y-47155000D03*
X115580000Y-47155000D03*
X116850000Y-47155000D03*
X116850000Y-37655000D03*
X115580000Y-37655000D03*
X114310000Y-37655000D03*
G36*
G01*
X124590000Y-116824999D02*
X124250000Y-116824999D01*
G75*
G02*
X124110000Y-116684999I0J140000D01*
G01*
X124110000Y-116404999D01*
G75*
G02*
X124250000Y-116264999I140000J0D01*
G01*
X124590000Y-116264999D01*
G75*
G02*
X124730000Y-116404999I0J-140000D01*
G01*
X124730000Y-116684999D01*
G75*
G02*
X124590000Y-116824999I-140000J0D01*
G01*
G37*
G36*
G01*
X124590000Y-115864999D02*
X124250000Y-115864999D01*
G75*
G02*
X124110000Y-115724999I0J140000D01*
G01*
X124110000Y-115444999D01*
G75*
G02*
X124250000Y-115304999I140000J0D01*
G01*
X124590000Y-115304999D01*
G75*
G02*
X124730000Y-115444999I0J-140000D01*
G01*
X124730000Y-115724999D01*
G75*
G02*
X124590000Y-115864999I-140000J0D01*
G01*
G37*
G36*
G01*
X125460000Y-115420000D02*
X125960000Y-115420000D01*
G75*
G02*
X126185000Y-115645000I0J-225000D01*
G01*
X126185000Y-116095000D01*
G75*
G02*
X125960000Y-116320000I-225000J0D01*
G01*
X125460000Y-116320000D01*
G75*
G02*
X125235000Y-116095000I0J225000D01*
G01*
X125235000Y-115645000D01*
G75*
G02*
X125460000Y-115420000I225000J0D01*
G01*
G37*
G36*
G01*
X125460000Y-116970000D02*
X125960000Y-116970000D01*
G75*
G02*
X126185000Y-117195000I0J-225000D01*
G01*
X126185000Y-117645000D01*
G75*
G02*
X125960000Y-117870000I-225000J0D01*
G01*
X125460000Y-117870000D01*
G75*
G02*
X125235000Y-117645000I0J225000D01*
G01*
X125235000Y-117195000D01*
G75*
G02*
X125460000Y-116970000I225000J0D01*
G01*
G37*
D24*
X129574998Y-117909999D03*
X129574998Y-116959999D03*
X129574998Y-116009999D03*
X127374998Y-116009999D03*
X127374998Y-117909999D03*
G36*
G01*
X210660000Y-54690000D02*
X210160000Y-54690000D01*
G75*
G02*
X209935000Y-54465000I0J225000D01*
G01*
X209935000Y-54015000D01*
G75*
G02*
X210160000Y-53790000I225000J0D01*
G01*
X210660000Y-53790000D01*
G75*
G02*
X210885000Y-54015000I0J-225000D01*
G01*
X210885000Y-54465000D01*
G75*
G02*
X210660000Y-54690000I-225000J0D01*
G01*
G37*
G36*
G01*
X210660000Y-53140000D02*
X210160000Y-53140000D01*
G75*
G02*
X209935000Y-52915000I0J225000D01*
G01*
X209935000Y-52465000D01*
G75*
G02*
X210160000Y-52240000I225000J0D01*
G01*
X210660000Y-52240000D01*
G75*
G02*
X210885000Y-52465000I0J-225000D01*
G01*
X210885000Y-52915000D01*
G75*
G02*
X210660000Y-53140000I-225000J0D01*
G01*
G37*
G36*
G01*
X211550000Y-53355000D02*
X211890000Y-53355000D01*
G75*
G02*
X212030000Y-53495000I0J-140000D01*
G01*
X212030000Y-53775000D01*
G75*
G02*
X211890000Y-53915000I-140000J0D01*
G01*
X211550000Y-53915000D01*
G75*
G02*
X211410000Y-53775000I0J140000D01*
G01*
X211410000Y-53495000D01*
G75*
G02*
X211550000Y-53355000I140000J0D01*
G01*
G37*
G36*
G01*
X211550000Y-52395000D02*
X211890000Y-52395000D01*
G75*
G02*
X212030000Y-52535000I0J-140000D01*
G01*
X212030000Y-52815000D01*
G75*
G02*
X211890000Y-52955000I-140000J0D01*
G01*
X211550000Y-52955000D01*
G75*
G02*
X211410000Y-52815000I0J140000D01*
G01*
X211410000Y-52535000D01*
G75*
G02*
X211550000Y-52395000I140000J0D01*
G01*
G37*
G36*
G01*
X212610000Y-52395000D02*
X212950000Y-52395000D01*
G75*
G02*
X213090000Y-52535000I0J-140000D01*
G01*
X213090000Y-52815000D01*
G75*
G02*
X212950000Y-52955000I-140000J0D01*
G01*
X212610000Y-52955000D01*
G75*
G02*
X212470000Y-52815000I0J140000D01*
G01*
X212470000Y-52535000D01*
G75*
G02*
X212610000Y-52395000I140000J0D01*
G01*
G37*
G36*
G01*
X212610000Y-53355000D02*
X212950000Y-53355000D01*
G75*
G02*
X213090000Y-53495000I0J-140000D01*
G01*
X213090000Y-53775000D01*
G75*
G02*
X212950000Y-53915000I-140000J0D01*
G01*
X212610000Y-53915000D01*
G75*
G02*
X212470000Y-53775000I0J140000D01*
G01*
X212470000Y-53495000D01*
G75*
G02*
X212610000Y-53355000I140000J0D01*
G01*
G37*
G36*
G01*
X180460000Y-39605000D02*
X180120000Y-39605000D01*
G75*
G02*
X179980000Y-39465000I0J140000D01*
G01*
X179980000Y-39185000D01*
G75*
G02*
X180120000Y-39045000I140000J0D01*
G01*
X180460000Y-39045000D01*
G75*
G02*
X180600000Y-39185000I0J-140000D01*
G01*
X180600000Y-39465000D01*
G75*
G02*
X180460000Y-39605000I-140000J0D01*
G01*
G37*
G36*
G01*
X180460000Y-40565000D02*
X180120000Y-40565000D01*
G75*
G02*
X179980000Y-40425000I0J140000D01*
G01*
X179980000Y-40145000D01*
G75*
G02*
X180120000Y-40005000I140000J0D01*
G01*
X180460000Y-40005000D01*
G75*
G02*
X180600000Y-40145000I0J-140000D01*
G01*
X180600000Y-40425000D01*
G75*
G02*
X180460000Y-40565000I-140000J0D01*
G01*
G37*
G36*
G01*
X179380000Y-40565000D02*
X179040000Y-40565000D01*
G75*
G02*
X178900000Y-40425000I0J140000D01*
G01*
X178900000Y-40145000D01*
G75*
G02*
X179040000Y-40005000I140000J0D01*
G01*
X179380000Y-40005000D01*
G75*
G02*
X179520000Y-40145000I0J-140000D01*
G01*
X179520000Y-40425000D01*
G75*
G02*
X179380000Y-40565000I-140000J0D01*
G01*
G37*
G36*
G01*
X179380000Y-39605000D02*
X179040000Y-39605000D01*
G75*
G02*
X178900000Y-39465000I0J140000D01*
G01*
X178900000Y-39185000D01*
G75*
G02*
X179040000Y-39045000I140000J0D01*
G01*
X179380000Y-39045000D01*
G75*
G02*
X179520000Y-39185000I0J-140000D01*
G01*
X179520000Y-39465000D01*
G75*
G02*
X179380000Y-39605000I-140000J0D01*
G01*
G37*
G36*
G01*
X177530000Y-40680000D02*
X178030000Y-40680000D01*
G75*
G02*
X178255000Y-40905000I0J-225000D01*
G01*
X178255000Y-41355000D01*
G75*
G02*
X178030000Y-41580000I-225000J0D01*
G01*
X177530000Y-41580000D01*
G75*
G02*
X177305000Y-41355000I0J225000D01*
G01*
X177305000Y-40905000D01*
G75*
G02*
X177530000Y-40680000I225000J0D01*
G01*
G37*
G36*
G01*
X177530000Y-39130000D02*
X178030000Y-39130000D01*
G75*
G02*
X178255000Y-39355000I0J-225000D01*
G01*
X178255000Y-39805000D01*
G75*
G02*
X178030000Y-40030000I-225000J0D01*
G01*
X177530000Y-40030000D01*
G75*
G02*
X177305000Y-39805000I0J225000D01*
G01*
X177305000Y-39355000D01*
G75*
G02*
X177530000Y-39130000I225000J0D01*
G01*
G37*
D25*
X206430000Y-52800000D03*
X201350000Y-52800000D03*
D26*
X201115000Y-64375000D03*
X206665000Y-59525000D03*
X206665000Y-64375000D03*
X201115000Y-59525000D03*
D27*
X200140000Y-94755000D03*
X200140000Y-99795000D03*
X202680000Y-94755000D03*
X202680000Y-99795000D03*
X205220000Y-94755000D03*
X205220000Y-99795000D03*
X207760000Y-94755000D03*
X207760000Y-99795000D03*
X210300000Y-94755000D03*
X210300000Y-99795000D03*
X212840000Y-94755000D03*
X212840000Y-99795000D03*
G36*
G01*
X141810000Y-105395000D02*
X141470000Y-105395000D01*
G75*
G02*
X141330000Y-105255000I0J140000D01*
G01*
X141330000Y-104975000D01*
G75*
G02*
X141470000Y-104835000I140000J0D01*
G01*
X141810000Y-104835000D01*
G75*
G02*
X141950000Y-104975000I0J-140000D01*
G01*
X141950000Y-105255000D01*
G75*
G02*
X141810000Y-105395000I-140000J0D01*
G01*
G37*
G36*
G01*
X141810000Y-104435000D02*
X141470000Y-104435000D01*
G75*
G02*
X141330000Y-104295000I0J140000D01*
G01*
X141330000Y-104015000D01*
G75*
G02*
X141470000Y-103875000I140000J0D01*
G01*
X141810000Y-103875000D01*
G75*
G02*
X141950000Y-104015000I0J-140000D01*
G01*
X141950000Y-104295000D01*
G75*
G02*
X141810000Y-104435000I-140000J0D01*
G01*
G37*
G36*
G01*
X157890000Y-104475000D02*
X157550000Y-104475000D01*
G75*
G02*
X157410000Y-104335000I0J140000D01*
G01*
X157410000Y-104055000D01*
G75*
G02*
X157550000Y-103915000I140000J0D01*
G01*
X157890000Y-103915000D01*
G75*
G02*
X158030000Y-104055000I0J-140000D01*
G01*
X158030000Y-104335000D01*
G75*
G02*
X157890000Y-104475000I-140000J0D01*
G01*
G37*
G36*
G01*
X157890000Y-105435000D02*
X157550000Y-105435000D01*
G75*
G02*
X157410000Y-105295000I0J140000D01*
G01*
X157410000Y-105015000D01*
G75*
G02*
X157550000Y-104875000I140000J0D01*
G01*
X157890000Y-104875000D01*
G75*
G02*
X158030000Y-105015000I0J-140000D01*
G01*
X158030000Y-105295000D01*
G75*
G02*
X157890000Y-105435000I-140000J0D01*
G01*
G37*
G36*
G01*
X174410000Y-104375000D02*
X174070000Y-104375000D01*
G75*
G02*
X173930000Y-104235000I0J140000D01*
G01*
X173930000Y-103955000D01*
G75*
G02*
X174070000Y-103815000I140000J0D01*
G01*
X174410000Y-103815000D01*
G75*
G02*
X174550000Y-103955000I0J-140000D01*
G01*
X174550000Y-104235000D01*
G75*
G02*
X174410000Y-104375000I-140000J0D01*
G01*
G37*
G36*
G01*
X174410000Y-105335000D02*
X174070000Y-105335000D01*
G75*
G02*
X173930000Y-105195000I0J140000D01*
G01*
X173930000Y-104915000D01*
G75*
G02*
X174070000Y-104775000I140000J0D01*
G01*
X174410000Y-104775000D01*
G75*
G02*
X174550000Y-104915000I0J-140000D01*
G01*
X174550000Y-105195000D01*
G75*
G02*
X174410000Y-105335000I-140000J0D01*
G01*
G37*
G36*
G01*
X189860000Y-105865000D02*
X189520000Y-105865000D01*
G75*
G02*
X189380000Y-105725000I0J140000D01*
G01*
X189380000Y-105445000D01*
G75*
G02*
X189520000Y-105305000I140000J0D01*
G01*
X189860000Y-105305000D01*
G75*
G02*
X190000000Y-105445000I0J-140000D01*
G01*
X190000000Y-105725000D01*
G75*
G02*
X189860000Y-105865000I-140000J0D01*
G01*
G37*
G36*
G01*
X189860000Y-104905000D02*
X189520000Y-104905000D01*
G75*
G02*
X189380000Y-104765000I0J140000D01*
G01*
X189380000Y-104485000D01*
G75*
G02*
X189520000Y-104345000I140000J0D01*
G01*
X189860000Y-104345000D01*
G75*
G02*
X190000000Y-104485000I0J-140000D01*
G01*
X190000000Y-104765000D01*
G75*
G02*
X189860000Y-104905000I-140000J0D01*
G01*
G37*
D21*
X134540000Y-101925000D03*
X134540000Y-105125000D03*
X139440000Y-101925000D03*
X139440000Y-105125000D03*
X155440000Y-105125000D03*
X155440000Y-101925000D03*
X150540000Y-105125000D03*
X150540000Y-101925000D03*
X166640000Y-101825000D03*
X166640000Y-105025000D03*
X171540000Y-101825000D03*
X171540000Y-105025000D03*
X187340000Y-105225000D03*
X187340000Y-102025000D03*
X182440000Y-105225000D03*
X182440000Y-102025000D03*
D28*
X89240000Y-64925000D03*
X74940000Y-64925000D03*
X74940000Y-59925000D03*
X89240000Y-59925000D03*
X89240000Y-73625000D03*
X74940000Y-73625000D03*
X74940000Y-78625000D03*
X89240000Y-78625000D03*
X89240000Y-92325000D03*
X74940000Y-92325000D03*
X74940000Y-87325000D03*
X89240000Y-87325000D03*
X89240000Y-101025000D03*
X74940000Y-101025000D03*
X74940000Y-106025000D03*
X89240000Y-106025000D03*
G36*
G01*
X91005000Y-59105000D02*
X91375000Y-59105000D01*
G75*
G02*
X91510000Y-59240000I0J-135000D01*
G01*
X91510000Y-59510000D01*
G75*
G02*
X91375000Y-59645000I-135000J0D01*
G01*
X91005000Y-59645000D01*
G75*
G02*
X90870000Y-59510000I0J135000D01*
G01*
X90870000Y-59240000D01*
G75*
G02*
X91005000Y-59105000I135000J0D01*
G01*
G37*
G36*
G01*
X91005000Y-58085000D02*
X91375000Y-58085000D01*
G75*
G02*
X91510000Y-58220000I0J-135000D01*
G01*
X91510000Y-58490000D01*
G75*
G02*
X91375000Y-58625000I-135000J0D01*
G01*
X91005000Y-58625000D01*
G75*
G02*
X90870000Y-58490000I0J135000D01*
G01*
X90870000Y-58220000D01*
G75*
G02*
X91005000Y-58085000I135000J0D01*
G01*
G37*
G36*
G01*
X91095000Y-71785000D02*
X91465000Y-71785000D01*
G75*
G02*
X91600000Y-71920000I0J-135000D01*
G01*
X91600000Y-72190000D01*
G75*
G02*
X91465000Y-72325000I-135000J0D01*
G01*
X91095000Y-72325000D01*
G75*
G02*
X90960000Y-72190000I0J135000D01*
G01*
X90960000Y-71920000D01*
G75*
G02*
X91095000Y-71785000I135000J0D01*
G01*
G37*
G36*
G01*
X91095000Y-72805000D02*
X91465000Y-72805000D01*
G75*
G02*
X91600000Y-72940000I0J-135000D01*
G01*
X91600000Y-73210000D01*
G75*
G02*
X91465000Y-73345000I-135000J0D01*
G01*
X91095000Y-73345000D01*
G75*
G02*
X90960000Y-73210000I0J135000D01*
G01*
X90960000Y-72940000D01*
G75*
G02*
X91095000Y-72805000I135000J0D01*
G01*
G37*
G36*
G01*
X91025000Y-85495000D02*
X91395000Y-85495000D01*
G75*
G02*
X91530000Y-85630000I0J-135000D01*
G01*
X91530000Y-85900000D01*
G75*
G02*
X91395000Y-86035000I-135000J0D01*
G01*
X91025000Y-86035000D01*
G75*
G02*
X90890000Y-85900000I0J135000D01*
G01*
X90890000Y-85630000D01*
G75*
G02*
X91025000Y-85495000I135000J0D01*
G01*
G37*
G36*
G01*
X91025000Y-86515000D02*
X91395000Y-86515000D01*
G75*
G02*
X91530000Y-86650000I0J-135000D01*
G01*
X91530000Y-86920000D01*
G75*
G02*
X91395000Y-87055000I-135000J0D01*
G01*
X91025000Y-87055000D01*
G75*
G02*
X90890000Y-86920000I0J135000D01*
G01*
X90890000Y-86650000D01*
G75*
G02*
X91025000Y-86515000I135000J0D01*
G01*
G37*
G36*
G01*
X180015000Y-49125000D02*
X180385000Y-49125000D01*
G75*
G02*
X180520000Y-49260000I0J-135000D01*
G01*
X180520000Y-49530000D01*
G75*
G02*
X180385000Y-49665000I-135000J0D01*
G01*
X180015000Y-49665000D01*
G75*
G02*
X179880000Y-49530000I0J135000D01*
G01*
X179880000Y-49260000D01*
G75*
G02*
X180015000Y-49125000I135000J0D01*
G01*
G37*
G36*
G01*
X180015000Y-50145000D02*
X180385000Y-50145000D01*
G75*
G02*
X180520000Y-50280000I0J-135000D01*
G01*
X180520000Y-50550000D01*
G75*
G02*
X180385000Y-50685000I-135000J0D01*
G01*
X180015000Y-50685000D01*
G75*
G02*
X179880000Y-50550000I0J135000D01*
G01*
X179880000Y-50280000D01*
G75*
G02*
X180015000Y-50145000I135000J0D01*
G01*
G37*
G36*
G01*
X91095000Y-100195000D02*
X91465000Y-100195000D01*
G75*
G02*
X91600000Y-100330000I0J-135000D01*
G01*
X91600000Y-100600000D01*
G75*
G02*
X91465000Y-100735000I-135000J0D01*
G01*
X91095000Y-100735000D01*
G75*
G02*
X90960000Y-100600000I0J135000D01*
G01*
X90960000Y-100330000D01*
G75*
G02*
X91095000Y-100195000I135000J0D01*
G01*
G37*
G36*
G01*
X91095000Y-99175000D02*
X91465000Y-99175000D01*
G75*
G02*
X91600000Y-99310000I0J-135000D01*
G01*
X91600000Y-99580000D01*
G75*
G02*
X91465000Y-99715000I-135000J0D01*
G01*
X91095000Y-99715000D01*
G75*
G02*
X90960000Y-99580000I0J135000D01*
G01*
X90960000Y-99310000D01*
G75*
G02*
X91095000Y-99175000I135000J0D01*
G01*
G37*
G36*
G01*
X202865000Y-104315000D02*
X202495000Y-104315000D01*
G75*
G02*
X202360000Y-104180000I0J135000D01*
G01*
X202360000Y-103910000D01*
G75*
G02*
X202495000Y-103775000I135000J0D01*
G01*
X202865000Y-103775000D01*
G75*
G02*
X203000000Y-103910000I0J-135000D01*
G01*
X203000000Y-104180000D01*
G75*
G02*
X202865000Y-104315000I-135000J0D01*
G01*
G37*
G36*
G01*
X202865000Y-103295000D02*
X202495000Y-103295000D01*
G75*
G02*
X202360000Y-103160000I0J135000D01*
G01*
X202360000Y-102890000D01*
G75*
G02*
X202495000Y-102755000I135000J0D01*
G01*
X202865000Y-102755000D01*
G75*
G02*
X203000000Y-102890000I0J-135000D01*
G01*
X203000000Y-103160000D01*
G75*
G02*
X202865000Y-103295000I-135000J0D01*
G01*
G37*
G36*
G01*
X200325000Y-103295000D02*
X199955000Y-103295000D01*
G75*
G02*
X199820000Y-103160000I0J135000D01*
G01*
X199820000Y-102890000D01*
G75*
G02*
X199955000Y-102755000I135000J0D01*
G01*
X200325000Y-102755000D01*
G75*
G02*
X200460000Y-102890000I0J-135000D01*
G01*
X200460000Y-103160000D01*
G75*
G02*
X200325000Y-103295000I-135000J0D01*
G01*
G37*
G36*
G01*
X200325000Y-104315000D02*
X199955000Y-104315000D01*
G75*
G02*
X199820000Y-104180000I0J135000D01*
G01*
X199820000Y-103910000D01*
G75*
G02*
X199955000Y-103775000I135000J0D01*
G01*
X200325000Y-103775000D01*
G75*
G02*
X200460000Y-103910000I0J-135000D01*
G01*
X200460000Y-104180000D01*
G75*
G02*
X200325000Y-104315000I-135000J0D01*
G01*
G37*
G36*
G01*
X137230000Y-120150000D02*
X137230000Y-119780000D01*
G75*
G02*
X137365000Y-119645000I135000J0D01*
G01*
X137635000Y-119645000D01*
G75*
G02*
X137770000Y-119780000I0J-135000D01*
G01*
X137770000Y-120150000D01*
G75*
G02*
X137635000Y-120285000I-135000J0D01*
G01*
X137365000Y-120285000D01*
G75*
G02*
X137230000Y-120150000I0J135000D01*
G01*
G37*
G36*
G01*
X136210000Y-120150000D02*
X136210000Y-119780000D01*
G75*
G02*
X136345000Y-119645000I135000J0D01*
G01*
X136615000Y-119645000D01*
G75*
G02*
X136750000Y-119780000I0J-135000D01*
G01*
X136750000Y-120150000D01*
G75*
G02*
X136615000Y-120285000I-135000J0D01*
G01*
X136345000Y-120285000D01*
G75*
G02*
X136210000Y-120150000I0J135000D01*
G01*
G37*
M02*
