M48
; DRILL file {KiCad 5.1.9+dfsg1-1~bpo10+1} date Wed Nov  3 11:33:00 2021
; FORMAT={-:-/ absolute / metric / decimal}
; #@! TF.CreationDate,2021-11-03T11:33:00+01:00
; #@! TF.GenerationSoftware,Kicad,Pcbnew,5.1.9+dfsg1-1~bpo10+1
; #@! TF.FileFunction,NonPlated,1,2,NPTH
FMAT,2
METRIC
T1C0.650
T2C1.700
T3C2.000
T4C2.700
%
G90
G05
T1
X165.63Y-37.935
X171.41Y-37.935
T2
X97.43Y-121.375
X97.43Y-128.375
X97.59Y-37.625
X97.59Y-44.625
X125.34Y-37.625
X125.34Y-44.625
X139.59Y-37.625
X139.59Y-44.625
T3
X82.09Y-57.925
X82.09Y-66.925
X82.09Y-71.625
X82.09Y-80.625
X82.09Y-85.325
X82.09Y-94.325
X82.09Y-99.025
X82.09Y-108.025
T4
X85.69Y-45.325
X85.69Y-120.725
X95.79Y-54.525
X95.79Y-111.425
X193.89Y-54.525
X193.89Y-111.425
X203.99Y-45.325
X203.99Y-120.725
T0
M30
